%TF.GenerationSoftware,KiCad,Pcbnew,10.0.1*%
%TF.CreationDate,2026-05-15T00:00:32+01:00*%
%TF.ProjectId,FED3 tester - support,46454433-2074-4657-9374-6572202d2073,rev?*%
%TF.SameCoordinates,PX2ff8460PYa439040*%
%TF.FileFunction,Other,User*%
%FSLAX46Y46*%
G04 Gerber Fmt 4.6, Leading zero omitted, Abs format (unit mm)*
G04 Created by KiCad (PCBNEW 10.0.1) date 2026-05-15 00:00:32*
%MOMM*%
%LPD*%
G01*
G04 APERTURE LIST*
%ADD10C,0.050000*%
%TA.AperFunction,Profile*%
%ADD11C,0.250000*%
%TD*%
G04 APERTURE END LIST*
%TO.C,TP6*%
D10*
X35746756Y93347551D02*
G75*
G02*
X33305444Y93347551I-1220656J0D01*
G01*
X33305444Y93347551D02*
G75*
G02*
X35746756Y93347551I1220656J0D01*
G01*
%TO.C,TP3*%
X18421756Y109522551D02*
G75*
G02*
X15980444Y109522551I-1220656J0D01*
G01*
X15980444Y109522551D02*
G75*
G02*
X18421756Y109522551I1220656J0D01*
G01*
%TO.C,TP11*%
X19196756Y106572551D02*
G75*
G02*
X16755444Y106572551I-1220656J0D01*
G01*
X16755444Y106572551D02*
G75*
G02*
X19196756Y106572551I1220656J0D01*
G01*
%TO.C,TP12*%
X34471756Y101572551D02*
G75*
G02*
X32030444Y101572551I-1220656J0D01*
G01*
X32030444Y101572551D02*
G75*
G02*
X34471756Y101572551I1220656J0D01*
G01*
%TO.C,TP7*%
X98921756Y97447551D02*
G75*
G02*
X96480444Y97447551I-1220656J0D01*
G01*
X96480444Y97447551D02*
G75*
G02*
X98921756Y97447551I1220656J0D01*
G01*
%TO.C,TP10*%
X-2053244Y114797551D02*
G75*
G02*
X-4494556Y114797551I-1220656J0D01*
G01*
X-4494556Y114797551D02*
G75*
G02*
X-2053244Y114797551I1220656J0D01*
G01*
%TO.C,TP8*%
X76221756Y111547551D02*
G75*
G02*
X73780444Y111547551I-1220656J0D01*
G01*
X73780444Y111547551D02*
G75*
G02*
X76221756Y111547551I1220656J0D01*
G01*
%TO.C,TP9*%
X-1778244Y100447551D02*
G75*
G02*
X-4219556Y100447551I-1220656J0D01*
G01*
X-4219556Y100447551D02*
G75*
G02*
X-1778244Y100447551I1220656J0D01*
G01*
%TO.C,TP4*%
X6571756Y102697551D02*
G75*
G02*
X4130444Y102697551I-1220656J0D01*
G01*
X4130444Y102697551D02*
G75*
G02*
X6571756Y102697551I1220656J0D01*
G01*
%TO.C,TP2*%
X76421756Y86322551D02*
G75*
G02*
X73980444Y86322551I-1220656J0D01*
G01*
X73980444Y86322551D02*
G75*
G02*
X76421756Y86322551I1220656J0D01*
G01*
%TO.C,J2*%
X42069050Y90557808D02*
X42069050Y84467808D01*
X42069050Y84467808D02*
X50689050Y84467808D01*
X50689050Y90557808D02*
X42069050Y90557808D01*
X50689050Y84467808D02*
X50689050Y90557808D01*
%TO.C,TP5*%
X68921756Y125622551D02*
G75*
G02*
X66480444Y125622551I-1220656J0D01*
G01*
X66480444Y125622551D02*
G75*
G02*
X68921756Y125622551I1220656J0D01*
G01*
%TO.C,TP13*%
X39496756Y108397551D02*
G75*
G02*
X37055444Y108397551I-1220656J0D01*
G01*
X37055444Y108397551D02*
G75*
G02*
X39496756Y108397551I1220656J0D01*
G01*
%TD*%
D11*
X-5000000Y129343951D02*
X0Y134343951D01*
X-5000000Y106743951D02*
X-5000000Y129343951D01*
X-5000000Y100743951D02*
X-4720000Y101023951D01*
X-5000000Y98543951D02*
X-5000000Y100743951D01*
X-4720000Y106463951D02*
X-5000000Y106743951D01*
X-4720000Y101023951D02*
X-4720000Y106463951D01*
X-3600000Y97143951D02*
X-5000000Y98543951D01*
X-3600000Y87943951D02*
X-3600000Y97143951D01*
X0Y134343951D02*
X36000000Y134343951D01*
X0Y84343951D02*
X-3600000Y87943951D01*
X0Y84340000D02*
X0Y0D01*
X36000000Y134343951D02*
X62000000Y134343951D01*
X62000000Y134343951D02*
X98000000Y134343951D01*
X98000000Y134343951D02*
X103000000Y129343951D01*
X98000000Y84393951D02*
X98000000Y0D01*
X98000000Y0D02*
X0Y0D01*
X103000000Y129343951D02*
X103000000Y89393951D01*
X103000000Y89393951D02*
X98000000Y84393951D01*
M02*
