%TF.GenerationSoftware,KiCad,Pcbnew,10.0.1*%
%TF.CreationDate,2026-05-15T00:00:32+01:00*%
%TF.ProjectId,FED3 tester - support,46454433-2074-4657-9374-6572202d2073,rev?*%
%TF.SameCoordinates,PX2ff8460PYa439040*%
%TF.FileFunction,AssemblyDrawing,Top*%
%FSLAX46Y46*%
G04 Gerber Fmt 4.6, Leading zero omitted, Abs format (unit mm)*
G04 Created by KiCad (PCBNEW 10.0.1) date 2026-05-15 00:00:32*
%MOMM*%
%LPD*%
G01*
G04 APERTURE LIST*
%ADD10C,0.100000*%
%TA.AperFunction,Profile*%
%ADD11C,0.250000*%
%TD*%
G04 APERTURE END LIST*
D10*
X68077500Y58634451D02*
G75*
G02*
X67758500Y58634451I-159500J0D01*
G01*
X67758500Y58634451D02*
G75*
G02*
X68077500Y58634451I159500J0D01*
G01*
%TO.C,J2*%
X42569050Y90047808D02*
X50189050Y90047808D01*
X42569050Y86237808D02*
X42569050Y90047808D01*
X43839050Y84967808D02*
X42569050Y86237808D01*
X50189050Y90047808D02*
X50189050Y84967808D01*
X50189050Y84967808D02*
X43839050Y84967808D01*
%TD*%
D11*
X-5000000Y129343951D02*
X0Y134343951D01*
X-5000000Y106743951D02*
X-5000000Y129343951D01*
X-5000000Y100743951D02*
X-4720000Y101023951D01*
X-5000000Y98543951D02*
X-5000000Y100743951D01*
X-4720000Y106463951D02*
X-5000000Y106743951D01*
X-4720000Y101023951D02*
X-4720000Y106463951D01*
X-3600000Y97143951D02*
X-5000000Y98543951D01*
X-3600000Y87943951D02*
X-3600000Y97143951D01*
X0Y134343951D02*
X36000000Y134343951D01*
X0Y84343951D02*
X-3600000Y87943951D01*
X0Y84340000D02*
X0Y0D01*
X36000000Y134343951D02*
X62000000Y134343951D01*
X62000000Y134343951D02*
X98000000Y134343951D01*
X98000000Y134343951D02*
X103000000Y129343951D01*
X98000000Y84393951D02*
X98000000Y0D01*
X98000000Y0D02*
X0Y0D01*
X103000000Y129343951D02*
X103000000Y89393951D01*
X103000000Y89393951D02*
X98000000Y84393951D01*
M02*
