%TF.GenerationSoftware,KiCad,Pcbnew,10.0.1*%
%TF.CreationDate,2026-05-15T00:00:32+01:00*%
%TF.ProjectId,FED3 tester - support,46454433-2074-4657-9374-6572202d2073,rev?*%
%TF.SameCoordinates,PX2ff8460PYa439040*%
%TF.FileFunction,Legend,Top*%
%TF.FilePolarity,Positive*%
%FSLAX46Y46*%
G04 Gerber Fmt 4.6, Leading zero omitted, Abs format (unit mm)*
G04 Created by KiCad (PCBNEW 10.0.1) date 2026-05-15 00:00:32*
%MOMM*%
%LPD*%
G01*
G04 APERTURE LIST*
%ADD10C,0.700000*%
%ADD11C,0.300000*%
%ADD12C,0.100000*%
%ADD13C,0.328168*%
%ADD14C,2.950000*%
%ADD15C,2.500000*%
%ADD16R,2.200000X2.200000*%
%ADD17C,2.200000*%
%ADD18C,6.050000*%
%TA.AperFunction,Profile*%
%ADD19C,0.250000*%
%TD*%
G04 APERTURE END LIST*
D10*
X3741049Y127927902D02*
G75*
G02*
X-241049Y127927902I-1991049J0D01*
G01*
X-241049Y127927902D02*
G75*
G02*
X3741049Y127927902I1991049J0D01*
G01*
D11*
X5691049Y89318951D02*
G75*
G02*
X1708951Y89318951I-1991049J0D01*
G01*
X1708951Y89318951D02*
G75*
G02*
X5691049Y89318951I1991049J0D01*
G01*
D12*
X7651270Y115347551D02*
G75*
G02*
X2350930Y115347551I-2650170J0D01*
G01*
X2350930Y115347551D02*
G75*
G02*
X7651270Y115347551I2650170J0D01*
G01*
D10*
X7491049Y57810000D02*
G75*
G02*
X3508951Y57810000I-1991049J0D01*
G01*
X3508951Y57810000D02*
G75*
G02*
X7491049Y57810000I1991049J0D01*
G01*
X7521049Y5520000D02*
G75*
G02*
X3538951Y5520000I-1991049J0D01*
G01*
X3538951Y5520000D02*
G75*
G02*
X7521049Y5520000I1991049J0D01*
G01*
D11*
X22341049Y126943951D02*
G75*
G02*
X18358951Y126943951I-1991049J0D01*
G01*
X18358951Y126943951D02*
G75*
G02*
X22341049Y126943951I1991049J0D01*
G01*
D10*
X51391049Y97954606D02*
G75*
G02*
X47408951Y97954606I-1991049J0D01*
G01*
X47408951Y97954606D02*
G75*
G02*
X51391049Y97954606I1991049J0D01*
G01*
D11*
X52731049Y15700000D02*
G75*
G02*
X48748951Y15700000I-1991049J0D01*
G01*
X48748951Y15700000D02*
G75*
G02*
X52731049Y15700000I1991049J0D01*
G01*
X53091049Y74127902D02*
G75*
G02*
X49108951Y74127902I-1991049J0D01*
G01*
X49108951Y74127902D02*
G75*
G02*
X53091049Y74127902I1991049J0D01*
G01*
X77166049Y123168951D02*
G75*
G02*
X73183951Y123168951I-1991049J0D01*
G01*
X73183951Y123168951D02*
G75*
G02*
X77166049Y123168951I1991049J0D01*
G01*
D12*
X81651119Y98347551D02*
G75*
G02*
X76351081Y98347551I-2650019J0D01*
G01*
X76351081Y98347551D02*
G75*
G02*
X81651119Y98347551I2650019J0D01*
G01*
D11*
X93331049Y15700000D02*
G75*
G02*
X89348951Y15700000I-1991049J0D01*
G01*
X89348951Y15700000D02*
G75*
G02*
X93331049Y15700000I1991049J0D01*
G01*
D10*
X94491049Y57852902D02*
G75*
G02*
X90508951Y57852902I-1991049J0D01*
G01*
X90508951Y57852902D02*
G75*
G02*
X94491049Y57852902I1991049J0D01*
G01*
X94491049Y5520000D02*
G75*
G02*
X90508951Y5520000I-1991049J0D01*
G01*
X90508951Y5520000D02*
G75*
G02*
X94491049Y5520000I1991049J0D01*
G01*
D11*
X94641049Y78918951D02*
G75*
G02*
X90658951Y78918951I-1991049J0D01*
G01*
X90658951Y78918951D02*
G75*
G02*
X94641049Y78918951I1991049J0D01*
G01*
D10*
X98291049Y127927902D02*
G75*
G02*
X94308951Y127927902I-1991049J0D01*
G01*
X94308951Y127927902D02*
G75*
G02*
X98291049Y127927902I1991049J0D01*
G01*
D13*
X5853522Y20019021D02*
X5306576Y20019021D01*
X5306576Y19159533D02*
X5306576Y20800373D01*
X5306576Y20800373D02*
X6087928Y20800373D01*
X6713010Y20019021D02*
X7259956Y20019021D01*
X7494362Y19159533D02*
X6713010Y19159533D01*
X6713010Y19159533D02*
X6713010Y20800373D01*
X6713010Y20800373D02*
X7494362Y20800373D01*
X8197580Y19159533D02*
X8197580Y20800373D01*
X8197580Y20800373D02*
X8588256Y20800373D01*
X8588256Y20800373D02*
X8822662Y20722238D01*
X8822662Y20722238D02*
X8978932Y20565968D01*
X8978932Y20565968D02*
X9057067Y20409697D01*
X9057067Y20409697D02*
X9135203Y20097156D01*
X9135203Y20097156D02*
X9135203Y19862750D01*
X9135203Y19862750D02*
X9057067Y19550209D01*
X9057067Y19550209D02*
X8978932Y19393939D01*
X8978932Y19393939D02*
X8822662Y19237668D01*
X8822662Y19237668D02*
X8588256Y19159533D01*
X8588256Y19159533D02*
X8197580Y19159533D01*
X9682149Y20800373D02*
X10697907Y20800373D01*
X10697907Y20800373D02*
X10150961Y20175291D01*
X10150961Y20175291D02*
X10385366Y20175291D01*
X10385366Y20175291D02*
X10541637Y20097156D01*
X10541637Y20097156D02*
X10619772Y20019021D01*
X10619772Y20019021D02*
X10697907Y19862750D01*
X10697907Y19862750D02*
X10697907Y19472074D01*
X10697907Y19472074D02*
X10619772Y19315804D01*
X10619772Y19315804D02*
X10541637Y19237668D01*
X10541637Y19237668D02*
X10385366Y19159533D01*
X10385366Y19159533D02*
X9916555Y19159533D01*
X9916555Y19159533D02*
X9760284Y19237668D01*
X9760284Y19237668D02*
X9682149Y19315804D01*
X12416883Y20253427D02*
X13041965Y20253427D01*
X12651289Y20800373D02*
X12651289Y19393939D01*
X12651289Y19393939D02*
X12729424Y19237668D01*
X12729424Y19237668D02*
X12885694Y19159533D01*
X12885694Y19159533D02*
X13041965Y19159533D01*
X14213994Y19237668D02*
X14057723Y19159533D01*
X14057723Y19159533D02*
X13745182Y19159533D01*
X13745182Y19159533D02*
X13588912Y19237668D01*
X13588912Y19237668D02*
X13510776Y19393939D01*
X13510776Y19393939D02*
X13510776Y20019021D01*
X13510776Y20019021D02*
X13588912Y20175291D01*
X13588912Y20175291D02*
X13745182Y20253427D01*
X13745182Y20253427D02*
X14057723Y20253427D01*
X14057723Y20253427D02*
X14213994Y20175291D01*
X14213994Y20175291D02*
X14292129Y20019021D01*
X14292129Y20019021D02*
X14292129Y19862750D01*
X14292129Y19862750D02*
X13510776Y19706480D01*
X14917210Y19237668D02*
X15073481Y19159533D01*
X15073481Y19159533D02*
X15386022Y19159533D01*
X15386022Y19159533D02*
X15542292Y19237668D01*
X15542292Y19237668D02*
X15620428Y19393939D01*
X15620428Y19393939D02*
X15620428Y19472074D01*
X15620428Y19472074D02*
X15542292Y19628345D01*
X15542292Y19628345D02*
X15386022Y19706480D01*
X15386022Y19706480D02*
X15151616Y19706480D01*
X15151616Y19706480D02*
X14995346Y19784615D01*
X14995346Y19784615D02*
X14917210Y19940886D01*
X14917210Y19940886D02*
X14917210Y20019021D01*
X14917210Y20019021D02*
X14995346Y20175291D01*
X14995346Y20175291D02*
X15151616Y20253427D01*
X15151616Y20253427D02*
X15386022Y20253427D01*
X15386022Y20253427D02*
X15542292Y20175291D01*
X16089239Y20253427D02*
X16714321Y20253427D01*
X16323645Y20800373D02*
X16323645Y19393939D01*
X16323645Y19393939D02*
X16401780Y19237668D01*
X16401780Y19237668D02*
X16558050Y19159533D01*
X16558050Y19159533D02*
X16714321Y19159533D01*
X17886350Y19237668D02*
X17730079Y19159533D01*
X17730079Y19159533D02*
X17417538Y19159533D01*
X17417538Y19159533D02*
X17261268Y19237668D01*
X17261268Y19237668D02*
X17183132Y19393939D01*
X17183132Y19393939D02*
X17183132Y20019021D01*
X17183132Y20019021D02*
X17261268Y20175291D01*
X17261268Y20175291D02*
X17417538Y20253427D01*
X17417538Y20253427D02*
X17730079Y20253427D01*
X17730079Y20253427D02*
X17886350Y20175291D01*
X17886350Y20175291D02*
X17964485Y20019021D01*
X17964485Y20019021D02*
X17964485Y19862750D01*
X17964485Y19862750D02*
X17183132Y19706480D01*
X18667702Y19159533D02*
X18667702Y20253427D01*
X18667702Y19940886D02*
X18745837Y20097156D01*
X18745837Y20097156D02*
X18823972Y20175291D01*
X18823972Y20175291D02*
X18980243Y20253427D01*
X18980243Y20253427D02*
X19136513Y20253427D01*
X20933624Y19784615D02*
X22183788Y19784615D01*
X24137168Y19237668D02*
X24293439Y19159533D01*
X24293439Y19159533D02*
X24605980Y19159533D01*
X24605980Y19159533D02*
X24762250Y19237668D01*
X24762250Y19237668D02*
X24840386Y19393939D01*
X24840386Y19393939D02*
X24840386Y19472074D01*
X24840386Y19472074D02*
X24762250Y19628345D01*
X24762250Y19628345D02*
X24605980Y19706480D01*
X24605980Y19706480D02*
X24371574Y19706480D01*
X24371574Y19706480D02*
X24215304Y19784615D01*
X24215304Y19784615D02*
X24137168Y19940886D01*
X24137168Y19940886D02*
X24137168Y20019021D01*
X24137168Y20019021D02*
X24215304Y20175291D01*
X24215304Y20175291D02*
X24371574Y20253427D01*
X24371574Y20253427D02*
X24605980Y20253427D01*
X24605980Y20253427D02*
X24762250Y20175291D01*
X26246820Y20253427D02*
X26246820Y19159533D01*
X25543603Y20253427D02*
X25543603Y19393939D01*
X25543603Y19393939D02*
X25621738Y19237668D01*
X25621738Y19237668D02*
X25778008Y19159533D01*
X25778008Y19159533D02*
X26012414Y19159533D01*
X26012414Y19159533D02*
X26168685Y19237668D01*
X26168685Y19237668D02*
X26246820Y19315804D01*
X27028173Y20253427D02*
X27028173Y18612587D01*
X27028173Y20175291D02*
X27184443Y20253427D01*
X27184443Y20253427D02*
X27496984Y20253427D01*
X27496984Y20253427D02*
X27653255Y20175291D01*
X27653255Y20175291D02*
X27731390Y20097156D01*
X27731390Y20097156D02*
X27809525Y19940886D01*
X27809525Y19940886D02*
X27809525Y19472074D01*
X27809525Y19472074D02*
X27731390Y19315804D01*
X27731390Y19315804D02*
X27653255Y19237668D01*
X27653255Y19237668D02*
X27496984Y19159533D01*
X27496984Y19159533D02*
X27184443Y19159533D01*
X27184443Y19159533D02*
X27028173Y19237668D01*
X28512743Y20253427D02*
X28512743Y18612587D01*
X28512743Y20175291D02*
X28669013Y20253427D01*
X28669013Y20253427D02*
X28981554Y20253427D01*
X28981554Y20253427D02*
X29137825Y20175291D01*
X29137825Y20175291D02*
X29215960Y20097156D01*
X29215960Y20097156D02*
X29294095Y19940886D01*
X29294095Y19940886D02*
X29294095Y19472074D01*
X29294095Y19472074D02*
X29215960Y19315804D01*
X29215960Y19315804D02*
X29137825Y19237668D01*
X29137825Y19237668D02*
X28981554Y19159533D01*
X28981554Y19159533D02*
X28669013Y19159533D01*
X28669013Y19159533D02*
X28512743Y19237668D01*
X30231718Y19159533D02*
X30075448Y19237668D01*
X30075448Y19237668D02*
X29997313Y19315804D01*
X29997313Y19315804D02*
X29919177Y19472074D01*
X29919177Y19472074D02*
X29919177Y19940886D01*
X29919177Y19940886D02*
X29997313Y20097156D01*
X29997313Y20097156D02*
X30075448Y20175291D01*
X30075448Y20175291D02*
X30231718Y20253427D01*
X30231718Y20253427D02*
X30466124Y20253427D01*
X30466124Y20253427D02*
X30622395Y20175291D01*
X30622395Y20175291D02*
X30700530Y20097156D01*
X30700530Y20097156D02*
X30778665Y19940886D01*
X30778665Y19940886D02*
X30778665Y19472074D01*
X30778665Y19472074D02*
X30700530Y19315804D01*
X30700530Y19315804D02*
X30622395Y19237668D01*
X30622395Y19237668D02*
X30466124Y19159533D01*
X30466124Y19159533D02*
X30231718Y19159533D01*
X31481883Y19159533D02*
X31481883Y20253427D01*
X31481883Y19940886D02*
X31560018Y20097156D01*
X31560018Y20097156D02*
X31638153Y20175291D01*
X31638153Y20175291D02*
X31794424Y20253427D01*
X31794424Y20253427D02*
X31950694Y20253427D01*
X32263235Y20253427D02*
X32888317Y20253427D01*
X32497641Y20800373D02*
X32497641Y19393939D01*
X32497641Y19393939D02*
X32575776Y19237668D01*
X32575776Y19237668D02*
X32732046Y19159533D01*
X32732046Y19159533D02*
X32888317Y19159533D01*
X5306576Y16517872D02*
X5306576Y17611766D01*
X5306576Y17299225D02*
X5384711Y17455495D01*
X5384711Y17455495D02*
X5462846Y17533630D01*
X5462846Y17533630D02*
X5619117Y17611766D01*
X5619117Y17611766D02*
X5775387Y17611766D01*
X6947416Y16596007D02*
X6791145Y16517872D01*
X6791145Y16517872D02*
X6478604Y16517872D01*
X6478604Y16517872D02*
X6322334Y16596007D01*
X6322334Y16596007D02*
X6244198Y16752278D01*
X6244198Y16752278D02*
X6244198Y17377360D01*
X6244198Y17377360D02*
X6322334Y17533630D01*
X6322334Y17533630D02*
X6478604Y17611766D01*
X6478604Y17611766D02*
X6791145Y17611766D01*
X6791145Y17611766D02*
X6947416Y17533630D01*
X6947416Y17533630D02*
X7025551Y17377360D01*
X7025551Y17377360D02*
X7025551Y17221089D01*
X7025551Y17221089D02*
X6244198Y17064819D01*
X7572497Y17611766D02*
X7963173Y16517872D01*
X7963173Y16517872D02*
X8353850Y17611766D01*
X8978932Y16674143D02*
X9057067Y16596007D01*
X9057067Y16596007D02*
X8978932Y16517872D01*
X8978932Y16517872D02*
X8900796Y16596007D01*
X8900796Y16596007D02*
X8978932Y16674143D01*
X8978932Y16674143D02*
X8978932Y16517872D01*
X10307230Y17377360D02*
X10541636Y17299225D01*
X10541636Y17299225D02*
X10619771Y17221089D01*
X10619771Y17221089D02*
X10697907Y17064819D01*
X10697907Y17064819D02*
X10697907Y16830413D01*
X10697907Y16830413D02*
X10619771Y16674143D01*
X10619771Y16674143D02*
X10541636Y16596007D01*
X10541636Y16596007D02*
X10385366Y16517872D01*
X10385366Y16517872D02*
X9760284Y16517872D01*
X9760284Y16517872D02*
X9760284Y18158712D01*
X9760284Y18158712D02*
X10307230Y18158712D01*
X10307230Y18158712D02*
X10463501Y18080577D01*
X10463501Y18080577D02*
X10541636Y18002442D01*
X10541636Y18002442D02*
X10619771Y17846171D01*
X10619771Y17846171D02*
X10619771Y17689901D01*
X10619771Y17689901D02*
X10541636Y17533630D01*
X10541636Y17533630D02*
X10463501Y17455495D01*
X10463501Y17455495D02*
X10307230Y17377360D01*
X10307230Y17377360D02*
X9760284Y17377360D01*
%TO.C,TP6*%
D12*
X35941197Y93347551D02*
G75*
G02*
X33111003Y93347551I-1415097J0D01*
G01*
X33111003Y93347551D02*
G75*
G02*
X35941197Y93347551I1415097J0D01*
G01*
%TO.C,TP3*%
X18616197Y109522551D02*
G75*
G02*
X15786003Y109522551I-1415097J0D01*
G01*
X15786003Y109522551D02*
G75*
G02*
X18616197Y109522551I1415097J0D01*
G01*
%TO.C,TP11*%
X19391197Y106572551D02*
G75*
G02*
X16561003Y106572551I-1415097J0D01*
G01*
X16561003Y106572551D02*
G75*
G02*
X19391197Y106572551I1415097J0D01*
G01*
%TO.C,TP12*%
X34666197Y101572551D02*
G75*
G02*
X31836003Y101572551I-1415097J0D01*
G01*
X31836003Y101572551D02*
G75*
G02*
X34666197Y101572551I1415097J0D01*
G01*
%TO.C,TP7*%
X99116197Y97447551D02*
G75*
G02*
X96286003Y97447551I-1415097J0D01*
G01*
X96286003Y97447551D02*
G75*
G02*
X99116197Y97447551I1415097J0D01*
G01*
%TO.C,TP10*%
X-1858803Y114797551D02*
G75*
G02*
X-4688997Y114797551I-1415097J0D01*
G01*
X-4688997Y114797551D02*
G75*
G02*
X-1858803Y114797551I1415097J0D01*
G01*
%TO.C,TP8*%
X76416197Y111547551D02*
G75*
G02*
X73586003Y111547551I-1415097J0D01*
G01*
X73586003Y111547551D02*
G75*
G02*
X76416197Y111547551I1415097J0D01*
G01*
%TO.C,TP9*%
X-1583803Y100447551D02*
G75*
G02*
X-4413997Y100447551I-1415097J0D01*
G01*
X-4413997Y100447551D02*
G75*
G02*
X-1583803Y100447551I1415097J0D01*
G01*
%TO.C,TP4*%
X6766197Y102697551D02*
G75*
G02*
X3936003Y102697551I-1415097J0D01*
G01*
X3936003Y102697551D02*
G75*
G02*
X6766197Y102697551I1415097J0D01*
G01*
%TO.C,TP2*%
X76616197Y86322551D02*
G75*
G02*
X73786003Y86322551I-1415097J0D01*
G01*
X73786003Y86322551D02*
G75*
G02*
X76616197Y86322551I1415097J0D01*
G01*
%TO.C,J2*%
X42459050Y90157808D02*
X50299050Y90157808D01*
X42459050Y87507808D02*
X42459050Y90157808D01*
X42459050Y84857808D02*
X42459050Y86237808D01*
X43839050Y84857808D02*
X42459050Y84857808D01*
X45109050Y87507808D02*
X42459050Y87507808D01*
X45109050Y84857808D02*
X45109050Y87507808D01*
X45109050Y84857808D02*
X50299050Y84857808D01*
X50299050Y84857808D02*
X50299050Y90157808D01*
%TO.C,TP5*%
X69116197Y125622551D02*
G75*
G02*
X66286003Y125622551I-1415097J0D01*
G01*
X66286003Y125622551D02*
G75*
G02*
X69116197Y125622551I1415097J0D01*
G01*
%TO.C,TP13*%
X39691197Y108397551D02*
G75*
G02*
X36861003Y108397551I-1415097J0D01*
G01*
X36861003Y108397551D02*
G75*
G02*
X39691197Y108397551I1415097J0D01*
G01*
%TO.C,G\u002A\u002A\u002A*%
X9689789Y30997141D02*
X9673973Y30981325D01*
X9658157Y30997141D01*
X9673973Y31012956D01*
X9689789Y30997141D01*
G36*
X9689789Y30997141D02*
G01*
X9673973Y30981325D01*
X9658157Y30997141D01*
X9673973Y31012956D01*
X9689789Y30997141D01*
G37*
X11366252Y35773479D02*
X11366252Y34777091D01*
X9579079Y34777091D01*
X7791906Y34777091D01*
X7791906Y35773479D01*
X7791906Y36769868D01*
X9579079Y36769868D01*
X11366252Y36769868D01*
X11366252Y35773479D01*
G36*
X11366252Y35773479D02*
G01*
X11366252Y34777091D01*
X9579079Y34777091D01*
X7791906Y34777091D01*
X7791906Y35773479D01*
X7791906Y36769868D01*
X9579079Y36769868D01*
X11366252Y36769868D01*
X11366252Y35773479D01*
G37*
X6505857Y32161553D02*
X6584478Y32095437D01*
X6619401Y31983735D01*
X6621544Y31938374D01*
X6615797Y31848341D01*
X6590869Y31797987D01*
X6535237Y31764193D01*
X6534558Y31763892D01*
X6434240Y31708286D01*
X6376873Y31643185D01*
X6359808Y31606045D01*
X6316425Y31560919D01*
X6254742Y31554380D01*
X6204651Y31587408D01*
X6197905Y31600724D01*
X6181144Y31691931D01*
X6179966Y31816632D01*
X6192827Y31947421D01*
X6218184Y32056893D01*
X6224538Y32073624D01*
X6263760Y32147514D01*
X6313829Y32178019D01*
X6382333Y32183317D01*
X6505857Y32161553D01*
G36*
X6505857Y32161553D02*
G01*
X6584478Y32095437D01*
X6619401Y31983735D01*
X6621544Y31938374D01*
X6615797Y31848341D01*
X6590869Y31797987D01*
X6535237Y31764193D01*
X6534558Y31763892D01*
X6434240Y31708286D01*
X6376873Y31643185D01*
X6359808Y31606045D01*
X6316425Y31560919D01*
X6254742Y31554380D01*
X6204651Y31587408D01*
X6197905Y31600724D01*
X6181144Y31691931D01*
X6179966Y31816632D01*
X6192827Y31947421D01*
X6218184Y32056893D01*
X6224538Y32073624D01*
X6263760Y32147514D01*
X6313829Y32178019D01*
X6382333Y32183317D01*
X6505857Y32161553D01*
G37*
X7438306Y32040879D02*
X7513935Y31988264D01*
X7556140Y31891637D01*
X7570388Y31743686D01*
X7570486Y31726861D01*
X7558565Y31582198D01*
X7525647Y31471993D01*
X7475995Y31406690D01*
X7434259Y31393269D01*
X7396659Y31415847D01*
X7330928Y31475033D01*
X7249789Y31559132D01*
X7230449Y31580587D01*
X7151635Y31675522D01*
X7093067Y31758233D01*
X7065310Y31813481D01*
X7064384Y31820112D01*
X7081922Y31880724D01*
X7124662Y31957544D01*
X7129800Y31964923D01*
X7187605Y32027690D01*
X7258360Y32053341D01*
X7323786Y32056792D01*
X7438306Y32040879D01*
G36*
X7438306Y32040879D02*
G01*
X7513935Y31988264D01*
X7556140Y31891637D01*
X7570388Y31743686D01*
X7570486Y31726861D01*
X7558565Y31582198D01*
X7525647Y31471993D01*
X7475995Y31406690D01*
X7434259Y31393269D01*
X7396659Y31415847D01*
X7330928Y31475033D01*
X7249789Y31559132D01*
X7230449Y31580587D01*
X7151635Y31675522D01*
X7093067Y31758233D01*
X7065310Y31813481D01*
X7064384Y31820112D01*
X7081922Y31880724D01*
X7124662Y31957544D01*
X7129800Y31964923D01*
X7187605Y32027690D01*
X7258360Y32053341D01*
X7323786Y32056792D01*
X7438306Y32040879D01*
G37*
X8661785Y28464961D02*
X8855933Y28457774D01*
X9046880Y28446517D01*
X9224357Y28431664D01*
X9378092Y28413689D01*
X9497816Y28393067D01*
X9573257Y28370273D01*
X9594894Y28349625D01*
X9564648Y28342828D01*
X9479445Y28336720D01*
X9347591Y28331557D01*
X9177390Y28327594D01*
X8977147Y28325088D01*
X8772478Y28324289D01*
X8551849Y28325310D01*
X8353583Y28328185D01*
X8185984Y28332636D01*
X8057358Y28338380D01*
X7976009Y28345139D01*
X7950063Y28352047D01*
X7971817Y28392528D01*
X8002509Y28423218D01*
X8058601Y28443505D01*
X8162845Y28457349D01*
X8304971Y28465223D01*
X8474708Y28467602D01*
X8661785Y28464961D01*
G36*
X8661785Y28464961D02*
G01*
X8855933Y28457774D01*
X9046880Y28446517D01*
X9224357Y28431664D01*
X9378092Y28413689D01*
X9497816Y28393067D01*
X9573257Y28370273D01*
X9594894Y28349625D01*
X9564648Y28342828D01*
X9479445Y28336720D01*
X9347591Y28331557D01*
X9177390Y28327594D01*
X8977147Y28325088D01*
X8772478Y28324289D01*
X8551849Y28325310D01*
X8353583Y28328185D01*
X8185984Y28332636D01*
X8057358Y28338380D01*
X7976009Y28345139D01*
X7950063Y28352047D01*
X7971817Y28392528D01*
X8002509Y28423218D01*
X8058601Y28443505D01*
X8162845Y28457349D01*
X8304971Y28465223D01*
X8474708Y28467602D01*
X8661785Y28464961D01*
G37*
X9120424Y27248822D02*
X9120424Y27059034D01*
X8922728Y27056118D01*
X8825009Y27055096D01*
X8679094Y27054106D01*
X8500050Y27053226D01*
X8302943Y27052531D01*
X8151285Y27052176D01*
X7577538Y27051150D01*
X7572446Y26422464D01*
X7567355Y25793778D01*
X8233179Y25793778D01*
X8899004Y25793778D01*
X8899004Y25603990D01*
X8899004Y25414202D01*
X8238371Y25414202D01*
X7577738Y25414202D01*
X7572522Y24797390D01*
X7567307Y24180578D01*
X8343865Y24180578D01*
X9120424Y24180578D01*
X9120424Y24006605D01*
X9120424Y23832633D01*
X8155667Y23832633D01*
X7190909Y23832633D01*
X7190909Y25635621D01*
X7190909Y27438610D01*
X8155667Y27438610D01*
X9120424Y27438610D01*
X9120424Y27248822D01*
G36*
X9120424Y27248822D02*
G01*
X9120424Y27059034D01*
X8922728Y27056118D01*
X8825009Y27055096D01*
X8679094Y27054106D01*
X8500050Y27053226D01*
X8302943Y27052531D01*
X8151285Y27052176D01*
X7577538Y27051150D01*
X7572446Y26422464D01*
X7567355Y25793778D01*
X8233179Y25793778D01*
X8899004Y25793778D01*
X8899004Y25603990D01*
X8899004Y25414202D01*
X8238371Y25414202D01*
X7577738Y25414202D01*
X7572522Y24797390D01*
X7567307Y24180578D01*
X8343865Y24180578D01*
X9120424Y24180578D01*
X9120424Y24006605D01*
X9120424Y23832633D01*
X8155667Y23832633D01*
X7190909Y23832633D01*
X7190909Y25635621D01*
X7190909Y27438610D01*
X8155667Y27438610D01*
X9120424Y27438610D01*
X9120424Y27248822D01*
G37*
X6748080Y27240914D02*
X6748090Y27043218D01*
X5992407Y27049567D01*
X5236724Y27055916D01*
X5231702Y26409032D01*
X5226679Y25762147D01*
X5908296Y25762147D01*
X6589913Y25762147D01*
X6589913Y25572359D01*
X6589913Y25382570D01*
X5913353Y25382570D01*
X5678611Y25381724D01*
X5500968Y25378945D01*
X5374278Y25373873D01*
X5292398Y25366148D01*
X5249183Y25355411D01*
X5238261Y25343031D01*
X5238472Y25301256D01*
X5238264Y25205643D01*
X5237679Y25065614D01*
X5236760Y24890593D01*
X5235549Y24690002D01*
X5234747Y24568062D01*
X5229764Y23832633D01*
X5039975Y23832633D01*
X4850187Y23832633D01*
X4850187Y25635621D01*
X4850187Y27438610D01*
X5799129Y27438610D01*
X6748070Y27438610D01*
X6748080Y27240914D01*
G36*
X6748080Y27240914D02*
G01*
X6748090Y27043218D01*
X5992407Y27049567D01*
X5236724Y27055916D01*
X5231702Y26409032D01*
X5226679Y25762147D01*
X5908296Y25762147D01*
X6589913Y25762147D01*
X6589913Y25572359D01*
X6589913Y25382570D01*
X5913353Y25382570D01*
X5678611Y25381724D01*
X5500968Y25378945D01*
X5374278Y25373873D01*
X5292398Y25366148D01*
X5249183Y25355411D01*
X5238261Y25343031D01*
X5238472Y25301256D01*
X5238264Y25205643D01*
X5237679Y25065614D01*
X5236760Y24890593D01*
X5235549Y24690002D01*
X5234747Y24568062D01*
X5229764Y23832633D01*
X5039975Y23832633D01*
X4850187Y23832633D01*
X4850187Y25635621D01*
X4850187Y27438610D01*
X5799129Y27438610D01*
X6748070Y27438610D01*
X6748080Y27240914D01*
G37*
X6932889Y31607018D02*
X7038037Y31587725D01*
X7089289Y31554597D01*
X7096015Y31531185D01*
X7121364Y31492327D01*
X7142819Y31487427D01*
X7191446Y31458961D01*
X7240776Y31385109D01*
X7283136Y31283191D01*
X7310853Y31170528D01*
X7317435Y31093295D01*
X7306500Y30993909D01*
X7270477Y30950902D01*
X7204538Y30962049D01*
X7129519Y31006708D01*
X7073383Y31034062D01*
X6991614Y31050804D01*
X6870495Y31058874D01*
X6749942Y31060403D01*
X6607446Y31057596D01*
X6479994Y31050078D01*
X6387056Y31039209D01*
X6360586Y31033251D01*
X6303236Y31019671D01*
X6279003Y31037630D01*
X6273655Y31101527D01*
X6273599Y31121253D01*
X6285602Y31230938D01*
X6316577Y31335014D01*
X6358976Y31415534D01*
X6405247Y31454552D01*
X6414326Y31455796D01*
X6457303Y31479850D01*
X6463388Y31502130D01*
X6493108Y31559495D01*
X6580625Y31596709D01*
X6723476Y31612876D01*
X6769714Y31613521D01*
X6932889Y31607018D01*
G36*
X6932889Y31607018D02*
G01*
X7038037Y31587725D01*
X7089289Y31554597D01*
X7096015Y31531185D01*
X7121364Y31492327D01*
X7142819Y31487427D01*
X7191446Y31458961D01*
X7240776Y31385109D01*
X7283136Y31283191D01*
X7310853Y31170528D01*
X7317435Y31093295D01*
X7306500Y30993909D01*
X7270477Y30950902D01*
X7204538Y30962049D01*
X7129519Y31006708D01*
X7073383Y31034062D01*
X6991614Y31050804D01*
X6870495Y31058874D01*
X6749942Y31060403D01*
X6607446Y31057596D01*
X6479994Y31050078D01*
X6387056Y31039209D01*
X6360586Y31033251D01*
X6303236Y31019671D01*
X6279003Y31037630D01*
X6273655Y31101527D01*
X6273599Y31121253D01*
X6285602Y31230938D01*
X6316577Y31335014D01*
X6358976Y31415534D01*
X6405247Y31454552D01*
X6414326Y31455796D01*
X6457303Y31479850D01*
X6463388Y31502130D01*
X6493108Y31559495D01*
X6580625Y31596709D01*
X6723476Y31612876D01*
X6769714Y31613521D01*
X6932889Y31607018D01*
G37*
X6944003Y30914621D02*
X7024287Y30901455D01*
X7100673Y30874846D01*
X7183064Y30836539D01*
X7411684Y30689901D01*
X7604987Y30490833D01*
X7762882Y30239452D01*
X7885275Y29935878D01*
X7887817Y29927821D01*
X7926379Y29752510D01*
X7948084Y29540499D01*
X7952965Y29312914D01*
X7941059Y29090881D01*
X7912398Y28895526D01*
X7885966Y28796285D01*
X7831434Y28652230D01*
X7769828Y28517559D01*
X7707965Y28404621D01*
X7652663Y28325763D01*
X7610738Y28293332D01*
X7608158Y28293113D01*
X7580864Y28276627D01*
X7584380Y28264135D01*
X7575707Y28222817D01*
X7524442Y28158959D01*
X7442110Y28082789D01*
X7340234Y28004536D01*
X7230335Y27934431D01*
X7186343Y27910776D01*
X7086316Y27864193D01*
X6998762Y27836459D01*
X6900497Y27822964D01*
X6768340Y27819099D01*
X6725248Y27819104D01*
X6584715Y27821634D01*
X6483373Y27831903D01*
X6397183Y27855597D01*
X6302109Y27898400D01*
X6229383Y27936375D01*
X6123725Y27998345D01*
X6042141Y28056742D01*
X5999597Y28100602D01*
X5997131Y28106506D01*
X5957874Y28160874D01*
X5930637Y28174665D01*
X5880466Y28213339D01*
X5816152Y28298348D01*
X5745193Y28416578D01*
X5675088Y28554919D01*
X5613335Y28700257D01*
X5586021Y28777279D01*
X5550361Y28902876D01*
X5528357Y29027908D01*
X5517295Y29174044D01*
X5514446Y29348642D01*
X5537766Y29700170D01*
X5606850Y30015077D01*
X5720387Y30290603D01*
X5877064Y30523992D01*
X6075571Y30712486D01*
X6203365Y30796746D01*
X6295522Y30846252D01*
X6376178Y30878038D01*
X6465614Y30896918D01*
X6584112Y30907706D01*
X6692777Y30912923D01*
X6840081Y30917418D01*
X6944003Y30914621D01*
G36*
X6944003Y30914621D02*
G01*
X7024287Y30901455D01*
X7100673Y30874846D01*
X7183064Y30836539D01*
X7411684Y30689901D01*
X7604987Y30490833D01*
X7762882Y30239452D01*
X7885275Y29935878D01*
X7887817Y29927821D01*
X7926379Y29752510D01*
X7948084Y29540499D01*
X7952965Y29312914D01*
X7941059Y29090881D01*
X7912398Y28895526D01*
X7885966Y28796285D01*
X7831434Y28652230D01*
X7769828Y28517559D01*
X7707965Y28404621D01*
X7652663Y28325763D01*
X7610738Y28293332D01*
X7608158Y28293113D01*
X7580864Y28276627D01*
X7584380Y28264135D01*
X7575707Y28222817D01*
X7524442Y28158959D01*
X7442110Y28082789D01*
X7340234Y28004536D01*
X7230335Y27934431D01*
X7186343Y27910776D01*
X7086316Y27864193D01*
X6998762Y27836459D01*
X6900497Y27822964D01*
X6768340Y27819099D01*
X6725248Y27819104D01*
X6584715Y27821634D01*
X6483373Y27831903D01*
X6397183Y27855597D01*
X6302109Y27898400D01*
X6229383Y27936375D01*
X6123725Y27998345D01*
X6042141Y28056742D01*
X5999597Y28100602D01*
X5997131Y28106506D01*
X5957874Y28160874D01*
X5930637Y28174665D01*
X5880466Y28213339D01*
X5816152Y28298348D01*
X5745193Y28416578D01*
X5675088Y28554919D01*
X5613335Y28700257D01*
X5586021Y28777279D01*
X5550361Y28902876D01*
X5528357Y29027908D01*
X5517295Y29174044D01*
X5514446Y29348642D01*
X5537766Y29700170D01*
X5606850Y30015077D01*
X5720387Y30290603D01*
X5877064Y30523992D01*
X6075571Y30712486D01*
X6203365Y30796746D01*
X6295522Y30846252D01*
X6376178Y30878038D01*
X6465614Y30896918D01*
X6584112Y30907706D01*
X6692777Y30912923D01*
X6840081Y30917418D01*
X6944003Y30914621D01*
G37*
X10330324Y27430511D02*
X10571657Y27424178D01*
X10759702Y27417117D01*
X10904432Y27408433D01*
X11015823Y27397232D01*
X11103848Y27382620D01*
X11178482Y27363703D01*
X11218078Y27350918D01*
X11383937Y27277566D01*
X11504316Y27189668D01*
X11570694Y27093594D01*
X11573589Y27085203D01*
X11602868Y27046447D01*
X11626468Y27047646D01*
X11645832Y27048854D01*
X11639490Y27034475D01*
X11638017Y26991532D01*
X11647564Y26982038D01*
X11675586Y26942919D01*
X11698473Y26861360D01*
X11716419Y26734218D01*
X11729619Y26558351D01*
X11738268Y26330618D01*
X11742561Y26047876D01*
X11742693Y25706983D01*
X11740899Y25477464D01*
X11737538Y25171644D01*
X11733525Y24921962D01*
X11727601Y24721299D01*
X11718506Y24562532D01*
X11704981Y24438543D01*
X11685768Y24342209D01*
X11659606Y24266410D01*
X11625237Y24204024D01*
X11581401Y24147932D01*
X11526840Y24091012D01*
X11489233Y24054279D01*
X11414368Y23988676D01*
X11334913Y23937163D01*
X11242323Y23898109D01*
X11128052Y23869884D01*
X10983556Y23850857D01*
X10800289Y23839397D01*
X10569706Y23833876D01*
X10327544Y23832633D01*
X9626526Y23832633D01*
X9626526Y24208276D01*
X10004354Y24208276D01*
X10517010Y24214643D01*
X11029666Y24221011D01*
X11147733Y24337903D01*
X11209259Y24404622D01*
X11258188Y24474843D01*
X11295927Y24556505D01*
X11323879Y24657547D01*
X11343452Y24785910D01*
X11356049Y24949532D01*
X11363077Y25156352D01*
X11365941Y25414311D01*
X11366252Y25572290D01*
X11364497Y25884558D01*
X11358781Y26140217D01*
X11348423Y26345836D01*
X11332744Y26507985D01*
X11311065Y26633232D01*
X11282705Y26728146D01*
X11246985Y26799296D01*
X11237930Y26812609D01*
X11195480Y26881484D01*
X11176530Y26931378D01*
X11176464Y26933094D01*
X11156565Y26951764D01*
X11140034Y26945358D01*
X11092889Y26947123D01*
X11068863Y26967215D01*
X11051655Y26986828D01*
X11029003Y27001565D01*
X10991626Y27012634D01*
X10930247Y27021239D01*
X10835585Y27028588D01*
X10698360Y27035886D01*
X10509293Y27044340D01*
X10458691Y27046523D01*
X10009786Y27065857D01*
X10007070Y25637067D01*
X10004354Y24208276D01*
X9626526Y24208276D01*
X9626526Y25639701D01*
X9626526Y27446769D01*
X10330324Y27430511D01*
G36*
X10330324Y27430511D02*
G01*
X10571657Y27424178D01*
X10759702Y27417117D01*
X10904432Y27408433D01*
X11015823Y27397232D01*
X11103848Y27382620D01*
X11178482Y27363703D01*
X11218078Y27350918D01*
X11383937Y27277566D01*
X11504316Y27189668D01*
X11570694Y27093594D01*
X11573589Y27085203D01*
X11602868Y27046447D01*
X11626468Y27047646D01*
X11645832Y27048854D01*
X11639490Y27034475D01*
X11638017Y26991532D01*
X11647564Y26982038D01*
X11675586Y26942919D01*
X11698473Y26861360D01*
X11716419Y26734218D01*
X11729619Y26558351D01*
X11738268Y26330618D01*
X11742561Y26047876D01*
X11742693Y25706983D01*
X11740899Y25477464D01*
X11737538Y25171644D01*
X11733525Y24921962D01*
X11727601Y24721299D01*
X11718506Y24562532D01*
X11704981Y24438543D01*
X11685768Y24342209D01*
X11659606Y24266410D01*
X11625237Y24204024D01*
X11581401Y24147932D01*
X11526840Y24091012D01*
X11489233Y24054279D01*
X11414368Y23988676D01*
X11334913Y23937163D01*
X11242323Y23898109D01*
X11128052Y23869884D01*
X10983556Y23850857D01*
X10800289Y23839397D01*
X10569706Y23833876D01*
X10327544Y23832633D01*
X9626526Y23832633D01*
X9626526Y24208276D01*
X10004354Y24208276D01*
X10517010Y24214643D01*
X11029666Y24221011D01*
X11147733Y24337903D01*
X11209259Y24404622D01*
X11258188Y24474843D01*
X11295927Y24556505D01*
X11323879Y24657547D01*
X11343452Y24785910D01*
X11356049Y24949532D01*
X11363077Y25156352D01*
X11365941Y25414311D01*
X11366252Y25572290D01*
X11364497Y25884558D01*
X11358781Y26140217D01*
X11348423Y26345836D01*
X11332744Y26507985D01*
X11311065Y26633232D01*
X11282705Y26728146D01*
X11246985Y26799296D01*
X11237930Y26812609D01*
X11195480Y26881484D01*
X11176530Y26931378D01*
X11176464Y26933094D01*
X11156565Y26951764D01*
X11140034Y26945358D01*
X11092889Y26947123D01*
X11068863Y26967215D01*
X11051655Y26986828D01*
X11029003Y27001565D01*
X10991626Y27012634D01*
X10930247Y27021239D01*
X10835585Y27028588D01*
X10698360Y27035886D01*
X10509293Y27044340D01*
X10458691Y27046523D01*
X10009786Y27065857D01*
X10007070Y25637067D01*
X10004354Y24208276D01*
X9626526Y24208276D01*
X9626526Y25639701D01*
X9626526Y27446769D01*
X10330324Y27430511D01*
G37*
X13409874Y27449355D02*
X13578323Y27405797D01*
X13629569Y27383125D01*
X13778301Y27285248D01*
X13899474Y27164304D01*
X13978250Y27036095D01*
X13991719Y26997430D01*
X14003418Y26923881D01*
X14013147Y26802906D01*
X14019992Y26650331D01*
X14023038Y26481984D01*
X14023112Y26454479D01*
X14023288Y26023897D01*
X13925765Y25900930D01*
X13853579Y25819544D01*
X13783991Y25756150D01*
X13759701Y25739544D01*
X13721463Y25711121D01*
X13728271Y25700005D01*
X13792725Y25673176D01*
X13872743Y25605894D01*
X13953646Y25513274D01*
X14020759Y25410430D01*
X14033114Y25386052D01*
X14061911Y25318118D01*
X14081529Y25247956D01*
X14093661Y25161565D01*
X14100000Y25044944D01*
X14102238Y24884091D01*
X14102366Y24813205D01*
X14101414Y24636280D01*
X14097351Y24508819D01*
X14088368Y24417037D01*
X14072655Y24347149D01*
X14048402Y24285369D01*
X14027626Y24243841D01*
X13931910Y24085869D01*
X13827704Y23971338D01*
X13702834Y23893529D01*
X13545130Y23845724D01*
X13342419Y23821203D01*
X13253734Y23816694D01*
X13101514Y23813818D01*
X12958622Y23816099D01*
X12846224Y23822982D01*
X12805480Y23828451D01*
X12650294Y23874160D01*
X12517159Y23944154D01*
X12419928Y24029183D01*
X12373039Y24117201D01*
X12339984Y24179623D01*
X12323448Y24196279D01*
X12294931Y24246556D01*
X12266256Y24340760D01*
X12241554Y24459699D01*
X12224960Y24584182D01*
X12220299Y24675182D01*
X12220299Y24781574D01*
X12408868Y24781574D01*
X12597437Y24781574D01*
X12631368Y24647141D01*
X12665616Y24531313D01*
X12711693Y24421281D01*
X12772147Y24304650D01*
X12828841Y24257167D01*
X12929884Y24220755D01*
X13056857Y24198589D01*
X13191340Y24193844D01*
X13314916Y24209694D01*
X13318268Y24210522D01*
X13453392Y24256847D01*
X13549249Y24325942D01*
X13627183Y24435040D01*
X13650603Y24478819D01*
X13681615Y24550461D01*
X13699106Y24626713D01*
X13705305Y24725967D01*
X13702443Y24866617D01*
X13701209Y24896143D01*
X13690821Y25053915D01*
X13674572Y25160244D01*
X13650244Y25226844D01*
X13634420Y25248835D01*
X13592909Y25308142D01*
X13580449Y25345522D01*
X13555861Y25380402D01*
X13543400Y25382570D01*
X13492797Y25402132D01*
X13449321Y25434182D01*
X13375001Y25469678D01*
X13246572Y25494396D01*
X13170055Y25501695D01*
X12947821Y25517596D01*
X12947821Y25698628D01*
X12947821Y25879660D01*
X13137416Y25899477D01*
X13314325Y25926402D01*
X13439992Y25968054D01*
X13525834Y26030451D01*
X13583268Y26119610D01*
X13591365Y26138702D01*
X13633708Y26312144D01*
X13639381Y26513809D01*
X13608222Y26720255D01*
X13595702Y26766378D01*
X13523156Y26914458D01*
X13412394Y27017259D01*
X13272658Y27071332D01*
X13113190Y27073229D01*
X12943233Y27019502D01*
X12932005Y27013984D01*
X12851212Y26971135D01*
X12804534Y26941876D01*
X12800152Y26933497D01*
X12802450Y26909541D01*
X12775817Y26851079D01*
X12763268Y26829706D01*
X12712769Y26723779D01*
X12678561Y26610776D01*
X12678090Y26608286D01*
X12656098Y26489669D01*
X12449715Y26489669D01*
X12243332Y26489669D01*
X12263620Y26637686D01*
X12316342Y26889767D01*
X12400385Y27090131D01*
X12519569Y27244035D01*
X12677714Y27356735D01*
X12832211Y27419934D01*
X13014137Y27457471D01*
X13214252Y27466928D01*
X13409874Y27449355D01*
G36*
X13409874Y27449355D02*
G01*
X13578323Y27405797D01*
X13629569Y27383125D01*
X13778301Y27285248D01*
X13899474Y27164304D01*
X13978250Y27036095D01*
X13991719Y26997430D01*
X14003418Y26923881D01*
X14013147Y26802906D01*
X14019992Y26650331D01*
X14023038Y26481984D01*
X14023112Y26454479D01*
X14023288Y26023897D01*
X13925765Y25900930D01*
X13853579Y25819544D01*
X13783991Y25756150D01*
X13759701Y25739544D01*
X13721463Y25711121D01*
X13728271Y25700005D01*
X13792725Y25673176D01*
X13872743Y25605894D01*
X13953646Y25513274D01*
X14020759Y25410430D01*
X14033114Y25386052D01*
X14061911Y25318118D01*
X14081529Y25247956D01*
X14093661Y25161565D01*
X14100000Y25044944D01*
X14102238Y24884091D01*
X14102366Y24813205D01*
X14101414Y24636280D01*
X14097351Y24508819D01*
X14088368Y24417037D01*
X14072655Y24347149D01*
X14048402Y24285369D01*
X14027626Y24243841D01*
X13931910Y24085869D01*
X13827704Y23971338D01*
X13702834Y23893529D01*
X13545130Y23845724D01*
X13342419Y23821203D01*
X13253734Y23816694D01*
X13101514Y23813818D01*
X12958622Y23816099D01*
X12846224Y23822982D01*
X12805480Y23828451D01*
X12650294Y23874160D01*
X12517159Y23944154D01*
X12419928Y24029183D01*
X12373039Y24117201D01*
X12339984Y24179623D01*
X12323448Y24196279D01*
X12294931Y24246556D01*
X12266256Y24340760D01*
X12241554Y24459699D01*
X12224960Y24584182D01*
X12220299Y24675182D01*
X12220299Y24781574D01*
X12408868Y24781574D01*
X12597437Y24781574D01*
X12631368Y24647141D01*
X12665616Y24531313D01*
X12711693Y24421281D01*
X12772147Y24304650D01*
X12828841Y24257167D01*
X12929884Y24220755D01*
X13056857Y24198589D01*
X13191340Y24193844D01*
X13314916Y24209694D01*
X13318268Y24210522D01*
X13453392Y24256847D01*
X13549249Y24325942D01*
X13627183Y24435040D01*
X13650603Y24478819D01*
X13681615Y24550461D01*
X13699106Y24626713D01*
X13705305Y24725967D01*
X13702443Y24866617D01*
X13701209Y24896143D01*
X13690821Y25053915D01*
X13674572Y25160244D01*
X13650244Y25226844D01*
X13634420Y25248835D01*
X13592909Y25308142D01*
X13580449Y25345522D01*
X13555861Y25380402D01*
X13543400Y25382570D01*
X13492797Y25402132D01*
X13449321Y25434182D01*
X13375001Y25469678D01*
X13246572Y25494396D01*
X13170055Y25501695D01*
X12947821Y25517596D01*
X12947821Y25698628D01*
X12947821Y25879660D01*
X13137416Y25899477D01*
X13314325Y25926402D01*
X13439992Y25968054D01*
X13525834Y26030451D01*
X13583268Y26119610D01*
X13591365Y26138702D01*
X13633708Y26312144D01*
X13639381Y26513809D01*
X13608222Y26720255D01*
X13595702Y26766378D01*
X13523156Y26914458D01*
X13412394Y27017259D01*
X13272658Y27071332D01*
X13113190Y27073229D01*
X12943233Y27019502D01*
X12932005Y27013984D01*
X12851212Y26971135D01*
X12804534Y26941876D01*
X12800152Y26933497D01*
X12802450Y26909541D01*
X12775817Y26851079D01*
X12763268Y26829706D01*
X12712769Y26723779D01*
X12678561Y26610776D01*
X12678090Y26608286D01*
X12656098Y26489669D01*
X12449715Y26489669D01*
X12243332Y26489669D01*
X12263620Y26637686D01*
X12316342Y26889767D01*
X12400385Y27090131D01*
X12519569Y27244035D01*
X12677714Y27356735D01*
X12832211Y27419934D01*
X13014137Y27457471D01*
X13214252Y27466928D01*
X13409874Y27449355D01*
G37*
X11650934Y35868374D02*
X11650934Y34650565D01*
X13026899Y34650565D01*
X14402865Y34650565D01*
X14402865Y31487427D01*
X14402865Y28324289D01*
X12362640Y28324289D01*
X12009792Y28324688D01*
X11676275Y28325838D01*
X11367362Y28327673D01*
X11088326Y28330122D01*
X10844440Y28333119D01*
X10640978Y28336594D01*
X10483211Y28340479D01*
X10376414Y28344706D01*
X10325859Y28349206D01*
X10322416Y28350746D01*
X10350549Y28366964D01*
X10423837Y28392173D01*
X10525616Y28421934D01*
X10639220Y28451804D01*
X10747986Y28477344D01*
X10835248Y28494112D01*
X10875965Y28498261D01*
X10920758Y28518601D01*
X10962952Y28553616D01*
X11030776Y28597321D01*
X11080456Y28608971D01*
X11142106Y28634563D01*
X11180063Y28678960D01*
X11202966Y28725707D01*
X11191513Y28730106D01*
X11137064Y28696232D01*
X11053667Y28660234D01*
X10911248Y28621627D01*
X10713950Y28581285D01*
X10465917Y28540080D01*
X10250332Y28509304D01*
X10080613Y28495392D01*
X9883222Y28493252D01*
X9674929Y28501655D01*
X9472506Y28519371D01*
X9292723Y28545170D01*
X9152350Y28577823D01*
X9110094Y28592902D01*
X8998943Y28625742D01*
X8884552Y28640536D01*
X8878150Y28640603D01*
X8798538Y28643805D01*
X8674477Y28652471D01*
X8524403Y28665191D01*
X8399160Y28677223D01*
X8037950Y28713843D01*
X8058409Y28890735D01*
X8081406Y29100007D01*
X8095361Y29261656D01*
X8100321Y29390663D01*
X8096336Y29502011D01*
X8083453Y29610681D01*
X8061720Y29731655D01*
X8061128Y29734642D01*
X8028720Y29878224D01*
X7991193Y30014957D01*
X7955471Y30120206D01*
X7947496Y30139015D01*
X7901983Y30273034D01*
X7894571Y30345628D01*
X8831599Y30345628D01*
X9499901Y30350606D01*
X10168203Y30355585D01*
X10161070Y30712511D01*
X10153938Y31069438D01*
X9500098Y31074309D01*
X8846257Y31079179D01*
X8838928Y30712404D01*
X8831599Y30345628D01*
X7894571Y30345628D01*
X7889857Y30391800D01*
X7911724Y30480013D01*
X7932991Y30505812D01*
X7972714Y30557552D01*
X8027727Y30653799D01*
X8090784Y30779949D01*
X8154636Y30921398D01*
X8212038Y31063540D01*
X8218899Y31081991D01*
X8244300Y31167156D01*
X8258920Y31263594D01*
X8264084Y31387637D01*
X8261117Y31555619D01*
X8259961Y31588093D01*
X8257777Y31631633D01*
X10682267Y31631633D01*
X10687246Y31352664D01*
X10696269Y31288935D01*
X10745369Y31076093D01*
X10816530Y30872105D01*
X10902475Y30694219D01*
X10995928Y30559686D01*
X11010514Y30543930D01*
X11067801Y30475778D01*
X11095997Y30423539D01*
X11095633Y30409126D01*
X11102976Y30382666D01*
X11119242Y30379329D01*
X11171794Y30357912D01*
X11239285Y30308054D01*
X11300255Y30248600D01*
X11333246Y30198395D01*
X11334620Y30190191D01*
X11351440Y30167824D01*
X11360579Y30171219D01*
X11401511Y30166407D01*
X11471641Y30134713D01*
X11495012Y30121191D01*
X11565594Y30087681D01*
X11677545Y30044363D01*
X11811146Y29997881D01*
X11946682Y29954884D01*
X12064435Y29922017D01*
X12125627Y29908613D01*
X12161207Y29915268D01*
X12243261Y29935404D01*
X12357354Y29965399D01*
X12423657Y29983442D01*
X12549891Y30015792D01*
X12653080Y30037801D01*
X12718195Y30046475D01*
X12731840Y30044838D01*
X12756672Y30051802D01*
X12758033Y30061336D01*
X12782891Y30096681D01*
X12840613Y30135789D01*
X12905915Y30165259D01*
X12953517Y30171691D01*
X12959626Y30168191D01*
X12977736Y30172910D01*
X12979452Y30186786D01*
X13003099Y30234208D01*
X13059749Y30294697D01*
X13127968Y30349089D01*
X13186320Y30378222D01*
X13194831Y30379329D01*
X13221930Y30396611D01*
X13218264Y30409410D01*
X13223740Y30451422D01*
X13252578Y30490779D01*
X13362222Y30631042D01*
X13462951Y30815925D01*
X13547705Y31026813D01*
X13609425Y31245089D01*
X13641051Y31452137D01*
X13643711Y31522150D01*
X13633807Y31636993D01*
X13606837Y31780158D01*
X13566921Y31939149D01*
X13518176Y32101467D01*
X13464719Y32254618D01*
X13410669Y32386104D01*
X13360142Y32483428D01*
X13317258Y32534094D01*
X13309053Y32537795D01*
X13271760Y32564670D01*
X13207352Y32625981D01*
X13132726Y32705235D01*
X13053747Y32787482D01*
X12985858Y32848322D01*
X12945466Y32873791D01*
X12883198Y32902437D01*
X12852927Y32924070D01*
X12799488Y32956478D01*
X12708155Y33000711D01*
X12615691Y33040196D01*
X12428604Y33093378D01*
X12219403Y33116744D01*
X12003964Y33111811D01*
X11798164Y33080092D01*
X11617879Y33023103D01*
X11478984Y32942359D01*
X11465022Y32930399D01*
X11402348Y32887565D01*
X11367886Y32873791D01*
X11317527Y32844226D01*
X11254611Y32785555D01*
X11246456Y32776406D01*
X11186912Y32718720D01*
X11138947Y32690103D01*
X11133705Y32689420D01*
X11090296Y32664605D01*
X11065347Y32630559D01*
X11029419Y32569533D01*
X10974370Y32482723D01*
X10946567Y32440498D01*
X10816116Y32194819D01*
X10726620Y31918774D01*
X10682267Y31631633D01*
X8257777Y31631633D01*
X8251434Y31758083D01*
X8236800Y31889473D01*
X8210486Y32003046D01*
X8166915Y32119579D01*
X8100511Y32259852D01*
X8056506Y32346355D01*
X8024800Y32424301D01*
X8013325Y32480788D01*
X7989306Y32524637D01*
X7965878Y32531263D01*
X7921114Y32556754D01*
X7913894Y32628694D01*
X7914685Y32634065D01*
X7892807Y32655231D01*
X7872556Y32657788D01*
X7816446Y32681953D01*
X7801385Y32699713D01*
X7751003Y32746677D01*
X7720735Y32761983D01*
X7673876Y32802815D01*
X7665380Y32832635D01*
X7649208Y32865594D01*
X7628950Y32860426D01*
X7582802Y32862887D01*
X7557779Y32884951D01*
X7509386Y32919063D01*
X7415583Y32962685D01*
X7292422Y33010354D01*
X7155959Y33056605D01*
X7022248Y33095974D01*
X6907342Y33122997D01*
X6831158Y33132259D01*
X6735027Y33120252D01*
X6617103Y33089725D01*
X6558282Y33068996D01*
X6456008Y33033048D01*
X6369524Y33010129D01*
X6335691Y33005733D01*
X6261960Y32985588D01*
X6218244Y32957743D01*
X6080997Y32842346D01*
X5985607Y32770666D01*
X5929797Y32741091D01*
X5914390Y32742858D01*
X5897275Y32735744D01*
X5894023Y32710507D01*
X5870008Y32665305D01*
X5844709Y32657788D01*
X5811124Y32643649D01*
X5813289Y32628835D01*
X5806730Y32588106D01*
X5767724Y32524462D01*
X5756343Y32510217D01*
X5662594Y32377115D01*
X5582293Y32214848D01*
X5511039Y32012568D01*
X5444433Y31759432D01*
X5434984Y31718234D01*
X5412285Y31613017D01*
X5401135Y31533072D01*
X5402718Y31459013D01*
X5418218Y31371455D01*
X5448819Y31251011D01*
X5467810Y31180998D01*
X5512429Y31032387D01*
X5561828Y30891734D01*
X5608212Y30780383D01*
X5628165Y30741808D01*
X5685002Y30627483D01*
X5699170Y30536210D01*
X5671062Y30444696D01*
X5634288Y30380329D01*
X5575789Y30276276D01*
X5525603Y30169355D01*
X5521423Y30158909D01*
X5462558Y30002962D01*
X5422353Y29877818D01*
X5397207Y29763460D01*
X5383522Y29639872D01*
X5377698Y29487037D01*
X5376373Y29352309D01*
X5376256Y29182082D01*
X5379696Y29057528D01*
X5389596Y28961060D01*
X5408860Y28875092D01*
X5440391Y28782038D01*
X5487092Y28664311D01*
X5491897Y28652497D01*
X5541838Y28527881D01*
X5581223Y28426007D01*
X5604864Y28360497D01*
X5609340Y28344091D01*
X5579474Y28337405D01*
X5496935Y28331683D01*
X5372308Y28327340D01*
X5216180Y28324789D01*
X5103238Y28324289D01*
X4597136Y28324289D01*
X4597136Y31487427D01*
X4597136Y34617554D01*
X7694906Y34617554D01*
X9579072Y34619678D01*
X11463239Y34621802D01*
X11459948Y35741852D01*
X11456657Y36861901D01*
X9579085Y36864018D01*
X7701513Y36866135D01*
X7698210Y35741844D01*
X7694906Y34617554D01*
X4597136Y34617554D01*
X4597136Y34650565D01*
X6012640Y34655548D01*
X6306789Y34656549D01*
X6582001Y34657418D01*
X6831708Y34658139D01*
X7049343Y34658697D01*
X7228336Y34659075D01*
X7362119Y34659259D01*
X7444124Y34659231D01*
X7467684Y34659063D01*
X7478180Y34671572D01*
X7486774Y34713169D01*
X7493625Y34788683D01*
X7498888Y34902937D01*
X7502722Y35060759D01*
X7505284Y35266975D01*
X7506731Y35526412D01*
X7507221Y35843894D01*
X7507223Y35871888D01*
X7507223Y37086182D01*
X9579079Y37086182D01*
X11650934Y37086182D01*
X11650934Y35868374D01*
G36*
X11650934Y35868374D02*
G01*
X11650934Y34650565D01*
X13026899Y34650565D01*
X14402865Y34650565D01*
X14402865Y31487427D01*
X14402865Y28324289D01*
X12362640Y28324289D01*
X12009792Y28324688D01*
X11676275Y28325838D01*
X11367362Y28327673D01*
X11088326Y28330122D01*
X10844440Y28333119D01*
X10640978Y28336594D01*
X10483211Y28340479D01*
X10376414Y28344706D01*
X10325859Y28349206D01*
X10322416Y28350746D01*
X10350549Y28366964D01*
X10423837Y28392173D01*
X10525616Y28421934D01*
X10639220Y28451804D01*
X10747986Y28477344D01*
X10835248Y28494112D01*
X10875965Y28498261D01*
X10920758Y28518601D01*
X10962952Y28553616D01*
X11030776Y28597321D01*
X11080456Y28608971D01*
X11142106Y28634563D01*
X11180063Y28678960D01*
X11202966Y28725707D01*
X11191513Y28730106D01*
X11137064Y28696232D01*
X11053667Y28660234D01*
X10911248Y28621627D01*
X10713950Y28581285D01*
X10465917Y28540080D01*
X10250332Y28509304D01*
X10080613Y28495392D01*
X9883222Y28493252D01*
X9674929Y28501655D01*
X9472506Y28519371D01*
X9292723Y28545170D01*
X9152350Y28577823D01*
X9110094Y28592902D01*
X8998943Y28625742D01*
X8884552Y28640536D01*
X8878150Y28640603D01*
X8798538Y28643805D01*
X8674477Y28652471D01*
X8524403Y28665191D01*
X8399160Y28677223D01*
X8037950Y28713843D01*
X8058409Y28890735D01*
X8081406Y29100007D01*
X8095361Y29261656D01*
X8100321Y29390663D01*
X8096336Y29502011D01*
X8083453Y29610681D01*
X8061720Y29731655D01*
X8061128Y29734642D01*
X8028720Y29878224D01*
X7991193Y30014957D01*
X7955471Y30120206D01*
X7947496Y30139015D01*
X7901983Y30273034D01*
X7894571Y30345628D01*
X8831599Y30345628D01*
X9499901Y30350606D01*
X10168203Y30355585D01*
X10161070Y30712511D01*
X10153938Y31069438D01*
X9500098Y31074309D01*
X8846257Y31079179D01*
X8838928Y30712404D01*
X8831599Y30345628D01*
X7894571Y30345628D01*
X7889857Y30391800D01*
X7911724Y30480013D01*
X7932991Y30505812D01*
X7972714Y30557552D01*
X8027727Y30653799D01*
X8090784Y30779949D01*
X8154636Y30921398D01*
X8212038Y31063540D01*
X8218899Y31081991D01*
X8244300Y31167156D01*
X8258920Y31263594D01*
X8264084Y31387637D01*
X8261117Y31555619D01*
X8259961Y31588093D01*
X8257777Y31631633D01*
X10682267Y31631633D01*
X10687246Y31352664D01*
X10696269Y31288935D01*
X10745369Y31076093D01*
X10816530Y30872105D01*
X10902475Y30694219D01*
X10995928Y30559686D01*
X11010514Y30543930D01*
X11067801Y30475778D01*
X11095997Y30423539D01*
X11095633Y30409126D01*
X11102976Y30382666D01*
X11119242Y30379329D01*
X11171794Y30357912D01*
X11239285Y30308054D01*
X11300255Y30248600D01*
X11333246Y30198395D01*
X11334620Y30190191D01*
X11351440Y30167824D01*
X11360579Y30171219D01*
X11401511Y30166407D01*
X11471641Y30134713D01*
X11495012Y30121191D01*
X11565594Y30087681D01*
X11677545Y30044363D01*
X11811146Y29997881D01*
X11946682Y29954884D01*
X12064435Y29922017D01*
X12125627Y29908613D01*
X12161207Y29915268D01*
X12243261Y29935404D01*
X12357354Y29965399D01*
X12423657Y29983442D01*
X12549891Y30015792D01*
X12653080Y30037801D01*
X12718195Y30046475D01*
X12731840Y30044838D01*
X12756672Y30051802D01*
X12758033Y30061336D01*
X12782891Y30096681D01*
X12840613Y30135789D01*
X12905915Y30165259D01*
X12953517Y30171691D01*
X12959626Y30168191D01*
X12977736Y30172910D01*
X12979452Y30186786D01*
X13003099Y30234208D01*
X13059749Y30294697D01*
X13127968Y30349089D01*
X13186320Y30378222D01*
X13194831Y30379329D01*
X13221930Y30396611D01*
X13218264Y30409410D01*
X13223740Y30451422D01*
X13252578Y30490779D01*
X13362222Y30631042D01*
X13462951Y30815925D01*
X13547705Y31026813D01*
X13609425Y31245089D01*
X13641051Y31452137D01*
X13643711Y31522150D01*
X13633807Y31636993D01*
X13606837Y31780158D01*
X13566921Y31939149D01*
X13518176Y32101467D01*
X13464719Y32254618D01*
X13410669Y32386104D01*
X13360142Y32483428D01*
X13317258Y32534094D01*
X13309053Y32537795D01*
X13271760Y32564670D01*
X13207352Y32625981D01*
X13132726Y32705235D01*
X13053747Y32787482D01*
X12985858Y32848322D01*
X12945466Y32873791D01*
X12883198Y32902437D01*
X12852927Y32924070D01*
X12799488Y32956478D01*
X12708155Y33000711D01*
X12615691Y33040196D01*
X12428604Y33093378D01*
X12219403Y33116744D01*
X12003964Y33111811D01*
X11798164Y33080092D01*
X11617879Y33023103D01*
X11478984Y32942359D01*
X11465022Y32930399D01*
X11402348Y32887565D01*
X11367886Y32873791D01*
X11317527Y32844226D01*
X11254611Y32785555D01*
X11246456Y32776406D01*
X11186912Y32718720D01*
X11138947Y32690103D01*
X11133705Y32689420D01*
X11090296Y32664605D01*
X11065347Y32630559D01*
X11029419Y32569533D01*
X10974370Y32482723D01*
X10946567Y32440498D01*
X10816116Y32194819D01*
X10726620Y31918774D01*
X10682267Y31631633D01*
X8257777Y31631633D01*
X8251434Y31758083D01*
X8236800Y31889473D01*
X8210486Y32003046D01*
X8166915Y32119579D01*
X8100511Y32259852D01*
X8056506Y32346355D01*
X8024800Y32424301D01*
X8013325Y32480788D01*
X7989306Y32524637D01*
X7965878Y32531263D01*
X7921114Y32556754D01*
X7913894Y32628694D01*
X7914685Y32634065D01*
X7892807Y32655231D01*
X7872556Y32657788D01*
X7816446Y32681953D01*
X7801385Y32699713D01*
X7751003Y32746677D01*
X7720735Y32761983D01*
X7673876Y32802815D01*
X7665380Y32832635D01*
X7649208Y32865594D01*
X7628950Y32860426D01*
X7582802Y32862887D01*
X7557779Y32884951D01*
X7509386Y32919063D01*
X7415583Y32962685D01*
X7292422Y33010354D01*
X7155959Y33056605D01*
X7022248Y33095974D01*
X6907342Y33122997D01*
X6831158Y33132259D01*
X6735027Y33120252D01*
X6617103Y33089725D01*
X6558282Y33068996D01*
X6456008Y33033048D01*
X6369524Y33010129D01*
X6335691Y33005733D01*
X6261960Y32985588D01*
X6218244Y32957743D01*
X6080997Y32842346D01*
X5985607Y32770666D01*
X5929797Y32741091D01*
X5914390Y32742858D01*
X5897275Y32735744D01*
X5894023Y32710507D01*
X5870008Y32665305D01*
X5844709Y32657788D01*
X5811124Y32643649D01*
X5813289Y32628835D01*
X5806730Y32588106D01*
X5767724Y32524462D01*
X5756343Y32510217D01*
X5662594Y32377115D01*
X5582293Y32214848D01*
X5511039Y32012568D01*
X5444433Y31759432D01*
X5434984Y31718234D01*
X5412285Y31613017D01*
X5401135Y31533072D01*
X5402718Y31459013D01*
X5418218Y31371455D01*
X5448819Y31251011D01*
X5467810Y31180998D01*
X5512429Y31032387D01*
X5561828Y30891734D01*
X5608212Y30780383D01*
X5628165Y30741808D01*
X5685002Y30627483D01*
X5699170Y30536210D01*
X5671062Y30444696D01*
X5634288Y30380329D01*
X5575789Y30276276D01*
X5525603Y30169355D01*
X5521423Y30158909D01*
X5462558Y30002962D01*
X5422353Y29877818D01*
X5397207Y29763460D01*
X5383522Y29639872D01*
X5377698Y29487037D01*
X5376373Y29352309D01*
X5376256Y29182082D01*
X5379696Y29057528D01*
X5389596Y28961060D01*
X5408860Y28875092D01*
X5440391Y28782038D01*
X5487092Y28664311D01*
X5491897Y28652497D01*
X5541838Y28527881D01*
X5581223Y28426007D01*
X5604864Y28360497D01*
X5609340Y28344091D01*
X5579474Y28337405D01*
X5496935Y28331683D01*
X5372308Y28327340D01*
X5216180Y28324789D01*
X5103238Y28324289D01*
X4597136Y28324289D01*
X4597136Y31487427D01*
X4597136Y34617554D01*
X7694906Y34617554D01*
X9579072Y34619678D01*
X11463239Y34621802D01*
X11459948Y35741852D01*
X11456657Y36861901D01*
X9579085Y36864018D01*
X7701513Y36866135D01*
X7698210Y35741844D01*
X7694906Y34617554D01*
X4597136Y34617554D01*
X4597136Y34650565D01*
X6012640Y34655548D01*
X6306789Y34656549D01*
X6582001Y34657418D01*
X6831708Y34658139D01*
X7049343Y34658697D01*
X7228336Y34659075D01*
X7362119Y34659259D01*
X7444124Y34659231D01*
X7467684Y34659063D01*
X7478180Y34671572D01*
X7486774Y34713169D01*
X7493625Y34788683D01*
X7498888Y34902937D01*
X7502722Y35060759D01*
X7505284Y35266975D01*
X7506731Y35526412D01*
X7507221Y35843894D01*
X7507223Y35871888D01*
X7507223Y37086182D01*
X9579079Y37086182D01*
X11650934Y37086182D01*
X11650934Y35868374D01*
G37*
%TD*%
%LPC*%
D14*
%TO.C,*%
X49401100Y97943951D03*
%TD*%
%TO.C,*%
X75200000Y123193951D03*
%TD*%
%TO.C,*%
X50740000Y15716049D03*
%TD*%
%TO.C,*%
X91340000Y15716049D03*
%TD*%
D15*
%TO.C,TP6*%
X34526100Y93347551D03*
%TD*%
D14*
%TO.C,*%
X3700000Y89343951D03*
%TD*%
%TO.C,*%
X92500000Y57843951D03*
%TD*%
%TO.C,*%
X51100000Y74143951D03*
%TD*%
D15*
%TO.C,TP3*%
X17201100Y109522551D03*
%TD*%
%TO.C,TP11*%
X17976100Y106572551D03*
%TD*%
D14*
%TO.C,*%
X92650000Y78943951D03*
%TD*%
D15*
%TO.C,TP12*%
X33251100Y101572551D03*
%TD*%
D14*
%TO.C,*%
X20350000Y126943951D03*
%TD*%
D15*
%TO.C,TP7*%
X97701100Y97447551D03*
%TD*%
%TO.C,TP10*%
X-3273900Y114797551D03*
%TD*%
%TO.C,TP8*%
X75001100Y111547551D03*
%TD*%
%TO.C,TP9*%
X-2998900Y100447551D03*
%TD*%
D14*
%TO.C,*%
X96300000Y127943951D03*
%TD*%
%TO.C,*%
X5500000Y57793951D03*
%TD*%
D15*
%TO.C,TP4*%
X5351100Y102697551D03*
%TD*%
D14*
%TO.C,*%
X5530000Y5520000D03*
%TD*%
D15*
%TO.C,TP2*%
X75201100Y86322551D03*
%TD*%
D14*
%TO.C,*%
X92500000Y5511049D03*
%TD*%
D16*
%TO.C,J2*%
X43839050Y86237808D03*
D17*
X43839050Y88777808D03*
X46379050Y86237808D03*
X46379050Y88777808D03*
X48919050Y86237808D03*
X48919050Y88777808D03*
%TD*%
D18*
%TO.C,@HOLE6*%
X79000000Y98343951D03*
%TD*%
D15*
%TO.C,TP5*%
X67701100Y125622551D03*
%TD*%
D14*
%TO.C,*%
X1750000Y127943951D03*
%TD*%
D15*
%TO.C,TP13*%
X38276100Y108397551D03*
%TD*%
D18*
%TO.C,*%
X5001100Y115343951D03*
%TD*%
%TO.C,@HOLE0*%
X82500000Y124343951D03*
%TD*%
%LPD*%
D19*
X-5000000Y129343951D02*
X0Y134343951D01*
X-5000000Y106743951D02*
X-5000000Y129343951D01*
X-5000000Y100743951D02*
X-4720000Y101023951D01*
X-5000000Y98543951D02*
X-5000000Y100743951D01*
X-4720000Y106463951D02*
X-5000000Y106743951D01*
X-4720000Y101023951D02*
X-4720000Y106463951D01*
X-3600000Y97143951D02*
X-5000000Y98543951D01*
X-3600000Y87943951D02*
X-3600000Y97143951D01*
X0Y134343951D02*
X36000000Y134343951D01*
X0Y84343951D02*
X-3600000Y87943951D01*
X0Y84340000D02*
X0Y0D01*
X36000000Y134343951D02*
X62000000Y134343951D01*
X62000000Y134343951D02*
X98000000Y134343951D01*
X98000000Y134343951D02*
X103000000Y129343951D01*
X98000000Y84393951D02*
X98000000Y0D01*
X98000000Y0D02*
X0Y0D01*
X103000000Y129343951D02*
X103000000Y89393951D01*
X103000000Y89393951D02*
X98000000Y84393951D01*
M02*
