%TF.GenerationSoftware,KiCad,Pcbnew,10.0.1*%
%TF.CreationDate,2026-05-15T15:57:58+01:00*%
%TF.ProjectId,FED3 tester,46454433-2074-4657-9374-65722e6b6963,rev?*%
%TF.SameCoordinates,PX3adc5c0PY972d2c0*%
%TF.FileFunction,Drillmap*%
%TF.FilePolarity,Positive*%
%FSLAX45Y45*%
G04 Gerber Fmt 4.5, Leading zero omitted, Abs format (unit mm)*
G04 Created by KiCad (PCBNEW 10.0.1) date 2026-05-15 15:57:58*
%MOMM*%
%LPD*%
G01*
G04 APERTURE LIST*
%ADD10C,0.250000*%
%ADD11C,0.200000*%
%ADD12C,0.100000*%
%ADD13C,0.295000*%
%ADD14C,0.605000*%
%ADD15C,0.700000*%
G04 APERTURE END LIST*
D10*
X-500000Y12936000D02*
X0Y13436000D01*
X-500000Y10676000D02*
X-500000Y12936000D01*
X-500000Y10076000D02*
X-472000Y10104000D01*
X-500000Y9856000D02*
X-500000Y10076000D01*
X-472000Y10648000D02*
X-500000Y10676000D01*
X-472000Y10104000D02*
X-472000Y10648000D01*
X-360000Y9716000D02*
X-500000Y9856000D01*
X-360000Y8796000D02*
X-360000Y9716000D01*
X0Y13436000D02*
X3600000Y13436000D01*
X0Y8436000D02*
X-360000Y8796000D01*
X0Y8436000D02*
X0Y0D01*
X3600000Y13436000D02*
X6200000Y13436000D01*
X6200000Y13436000D02*
X9800000Y13436000D01*
X9800000Y13436000D02*
X10300000Y12936000D01*
X9800000Y8441000D02*
X9800000Y0D01*
X9800000Y0D02*
X0Y0D01*
X10300000Y12936000D02*
X10300000Y8941000D01*
X10300000Y8941000D02*
X9800000Y8441000D01*
D11*
D12*
X1656500Y659971D02*
X1721500Y594971D01*
X1721500Y659971D02*
X1656500Y594971D01*
X2234500Y659971D02*
X2299500Y594971D01*
X2299500Y659971D02*
X2234500Y594971D01*
D13*
X517500Y8935000D02*
G75*
G02*
X222500Y8935000I-147500J0D01*
G01*
X222500Y8935000D02*
G75*
G02*
X517500Y8935000I147500J0D01*
G01*
X2182500Y12696000D02*
G75*
G02*
X1887500Y12696000I-147500J0D01*
G01*
X1887500Y12696000D02*
G75*
G02*
X2182500Y12696000I147500J0D01*
G01*
X5221500Y1570000D02*
G75*
G02*
X4926500Y1570000I-147500J0D01*
G01*
X4926500Y1570000D02*
G75*
G02*
X5221500Y1570000I147500J0D01*
G01*
X5257500Y7415000D02*
G75*
G02*
X4962500Y7415000I-147500J0D01*
G01*
X4962500Y7415000D02*
G75*
G02*
X5257500Y7415000I147500J0D01*
G01*
X7667500Y12320105D02*
G75*
G02*
X7372500Y12320105I-147500J0D01*
G01*
X7372500Y12320105D02*
G75*
G02*
X7667500Y12320105I147500J0D01*
G01*
X9281500Y1570000D02*
G75*
G02*
X8986500Y1570000I-147500J0D01*
G01*
X8986500Y1570000D02*
G75*
G02*
X9281500Y1570000I147500J0D01*
G01*
X9412500Y7895105D02*
G75*
G02*
X9117500Y7895105I-147500J0D01*
G01*
X9117500Y7895105D02*
G75*
G02*
X9412500Y7895105I147500J0D01*
G01*
D14*
X500000Y11838500D02*
X500000Y11233500D01*
X197500Y11536000D02*
X802500Y11536000D01*
X7900000Y10138500D02*
X7900000Y9533500D01*
X7597500Y9836000D02*
X8202500Y9836000D01*
X8250000Y12738500D02*
X8250000Y12133500D01*
X7947500Y12436000D02*
X8552500Y12436000D01*
D15*
X422490Y12548510D02*
X422490Y13043490D01*
X-72490Y13043490D01*
X-72490Y12548510D01*
X422490Y12548510D01*
X797490Y5533510D02*
X797490Y6028490D01*
X302510Y6028490D01*
X302510Y5533510D01*
X797490Y5533510D01*
X800490Y304510D02*
X800490Y799490D01*
X305510Y799490D01*
X305510Y304510D01*
X800490Y304510D01*
X5187600Y9548510D02*
X5187600Y10043490D01*
X4692620Y10043490D01*
X4692620Y9548510D01*
X5187600Y9548510D01*
X9497490Y5538510D02*
X9497490Y6033490D01*
X9002510Y6033490D01*
X9002510Y5538510D01*
X9497490Y5538510D01*
X9497490Y304510D02*
X9497490Y799490D01*
X9002510Y799490D01*
X9002510Y304510D01*
X9497490Y304510D01*
X9877490Y12548510D02*
X9877490Y13043490D01*
X9382510Y13043490D01*
X9382510Y12548510D01*
X9877490Y12548510D01*
D11*
X-251723Y-323984D02*
X-251723Y-123984D01*
X-251723Y-123984D02*
X-204104Y-123984D01*
X-204104Y-123984D02*
X-175533Y-133508D01*
X-175533Y-133508D02*
X-156485Y-152555D01*
X-156485Y-152555D02*
X-146961Y-171603D01*
X-146961Y-171603D02*
X-137438Y-209698D01*
X-137438Y-209698D02*
X-137438Y-238269D01*
X-137438Y-238269D02*
X-146961Y-276365D01*
X-146961Y-276365D02*
X-156485Y-295412D01*
X-156485Y-295412D02*
X-175533Y-314460D01*
X-175533Y-314460D02*
X-204104Y-323984D01*
X-204104Y-323984D02*
X-251723Y-323984D01*
X-51723Y-323984D02*
X-51723Y-190650D01*
X-51723Y-228746D02*
X-42199Y-209698D01*
X-42199Y-209698D02*
X-32676Y-200174D01*
X-32676Y-200174D02*
X-13628Y-190650D01*
X-13628Y-190650D02*
X5420Y-190650D01*
X72086Y-323984D02*
X72086Y-190650D01*
X72086Y-123984D02*
X62562Y-133508D01*
X62562Y-133508D02*
X72086Y-143031D01*
X72086Y-143031D02*
X81610Y-133508D01*
X81610Y-133508D02*
X72086Y-123984D01*
X72086Y-123984D02*
X72086Y-143031D01*
X195896Y-323984D02*
X176848Y-314460D01*
X176848Y-314460D02*
X167324Y-295412D01*
X167324Y-295412D02*
X167324Y-123984D01*
X300658Y-323984D02*
X281610Y-314460D01*
X281610Y-314460D02*
X272086Y-295412D01*
X272086Y-295412D02*
X272086Y-123984D01*
X529229Y-323984D02*
X529229Y-123984D01*
X529229Y-123984D02*
X595896Y-266841D01*
X595896Y-266841D02*
X662563Y-123984D01*
X662563Y-123984D02*
X662563Y-323984D01*
X843515Y-323984D02*
X843515Y-219222D01*
X843515Y-219222D02*
X833991Y-200174D01*
X833991Y-200174D02*
X814943Y-190650D01*
X814943Y-190650D02*
X776848Y-190650D01*
X776848Y-190650D02*
X757801Y-200174D01*
X843515Y-314460D02*
X824467Y-323984D01*
X824467Y-323984D02*
X776848Y-323984D01*
X776848Y-323984D02*
X757801Y-314460D01*
X757801Y-314460D02*
X748277Y-295412D01*
X748277Y-295412D02*
X748277Y-276365D01*
X748277Y-276365D02*
X757801Y-257317D01*
X757801Y-257317D02*
X776848Y-247793D01*
X776848Y-247793D02*
X824467Y-247793D01*
X824467Y-247793D02*
X843515Y-238269D01*
X938753Y-190650D02*
X938753Y-390650D01*
X938753Y-200174D02*
X957801Y-190650D01*
X957801Y-190650D02*
X995896Y-190650D01*
X995896Y-190650D02*
X1014943Y-200174D01*
X1014943Y-200174D02*
X1024467Y-209698D01*
X1024467Y-209698D02*
X1033991Y-228746D01*
X1033991Y-228746D02*
X1033991Y-285889D01*
X1033991Y-285889D02*
X1024467Y-304936D01*
X1024467Y-304936D02*
X1014943Y-314460D01*
X1014943Y-314460D02*
X995896Y-323984D01*
X995896Y-323984D02*
X957801Y-323984D01*
X957801Y-323984D02*
X938753Y-314460D01*
X1119705Y-304936D02*
X1129229Y-314460D01*
X1129229Y-314460D02*
X1119705Y-323984D01*
X1119705Y-323984D02*
X1110182Y-314460D01*
X1110182Y-314460D02*
X1119705Y-304936D01*
X1119705Y-304936D02*
X1119705Y-323984D01*
X1119705Y-200174D02*
X1129229Y-209698D01*
X1129229Y-209698D02*
X1119705Y-219222D01*
X1119705Y-219222D02*
X1110182Y-209698D01*
X1110182Y-209698D02*
X1119705Y-200174D01*
X1119705Y-200174D02*
X1119705Y-219222D01*
D12*
X-577500Y-620000D02*
X-512500Y-685000D01*
X-512500Y-620000D02*
X-577500Y-685000D01*
D11*
X-213628Y-543984D02*
X-194580Y-543984D01*
X-194580Y-543984D02*
X-175533Y-553508D01*
X-175533Y-553508D02*
X-166009Y-563031D01*
X-166009Y-563031D02*
X-156485Y-582079D01*
X-156485Y-582079D02*
X-146961Y-620174D01*
X-146961Y-620174D02*
X-146961Y-667793D01*
X-146961Y-667793D02*
X-156485Y-705888D01*
X-156485Y-705888D02*
X-166009Y-724936D01*
X-166009Y-724936D02*
X-175533Y-734460D01*
X-175533Y-734460D02*
X-194580Y-743984D01*
X-194580Y-743984D02*
X-213628Y-743984D01*
X-213628Y-743984D02*
X-232676Y-734460D01*
X-232676Y-734460D02*
X-242199Y-724936D01*
X-242199Y-724936D02*
X-251723Y-705888D01*
X-251723Y-705888D02*
X-261247Y-667793D01*
X-261247Y-667793D02*
X-261247Y-620174D01*
X-261247Y-620174D02*
X-251723Y-582079D01*
X-251723Y-582079D02*
X-242199Y-563031D01*
X-242199Y-563031D02*
X-232676Y-553508D01*
X-232676Y-553508D02*
X-213628Y-543984D01*
X-61247Y-724936D02*
X-51723Y-734460D01*
X-51723Y-734460D02*
X-61247Y-743984D01*
X-61247Y-743984D02*
X-70771Y-734460D01*
X-70771Y-734460D02*
X-61247Y-724936D01*
X-61247Y-724936D02*
X-61247Y-743984D01*
X119705Y-543984D02*
X81610Y-543984D01*
X81610Y-543984D02*
X62562Y-553508D01*
X62562Y-553508D02*
X53039Y-563031D01*
X53039Y-563031D02*
X33991Y-591603D01*
X33991Y-591603D02*
X24467Y-629698D01*
X24467Y-629698D02*
X24467Y-705888D01*
X24467Y-705888D02*
X33991Y-724936D01*
X33991Y-724936D02*
X43515Y-734460D01*
X43515Y-734460D02*
X62562Y-743984D01*
X62562Y-743984D02*
X100658Y-743984D01*
X100658Y-743984D02*
X119705Y-734460D01*
X119705Y-734460D02*
X129229Y-724936D01*
X129229Y-724936D02*
X138753Y-705888D01*
X138753Y-705888D02*
X138753Y-658270D01*
X138753Y-658270D02*
X129229Y-639222D01*
X129229Y-639222D02*
X119705Y-629698D01*
X119705Y-629698D02*
X100658Y-620174D01*
X100658Y-620174D02*
X62562Y-620174D01*
X62562Y-620174D02*
X43515Y-629698D01*
X43515Y-629698D02*
X33991Y-639222D01*
X33991Y-639222D02*
X24467Y-658270D01*
X319705Y-543984D02*
X224467Y-543984D01*
X224467Y-543984D02*
X214943Y-639222D01*
X214943Y-639222D02*
X224467Y-629698D01*
X224467Y-629698D02*
X243515Y-620174D01*
X243515Y-620174D02*
X291134Y-620174D01*
X291134Y-620174D02*
X310182Y-629698D01*
X310182Y-629698D02*
X319705Y-639222D01*
X319705Y-639222D02*
X329229Y-658270D01*
X329229Y-658270D02*
X329229Y-705888D01*
X329229Y-705888D02*
X319705Y-724936D01*
X319705Y-724936D02*
X310182Y-734460D01*
X310182Y-734460D02*
X291134Y-743984D01*
X291134Y-743984D02*
X243515Y-743984D01*
X243515Y-743984D02*
X224467Y-734460D01*
X224467Y-734460D02*
X214943Y-724936D01*
X453039Y-543984D02*
X472086Y-543984D01*
X472086Y-543984D02*
X491134Y-553508D01*
X491134Y-553508D02*
X500658Y-563031D01*
X500658Y-563031D02*
X510182Y-582079D01*
X510182Y-582079D02*
X519705Y-620174D01*
X519705Y-620174D02*
X519705Y-667793D01*
X519705Y-667793D02*
X510182Y-705888D01*
X510182Y-705888D02*
X500658Y-724936D01*
X500658Y-724936D02*
X491134Y-734460D01*
X491134Y-734460D02*
X472086Y-743984D01*
X472086Y-743984D02*
X453039Y-743984D01*
X453039Y-743984D02*
X433991Y-734460D01*
X433991Y-734460D02*
X424467Y-724936D01*
X424467Y-724936D02*
X414943Y-705888D01*
X414943Y-705888D02*
X405420Y-667793D01*
X405420Y-667793D02*
X405420Y-620174D01*
X405420Y-620174D02*
X414943Y-582079D01*
X414943Y-582079D02*
X424467Y-563031D01*
X424467Y-563031D02*
X433991Y-553508D01*
X433991Y-553508D02*
X453039Y-543984D01*
X605420Y-743984D02*
X605420Y-610650D01*
X605420Y-629698D02*
X614944Y-620174D01*
X614944Y-620174D02*
X633991Y-610650D01*
X633991Y-610650D02*
X662563Y-610650D01*
X662563Y-610650D02*
X681610Y-620174D01*
X681610Y-620174D02*
X691134Y-639222D01*
X691134Y-639222D02*
X691134Y-743984D01*
X691134Y-639222D02*
X700658Y-620174D01*
X700658Y-620174D02*
X719705Y-610650D01*
X719705Y-610650D02*
X748277Y-610650D01*
X748277Y-610650D02*
X767324Y-620174D01*
X767324Y-620174D02*
X776848Y-639222D01*
X776848Y-639222D02*
X776848Y-743984D01*
X872086Y-743984D02*
X872086Y-610650D01*
X872086Y-629698D02*
X881610Y-620174D01*
X881610Y-620174D02*
X900658Y-610650D01*
X900658Y-610650D02*
X929229Y-610650D01*
X929229Y-610650D02*
X948277Y-620174D01*
X948277Y-620174D02*
X957801Y-639222D01*
X957801Y-639222D02*
X957801Y-743984D01*
X957801Y-639222D02*
X967324Y-620174D01*
X967324Y-620174D02*
X986372Y-610650D01*
X986372Y-610650D02*
X1014943Y-610650D01*
X1014943Y-610650D02*
X1033991Y-620174D01*
X1033991Y-620174D02*
X1043515Y-639222D01*
X1043515Y-639222D02*
X1043515Y-743984D01*
X1433991Y-534460D02*
X1262563Y-791603D01*
X1691134Y-543984D02*
X1710182Y-543984D01*
X1710182Y-543984D02*
X1729229Y-553508D01*
X1729229Y-553508D02*
X1738753Y-563031D01*
X1738753Y-563031D02*
X1748277Y-582079D01*
X1748277Y-582079D02*
X1757801Y-620174D01*
X1757801Y-620174D02*
X1757801Y-667793D01*
X1757801Y-667793D02*
X1748277Y-705888D01*
X1748277Y-705888D02*
X1738753Y-724936D01*
X1738753Y-724936D02*
X1729229Y-734460D01*
X1729229Y-734460D02*
X1710182Y-743984D01*
X1710182Y-743984D02*
X1691134Y-743984D01*
X1691134Y-743984D02*
X1672086Y-734460D01*
X1672086Y-734460D02*
X1662563Y-724936D01*
X1662563Y-724936D02*
X1653039Y-705888D01*
X1653039Y-705888D02*
X1643515Y-667793D01*
X1643515Y-667793D02*
X1643515Y-620174D01*
X1643515Y-620174D02*
X1653039Y-582079D01*
X1653039Y-582079D02*
X1662563Y-563031D01*
X1662563Y-563031D02*
X1672086Y-553508D01*
X1672086Y-553508D02*
X1691134Y-543984D01*
X1843515Y-724936D02*
X1853039Y-734460D01*
X1853039Y-734460D02*
X1843515Y-743984D01*
X1843515Y-743984D02*
X1833991Y-734460D01*
X1833991Y-734460D02*
X1843515Y-724936D01*
X1843515Y-724936D02*
X1843515Y-743984D01*
X1976848Y-543984D02*
X1995896Y-543984D01*
X1995896Y-543984D02*
X2014944Y-553508D01*
X2014944Y-553508D02*
X2024467Y-563031D01*
X2024467Y-563031D02*
X2033991Y-582079D01*
X2033991Y-582079D02*
X2043515Y-620174D01*
X2043515Y-620174D02*
X2043515Y-667793D01*
X2043515Y-667793D02*
X2033991Y-705888D01*
X2033991Y-705888D02*
X2024467Y-724936D01*
X2024467Y-724936D02*
X2014944Y-734460D01*
X2014944Y-734460D02*
X1995896Y-743984D01*
X1995896Y-743984D02*
X1976848Y-743984D01*
X1976848Y-743984D02*
X1957801Y-734460D01*
X1957801Y-734460D02*
X1948277Y-724936D01*
X1948277Y-724936D02*
X1938753Y-705888D01*
X1938753Y-705888D02*
X1929229Y-667793D01*
X1929229Y-667793D02*
X1929229Y-620174D01*
X1929229Y-620174D02*
X1938753Y-582079D01*
X1938753Y-582079D02*
X1948277Y-563031D01*
X1948277Y-563031D02*
X1957801Y-553508D01*
X1957801Y-553508D02*
X1976848Y-543984D01*
X2119706Y-563031D02*
X2129229Y-553508D01*
X2129229Y-553508D02*
X2148277Y-543984D01*
X2148277Y-543984D02*
X2195896Y-543984D01*
X2195896Y-543984D02*
X2214944Y-553508D01*
X2214944Y-553508D02*
X2224468Y-563031D01*
X2224468Y-563031D02*
X2233991Y-582079D01*
X2233991Y-582079D02*
X2233991Y-601127D01*
X2233991Y-601127D02*
X2224468Y-629698D01*
X2224468Y-629698D02*
X2110182Y-743984D01*
X2110182Y-743984D02*
X2233991Y-743984D01*
X2414944Y-543984D02*
X2319706Y-543984D01*
X2319706Y-543984D02*
X2310182Y-639222D01*
X2310182Y-639222D02*
X2319706Y-629698D01*
X2319706Y-629698D02*
X2338753Y-620174D01*
X2338753Y-620174D02*
X2386372Y-620174D01*
X2386372Y-620174D02*
X2405420Y-629698D01*
X2405420Y-629698D02*
X2414944Y-639222D01*
X2414944Y-639222D02*
X2424468Y-658270D01*
X2424468Y-658270D02*
X2424468Y-705888D01*
X2424468Y-705888D02*
X2414944Y-724936D01*
X2414944Y-724936D02*
X2405420Y-734460D01*
X2405420Y-734460D02*
X2386372Y-743984D01*
X2386372Y-743984D02*
X2338753Y-743984D01*
X2338753Y-743984D02*
X2319706Y-734460D01*
X2319706Y-734460D02*
X2310182Y-724936D01*
X2595896Y-543984D02*
X2557801Y-543984D01*
X2557801Y-543984D02*
X2538753Y-553508D01*
X2538753Y-553508D02*
X2529229Y-563031D01*
X2529229Y-563031D02*
X2510182Y-591603D01*
X2510182Y-591603D02*
X2500658Y-629698D01*
X2500658Y-629698D02*
X2500658Y-705888D01*
X2500658Y-705888D02*
X2510182Y-724936D01*
X2510182Y-724936D02*
X2519706Y-734460D01*
X2519706Y-734460D02*
X2538753Y-743984D01*
X2538753Y-743984D02*
X2576849Y-743984D01*
X2576849Y-743984D02*
X2595896Y-734460D01*
X2595896Y-734460D02*
X2605420Y-724936D01*
X2605420Y-724936D02*
X2614944Y-705888D01*
X2614944Y-705888D02*
X2614944Y-658270D01*
X2614944Y-658270D02*
X2605420Y-639222D01*
X2605420Y-639222D02*
X2595896Y-629698D01*
X2595896Y-629698D02*
X2576849Y-620174D01*
X2576849Y-620174D02*
X2538753Y-620174D01*
X2538753Y-620174D02*
X2519706Y-629698D01*
X2519706Y-629698D02*
X2510182Y-639222D01*
X2510182Y-639222D02*
X2500658Y-658270D01*
X2691134Y-543984D02*
X2691134Y-582079D01*
X2767325Y-543984D02*
X2767325Y-582079D01*
X3062563Y-820174D02*
X3053039Y-810650D01*
X3053039Y-810650D02*
X3033991Y-782079D01*
X3033991Y-782079D02*
X3024468Y-763031D01*
X3024468Y-763031D02*
X3014944Y-734460D01*
X3014944Y-734460D02*
X3005420Y-686841D01*
X3005420Y-686841D02*
X3005420Y-648746D01*
X3005420Y-648746D02*
X3014944Y-601127D01*
X3014944Y-601127D02*
X3024468Y-572555D01*
X3024468Y-572555D02*
X3033991Y-553508D01*
X3033991Y-553508D02*
X3053039Y-524936D01*
X3053039Y-524936D02*
X3062563Y-515412D01*
X3129229Y-563031D02*
X3138753Y-553508D01*
X3138753Y-553508D02*
X3157801Y-543984D01*
X3157801Y-543984D02*
X3205420Y-543984D01*
X3205420Y-543984D02*
X3224468Y-553508D01*
X3224468Y-553508D02*
X3233991Y-563031D01*
X3233991Y-563031D02*
X3243515Y-582079D01*
X3243515Y-582079D02*
X3243515Y-601127D01*
X3243515Y-601127D02*
X3233991Y-629698D01*
X3233991Y-629698D02*
X3119706Y-743984D01*
X3119706Y-743984D02*
X3243515Y-743984D01*
X3481610Y-743984D02*
X3481610Y-543984D01*
X3567325Y-743984D02*
X3567325Y-639222D01*
X3567325Y-639222D02*
X3557801Y-620174D01*
X3557801Y-620174D02*
X3538753Y-610650D01*
X3538753Y-610650D02*
X3510182Y-610650D01*
X3510182Y-610650D02*
X3491134Y-620174D01*
X3491134Y-620174D02*
X3481610Y-629698D01*
X3691134Y-743984D02*
X3672087Y-734460D01*
X3672087Y-734460D02*
X3662563Y-724936D01*
X3662563Y-724936D02*
X3653039Y-705888D01*
X3653039Y-705888D02*
X3653039Y-648746D01*
X3653039Y-648746D02*
X3662563Y-629698D01*
X3662563Y-629698D02*
X3672087Y-620174D01*
X3672087Y-620174D02*
X3691134Y-610650D01*
X3691134Y-610650D02*
X3719706Y-610650D01*
X3719706Y-610650D02*
X3738753Y-620174D01*
X3738753Y-620174D02*
X3748277Y-629698D01*
X3748277Y-629698D02*
X3757801Y-648746D01*
X3757801Y-648746D02*
X3757801Y-705888D01*
X3757801Y-705888D02*
X3748277Y-724936D01*
X3748277Y-724936D02*
X3738753Y-734460D01*
X3738753Y-734460D02*
X3719706Y-743984D01*
X3719706Y-743984D02*
X3691134Y-743984D01*
X3872087Y-743984D02*
X3853039Y-734460D01*
X3853039Y-734460D02*
X3843515Y-715412D01*
X3843515Y-715412D02*
X3843515Y-543984D01*
X4024468Y-734460D02*
X4005420Y-743984D01*
X4005420Y-743984D02*
X3967325Y-743984D01*
X3967325Y-743984D02*
X3948277Y-734460D01*
X3948277Y-734460D02*
X3938753Y-715412D01*
X3938753Y-715412D02*
X3938753Y-639222D01*
X3938753Y-639222D02*
X3948277Y-620174D01*
X3948277Y-620174D02*
X3967325Y-610650D01*
X3967325Y-610650D02*
X4005420Y-610650D01*
X4005420Y-610650D02*
X4024468Y-620174D01*
X4024468Y-620174D02*
X4033991Y-639222D01*
X4033991Y-639222D02*
X4033991Y-658270D01*
X4033991Y-658270D02*
X3938753Y-677317D01*
X4110182Y-734460D02*
X4129230Y-743984D01*
X4129230Y-743984D02*
X4167325Y-743984D01*
X4167325Y-743984D02*
X4186372Y-734460D01*
X4186372Y-734460D02*
X4195896Y-715412D01*
X4195896Y-715412D02*
X4195896Y-705888D01*
X4195896Y-705888D02*
X4186372Y-686841D01*
X4186372Y-686841D02*
X4167325Y-677317D01*
X4167325Y-677317D02*
X4138753Y-677317D01*
X4138753Y-677317D02*
X4119706Y-667793D01*
X4119706Y-667793D02*
X4110182Y-648746D01*
X4110182Y-648746D02*
X4110182Y-639222D01*
X4110182Y-639222D02*
X4119706Y-620174D01*
X4119706Y-620174D02*
X4138753Y-610650D01*
X4138753Y-610650D02*
X4167325Y-610650D01*
X4167325Y-610650D02*
X4186372Y-620174D01*
X4262563Y-820174D02*
X4272087Y-810650D01*
X4272087Y-810650D02*
X4291134Y-782079D01*
X4291134Y-782079D02*
X4300658Y-763031D01*
X4300658Y-763031D02*
X4310182Y-734460D01*
X4310182Y-734460D02*
X4319706Y-686841D01*
X4319706Y-686841D02*
X4319706Y-648746D01*
X4319706Y-648746D02*
X4310182Y-601127D01*
X4310182Y-601127D02*
X4300658Y-572555D01*
X4300658Y-572555D02*
X4291134Y-553508D01*
X4291134Y-553508D02*
X4272087Y-524936D01*
X4272087Y-524936D02*
X4262563Y-515412D01*
X4624468Y-820174D02*
X4614944Y-810650D01*
X4614944Y-810650D02*
X4595896Y-782079D01*
X4595896Y-782079D02*
X4586373Y-763031D01*
X4586373Y-763031D02*
X4576849Y-734460D01*
X4576849Y-734460D02*
X4567325Y-686841D01*
X4567325Y-686841D02*
X4567325Y-648746D01*
X4567325Y-648746D02*
X4576849Y-601127D01*
X4576849Y-601127D02*
X4586373Y-572555D01*
X4586373Y-572555D02*
X4595896Y-553508D01*
X4595896Y-553508D02*
X4614944Y-524936D01*
X4614944Y-524936D02*
X4624468Y-515412D01*
X4700658Y-610650D02*
X4700658Y-743984D01*
X4700658Y-629698D02*
X4710182Y-620174D01*
X4710182Y-620174D02*
X4729230Y-610650D01*
X4729230Y-610650D02*
X4757801Y-610650D01*
X4757801Y-610650D02*
X4776849Y-620174D01*
X4776849Y-620174D02*
X4786373Y-639222D01*
X4786373Y-639222D02*
X4786373Y-743984D01*
X4910182Y-743984D02*
X4891134Y-734460D01*
X4891134Y-734460D02*
X4881611Y-724936D01*
X4881611Y-724936D02*
X4872087Y-705888D01*
X4872087Y-705888D02*
X4872087Y-648746D01*
X4872087Y-648746D02*
X4881611Y-629698D01*
X4881611Y-629698D02*
X4891134Y-620174D01*
X4891134Y-620174D02*
X4910182Y-610650D01*
X4910182Y-610650D02*
X4938754Y-610650D01*
X4938754Y-610650D02*
X4957801Y-620174D01*
X4957801Y-620174D02*
X4967325Y-629698D01*
X4967325Y-629698D02*
X4976849Y-648746D01*
X4976849Y-648746D02*
X4976849Y-705888D01*
X4976849Y-705888D02*
X4967325Y-724936D01*
X4967325Y-724936D02*
X4957801Y-734460D01*
X4957801Y-734460D02*
X4938754Y-743984D01*
X4938754Y-743984D02*
X4910182Y-743984D01*
X5033992Y-610650D02*
X5110182Y-610650D01*
X5062563Y-543984D02*
X5062563Y-715412D01*
X5062563Y-715412D02*
X5072087Y-734460D01*
X5072087Y-734460D02*
X5091134Y-743984D01*
X5091134Y-743984D02*
X5110182Y-743984D01*
X5329230Y-610650D02*
X5329230Y-810650D01*
X5329230Y-620174D02*
X5348277Y-610650D01*
X5348277Y-610650D02*
X5386373Y-610650D01*
X5386373Y-610650D02*
X5405420Y-620174D01*
X5405420Y-620174D02*
X5414944Y-629698D01*
X5414944Y-629698D02*
X5424468Y-648746D01*
X5424468Y-648746D02*
X5424468Y-705888D01*
X5424468Y-705888D02*
X5414944Y-724936D01*
X5414944Y-724936D02*
X5405420Y-734460D01*
X5405420Y-734460D02*
X5386373Y-743984D01*
X5386373Y-743984D02*
X5348277Y-743984D01*
X5348277Y-743984D02*
X5329230Y-734460D01*
X5538754Y-743984D02*
X5519706Y-734460D01*
X5519706Y-734460D02*
X5510182Y-715412D01*
X5510182Y-715412D02*
X5510182Y-543984D01*
X5700658Y-743984D02*
X5700658Y-639222D01*
X5700658Y-639222D02*
X5691134Y-620174D01*
X5691134Y-620174D02*
X5672087Y-610650D01*
X5672087Y-610650D02*
X5633992Y-610650D01*
X5633992Y-610650D02*
X5614944Y-620174D01*
X5700658Y-734460D02*
X5681611Y-743984D01*
X5681611Y-743984D02*
X5633992Y-743984D01*
X5633992Y-743984D02*
X5614944Y-734460D01*
X5614944Y-734460D02*
X5605420Y-715412D01*
X5605420Y-715412D02*
X5605420Y-696365D01*
X5605420Y-696365D02*
X5614944Y-677317D01*
X5614944Y-677317D02*
X5633992Y-667793D01*
X5633992Y-667793D02*
X5681611Y-667793D01*
X5681611Y-667793D02*
X5700658Y-658270D01*
X5767325Y-610650D02*
X5843515Y-610650D01*
X5795896Y-543984D02*
X5795896Y-715412D01*
X5795896Y-715412D02*
X5805420Y-734460D01*
X5805420Y-734460D02*
X5824468Y-743984D01*
X5824468Y-743984D02*
X5843515Y-743984D01*
X5986373Y-734460D02*
X5967325Y-743984D01*
X5967325Y-743984D02*
X5929230Y-743984D01*
X5929230Y-743984D02*
X5910182Y-734460D01*
X5910182Y-734460D02*
X5900658Y-715412D01*
X5900658Y-715412D02*
X5900658Y-639222D01*
X5900658Y-639222D02*
X5910182Y-620174D01*
X5910182Y-620174D02*
X5929230Y-610650D01*
X5929230Y-610650D02*
X5967325Y-610650D01*
X5967325Y-610650D02*
X5986373Y-620174D01*
X5986373Y-620174D02*
X5995896Y-639222D01*
X5995896Y-639222D02*
X5995896Y-658270D01*
X5995896Y-658270D02*
X5900658Y-677317D01*
X6167325Y-743984D02*
X6167325Y-543984D01*
X6167325Y-734460D02*
X6148277Y-743984D01*
X6148277Y-743984D02*
X6110182Y-743984D01*
X6110182Y-743984D02*
X6091134Y-734460D01*
X6091134Y-734460D02*
X6081611Y-724936D01*
X6081611Y-724936D02*
X6072087Y-705888D01*
X6072087Y-705888D02*
X6072087Y-648746D01*
X6072087Y-648746D02*
X6081611Y-629698D01*
X6081611Y-629698D02*
X6091134Y-620174D01*
X6091134Y-620174D02*
X6110182Y-610650D01*
X6110182Y-610650D02*
X6148277Y-610650D01*
X6148277Y-610650D02*
X6167325Y-620174D01*
X6243515Y-820174D02*
X6253039Y-810650D01*
X6253039Y-810650D02*
X6272087Y-782079D01*
X6272087Y-782079D02*
X6281611Y-763031D01*
X6281611Y-763031D02*
X6291134Y-734460D01*
X6291134Y-734460D02*
X6300658Y-686841D01*
X6300658Y-686841D02*
X6300658Y-648746D01*
X6300658Y-648746D02*
X6291134Y-601127D01*
X6291134Y-601127D02*
X6281611Y-572555D01*
X6281611Y-572555D02*
X6272087Y-553508D01*
X6272087Y-553508D02*
X6253039Y-524936D01*
X6253039Y-524936D02*
X6243515Y-515412D01*
X-512500Y-916500D02*
G75*
G02*
X-712500Y-916500I-100000J0D01*
G01*
X-712500Y-916500D02*
G75*
G02*
X-512500Y-916500I100000J0D01*
G01*
X-261247Y-827031D02*
X-251723Y-817508D01*
X-251723Y-817508D02*
X-232676Y-807984D01*
X-232676Y-807984D02*
X-185056Y-807984D01*
X-185056Y-807984D02*
X-166009Y-817508D01*
X-166009Y-817508D02*
X-156485Y-827031D01*
X-156485Y-827031D02*
X-146961Y-846079D01*
X-146961Y-846079D02*
X-146961Y-865127D01*
X-146961Y-865127D02*
X-156485Y-893698D01*
X-156485Y-893698D02*
X-270771Y-1007984D01*
X-270771Y-1007984D02*
X-146961Y-1007984D01*
X-61247Y-988936D02*
X-51723Y-998460D01*
X-51723Y-998460D02*
X-61247Y-1007984D01*
X-61247Y-1007984D02*
X-70771Y-998460D01*
X-70771Y-998460D02*
X-61247Y-988936D01*
X-61247Y-988936D02*
X-61247Y-1007984D01*
X43515Y-1007984D02*
X81610Y-1007984D01*
X81610Y-1007984D02*
X100658Y-998460D01*
X100658Y-998460D02*
X110182Y-988936D01*
X110182Y-988936D02*
X129229Y-960365D01*
X129229Y-960365D02*
X138753Y-922269D01*
X138753Y-922269D02*
X138753Y-846079D01*
X138753Y-846079D02*
X129229Y-827031D01*
X129229Y-827031D02*
X119705Y-817508D01*
X119705Y-817508D02*
X100658Y-807984D01*
X100658Y-807984D02*
X62562Y-807984D01*
X62562Y-807984D02*
X43515Y-817508D01*
X43515Y-817508D02*
X33991Y-827031D01*
X33991Y-827031D02*
X24467Y-846079D01*
X24467Y-846079D02*
X24467Y-893698D01*
X24467Y-893698D02*
X33991Y-912746D01*
X33991Y-912746D02*
X43515Y-922269D01*
X43515Y-922269D02*
X62562Y-931793D01*
X62562Y-931793D02*
X100658Y-931793D01*
X100658Y-931793D02*
X119705Y-922269D01*
X119705Y-922269D02*
X129229Y-912746D01*
X129229Y-912746D02*
X138753Y-893698D01*
X319705Y-807984D02*
X224467Y-807984D01*
X224467Y-807984D02*
X214943Y-903222D01*
X214943Y-903222D02*
X224467Y-893698D01*
X224467Y-893698D02*
X243515Y-884174D01*
X243515Y-884174D02*
X291134Y-884174D01*
X291134Y-884174D02*
X310182Y-893698D01*
X310182Y-893698D02*
X319705Y-903222D01*
X319705Y-903222D02*
X329229Y-922269D01*
X329229Y-922269D02*
X329229Y-969888D01*
X329229Y-969888D02*
X319705Y-988936D01*
X319705Y-988936D02*
X310182Y-998460D01*
X310182Y-998460D02*
X291134Y-1007984D01*
X291134Y-1007984D02*
X243515Y-1007984D01*
X243515Y-1007984D02*
X224467Y-998460D01*
X224467Y-998460D02*
X214943Y-988936D01*
X453039Y-807984D02*
X472086Y-807984D01*
X472086Y-807984D02*
X491134Y-817508D01*
X491134Y-817508D02*
X500658Y-827031D01*
X500658Y-827031D02*
X510182Y-846079D01*
X510182Y-846079D02*
X519705Y-884174D01*
X519705Y-884174D02*
X519705Y-931793D01*
X519705Y-931793D02*
X510182Y-969888D01*
X510182Y-969888D02*
X500658Y-988936D01*
X500658Y-988936D02*
X491134Y-998460D01*
X491134Y-998460D02*
X472086Y-1007984D01*
X472086Y-1007984D02*
X453039Y-1007984D01*
X453039Y-1007984D02*
X433991Y-998460D01*
X433991Y-998460D02*
X424467Y-988936D01*
X424467Y-988936D02*
X414943Y-969888D01*
X414943Y-969888D02*
X405420Y-931793D01*
X405420Y-931793D02*
X405420Y-884174D01*
X405420Y-884174D02*
X414943Y-846079D01*
X414943Y-846079D02*
X424467Y-827031D01*
X424467Y-827031D02*
X433991Y-817508D01*
X433991Y-817508D02*
X453039Y-807984D01*
X605420Y-1007984D02*
X605420Y-874650D01*
X605420Y-893698D02*
X614944Y-884174D01*
X614944Y-884174D02*
X633991Y-874650D01*
X633991Y-874650D02*
X662563Y-874650D01*
X662563Y-874650D02*
X681610Y-884174D01*
X681610Y-884174D02*
X691134Y-903222D01*
X691134Y-903222D02*
X691134Y-1007984D01*
X691134Y-903222D02*
X700658Y-884174D01*
X700658Y-884174D02*
X719705Y-874650D01*
X719705Y-874650D02*
X748277Y-874650D01*
X748277Y-874650D02*
X767324Y-884174D01*
X767324Y-884174D02*
X776848Y-903222D01*
X776848Y-903222D02*
X776848Y-1007984D01*
X872086Y-1007984D02*
X872086Y-874650D01*
X872086Y-893698D02*
X881610Y-884174D01*
X881610Y-884174D02*
X900658Y-874650D01*
X900658Y-874650D02*
X929229Y-874650D01*
X929229Y-874650D02*
X948277Y-884174D01*
X948277Y-884174D02*
X957801Y-903222D01*
X957801Y-903222D02*
X957801Y-1007984D01*
X957801Y-903222D02*
X967324Y-884174D01*
X967324Y-884174D02*
X986372Y-874650D01*
X986372Y-874650D02*
X1014943Y-874650D01*
X1014943Y-874650D02*
X1033991Y-884174D01*
X1033991Y-884174D02*
X1043515Y-903222D01*
X1043515Y-903222D02*
X1043515Y-1007984D01*
X1433991Y-798460D02*
X1262563Y-1055603D01*
X1691134Y-807984D02*
X1710182Y-807984D01*
X1710182Y-807984D02*
X1729229Y-817508D01*
X1729229Y-817508D02*
X1738753Y-827031D01*
X1738753Y-827031D02*
X1748277Y-846079D01*
X1748277Y-846079D02*
X1757801Y-884174D01*
X1757801Y-884174D02*
X1757801Y-931793D01*
X1757801Y-931793D02*
X1748277Y-969888D01*
X1748277Y-969888D02*
X1738753Y-988936D01*
X1738753Y-988936D02*
X1729229Y-998460D01*
X1729229Y-998460D02*
X1710182Y-1007984D01*
X1710182Y-1007984D02*
X1691134Y-1007984D01*
X1691134Y-1007984D02*
X1672086Y-998460D01*
X1672086Y-998460D02*
X1662563Y-988936D01*
X1662563Y-988936D02*
X1653039Y-969888D01*
X1653039Y-969888D02*
X1643515Y-931793D01*
X1643515Y-931793D02*
X1643515Y-884174D01*
X1643515Y-884174D02*
X1653039Y-846079D01*
X1653039Y-846079D02*
X1662563Y-827031D01*
X1662563Y-827031D02*
X1672086Y-817508D01*
X1672086Y-817508D02*
X1691134Y-807984D01*
X1843515Y-988936D02*
X1853039Y-998460D01*
X1853039Y-998460D02*
X1843515Y-1007984D01*
X1843515Y-1007984D02*
X1833991Y-998460D01*
X1833991Y-998460D02*
X1843515Y-988936D01*
X1843515Y-988936D02*
X1843515Y-1007984D01*
X2043515Y-1007984D02*
X1929229Y-1007984D01*
X1986372Y-1007984D02*
X1986372Y-807984D01*
X1986372Y-807984D02*
X1967325Y-836555D01*
X1967325Y-836555D02*
X1948277Y-855603D01*
X1948277Y-855603D02*
X1929229Y-865127D01*
X2233991Y-1007984D02*
X2119706Y-1007984D01*
X2176848Y-1007984D02*
X2176848Y-807984D01*
X2176848Y-807984D02*
X2157801Y-836555D01*
X2157801Y-836555D02*
X2138753Y-855603D01*
X2138753Y-855603D02*
X2119706Y-865127D01*
X2405420Y-807984D02*
X2367325Y-807984D01*
X2367325Y-807984D02*
X2348277Y-817508D01*
X2348277Y-817508D02*
X2338753Y-827031D01*
X2338753Y-827031D02*
X2319706Y-855603D01*
X2319706Y-855603D02*
X2310182Y-893698D01*
X2310182Y-893698D02*
X2310182Y-969888D01*
X2310182Y-969888D02*
X2319706Y-988936D01*
X2319706Y-988936D02*
X2329229Y-998460D01*
X2329229Y-998460D02*
X2348277Y-1007984D01*
X2348277Y-1007984D02*
X2386372Y-1007984D01*
X2386372Y-1007984D02*
X2405420Y-998460D01*
X2405420Y-998460D02*
X2414944Y-988936D01*
X2414944Y-988936D02*
X2424468Y-969888D01*
X2424468Y-969888D02*
X2424468Y-922269D01*
X2424468Y-922269D02*
X2414944Y-903222D01*
X2414944Y-903222D02*
X2405420Y-893698D01*
X2405420Y-893698D02*
X2386372Y-884174D01*
X2386372Y-884174D02*
X2348277Y-884174D01*
X2348277Y-884174D02*
X2329229Y-893698D01*
X2329229Y-893698D02*
X2319706Y-903222D01*
X2319706Y-903222D02*
X2310182Y-922269D01*
X2614944Y-1007984D02*
X2500658Y-1007984D01*
X2557801Y-1007984D02*
X2557801Y-807984D01*
X2557801Y-807984D02*
X2538753Y-836555D01*
X2538753Y-836555D02*
X2519706Y-855603D01*
X2519706Y-855603D02*
X2500658Y-865127D01*
X2691134Y-807984D02*
X2691134Y-846079D01*
X2767325Y-807984D02*
X2767325Y-846079D01*
X3062563Y-1084174D02*
X3053039Y-1074650D01*
X3053039Y-1074650D02*
X3033991Y-1046079D01*
X3033991Y-1046079D02*
X3024468Y-1027031D01*
X3024468Y-1027031D02*
X3014944Y-998460D01*
X3014944Y-998460D02*
X3005420Y-950841D01*
X3005420Y-950841D02*
X3005420Y-912746D01*
X3005420Y-912746D02*
X3014944Y-865127D01*
X3014944Y-865127D02*
X3024468Y-836555D01*
X3024468Y-836555D02*
X3033991Y-817508D01*
X3033991Y-817508D02*
X3053039Y-788936D01*
X3053039Y-788936D02*
X3062563Y-779412D01*
X3119706Y-807984D02*
X3253039Y-807984D01*
X3253039Y-807984D02*
X3167325Y-1007984D01*
X3481610Y-1007984D02*
X3481610Y-807984D01*
X3567325Y-1007984D02*
X3567325Y-903222D01*
X3567325Y-903222D02*
X3557801Y-884174D01*
X3557801Y-884174D02*
X3538753Y-874650D01*
X3538753Y-874650D02*
X3510182Y-874650D01*
X3510182Y-874650D02*
X3491134Y-884174D01*
X3491134Y-884174D02*
X3481610Y-893698D01*
X3691134Y-1007984D02*
X3672087Y-998460D01*
X3672087Y-998460D02*
X3662563Y-988936D01*
X3662563Y-988936D02*
X3653039Y-969888D01*
X3653039Y-969888D02*
X3653039Y-912746D01*
X3653039Y-912746D02*
X3662563Y-893698D01*
X3662563Y-893698D02*
X3672087Y-884174D01*
X3672087Y-884174D02*
X3691134Y-874650D01*
X3691134Y-874650D02*
X3719706Y-874650D01*
X3719706Y-874650D02*
X3738753Y-884174D01*
X3738753Y-884174D02*
X3748277Y-893698D01*
X3748277Y-893698D02*
X3757801Y-912746D01*
X3757801Y-912746D02*
X3757801Y-969888D01*
X3757801Y-969888D02*
X3748277Y-988936D01*
X3748277Y-988936D02*
X3738753Y-998460D01*
X3738753Y-998460D02*
X3719706Y-1007984D01*
X3719706Y-1007984D02*
X3691134Y-1007984D01*
X3872087Y-1007984D02*
X3853039Y-998460D01*
X3853039Y-998460D02*
X3843515Y-979412D01*
X3843515Y-979412D02*
X3843515Y-807984D01*
X4024468Y-998460D02*
X4005420Y-1007984D01*
X4005420Y-1007984D02*
X3967325Y-1007984D01*
X3967325Y-1007984D02*
X3948277Y-998460D01*
X3948277Y-998460D02*
X3938753Y-979412D01*
X3938753Y-979412D02*
X3938753Y-903222D01*
X3938753Y-903222D02*
X3948277Y-884174D01*
X3948277Y-884174D02*
X3967325Y-874650D01*
X3967325Y-874650D02*
X4005420Y-874650D01*
X4005420Y-874650D02*
X4024468Y-884174D01*
X4024468Y-884174D02*
X4033991Y-903222D01*
X4033991Y-903222D02*
X4033991Y-922269D01*
X4033991Y-922269D02*
X3938753Y-941317D01*
X4110182Y-998460D02*
X4129230Y-1007984D01*
X4129230Y-1007984D02*
X4167325Y-1007984D01*
X4167325Y-1007984D02*
X4186372Y-998460D01*
X4186372Y-998460D02*
X4195896Y-979412D01*
X4195896Y-979412D02*
X4195896Y-969888D01*
X4195896Y-969888D02*
X4186372Y-950841D01*
X4186372Y-950841D02*
X4167325Y-941317D01*
X4167325Y-941317D02*
X4138753Y-941317D01*
X4138753Y-941317D02*
X4119706Y-931793D01*
X4119706Y-931793D02*
X4110182Y-912746D01*
X4110182Y-912746D02*
X4110182Y-903222D01*
X4110182Y-903222D02*
X4119706Y-884174D01*
X4119706Y-884174D02*
X4138753Y-874650D01*
X4138753Y-874650D02*
X4167325Y-874650D01*
X4167325Y-874650D02*
X4186372Y-884174D01*
X4262563Y-1084174D02*
X4272087Y-1074650D01*
X4272087Y-1074650D02*
X4291134Y-1046079D01*
X4291134Y-1046079D02*
X4300658Y-1027031D01*
X4300658Y-1027031D02*
X4310182Y-998460D01*
X4310182Y-998460D02*
X4319706Y-950841D01*
X4319706Y-950841D02*
X4319706Y-912746D01*
X4319706Y-912746D02*
X4310182Y-865127D01*
X4310182Y-865127D02*
X4300658Y-836555D01*
X4300658Y-836555D02*
X4291134Y-817508D01*
X4291134Y-817508D02*
X4272087Y-788936D01*
X4272087Y-788936D02*
X4262563Y-779412D01*
X4624468Y-1084174D02*
X4614944Y-1074650D01*
X4614944Y-1074650D02*
X4595896Y-1046079D01*
X4595896Y-1046079D02*
X4586373Y-1027031D01*
X4586373Y-1027031D02*
X4576849Y-998460D01*
X4576849Y-998460D02*
X4567325Y-950841D01*
X4567325Y-950841D02*
X4567325Y-912746D01*
X4567325Y-912746D02*
X4576849Y-865127D01*
X4576849Y-865127D02*
X4586373Y-836555D01*
X4586373Y-836555D02*
X4595896Y-817508D01*
X4595896Y-817508D02*
X4614944Y-788936D01*
X4614944Y-788936D02*
X4624468Y-779412D01*
X4700658Y-874650D02*
X4700658Y-1007984D01*
X4700658Y-893698D02*
X4710182Y-884174D01*
X4710182Y-884174D02*
X4729230Y-874650D01*
X4729230Y-874650D02*
X4757801Y-874650D01*
X4757801Y-874650D02*
X4776849Y-884174D01*
X4776849Y-884174D02*
X4786373Y-903222D01*
X4786373Y-903222D02*
X4786373Y-1007984D01*
X4910182Y-1007984D02*
X4891134Y-998460D01*
X4891134Y-998460D02*
X4881611Y-988936D01*
X4881611Y-988936D02*
X4872087Y-969888D01*
X4872087Y-969888D02*
X4872087Y-912746D01*
X4872087Y-912746D02*
X4881611Y-893698D01*
X4881611Y-893698D02*
X4891134Y-884174D01*
X4891134Y-884174D02*
X4910182Y-874650D01*
X4910182Y-874650D02*
X4938754Y-874650D01*
X4938754Y-874650D02*
X4957801Y-884174D01*
X4957801Y-884174D02*
X4967325Y-893698D01*
X4967325Y-893698D02*
X4976849Y-912746D01*
X4976849Y-912746D02*
X4976849Y-969888D01*
X4976849Y-969888D02*
X4967325Y-988936D01*
X4967325Y-988936D02*
X4957801Y-998460D01*
X4957801Y-998460D02*
X4938754Y-1007984D01*
X4938754Y-1007984D02*
X4910182Y-1007984D01*
X5033992Y-874650D02*
X5110182Y-874650D01*
X5062563Y-807984D02*
X5062563Y-979412D01*
X5062563Y-979412D02*
X5072087Y-998460D01*
X5072087Y-998460D02*
X5091134Y-1007984D01*
X5091134Y-1007984D02*
X5110182Y-1007984D01*
X5329230Y-874650D02*
X5329230Y-1074650D01*
X5329230Y-884174D02*
X5348277Y-874650D01*
X5348277Y-874650D02*
X5386373Y-874650D01*
X5386373Y-874650D02*
X5405420Y-884174D01*
X5405420Y-884174D02*
X5414944Y-893698D01*
X5414944Y-893698D02*
X5424468Y-912746D01*
X5424468Y-912746D02*
X5424468Y-969888D01*
X5424468Y-969888D02*
X5414944Y-988936D01*
X5414944Y-988936D02*
X5405420Y-998460D01*
X5405420Y-998460D02*
X5386373Y-1007984D01*
X5386373Y-1007984D02*
X5348277Y-1007984D01*
X5348277Y-1007984D02*
X5329230Y-998460D01*
X5538754Y-1007984D02*
X5519706Y-998460D01*
X5519706Y-998460D02*
X5510182Y-979412D01*
X5510182Y-979412D02*
X5510182Y-807984D01*
X5700658Y-1007984D02*
X5700658Y-903222D01*
X5700658Y-903222D02*
X5691134Y-884174D01*
X5691134Y-884174D02*
X5672087Y-874650D01*
X5672087Y-874650D02*
X5633992Y-874650D01*
X5633992Y-874650D02*
X5614944Y-884174D01*
X5700658Y-998460D02*
X5681611Y-1007984D01*
X5681611Y-1007984D02*
X5633992Y-1007984D01*
X5633992Y-1007984D02*
X5614944Y-998460D01*
X5614944Y-998460D02*
X5605420Y-979412D01*
X5605420Y-979412D02*
X5605420Y-960365D01*
X5605420Y-960365D02*
X5614944Y-941317D01*
X5614944Y-941317D02*
X5633992Y-931793D01*
X5633992Y-931793D02*
X5681611Y-931793D01*
X5681611Y-931793D02*
X5700658Y-922269D01*
X5767325Y-874650D02*
X5843515Y-874650D01*
X5795896Y-807984D02*
X5795896Y-979412D01*
X5795896Y-979412D02*
X5805420Y-998460D01*
X5805420Y-998460D02*
X5824468Y-1007984D01*
X5824468Y-1007984D02*
X5843515Y-1007984D01*
X5986373Y-998460D02*
X5967325Y-1007984D01*
X5967325Y-1007984D02*
X5929230Y-1007984D01*
X5929230Y-1007984D02*
X5910182Y-998460D01*
X5910182Y-998460D02*
X5900658Y-979412D01*
X5900658Y-979412D02*
X5900658Y-903222D01*
X5900658Y-903222D02*
X5910182Y-884174D01*
X5910182Y-884174D02*
X5929230Y-874650D01*
X5929230Y-874650D02*
X5967325Y-874650D01*
X5967325Y-874650D02*
X5986373Y-884174D01*
X5986373Y-884174D02*
X5995896Y-903222D01*
X5995896Y-903222D02*
X5995896Y-922269D01*
X5995896Y-922269D02*
X5900658Y-941317D01*
X6167325Y-1007984D02*
X6167325Y-807984D01*
X6167325Y-998460D02*
X6148277Y-1007984D01*
X6148277Y-1007984D02*
X6110182Y-1007984D01*
X6110182Y-1007984D02*
X6091134Y-998460D01*
X6091134Y-998460D02*
X6081611Y-988936D01*
X6081611Y-988936D02*
X6072087Y-969888D01*
X6072087Y-969888D02*
X6072087Y-912746D01*
X6072087Y-912746D02*
X6081611Y-893698D01*
X6081611Y-893698D02*
X6091134Y-884174D01*
X6091134Y-884174D02*
X6110182Y-874650D01*
X6110182Y-874650D02*
X6148277Y-874650D01*
X6148277Y-874650D02*
X6167325Y-884174D01*
X6243515Y-1084174D02*
X6253039Y-1074650D01*
X6253039Y-1074650D02*
X6272087Y-1046079D01*
X6272087Y-1046079D02*
X6281611Y-1027031D01*
X6281611Y-1027031D02*
X6291134Y-998460D01*
X6291134Y-998460D02*
X6300658Y-950841D01*
X6300658Y-950841D02*
X6300658Y-912746D01*
X6300658Y-912746D02*
X6291134Y-865127D01*
X6291134Y-865127D02*
X6281611Y-836555D01*
X6281611Y-836555D02*
X6272087Y-817508D01*
X6272087Y-817508D02*
X6253039Y-788936D01*
X6253039Y-788936D02*
X6243515Y-779412D01*
X-612500Y-1136500D02*
X-612500Y-1336500D01*
X-712500Y-1236500D02*
X-512500Y-1236500D01*
X-166009Y-1127984D02*
X-204104Y-1127984D01*
X-204104Y-1127984D02*
X-223152Y-1137508D01*
X-223152Y-1137508D02*
X-232676Y-1147031D01*
X-232676Y-1147031D02*
X-251723Y-1175603D01*
X-251723Y-1175603D02*
X-261247Y-1213698D01*
X-261247Y-1213698D02*
X-261247Y-1289889D01*
X-261247Y-1289889D02*
X-251723Y-1308936D01*
X-251723Y-1308936D02*
X-242199Y-1318460D01*
X-242199Y-1318460D02*
X-223152Y-1327984D01*
X-223152Y-1327984D02*
X-185056Y-1327984D01*
X-185056Y-1327984D02*
X-166009Y-1318460D01*
X-166009Y-1318460D02*
X-156485Y-1308936D01*
X-156485Y-1308936D02*
X-146961Y-1289889D01*
X-146961Y-1289889D02*
X-146961Y-1242270D01*
X-146961Y-1242270D02*
X-156485Y-1223222D01*
X-156485Y-1223222D02*
X-166009Y-1213698D01*
X-166009Y-1213698D02*
X-185056Y-1204174D01*
X-185056Y-1204174D02*
X-223152Y-1204174D01*
X-223152Y-1204174D02*
X-242199Y-1213698D01*
X-242199Y-1213698D02*
X-251723Y-1223222D01*
X-251723Y-1223222D02*
X-261247Y-1242270D01*
X-61247Y-1308936D02*
X-51723Y-1318460D01*
X-51723Y-1318460D02*
X-61247Y-1327984D01*
X-61247Y-1327984D02*
X-70771Y-1318460D01*
X-70771Y-1318460D02*
X-61247Y-1308936D01*
X-61247Y-1308936D02*
X-61247Y-1327984D01*
X72086Y-1127984D02*
X91134Y-1127984D01*
X91134Y-1127984D02*
X110182Y-1137508D01*
X110182Y-1137508D02*
X119705Y-1147031D01*
X119705Y-1147031D02*
X129229Y-1166079D01*
X129229Y-1166079D02*
X138753Y-1204174D01*
X138753Y-1204174D02*
X138753Y-1251793D01*
X138753Y-1251793D02*
X129229Y-1289889D01*
X129229Y-1289889D02*
X119705Y-1308936D01*
X119705Y-1308936D02*
X110182Y-1318460D01*
X110182Y-1318460D02*
X91134Y-1327984D01*
X91134Y-1327984D02*
X72086Y-1327984D01*
X72086Y-1327984D02*
X53039Y-1318460D01*
X53039Y-1318460D02*
X43515Y-1308936D01*
X43515Y-1308936D02*
X33991Y-1289889D01*
X33991Y-1289889D02*
X24467Y-1251793D01*
X24467Y-1251793D02*
X24467Y-1204174D01*
X24467Y-1204174D02*
X33991Y-1166079D01*
X33991Y-1166079D02*
X43515Y-1147031D01*
X43515Y-1147031D02*
X53039Y-1137508D01*
X53039Y-1137508D02*
X72086Y-1127984D01*
X319705Y-1127984D02*
X224467Y-1127984D01*
X224467Y-1127984D02*
X214943Y-1223222D01*
X214943Y-1223222D02*
X224467Y-1213698D01*
X224467Y-1213698D02*
X243515Y-1204174D01*
X243515Y-1204174D02*
X291134Y-1204174D01*
X291134Y-1204174D02*
X310182Y-1213698D01*
X310182Y-1213698D02*
X319705Y-1223222D01*
X319705Y-1223222D02*
X329229Y-1242270D01*
X329229Y-1242270D02*
X329229Y-1289889D01*
X329229Y-1289889D02*
X319705Y-1308936D01*
X319705Y-1308936D02*
X310182Y-1318460D01*
X310182Y-1318460D02*
X291134Y-1327984D01*
X291134Y-1327984D02*
X243515Y-1327984D01*
X243515Y-1327984D02*
X224467Y-1318460D01*
X224467Y-1318460D02*
X214943Y-1308936D01*
X453039Y-1127984D02*
X472086Y-1127984D01*
X472086Y-1127984D02*
X491134Y-1137508D01*
X491134Y-1137508D02*
X500658Y-1147031D01*
X500658Y-1147031D02*
X510182Y-1166079D01*
X510182Y-1166079D02*
X519705Y-1204174D01*
X519705Y-1204174D02*
X519705Y-1251793D01*
X519705Y-1251793D02*
X510182Y-1289889D01*
X510182Y-1289889D02*
X500658Y-1308936D01*
X500658Y-1308936D02*
X491134Y-1318460D01*
X491134Y-1318460D02*
X472086Y-1327984D01*
X472086Y-1327984D02*
X453039Y-1327984D01*
X453039Y-1327984D02*
X433991Y-1318460D01*
X433991Y-1318460D02*
X424467Y-1308936D01*
X424467Y-1308936D02*
X414943Y-1289889D01*
X414943Y-1289889D02*
X405420Y-1251793D01*
X405420Y-1251793D02*
X405420Y-1204174D01*
X405420Y-1204174D02*
X414943Y-1166079D01*
X414943Y-1166079D02*
X424467Y-1147031D01*
X424467Y-1147031D02*
X433991Y-1137508D01*
X433991Y-1137508D02*
X453039Y-1127984D01*
X605420Y-1327984D02*
X605420Y-1194650D01*
X605420Y-1213698D02*
X614944Y-1204174D01*
X614944Y-1204174D02*
X633991Y-1194650D01*
X633991Y-1194650D02*
X662563Y-1194650D01*
X662563Y-1194650D02*
X681610Y-1204174D01*
X681610Y-1204174D02*
X691134Y-1223222D01*
X691134Y-1223222D02*
X691134Y-1327984D01*
X691134Y-1223222D02*
X700658Y-1204174D01*
X700658Y-1204174D02*
X719705Y-1194650D01*
X719705Y-1194650D02*
X748277Y-1194650D01*
X748277Y-1194650D02*
X767324Y-1204174D01*
X767324Y-1204174D02*
X776848Y-1223222D01*
X776848Y-1223222D02*
X776848Y-1327984D01*
X872086Y-1327984D02*
X872086Y-1194650D01*
X872086Y-1213698D02*
X881610Y-1204174D01*
X881610Y-1204174D02*
X900658Y-1194650D01*
X900658Y-1194650D02*
X929229Y-1194650D01*
X929229Y-1194650D02*
X948277Y-1204174D01*
X948277Y-1204174D02*
X957801Y-1223222D01*
X957801Y-1223222D02*
X957801Y-1327984D01*
X957801Y-1223222D02*
X967324Y-1204174D01*
X967324Y-1204174D02*
X986372Y-1194650D01*
X986372Y-1194650D02*
X1014943Y-1194650D01*
X1014943Y-1194650D02*
X1033991Y-1204174D01*
X1033991Y-1204174D02*
X1043515Y-1223222D01*
X1043515Y-1223222D02*
X1043515Y-1327984D01*
X1433991Y-1118460D02*
X1262563Y-1375603D01*
X1691134Y-1127984D02*
X1710182Y-1127984D01*
X1710182Y-1127984D02*
X1729229Y-1137508D01*
X1729229Y-1137508D02*
X1738753Y-1147031D01*
X1738753Y-1147031D02*
X1748277Y-1166079D01*
X1748277Y-1166079D02*
X1757801Y-1204174D01*
X1757801Y-1204174D02*
X1757801Y-1251793D01*
X1757801Y-1251793D02*
X1748277Y-1289889D01*
X1748277Y-1289889D02*
X1738753Y-1308936D01*
X1738753Y-1308936D02*
X1729229Y-1318460D01*
X1729229Y-1318460D02*
X1710182Y-1327984D01*
X1710182Y-1327984D02*
X1691134Y-1327984D01*
X1691134Y-1327984D02*
X1672086Y-1318460D01*
X1672086Y-1318460D02*
X1662563Y-1308936D01*
X1662563Y-1308936D02*
X1653039Y-1289889D01*
X1653039Y-1289889D02*
X1643515Y-1251793D01*
X1643515Y-1251793D02*
X1643515Y-1204174D01*
X1643515Y-1204174D02*
X1653039Y-1166079D01*
X1653039Y-1166079D02*
X1662563Y-1147031D01*
X1662563Y-1147031D02*
X1672086Y-1137508D01*
X1672086Y-1137508D02*
X1691134Y-1127984D01*
X1843515Y-1308936D02*
X1853039Y-1318460D01*
X1853039Y-1318460D02*
X1843515Y-1327984D01*
X1843515Y-1327984D02*
X1833991Y-1318460D01*
X1833991Y-1318460D02*
X1843515Y-1308936D01*
X1843515Y-1308936D02*
X1843515Y-1327984D01*
X1929229Y-1147031D02*
X1938753Y-1137508D01*
X1938753Y-1137508D02*
X1957801Y-1127984D01*
X1957801Y-1127984D02*
X2005420Y-1127984D01*
X2005420Y-1127984D02*
X2024467Y-1137508D01*
X2024467Y-1137508D02*
X2033991Y-1147031D01*
X2033991Y-1147031D02*
X2043515Y-1166079D01*
X2043515Y-1166079D02*
X2043515Y-1185127D01*
X2043515Y-1185127D02*
X2033991Y-1213698D01*
X2033991Y-1213698D02*
X1919706Y-1327984D01*
X1919706Y-1327984D02*
X2043515Y-1327984D01*
X2110182Y-1127984D02*
X2233991Y-1127984D01*
X2233991Y-1127984D02*
X2167325Y-1204174D01*
X2167325Y-1204174D02*
X2195896Y-1204174D01*
X2195896Y-1204174D02*
X2214944Y-1213698D01*
X2214944Y-1213698D02*
X2224468Y-1223222D01*
X2224468Y-1223222D02*
X2233991Y-1242270D01*
X2233991Y-1242270D02*
X2233991Y-1289889D01*
X2233991Y-1289889D02*
X2224468Y-1308936D01*
X2224468Y-1308936D02*
X2214944Y-1318460D01*
X2214944Y-1318460D02*
X2195896Y-1327984D01*
X2195896Y-1327984D02*
X2138753Y-1327984D01*
X2138753Y-1327984D02*
X2119706Y-1318460D01*
X2119706Y-1318460D02*
X2110182Y-1308936D01*
X2348277Y-1213698D02*
X2329229Y-1204174D01*
X2329229Y-1204174D02*
X2319706Y-1194650D01*
X2319706Y-1194650D02*
X2310182Y-1175603D01*
X2310182Y-1175603D02*
X2310182Y-1166079D01*
X2310182Y-1166079D02*
X2319706Y-1147031D01*
X2319706Y-1147031D02*
X2329229Y-1137508D01*
X2329229Y-1137508D02*
X2348277Y-1127984D01*
X2348277Y-1127984D02*
X2386372Y-1127984D01*
X2386372Y-1127984D02*
X2405420Y-1137508D01*
X2405420Y-1137508D02*
X2414944Y-1147031D01*
X2414944Y-1147031D02*
X2424468Y-1166079D01*
X2424468Y-1166079D02*
X2424468Y-1175603D01*
X2424468Y-1175603D02*
X2414944Y-1194650D01*
X2414944Y-1194650D02*
X2405420Y-1204174D01*
X2405420Y-1204174D02*
X2386372Y-1213698D01*
X2386372Y-1213698D02*
X2348277Y-1213698D01*
X2348277Y-1213698D02*
X2329229Y-1223222D01*
X2329229Y-1223222D02*
X2319706Y-1232746D01*
X2319706Y-1232746D02*
X2310182Y-1251793D01*
X2310182Y-1251793D02*
X2310182Y-1289889D01*
X2310182Y-1289889D02*
X2319706Y-1308936D01*
X2319706Y-1308936D02*
X2329229Y-1318460D01*
X2329229Y-1318460D02*
X2348277Y-1327984D01*
X2348277Y-1327984D02*
X2386372Y-1327984D01*
X2386372Y-1327984D02*
X2405420Y-1318460D01*
X2405420Y-1318460D02*
X2414944Y-1308936D01*
X2414944Y-1308936D02*
X2424468Y-1289889D01*
X2424468Y-1289889D02*
X2424468Y-1251793D01*
X2424468Y-1251793D02*
X2414944Y-1232746D01*
X2414944Y-1232746D02*
X2405420Y-1223222D01*
X2405420Y-1223222D02*
X2386372Y-1213698D01*
X2500658Y-1147031D02*
X2510182Y-1137508D01*
X2510182Y-1137508D02*
X2529229Y-1127984D01*
X2529229Y-1127984D02*
X2576849Y-1127984D01*
X2576849Y-1127984D02*
X2595896Y-1137508D01*
X2595896Y-1137508D02*
X2605420Y-1147031D01*
X2605420Y-1147031D02*
X2614944Y-1166079D01*
X2614944Y-1166079D02*
X2614944Y-1185127D01*
X2614944Y-1185127D02*
X2605420Y-1213698D01*
X2605420Y-1213698D02*
X2491134Y-1327984D01*
X2491134Y-1327984D02*
X2614944Y-1327984D01*
X2691134Y-1127984D02*
X2691134Y-1166079D01*
X2767325Y-1127984D02*
X2767325Y-1166079D01*
X3062563Y-1404174D02*
X3053039Y-1394650D01*
X3053039Y-1394650D02*
X3033991Y-1366079D01*
X3033991Y-1366079D02*
X3024468Y-1347031D01*
X3024468Y-1347031D02*
X3014944Y-1318460D01*
X3014944Y-1318460D02*
X3005420Y-1270841D01*
X3005420Y-1270841D02*
X3005420Y-1232746D01*
X3005420Y-1232746D02*
X3014944Y-1185127D01*
X3014944Y-1185127D02*
X3024468Y-1156555D01*
X3024468Y-1156555D02*
X3033991Y-1137508D01*
X3033991Y-1137508D02*
X3053039Y-1108936D01*
X3053039Y-1108936D02*
X3062563Y-1099412D01*
X3119706Y-1127984D02*
X3243515Y-1127984D01*
X3243515Y-1127984D02*
X3176848Y-1204174D01*
X3176848Y-1204174D02*
X3205420Y-1204174D01*
X3205420Y-1204174D02*
X3224468Y-1213698D01*
X3224468Y-1213698D02*
X3233991Y-1223222D01*
X3233991Y-1223222D02*
X3243515Y-1242270D01*
X3243515Y-1242270D02*
X3243515Y-1289889D01*
X3243515Y-1289889D02*
X3233991Y-1308936D01*
X3233991Y-1308936D02*
X3224468Y-1318460D01*
X3224468Y-1318460D02*
X3205420Y-1327984D01*
X3205420Y-1327984D02*
X3148277Y-1327984D01*
X3148277Y-1327984D02*
X3129229Y-1318460D01*
X3129229Y-1318460D02*
X3119706Y-1308936D01*
X3481610Y-1327984D02*
X3481610Y-1127984D01*
X3567325Y-1327984D02*
X3567325Y-1223222D01*
X3567325Y-1223222D02*
X3557801Y-1204174D01*
X3557801Y-1204174D02*
X3538753Y-1194650D01*
X3538753Y-1194650D02*
X3510182Y-1194650D01*
X3510182Y-1194650D02*
X3491134Y-1204174D01*
X3491134Y-1204174D02*
X3481610Y-1213698D01*
X3691134Y-1327984D02*
X3672087Y-1318460D01*
X3672087Y-1318460D02*
X3662563Y-1308936D01*
X3662563Y-1308936D02*
X3653039Y-1289889D01*
X3653039Y-1289889D02*
X3653039Y-1232746D01*
X3653039Y-1232746D02*
X3662563Y-1213698D01*
X3662563Y-1213698D02*
X3672087Y-1204174D01*
X3672087Y-1204174D02*
X3691134Y-1194650D01*
X3691134Y-1194650D02*
X3719706Y-1194650D01*
X3719706Y-1194650D02*
X3738753Y-1204174D01*
X3738753Y-1204174D02*
X3748277Y-1213698D01*
X3748277Y-1213698D02*
X3757801Y-1232746D01*
X3757801Y-1232746D02*
X3757801Y-1289889D01*
X3757801Y-1289889D02*
X3748277Y-1308936D01*
X3748277Y-1308936D02*
X3738753Y-1318460D01*
X3738753Y-1318460D02*
X3719706Y-1327984D01*
X3719706Y-1327984D02*
X3691134Y-1327984D01*
X3872087Y-1327984D02*
X3853039Y-1318460D01*
X3853039Y-1318460D02*
X3843515Y-1299412D01*
X3843515Y-1299412D02*
X3843515Y-1127984D01*
X4024468Y-1318460D02*
X4005420Y-1327984D01*
X4005420Y-1327984D02*
X3967325Y-1327984D01*
X3967325Y-1327984D02*
X3948277Y-1318460D01*
X3948277Y-1318460D02*
X3938753Y-1299412D01*
X3938753Y-1299412D02*
X3938753Y-1223222D01*
X3938753Y-1223222D02*
X3948277Y-1204174D01*
X3948277Y-1204174D02*
X3967325Y-1194650D01*
X3967325Y-1194650D02*
X4005420Y-1194650D01*
X4005420Y-1194650D02*
X4024468Y-1204174D01*
X4024468Y-1204174D02*
X4033991Y-1223222D01*
X4033991Y-1223222D02*
X4033991Y-1242270D01*
X4033991Y-1242270D02*
X3938753Y-1261317D01*
X4110182Y-1318460D02*
X4129230Y-1327984D01*
X4129230Y-1327984D02*
X4167325Y-1327984D01*
X4167325Y-1327984D02*
X4186372Y-1318460D01*
X4186372Y-1318460D02*
X4195896Y-1299412D01*
X4195896Y-1299412D02*
X4195896Y-1289889D01*
X4195896Y-1289889D02*
X4186372Y-1270841D01*
X4186372Y-1270841D02*
X4167325Y-1261317D01*
X4167325Y-1261317D02*
X4138753Y-1261317D01*
X4138753Y-1261317D02*
X4119706Y-1251793D01*
X4119706Y-1251793D02*
X4110182Y-1232746D01*
X4110182Y-1232746D02*
X4110182Y-1223222D01*
X4110182Y-1223222D02*
X4119706Y-1204174D01*
X4119706Y-1204174D02*
X4138753Y-1194650D01*
X4138753Y-1194650D02*
X4167325Y-1194650D01*
X4167325Y-1194650D02*
X4186372Y-1204174D01*
X4262563Y-1404174D02*
X4272087Y-1394650D01*
X4272087Y-1394650D02*
X4291134Y-1366079D01*
X4291134Y-1366079D02*
X4300658Y-1347031D01*
X4300658Y-1347031D02*
X4310182Y-1318460D01*
X4310182Y-1318460D02*
X4319706Y-1270841D01*
X4319706Y-1270841D02*
X4319706Y-1232746D01*
X4319706Y-1232746D02*
X4310182Y-1185127D01*
X4310182Y-1185127D02*
X4300658Y-1156555D01*
X4300658Y-1156555D02*
X4291134Y-1137508D01*
X4291134Y-1137508D02*
X4272087Y-1108936D01*
X4272087Y-1108936D02*
X4262563Y-1099412D01*
X4624468Y-1404174D02*
X4614944Y-1394650D01*
X4614944Y-1394650D02*
X4595896Y-1366079D01*
X4595896Y-1366079D02*
X4586373Y-1347031D01*
X4586373Y-1347031D02*
X4576849Y-1318460D01*
X4576849Y-1318460D02*
X4567325Y-1270841D01*
X4567325Y-1270841D02*
X4567325Y-1232746D01*
X4567325Y-1232746D02*
X4576849Y-1185127D01*
X4576849Y-1185127D02*
X4586373Y-1156555D01*
X4586373Y-1156555D02*
X4595896Y-1137508D01*
X4595896Y-1137508D02*
X4614944Y-1108936D01*
X4614944Y-1108936D02*
X4624468Y-1099412D01*
X4700658Y-1194650D02*
X4700658Y-1327984D01*
X4700658Y-1213698D02*
X4710182Y-1204174D01*
X4710182Y-1204174D02*
X4729230Y-1194650D01*
X4729230Y-1194650D02*
X4757801Y-1194650D01*
X4757801Y-1194650D02*
X4776849Y-1204174D01*
X4776849Y-1204174D02*
X4786373Y-1223222D01*
X4786373Y-1223222D02*
X4786373Y-1327984D01*
X4910182Y-1327984D02*
X4891134Y-1318460D01*
X4891134Y-1318460D02*
X4881611Y-1308936D01*
X4881611Y-1308936D02*
X4872087Y-1289889D01*
X4872087Y-1289889D02*
X4872087Y-1232746D01*
X4872087Y-1232746D02*
X4881611Y-1213698D01*
X4881611Y-1213698D02*
X4891134Y-1204174D01*
X4891134Y-1204174D02*
X4910182Y-1194650D01*
X4910182Y-1194650D02*
X4938754Y-1194650D01*
X4938754Y-1194650D02*
X4957801Y-1204174D01*
X4957801Y-1204174D02*
X4967325Y-1213698D01*
X4967325Y-1213698D02*
X4976849Y-1232746D01*
X4976849Y-1232746D02*
X4976849Y-1289889D01*
X4976849Y-1289889D02*
X4967325Y-1308936D01*
X4967325Y-1308936D02*
X4957801Y-1318460D01*
X4957801Y-1318460D02*
X4938754Y-1327984D01*
X4938754Y-1327984D02*
X4910182Y-1327984D01*
X5033992Y-1194650D02*
X5110182Y-1194650D01*
X5062563Y-1127984D02*
X5062563Y-1299412D01*
X5062563Y-1299412D02*
X5072087Y-1318460D01*
X5072087Y-1318460D02*
X5091134Y-1327984D01*
X5091134Y-1327984D02*
X5110182Y-1327984D01*
X5329230Y-1194650D02*
X5329230Y-1394650D01*
X5329230Y-1204174D02*
X5348277Y-1194650D01*
X5348277Y-1194650D02*
X5386373Y-1194650D01*
X5386373Y-1194650D02*
X5405420Y-1204174D01*
X5405420Y-1204174D02*
X5414944Y-1213698D01*
X5414944Y-1213698D02*
X5424468Y-1232746D01*
X5424468Y-1232746D02*
X5424468Y-1289889D01*
X5424468Y-1289889D02*
X5414944Y-1308936D01*
X5414944Y-1308936D02*
X5405420Y-1318460D01*
X5405420Y-1318460D02*
X5386373Y-1327984D01*
X5386373Y-1327984D02*
X5348277Y-1327984D01*
X5348277Y-1327984D02*
X5329230Y-1318460D01*
X5538754Y-1327984D02*
X5519706Y-1318460D01*
X5519706Y-1318460D02*
X5510182Y-1299412D01*
X5510182Y-1299412D02*
X5510182Y-1127984D01*
X5700658Y-1327984D02*
X5700658Y-1223222D01*
X5700658Y-1223222D02*
X5691134Y-1204174D01*
X5691134Y-1204174D02*
X5672087Y-1194650D01*
X5672087Y-1194650D02*
X5633992Y-1194650D01*
X5633992Y-1194650D02*
X5614944Y-1204174D01*
X5700658Y-1318460D02*
X5681611Y-1327984D01*
X5681611Y-1327984D02*
X5633992Y-1327984D01*
X5633992Y-1327984D02*
X5614944Y-1318460D01*
X5614944Y-1318460D02*
X5605420Y-1299412D01*
X5605420Y-1299412D02*
X5605420Y-1280365D01*
X5605420Y-1280365D02*
X5614944Y-1261317D01*
X5614944Y-1261317D02*
X5633992Y-1251793D01*
X5633992Y-1251793D02*
X5681611Y-1251793D01*
X5681611Y-1251793D02*
X5700658Y-1242270D01*
X5767325Y-1194650D02*
X5843515Y-1194650D01*
X5795896Y-1127984D02*
X5795896Y-1299412D01*
X5795896Y-1299412D02*
X5805420Y-1318460D01*
X5805420Y-1318460D02*
X5824468Y-1327984D01*
X5824468Y-1327984D02*
X5843515Y-1327984D01*
X5986373Y-1318460D02*
X5967325Y-1327984D01*
X5967325Y-1327984D02*
X5929230Y-1327984D01*
X5929230Y-1327984D02*
X5910182Y-1318460D01*
X5910182Y-1318460D02*
X5900658Y-1299412D01*
X5900658Y-1299412D02*
X5900658Y-1223222D01*
X5900658Y-1223222D02*
X5910182Y-1204174D01*
X5910182Y-1204174D02*
X5929230Y-1194650D01*
X5929230Y-1194650D02*
X5967325Y-1194650D01*
X5967325Y-1194650D02*
X5986373Y-1204174D01*
X5986373Y-1204174D02*
X5995896Y-1223222D01*
X5995896Y-1223222D02*
X5995896Y-1242270D01*
X5995896Y-1242270D02*
X5900658Y-1261317D01*
X6167325Y-1327984D02*
X6167325Y-1127984D01*
X6167325Y-1318460D02*
X6148277Y-1327984D01*
X6148277Y-1327984D02*
X6110182Y-1327984D01*
X6110182Y-1327984D02*
X6091134Y-1318460D01*
X6091134Y-1318460D02*
X6081611Y-1308936D01*
X6081611Y-1308936D02*
X6072087Y-1289889D01*
X6072087Y-1289889D02*
X6072087Y-1232746D01*
X6072087Y-1232746D02*
X6081611Y-1213698D01*
X6081611Y-1213698D02*
X6091134Y-1204174D01*
X6091134Y-1204174D02*
X6110182Y-1194650D01*
X6110182Y-1194650D02*
X6148277Y-1194650D01*
X6148277Y-1194650D02*
X6167325Y-1204174D01*
X6243515Y-1404174D02*
X6253039Y-1394650D01*
X6253039Y-1394650D02*
X6272087Y-1366079D01*
X6272087Y-1366079D02*
X6281611Y-1347031D01*
X6281611Y-1347031D02*
X6291134Y-1318460D01*
X6291134Y-1318460D02*
X6300658Y-1270841D01*
X6300658Y-1270841D02*
X6300658Y-1232746D01*
X6300658Y-1232746D02*
X6291134Y-1185127D01*
X6291134Y-1185127D02*
X6281611Y-1156555D01*
X6281611Y-1156555D02*
X6272087Y-1137508D01*
X6272087Y-1137508D02*
X6253039Y-1108936D01*
X6253039Y-1108936D02*
X6243515Y-1099412D01*
X-541789Y-1627211D02*
X-541789Y-1485789D01*
X-683211Y-1485789D01*
X-683211Y-1627211D01*
X-541789Y-1627211D01*
X-270771Y-1447984D02*
X-137438Y-1447984D01*
X-137438Y-1447984D02*
X-223152Y-1647984D01*
X-61247Y-1628936D02*
X-51723Y-1638460D01*
X-51723Y-1638460D02*
X-61247Y-1647984D01*
X-61247Y-1647984D02*
X-70771Y-1638460D01*
X-70771Y-1638460D02*
X-61247Y-1628936D01*
X-61247Y-1628936D02*
X-61247Y-1647984D01*
X72086Y-1447984D02*
X91134Y-1447984D01*
X91134Y-1447984D02*
X110182Y-1457508D01*
X110182Y-1457508D02*
X119705Y-1467031D01*
X119705Y-1467031D02*
X129229Y-1486079D01*
X129229Y-1486079D02*
X138753Y-1524174D01*
X138753Y-1524174D02*
X138753Y-1571793D01*
X138753Y-1571793D02*
X129229Y-1609888D01*
X129229Y-1609888D02*
X119705Y-1628936D01*
X119705Y-1628936D02*
X110182Y-1638460D01*
X110182Y-1638460D02*
X91134Y-1647984D01*
X91134Y-1647984D02*
X72086Y-1647984D01*
X72086Y-1647984D02*
X53039Y-1638460D01*
X53039Y-1638460D02*
X43515Y-1628936D01*
X43515Y-1628936D02*
X33991Y-1609888D01*
X33991Y-1609888D02*
X24467Y-1571793D01*
X24467Y-1571793D02*
X24467Y-1524174D01*
X24467Y-1524174D02*
X33991Y-1486079D01*
X33991Y-1486079D02*
X43515Y-1467031D01*
X43515Y-1467031D02*
X53039Y-1457508D01*
X53039Y-1457508D02*
X72086Y-1447984D01*
X262563Y-1447984D02*
X281610Y-1447984D01*
X281610Y-1447984D02*
X300658Y-1457508D01*
X300658Y-1457508D02*
X310182Y-1467031D01*
X310182Y-1467031D02*
X319705Y-1486079D01*
X319705Y-1486079D02*
X329229Y-1524174D01*
X329229Y-1524174D02*
X329229Y-1571793D01*
X329229Y-1571793D02*
X319705Y-1609888D01*
X319705Y-1609888D02*
X310182Y-1628936D01*
X310182Y-1628936D02*
X300658Y-1638460D01*
X300658Y-1638460D02*
X281610Y-1647984D01*
X281610Y-1647984D02*
X262563Y-1647984D01*
X262563Y-1647984D02*
X243515Y-1638460D01*
X243515Y-1638460D02*
X233991Y-1628936D01*
X233991Y-1628936D02*
X224467Y-1609888D01*
X224467Y-1609888D02*
X214943Y-1571793D01*
X214943Y-1571793D02*
X214943Y-1524174D01*
X214943Y-1524174D02*
X224467Y-1486079D01*
X224467Y-1486079D02*
X233991Y-1467031D01*
X233991Y-1467031D02*
X243515Y-1457508D01*
X243515Y-1457508D02*
X262563Y-1447984D01*
X453039Y-1447984D02*
X472086Y-1447984D01*
X472086Y-1447984D02*
X491134Y-1457508D01*
X491134Y-1457508D02*
X500658Y-1467031D01*
X500658Y-1467031D02*
X510182Y-1486079D01*
X510182Y-1486079D02*
X519705Y-1524174D01*
X519705Y-1524174D02*
X519705Y-1571793D01*
X519705Y-1571793D02*
X510182Y-1609888D01*
X510182Y-1609888D02*
X500658Y-1628936D01*
X500658Y-1628936D02*
X491134Y-1638460D01*
X491134Y-1638460D02*
X472086Y-1647984D01*
X472086Y-1647984D02*
X453039Y-1647984D01*
X453039Y-1647984D02*
X433991Y-1638460D01*
X433991Y-1638460D02*
X424467Y-1628936D01*
X424467Y-1628936D02*
X414943Y-1609888D01*
X414943Y-1609888D02*
X405420Y-1571793D01*
X405420Y-1571793D02*
X405420Y-1524174D01*
X405420Y-1524174D02*
X414943Y-1486079D01*
X414943Y-1486079D02*
X424467Y-1467031D01*
X424467Y-1467031D02*
X433991Y-1457508D01*
X433991Y-1457508D02*
X453039Y-1447984D01*
X605420Y-1647984D02*
X605420Y-1514650D01*
X605420Y-1533698D02*
X614944Y-1524174D01*
X614944Y-1524174D02*
X633991Y-1514650D01*
X633991Y-1514650D02*
X662563Y-1514650D01*
X662563Y-1514650D02*
X681610Y-1524174D01*
X681610Y-1524174D02*
X691134Y-1543222D01*
X691134Y-1543222D02*
X691134Y-1647984D01*
X691134Y-1543222D02*
X700658Y-1524174D01*
X700658Y-1524174D02*
X719705Y-1514650D01*
X719705Y-1514650D02*
X748277Y-1514650D01*
X748277Y-1514650D02*
X767324Y-1524174D01*
X767324Y-1524174D02*
X776848Y-1543222D01*
X776848Y-1543222D02*
X776848Y-1647984D01*
X872086Y-1647984D02*
X872086Y-1514650D01*
X872086Y-1533698D02*
X881610Y-1524174D01*
X881610Y-1524174D02*
X900658Y-1514650D01*
X900658Y-1514650D02*
X929229Y-1514650D01*
X929229Y-1514650D02*
X948277Y-1524174D01*
X948277Y-1524174D02*
X957801Y-1543222D01*
X957801Y-1543222D02*
X957801Y-1647984D01*
X957801Y-1543222D02*
X967324Y-1524174D01*
X967324Y-1524174D02*
X986372Y-1514650D01*
X986372Y-1514650D02*
X1014943Y-1514650D01*
X1014943Y-1514650D02*
X1033991Y-1524174D01*
X1033991Y-1524174D02*
X1043515Y-1543222D01*
X1043515Y-1543222D02*
X1043515Y-1647984D01*
X1433991Y-1438460D02*
X1262563Y-1695603D01*
X1691134Y-1447984D02*
X1710182Y-1447984D01*
X1710182Y-1447984D02*
X1729229Y-1457508D01*
X1729229Y-1457508D02*
X1738753Y-1467031D01*
X1738753Y-1467031D02*
X1748277Y-1486079D01*
X1748277Y-1486079D02*
X1757801Y-1524174D01*
X1757801Y-1524174D02*
X1757801Y-1571793D01*
X1757801Y-1571793D02*
X1748277Y-1609888D01*
X1748277Y-1609888D02*
X1738753Y-1628936D01*
X1738753Y-1628936D02*
X1729229Y-1638460D01*
X1729229Y-1638460D02*
X1710182Y-1647984D01*
X1710182Y-1647984D02*
X1691134Y-1647984D01*
X1691134Y-1647984D02*
X1672086Y-1638460D01*
X1672086Y-1638460D02*
X1662563Y-1628936D01*
X1662563Y-1628936D02*
X1653039Y-1609888D01*
X1653039Y-1609888D02*
X1643515Y-1571793D01*
X1643515Y-1571793D02*
X1643515Y-1524174D01*
X1643515Y-1524174D02*
X1653039Y-1486079D01*
X1653039Y-1486079D02*
X1662563Y-1467031D01*
X1662563Y-1467031D02*
X1672086Y-1457508D01*
X1672086Y-1457508D02*
X1691134Y-1447984D01*
X1843515Y-1628936D02*
X1853039Y-1638460D01*
X1853039Y-1638460D02*
X1843515Y-1647984D01*
X1843515Y-1647984D02*
X1833991Y-1638460D01*
X1833991Y-1638460D02*
X1843515Y-1628936D01*
X1843515Y-1628936D02*
X1843515Y-1647984D01*
X1929229Y-1467031D02*
X1938753Y-1457508D01*
X1938753Y-1457508D02*
X1957801Y-1447984D01*
X1957801Y-1447984D02*
X2005420Y-1447984D01*
X2005420Y-1447984D02*
X2024467Y-1457508D01*
X2024467Y-1457508D02*
X2033991Y-1467031D01*
X2033991Y-1467031D02*
X2043515Y-1486079D01*
X2043515Y-1486079D02*
X2043515Y-1505127D01*
X2043515Y-1505127D02*
X2033991Y-1533698D01*
X2033991Y-1533698D02*
X1919706Y-1647984D01*
X1919706Y-1647984D02*
X2043515Y-1647984D01*
X2110182Y-1447984D02*
X2243515Y-1447984D01*
X2243515Y-1447984D02*
X2157801Y-1647984D01*
X2414944Y-1447984D02*
X2319706Y-1447984D01*
X2319706Y-1447984D02*
X2310182Y-1543222D01*
X2310182Y-1543222D02*
X2319706Y-1533698D01*
X2319706Y-1533698D02*
X2338753Y-1524174D01*
X2338753Y-1524174D02*
X2386372Y-1524174D01*
X2386372Y-1524174D02*
X2405420Y-1533698D01*
X2405420Y-1533698D02*
X2414944Y-1543222D01*
X2414944Y-1543222D02*
X2424468Y-1562269D01*
X2424468Y-1562269D02*
X2424468Y-1609888D01*
X2424468Y-1609888D02*
X2414944Y-1628936D01*
X2414944Y-1628936D02*
X2405420Y-1638460D01*
X2405420Y-1638460D02*
X2386372Y-1647984D01*
X2386372Y-1647984D02*
X2338753Y-1647984D01*
X2338753Y-1647984D02*
X2319706Y-1638460D01*
X2319706Y-1638460D02*
X2310182Y-1628936D01*
X2595896Y-1447984D02*
X2557801Y-1447984D01*
X2557801Y-1447984D02*
X2538753Y-1457508D01*
X2538753Y-1457508D02*
X2529229Y-1467031D01*
X2529229Y-1467031D02*
X2510182Y-1495603D01*
X2510182Y-1495603D02*
X2500658Y-1533698D01*
X2500658Y-1533698D02*
X2500658Y-1609888D01*
X2500658Y-1609888D02*
X2510182Y-1628936D01*
X2510182Y-1628936D02*
X2519706Y-1638460D01*
X2519706Y-1638460D02*
X2538753Y-1647984D01*
X2538753Y-1647984D02*
X2576849Y-1647984D01*
X2576849Y-1647984D02*
X2595896Y-1638460D01*
X2595896Y-1638460D02*
X2605420Y-1628936D01*
X2605420Y-1628936D02*
X2614944Y-1609888D01*
X2614944Y-1609888D02*
X2614944Y-1562269D01*
X2614944Y-1562269D02*
X2605420Y-1543222D01*
X2605420Y-1543222D02*
X2595896Y-1533698D01*
X2595896Y-1533698D02*
X2576849Y-1524174D01*
X2576849Y-1524174D02*
X2538753Y-1524174D01*
X2538753Y-1524174D02*
X2519706Y-1533698D01*
X2519706Y-1533698D02*
X2510182Y-1543222D01*
X2510182Y-1543222D02*
X2500658Y-1562269D01*
X2691134Y-1447984D02*
X2691134Y-1486079D01*
X2767325Y-1447984D02*
X2767325Y-1486079D01*
X3062563Y-1724174D02*
X3053039Y-1714650D01*
X3053039Y-1714650D02*
X3033991Y-1686079D01*
X3033991Y-1686079D02*
X3024468Y-1667031D01*
X3024468Y-1667031D02*
X3014944Y-1638460D01*
X3014944Y-1638460D02*
X3005420Y-1590841D01*
X3005420Y-1590841D02*
X3005420Y-1552746D01*
X3005420Y-1552746D02*
X3014944Y-1505127D01*
X3014944Y-1505127D02*
X3024468Y-1476555D01*
X3024468Y-1476555D02*
X3033991Y-1457508D01*
X3033991Y-1457508D02*
X3053039Y-1428936D01*
X3053039Y-1428936D02*
X3062563Y-1419412D01*
X3119706Y-1447984D02*
X3253039Y-1447984D01*
X3253039Y-1447984D02*
X3167325Y-1647984D01*
X3481610Y-1647984D02*
X3481610Y-1447984D01*
X3567325Y-1647984D02*
X3567325Y-1543222D01*
X3567325Y-1543222D02*
X3557801Y-1524174D01*
X3557801Y-1524174D02*
X3538753Y-1514650D01*
X3538753Y-1514650D02*
X3510182Y-1514650D01*
X3510182Y-1514650D02*
X3491134Y-1524174D01*
X3491134Y-1524174D02*
X3481610Y-1533698D01*
X3691134Y-1647984D02*
X3672087Y-1638460D01*
X3672087Y-1638460D02*
X3662563Y-1628936D01*
X3662563Y-1628936D02*
X3653039Y-1609888D01*
X3653039Y-1609888D02*
X3653039Y-1552746D01*
X3653039Y-1552746D02*
X3662563Y-1533698D01*
X3662563Y-1533698D02*
X3672087Y-1524174D01*
X3672087Y-1524174D02*
X3691134Y-1514650D01*
X3691134Y-1514650D02*
X3719706Y-1514650D01*
X3719706Y-1514650D02*
X3738753Y-1524174D01*
X3738753Y-1524174D02*
X3748277Y-1533698D01*
X3748277Y-1533698D02*
X3757801Y-1552746D01*
X3757801Y-1552746D02*
X3757801Y-1609888D01*
X3757801Y-1609888D02*
X3748277Y-1628936D01*
X3748277Y-1628936D02*
X3738753Y-1638460D01*
X3738753Y-1638460D02*
X3719706Y-1647984D01*
X3719706Y-1647984D02*
X3691134Y-1647984D01*
X3872087Y-1647984D02*
X3853039Y-1638460D01*
X3853039Y-1638460D02*
X3843515Y-1619412D01*
X3843515Y-1619412D02*
X3843515Y-1447984D01*
X4024468Y-1638460D02*
X4005420Y-1647984D01*
X4005420Y-1647984D02*
X3967325Y-1647984D01*
X3967325Y-1647984D02*
X3948277Y-1638460D01*
X3948277Y-1638460D02*
X3938753Y-1619412D01*
X3938753Y-1619412D02*
X3938753Y-1543222D01*
X3938753Y-1543222D02*
X3948277Y-1524174D01*
X3948277Y-1524174D02*
X3967325Y-1514650D01*
X3967325Y-1514650D02*
X4005420Y-1514650D01*
X4005420Y-1514650D02*
X4024468Y-1524174D01*
X4024468Y-1524174D02*
X4033991Y-1543222D01*
X4033991Y-1543222D02*
X4033991Y-1562269D01*
X4033991Y-1562269D02*
X3938753Y-1581317D01*
X4110182Y-1638460D02*
X4129230Y-1647984D01*
X4129230Y-1647984D02*
X4167325Y-1647984D01*
X4167325Y-1647984D02*
X4186372Y-1638460D01*
X4186372Y-1638460D02*
X4195896Y-1619412D01*
X4195896Y-1619412D02*
X4195896Y-1609888D01*
X4195896Y-1609888D02*
X4186372Y-1590841D01*
X4186372Y-1590841D02*
X4167325Y-1581317D01*
X4167325Y-1581317D02*
X4138753Y-1581317D01*
X4138753Y-1581317D02*
X4119706Y-1571793D01*
X4119706Y-1571793D02*
X4110182Y-1552746D01*
X4110182Y-1552746D02*
X4110182Y-1543222D01*
X4110182Y-1543222D02*
X4119706Y-1524174D01*
X4119706Y-1524174D02*
X4138753Y-1514650D01*
X4138753Y-1514650D02*
X4167325Y-1514650D01*
X4167325Y-1514650D02*
X4186372Y-1524174D01*
X4262563Y-1724174D02*
X4272087Y-1714650D01*
X4272087Y-1714650D02*
X4291134Y-1686079D01*
X4291134Y-1686079D02*
X4300658Y-1667031D01*
X4300658Y-1667031D02*
X4310182Y-1638460D01*
X4310182Y-1638460D02*
X4319706Y-1590841D01*
X4319706Y-1590841D02*
X4319706Y-1552746D01*
X4319706Y-1552746D02*
X4310182Y-1505127D01*
X4310182Y-1505127D02*
X4300658Y-1476555D01*
X4300658Y-1476555D02*
X4291134Y-1457508D01*
X4291134Y-1457508D02*
X4272087Y-1428936D01*
X4272087Y-1428936D02*
X4262563Y-1419412D01*
X4624468Y-1724174D02*
X4614944Y-1714650D01*
X4614944Y-1714650D02*
X4595896Y-1686079D01*
X4595896Y-1686079D02*
X4586373Y-1667031D01*
X4586373Y-1667031D02*
X4576849Y-1638460D01*
X4576849Y-1638460D02*
X4567325Y-1590841D01*
X4567325Y-1590841D02*
X4567325Y-1552746D01*
X4567325Y-1552746D02*
X4576849Y-1505127D01*
X4576849Y-1505127D02*
X4586373Y-1476555D01*
X4586373Y-1476555D02*
X4595896Y-1457508D01*
X4595896Y-1457508D02*
X4614944Y-1428936D01*
X4614944Y-1428936D02*
X4624468Y-1419412D01*
X4700658Y-1514650D02*
X4700658Y-1647984D01*
X4700658Y-1533698D02*
X4710182Y-1524174D01*
X4710182Y-1524174D02*
X4729230Y-1514650D01*
X4729230Y-1514650D02*
X4757801Y-1514650D01*
X4757801Y-1514650D02*
X4776849Y-1524174D01*
X4776849Y-1524174D02*
X4786373Y-1543222D01*
X4786373Y-1543222D02*
X4786373Y-1647984D01*
X4910182Y-1647984D02*
X4891134Y-1638460D01*
X4891134Y-1638460D02*
X4881611Y-1628936D01*
X4881611Y-1628936D02*
X4872087Y-1609888D01*
X4872087Y-1609888D02*
X4872087Y-1552746D01*
X4872087Y-1552746D02*
X4881611Y-1533698D01*
X4881611Y-1533698D02*
X4891134Y-1524174D01*
X4891134Y-1524174D02*
X4910182Y-1514650D01*
X4910182Y-1514650D02*
X4938754Y-1514650D01*
X4938754Y-1514650D02*
X4957801Y-1524174D01*
X4957801Y-1524174D02*
X4967325Y-1533698D01*
X4967325Y-1533698D02*
X4976849Y-1552746D01*
X4976849Y-1552746D02*
X4976849Y-1609888D01*
X4976849Y-1609888D02*
X4967325Y-1628936D01*
X4967325Y-1628936D02*
X4957801Y-1638460D01*
X4957801Y-1638460D02*
X4938754Y-1647984D01*
X4938754Y-1647984D02*
X4910182Y-1647984D01*
X5033992Y-1514650D02*
X5110182Y-1514650D01*
X5062563Y-1447984D02*
X5062563Y-1619412D01*
X5062563Y-1619412D02*
X5072087Y-1638460D01*
X5072087Y-1638460D02*
X5091134Y-1647984D01*
X5091134Y-1647984D02*
X5110182Y-1647984D01*
X5329230Y-1514650D02*
X5329230Y-1714650D01*
X5329230Y-1524174D02*
X5348277Y-1514650D01*
X5348277Y-1514650D02*
X5386373Y-1514650D01*
X5386373Y-1514650D02*
X5405420Y-1524174D01*
X5405420Y-1524174D02*
X5414944Y-1533698D01*
X5414944Y-1533698D02*
X5424468Y-1552746D01*
X5424468Y-1552746D02*
X5424468Y-1609888D01*
X5424468Y-1609888D02*
X5414944Y-1628936D01*
X5414944Y-1628936D02*
X5405420Y-1638460D01*
X5405420Y-1638460D02*
X5386373Y-1647984D01*
X5386373Y-1647984D02*
X5348277Y-1647984D01*
X5348277Y-1647984D02*
X5329230Y-1638460D01*
X5538754Y-1647984D02*
X5519706Y-1638460D01*
X5519706Y-1638460D02*
X5510182Y-1619412D01*
X5510182Y-1619412D02*
X5510182Y-1447984D01*
X5700658Y-1647984D02*
X5700658Y-1543222D01*
X5700658Y-1543222D02*
X5691134Y-1524174D01*
X5691134Y-1524174D02*
X5672087Y-1514650D01*
X5672087Y-1514650D02*
X5633992Y-1514650D01*
X5633992Y-1514650D02*
X5614944Y-1524174D01*
X5700658Y-1638460D02*
X5681611Y-1647984D01*
X5681611Y-1647984D02*
X5633992Y-1647984D01*
X5633992Y-1647984D02*
X5614944Y-1638460D01*
X5614944Y-1638460D02*
X5605420Y-1619412D01*
X5605420Y-1619412D02*
X5605420Y-1600365D01*
X5605420Y-1600365D02*
X5614944Y-1581317D01*
X5614944Y-1581317D02*
X5633992Y-1571793D01*
X5633992Y-1571793D02*
X5681611Y-1571793D01*
X5681611Y-1571793D02*
X5700658Y-1562269D01*
X5767325Y-1514650D02*
X5843515Y-1514650D01*
X5795896Y-1447984D02*
X5795896Y-1619412D01*
X5795896Y-1619412D02*
X5805420Y-1638460D01*
X5805420Y-1638460D02*
X5824468Y-1647984D01*
X5824468Y-1647984D02*
X5843515Y-1647984D01*
X5986373Y-1638460D02*
X5967325Y-1647984D01*
X5967325Y-1647984D02*
X5929230Y-1647984D01*
X5929230Y-1647984D02*
X5910182Y-1638460D01*
X5910182Y-1638460D02*
X5900658Y-1619412D01*
X5900658Y-1619412D02*
X5900658Y-1543222D01*
X5900658Y-1543222D02*
X5910182Y-1524174D01*
X5910182Y-1524174D02*
X5929230Y-1514650D01*
X5929230Y-1514650D02*
X5967325Y-1514650D01*
X5967325Y-1514650D02*
X5986373Y-1524174D01*
X5986373Y-1524174D02*
X5995896Y-1543222D01*
X5995896Y-1543222D02*
X5995896Y-1562269D01*
X5995896Y-1562269D02*
X5900658Y-1581317D01*
X6167325Y-1647984D02*
X6167325Y-1447984D01*
X6167325Y-1638460D02*
X6148277Y-1647984D01*
X6148277Y-1647984D02*
X6110182Y-1647984D01*
X6110182Y-1647984D02*
X6091134Y-1638460D01*
X6091134Y-1638460D02*
X6081611Y-1628936D01*
X6081611Y-1628936D02*
X6072087Y-1609888D01*
X6072087Y-1609888D02*
X6072087Y-1552746D01*
X6072087Y-1552746D02*
X6081611Y-1533698D01*
X6081611Y-1533698D02*
X6091134Y-1524174D01*
X6091134Y-1524174D02*
X6110182Y-1514650D01*
X6110182Y-1514650D02*
X6148277Y-1514650D01*
X6148277Y-1514650D02*
X6167325Y-1524174D01*
X6243515Y-1724174D02*
X6253039Y-1714650D01*
X6253039Y-1714650D02*
X6272087Y-1686079D01*
X6272087Y-1686079D02*
X6281611Y-1667031D01*
X6281611Y-1667031D02*
X6291134Y-1638460D01*
X6291134Y-1638460D02*
X6300658Y-1590841D01*
X6300658Y-1590841D02*
X6300658Y-1552746D01*
X6300658Y-1552746D02*
X6291134Y-1505127D01*
X6291134Y-1505127D02*
X6281611Y-1476555D01*
X6281611Y-1476555D02*
X6272087Y-1457508D01*
X6272087Y-1457508D02*
X6253039Y-1428936D01*
X6253039Y-1428936D02*
X6243515Y-1419412D01*
M02*
