%TF.GenerationSoftware,KiCad,Pcbnew,10.0.1*%
%TF.CreationDate,2026-05-15T16:00:14+01:00*%
%TF.ProjectId,FED3 tester,46454433-2074-4657-9374-65722e6b6963,rev?*%
%TF.SameCoordinates,PX3adc5c0PY972d2c0*%
%TF.FileFunction,Paste,Top*%
%TF.FilePolarity,Positive*%
%FSLAX46Y46*%
G04 Gerber Fmt 4.6, Leading zero omitted, Abs format (unit mm)*
G04 Created by KiCad (PCBNEW 10.0.1) date 2026-05-15 16:00:14*
%MOMM*%
%LPD*%
G01*
G04 APERTURE LIST*
G04 Aperture macros list*
%AMRoundRect*
0 Rectangle with rounded corners*
0 $1 Rounding radius*
0 $2 $3 $4 $5 $6 $7 $8 $9 X,Y pos of 4 corners*
0 Add a 4 corners polygon primitive as box body*
4,1,4,$2,$3,$4,$5,$6,$7,$8,$9,$2,$3,0*
0 Add four circle primitives for the rounded corners*
1,1,$1+$1,$2,$3*
1,1,$1+$1,$4,$5*
1,1,$1+$1,$6,$7*
1,1,$1+$1,$8,$9*
0 Add four rect primitives between the rounded corners*
20,1,$1+$1,$2,$3,$4,$5,0*
20,1,$1+$1,$4,$5,$6,$7,0*
20,1,$1+$1,$6,$7,$8,$9,0*
20,1,$1+$1,$8,$9,$2,$3,0*%
G04 Aperture macros list end*
%ADD10RoundRect,0.135000X0.135000X0.185000X-0.135000X0.185000X-0.135000X-0.185000X0.135000X-0.185000X0*%
%ADD11RoundRect,0.140000X-0.140000X-0.170000X0.140000X-0.170000X0.140000X0.170000X-0.140000X0.170000X0*%
%ADD12RoundRect,0.225000X-0.250000X0.225000X-0.250000X-0.225000X0.250000X-0.225000X0.250000X0.225000X0*%
%ADD13RoundRect,0.135000X-0.185000X0.135000X-0.185000X-0.135000X0.185000X-0.135000X0.185000X0.135000X0*%
%ADD14RoundRect,0.135000X-0.135000X-0.185000X0.135000X-0.185000X0.135000X0.185000X-0.135000X0.185000X0*%
%ADD15RoundRect,0.112500X0.112500X-0.350000X0.112500X0.350000X-0.112500X0.350000X-0.112500X-0.350000X0*%
%ADD16RoundRect,0.135000X0.185000X-0.135000X0.185000X0.135000X-0.185000X0.135000X-0.185000X-0.135000X0*%
%ADD17RoundRect,0.200000X-0.275000X0.200000X-0.275000X-0.200000X0.275000X-0.200000X0.275000X0.200000X0*%
%ADD18RoundRect,0.140000X0.140000X0.170000X-0.140000X0.170000X-0.140000X-0.170000X0.140000X-0.170000X0*%
%ADD19RoundRect,0.218750X0.218750X0.256250X-0.218750X0.256250X-0.218750X-0.256250X0.218750X-0.256250X0*%
%ADD20RoundRect,0.100000X-0.100000X0.850000X-0.100000X-0.850000X0.100000X-0.850000X0.100000X0.850000X0*%
%ADD21RoundRect,0.140000X0.170000X-0.140000X0.170000X0.140000X-0.170000X0.140000X-0.170000X-0.140000X0*%
%ADD22RoundRect,0.150000X-0.150000X0.587500X-0.150000X-0.587500X0.150000X-0.587500X0.150000X0.587500X0*%
%ADD23RoundRect,0.140000X-0.170000X0.140000X-0.170000X-0.140000X0.170000X-0.140000X0.170000X0.140000X0*%
%ADD24R,1.600000X1.400000*%
%ADD25RoundRect,0.225000X0.375000X-0.225000X0.375000X0.225000X-0.375000X0.225000X-0.375000X-0.225000X0*%
%ADD26RoundRect,0.225000X-0.225000X-0.250000X0.225000X-0.250000X0.225000X0.250000X-0.225000X0.250000X0*%
%ADD27R,2.000000X0.700000*%
%ADD28RoundRect,0.150000X0.150000X-0.512500X0.150000X0.512500X-0.150000X0.512500X-0.150000X-0.512500X0*%
%ADD29R,0.700000X2.000000*%
%ADD30RoundRect,0.225000X-0.375000X0.225000X-0.375000X-0.225000X0.375000X-0.225000X0.375000X0.225000X0*%
%ADD31RoundRect,0.250000X-0.262500X-0.450000X0.262500X-0.450000X0.262500X0.450000X-0.262500X0.450000X0*%
%ADD32RoundRect,0.150000X-0.587500X-0.150000X0.587500X-0.150000X0.587500X0.150000X-0.587500X0.150000X0*%
%ADD33RoundRect,0.250000X0.650000X-0.325000X0.650000X0.325000X-0.650000X0.325000X-0.650000X-0.325000X0*%
%ADD34RoundRect,0.150000X0.950000X0.150000X-0.950000X0.150000X-0.950000X-0.150000X0.950000X-0.150000X0*%
%ADD35RoundRect,0.537500X0.537500X1.187500X-0.537500X1.187500X-0.537500X-1.187500X0.537500X-1.187500X0*%
%ADD36RoundRect,0.150000X-0.150000X-0.425000X0.150000X-0.425000X0.150000X0.425000X-0.150000X0.425000X0*%
%ADD37RoundRect,0.075000X-0.075000X-0.500000X0.075000X-0.500000X0.075000X0.500000X-0.075000X0.500000X0*%
%ADD38O,1.000000X2.100000*%
%ADD39O,1.000000X1.800000*%
%ADD40RoundRect,0.150000X-0.512500X-0.150000X0.512500X-0.150000X0.512500X0.150000X-0.512500X0.150000X0*%
%ADD41RoundRect,0.225000X0.225000X0.375000X-0.225000X0.375000X-0.225000X-0.375000X0.225000X-0.375000X0*%
%ADD42RoundRect,0.200000X-0.650000X0.925000X-0.650000X-0.925000X0.650000X-0.925000X0.650000X0.925000X0*%
%ADD43RoundRect,0.218750X-0.218750X-0.256250X0.218750X-0.256250X0.218750X0.256250X-0.218750X0.256250X0*%
%ADD44RoundRect,0.150000X-0.150000X0.512500X-0.150000X-0.512500X0.150000X-0.512500X0.150000X0.512500X0*%
%ADD45R,1.400000X1.200000*%
%ADD46RoundRect,0.225000X0.250000X-0.225000X0.250000X0.225000X-0.250000X0.225000X-0.250000X-0.225000X0*%
%ADD47RoundRect,0.200000X0.275000X-0.200000X0.275000X0.200000X-0.275000X0.200000X-0.275000X-0.200000X0*%
%ADD48RoundRect,0.250000X-0.275000X-0.275000X0.275000X-0.275000X0.275000X0.275000X-0.275000X0.275000X0*%
%ADD49RoundRect,0.062500X-0.475000X-0.062500X0.475000X-0.062500X0.475000X0.062500X-0.475000X0.062500X0*%
%ADD50RoundRect,0.062500X-0.062500X-0.475000X0.062500X-0.475000X0.062500X0.475000X-0.062500X0.475000X0*%
%ADD51RoundRect,0.250000X0.450000X-0.262500X0.450000X0.262500X-0.450000X0.262500X-0.450000X-0.262500X0*%
%ADD52RoundRect,0.250000X-0.450000X0.262500X-0.450000X-0.262500X0.450000X-0.262500X0.450000X0.262500X0*%
%TA.AperFunction,Profile*%
%ADD53C,0.250000*%
%TD*%
G04 APERTURE END LIST*
D10*
%TO.C,R48*%
X84590000Y97860000D03*
X83570000Y97860000D03*
%TD*%
D11*
%TO.C,C6*%
X24720000Y70910000D03*
X25680000Y70910000D03*
%TD*%
D12*
%TO.C,C12*%
X57232500Y117915000D03*
X57232500Y116365000D03*
%TD*%
D13*
%TO.C,R8*%
X17280000Y74930000D03*
X17280000Y73910000D03*
%TD*%
D14*
%TO.C,R32*%
X30040000Y89035000D03*
X31060000Y89035000D03*
%TD*%
D15*
%TO.C,Q2*%
X13810000Y94922500D03*
X15110000Y94922500D03*
X14460000Y96697500D03*
%TD*%
D16*
%TO.C,R22*%
X24787500Y112451400D03*
X24787500Y113471400D03*
%TD*%
D11*
%TO.C,C31*%
X71545000Y95210000D03*
X72505000Y95210000D03*
%TD*%
D17*
%TO.C,R7*%
X17280000Y72505000D03*
X17280000Y70855000D03*
%TD*%
D10*
%TO.C,R14*%
X10112500Y82230000D03*
X9092500Y82230000D03*
%TD*%
D16*
%TO.C,R3*%
X21900000Y11393311D03*
X21900000Y12413311D03*
%TD*%
D18*
%TO.C,C32*%
X72455000Y98510000D03*
X71495000Y98510000D03*
%TD*%
D19*
%TO.C,D2*%
X46307533Y35132434D03*
X44732533Y35132434D03*
%TD*%
D20*
%TO.C,U1*%
X28165000Y26669711D03*
X27515000Y26669711D03*
X26865000Y26669711D03*
X26215000Y26669711D03*
X25565000Y26669711D03*
X24915000Y26669711D03*
X24265000Y26669711D03*
X23615000Y26669711D03*
X22965000Y26669711D03*
X22315000Y26669711D03*
X21665000Y26669711D03*
X21015000Y26669711D03*
X20365000Y26669711D03*
X19715000Y26669711D03*
X19715000Y19669711D03*
X20365000Y19669711D03*
X21015000Y19669711D03*
X21665000Y19669711D03*
X22315000Y19669711D03*
X22965000Y19669711D03*
X23615000Y19669711D03*
X24265000Y19669711D03*
X24915000Y19669711D03*
X25565000Y19669711D03*
X26215000Y19669711D03*
X26865000Y19669711D03*
X27515000Y19669711D03*
X28165000Y19669711D03*
%TD*%
D18*
%TO.C,C4*%
X15130000Y9553311D03*
X14170000Y9553311D03*
%TD*%
D11*
%TO.C,C5*%
X14170000Y11003311D03*
X15130000Y11003311D03*
%TD*%
D16*
%TO.C,R40*%
X41175000Y69472500D03*
X41175000Y70492500D03*
%TD*%
%TO.C,R44*%
X88750000Y90510000D03*
X88750000Y91530000D03*
%TD*%
D19*
%TO.C,D1*%
X46670639Y56707784D03*
X45095639Y56707784D03*
%TD*%
D11*
%TO.C,C27*%
X69000000Y109320000D03*
X69960000Y109320000D03*
%TD*%
D14*
%TO.C,R6*%
X14140000Y12353311D03*
X15160000Y12353311D03*
%TD*%
%TO.C,R25*%
X16327500Y114035000D03*
X17347500Y114035000D03*
%TD*%
D10*
%TO.C,R35*%
X84540000Y89747500D03*
X83520000Y89747500D03*
%TD*%
D16*
%TO.C,R1*%
X17850000Y11393311D03*
X17850000Y12413311D03*
%TD*%
D21*
%TO.C,C35*%
X28650000Y95830000D03*
X28650000Y96790000D03*
%TD*%
D22*
%TO.C,Q5*%
X39150000Y70470000D03*
X37250000Y70470000D03*
X38200000Y68595000D03*
%TD*%
D10*
%TO.C,R12*%
X41776233Y28782434D03*
X40756233Y28782434D03*
%TD*%
D23*
%TO.C,C23*%
X67180000Y105300000D03*
X67180000Y104340000D03*
%TD*%
%TO.C,C16*%
X62880000Y100100000D03*
X62880000Y99140000D03*
%TD*%
D21*
%TO.C,C29*%
X68650000Y91530000D03*
X68650000Y92490000D03*
%TD*%
D11*
%TO.C,C25*%
X67400000Y106620000D03*
X68360000Y106620000D03*
%TD*%
D13*
%TO.C,R42*%
X56080000Y91220000D03*
X56080000Y90200000D03*
%TD*%
D24*
%TO.C,SW3*%
X54084188Y43698197D03*
X46884188Y43698197D03*
X54084188Y46698197D03*
X46884188Y46698197D03*
%TD*%
D25*
%TO.C,D10*%
X43065000Y74970000D03*
X43065000Y78270000D03*
%TD*%
D26*
%TO.C,C8*%
X24850000Y77960000D03*
X26400000Y77960000D03*
%TD*%
D24*
%TO.C,SW5*%
X85193295Y43403183D03*
X77993295Y43403183D03*
X85193295Y46403183D03*
X77993295Y46403183D03*
%TD*%
D27*
%TO.C,K1*%
X59300000Y81310000D03*
X59300000Y75910000D03*
X65300000Y73710000D03*
X65300000Y78110000D03*
X65300000Y81310000D03*
%TD*%
D16*
%TO.C,R41*%
X7280000Y110160000D03*
X7280000Y111180000D03*
%TD*%
D10*
%TO.C,R37*%
X84540000Y85747500D03*
X83520000Y85747500D03*
%TD*%
D13*
%TO.C,R39*%
X56070000Y88420000D03*
X56070000Y87400000D03*
%TD*%
D28*
%TO.C,U8*%
X29132500Y91022500D03*
X30082500Y91022500D03*
X31032500Y91022500D03*
X31032500Y93297500D03*
X29132500Y93297500D03*
%TD*%
D22*
%TO.C,Q3*%
X10830000Y96007500D03*
X8930000Y96007500D03*
X9880000Y94132500D03*
%TD*%
D29*
%TO.C,K3*%
X89600000Y103010000D03*
X95000000Y103010000D03*
X97200000Y109010000D03*
X92800000Y109010000D03*
X89600000Y109010000D03*
%TD*%
D14*
%TO.C,R26*%
X12570000Y89970000D03*
X13590000Y89970000D03*
%TD*%
D24*
%TO.C,SW2*%
X44159188Y43723197D03*
X36959188Y43723197D03*
X44159188Y46723197D03*
X36959188Y46723197D03*
%TD*%
D28*
%TO.C,U6*%
X70425000Y89172500D03*
X71375000Y89172500D03*
X72325000Y89172500D03*
X72325000Y91447500D03*
X70425000Y91447500D03*
%TD*%
D10*
%TO.C,R34*%
X53180000Y108380000D03*
X52160000Y108380000D03*
%TD*%
D30*
%TO.C,D5*%
X85140000Y118502500D03*
X85140000Y115202500D03*
%TD*%
D24*
%TO.C,SW9*%
X85193295Y24838183D03*
X77993295Y24838183D03*
X85193295Y27838183D03*
X77993295Y27838183D03*
%TD*%
D31*
%TO.C,L2*%
X24727500Y66410000D03*
X26552500Y66410000D03*
%TD*%
D24*
%TO.C,SW7*%
X85193295Y62083183D03*
X77993295Y62083183D03*
X85193295Y65083183D03*
X77993295Y65083183D03*
%TD*%
D10*
%TO.C,R20*%
X72435000Y93660000D03*
X71415000Y93660000D03*
%TD*%
D32*
%TO.C,Q1*%
X84312500Y112710000D03*
X84312500Y110810000D03*
X86187500Y111760000D03*
%TD*%
D21*
%TO.C,C34*%
X29887500Y112481400D03*
X29887500Y113441400D03*
%TD*%
D14*
%TO.C,R21*%
X71465000Y96960000D03*
X72485000Y96960000D03*
%TD*%
D10*
%TO.C,R49*%
X97160000Y113580000D03*
X96140000Y113580000D03*
%TD*%
D29*
%TO.C,K2*%
X39775000Y79692500D03*
X34375000Y79692500D03*
X32175000Y73692500D03*
X36575000Y73692500D03*
X39775000Y73692500D03*
%TD*%
D10*
%TO.C,R9*%
X42139339Y56707784D03*
X41119339Y56707784D03*
%TD*%
D14*
%TO.C,R28*%
X12570000Y91870000D03*
X13590000Y91870000D03*
%TD*%
D11*
%TO.C,C26*%
X68900000Y107720000D03*
X69860000Y107720000D03*
%TD*%
D21*
%TO.C,C24*%
X66650000Y116070000D03*
X66650000Y117030000D03*
%TD*%
D23*
%TO.C,C36*%
X32050000Y96690000D03*
X32050000Y95730000D03*
%TD*%
%TO.C,C33*%
X26387500Y113441400D03*
X26387500Y112481400D03*
%TD*%
D10*
%TO.C,R19*%
X17397500Y112335000D03*
X16377500Y112335000D03*
%TD*%
D33*
%TO.C,C14*%
X20530000Y71145000D03*
X20530000Y74095000D03*
%TD*%
D32*
%TO.C,Q6*%
X86892500Y99860000D03*
X86892500Y97960000D03*
X88767500Y98910000D03*
%TD*%
D13*
%TO.C,R23*%
X28087500Y113471400D03*
X28087500Y112451400D03*
%TD*%
D34*
%TO.C,U4*%
X14717500Y69880000D03*
X14717500Y71150000D03*
X14717500Y72420000D03*
X14717500Y73690000D03*
X14717500Y74960000D03*
D35*
X8417500Y72420000D03*
%TD*%
D36*
%TO.C,J1*%
X16580000Y7349711D03*
X17380000Y7349711D03*
D37*
X18530000Y7349711D03*
X19530000Y7349711D03*
X20030000Y7349711D03*
X21030000Y7349711D03*
D36*
X22180000Y7349711D03*
X22980000Y7349711D03*
X22980000Y7349711D03*
X22180000Y7349711D03*
D37*
X21530000Y7349711D03*
X20530000Y7349711D03*
X19030000Y7349711D03*
X18030000Y7349711D03*
D36*
X17380000Y7349711D03*
X16580000Y7349711D03*
D38*
X15460000Y6774711D03*
D39*
X15460000Y2594711D03*
D38*
X24100000Y6774711D03*
D39*
X24100000Y2594711D03*
%TD*%
D16*
%TO.C,R29*%
X30400000Y95800000D03*
X30400000Y96820000D03*
%TD*%
%TO.C,R24*%
X70285000Y85517500D03*
X70285000Y86537500D03*
%TD*%
D13*
%TO.C,R5*%
X19200000Y12413311D03*
X19200000Y11393311D03*
%TD*%
D26*
%TO.C,C7*%
X24725000Y69210000D03*
X26275000Y69210000D03*
%TD*%
D11*
%TO.C,C9*%
X24820000Y79810000D03*
X25780000Y79810000D03*
%TD*%
D24*
%TO.C,SW1*%
X49470639Y61745284D03*
X42270639Y61745284D03*
X49470639Y64745284D03*
X42270639Y64745284D03*
%TD*%
D40*
%TO.C,U7*%
X19850000Y114335000D03*
X19850000Y113385000D03*
X19850000Y112435000D03*
X22125000Y112435000D03*
X22125000Y114335000D03*
%TD*%
D16*
%TO.C,R27*%
X33075000Y89675000D03*
X33075000Y90695000D03*
%TD*%
D41*
%TO.C,D9*%
X63972500Y84710000D03*
X60672500Y84710000D03*
%TD*%
D16*
%TO.C,R38*%
X5780000Y110160000D03*
X5780000Y111180000D03*
%TD*%
D10*
%TO.C,R11*%
X41776233Y31957434D03*
X40756233Y31957434D03*
%TD*%
D13*
%TO.C,R18*%
X72395000Y86537500D03*
X72395000Y85517500D03*
%TD*%
%TO.C,R30*%
X33750000Y96770000D03*
X33750000Y95750000D03*
%TD*%
D11*
%TO.C,C2*%
X22960000Y16119711D03*
X23920000Y16119711D03*
%TD*%
D40*
%TO.C,U3*%
X52495000Y117957500D03*
X52495000Y117007500D03*
X52495000Y116057500D03*
X54770000Y116057500D03*
X54770000Y117957500D03*
%TD*%
D13*
%TO.C,R43*%
X43240000Y70482500D03*
X43240000Y69462500D03*
%TD*%
D24*
%TO.C,SW6*%
X75268295Y62083183D03*
X68068295Y62083183D03*
X75268295Y65083183D03*
X68068295Y65083183D03*
%TD*%
D42*
%TO.C,BZ1*%
X89252690Y118876310D03*
X89252690Y114676310D03*
X92752690Y118876310D03*
%TD*%
D23*
%TO.C,C21*%
X66080000Y100100000D03*
X66080000Y99140000D03*
%TD*%
D16*
%TO.C,R15*%
X81860000Y111170000D03*
X81860000Y112190000D03*
%TD*%
D14*
%TO.C,R46*%
X83570000Y99830000D03*
X84590000Y99830000D03*
%TD*%
D43*
%TO.C,D6*%
X8542500Y79770000D03*
X10117500Y79770000D03*
%TD*%
D44*
%TO.C,U9*%
X88747500Y88010000D03*
X87797500Y88010000D03*
X86847500Y88010000D03*
X86847500Y85735000D03*
X88747500Y85735000D03*
%TD*%
D11*
%TO.C,C15*%
X14200000Y67870000D03*
X15160000Y67870000D03*
%TD*%
D19*
%TO.C,D7*%
X72849495Y6825683D03*
X71274495Y6825683D03*
%TD*%
D30*
%TO.C,D11*%
X85130000Y107550000D03*
X85130000Y104250000D03*
%TD*%
D24*
%TO.C,SW8*%
X75268295Y24788183D03*
X68068295Y24788183D03*
X75268295Y27788183D03*
X68068295Y27788183D03*
%TD*%
D45*
%TO.C,OSC1*%
X65130000Y117952500D03*
X62530000Y117952500D03*
X62530000Y115952490D03*
X65130000Y115952490D03*
%TD*%
D13*
%TO.C,R4*%
X20550000Y12413311D03*
X20550000Y11393311D03*
%TD*%
D46*
%TO.C,C11*%
X49732500Y116115000D03*
X49732500Y117665000D03*
%TD*%
D21*
%TO.C,C1*%
X26240000Y29639711D03*
X26240000Y30599711D03*
%TD*%
D23*
%TO.C,C20*%
X64580000Y100100000D03*
X64580000Y99140000D03*
%TD*%
D11*
%TO.C,C17*%
X66610000Y110190000D03*
X67570000Y110190000D03*
%TD*%
D18*
%TO.C,C30*%
X22017500Y116135000D03*
X21057500Y116135000D03*
%TD*%
D28*
%TO.C,U2*%
X24732500Y73222500D03*
X25682500Y73222500D03*
X26632500Y73222500D03*
X26632500Y75497500D03*
X24732500Y75497500D03*
%TD*%
D18*
%TO.C,C18*%
X54360000Y106920000D03*
X53400000Y106920000D03*
%TD*%
D47*
%TO.C,R47*%
X88810000Y93255000D03*
X88810000Y94905000D03*
%TD*%
D23*
%TO.C,C13*%
X59232500Y117920000D03*
X59232500Y116960000D03*
%TD*%
D10*
%TO.C,R16*%
X64810000Y6820000D03*
X63790000Y6820000D03*
%TD*%
D24*
%TO.C,SW4*%
X75268295Y43403183D03*
X68068295Y43403183D03*
X75268295Y46403183D03*
X68068295Y46403183D03*
%TD*%
D19*
%TO.C,D4*%
X46307533Y28782434D03*
X44732533Y28782434D03*
%TD*%
D21*
%TO.C,C28*%
X68780000Y116140000D03*
X68780000Y117100000D03*
%TD*%
D48*
%TO.C,U5*%
X58570000Y110628900D03*
X58570000Y109328900D03*
X58570000Y108028900D03*
X58570000Y106728900D03*
X59870000Y110628900D03*
X59870000Y109328900D03*
X59870000Y108028900D03*
X59870000Y106728900D03*
X61170000Y110628900D03*
X61170000Y109328900D03*
X61170000Y108028900D03*
X61170000Y106728900D03*
X62470000Y110628900D03*
X62470000Y109328900D03*
X62470000Y108028900D03*
X62470000Y106728900D03*
D49*
X57182500Y111178900D03*
X57182500Y110678900D03*
X57182500Y110178900D03*
X57182500Y109678900D03*
X57182500Y109178900D03*
X57182500Y108678900D03*
X57182500Y108178900D03*
X57182500Y107678900D03*
X57182500Y107178900D03*
X57182500Y106678900D03*
X57182500Y106178900D03*
D50*
X58020000Y105341400D03*
X58520000Y105341400D03*
X59020000Y105341400D03*
X59520000Y105341400D03*
X60020000Y105341400D03*
X60520000Y105341400D03*
X61020000Y105341400D03*
X61520000Y105341400D03*
X62020000Y105341400D03*
X62520000Y105341400D03*
X63020000Y105341400D03*
D49*
X63857500Y106178900D03*
X63857500Y106678900D03*
X63857500Y107178900D03*
X63857500Y107678900D03*
X63857500Y108178900D03*
X63857500Y108678900D03*
X63857500Y109178900D03*
X63857500Y109678900D03*
X63857500Y110178900D03*
X63857500Y110678900D03*
X63857500Y111178900D03*
D50*
X63020000Y112016400D03*
X62520000Y112016400D03*
X62020000Y112016400D03*
X61520000Y112016400D03*
X61020000Y112016400D03*
X60520000Y112016400D03*
X60020000Y112016400D03*
X59520000Y112016400D03*
X59020000Y112016400D03*
X58520000Y112016400D03*
X58020000Y112016400D03*
%TD*%
D13*
%TO.C,R2*%
X17140000Y22879711D03*
X17140000Y21859711D03*
%TD*%
D14*
%TO.C,R45*%
X96140000Y112017500D03*
X97160000Y112017500D03*
%TD*%
D16*
%TO.C,R13*%
X82580000Y117490000D03*
X82580000Y118510000D03*
%TD*%
D10*
%TO.C,R10*%
X41776233Y35163434D03*
X40756233Y35163434D03*
%TD*%
%TO.C,R36*%
X84540000Y88220000D03*
X83520000Y88220000D03*
%TD*%
D23*
%TO.C,C22*%
X65880000Y104200000D03*
X65880000Y103240000D03*
%TD*%
D19*
%TO.C,D8*%
X82811995Y6900683D03*
X81236995Y6900683D03*
%TD*%
D23*
%TO.C,C19*%
X61001100Y101922500D03*
X61001100Y100962500D03*
%TD*%
D32*
%TO.C,Q4*%
X56062500Y85660000D03*
X56062500Y83760000D03*
X57937500Y84710000D03*
%TD*%
D51*
%TO.C,L1*%
X14160000Y15617500D03*
X14160000Y17442500D03*
%TD*%
D21*
%TO.C,C10*%
X47582500Y116160000D03*
X47582500Y117120000D03*
%TD*%
D10*
%TO.C,R17*%
X64780000Y8250000D03*
X63760000Y8250000D03*
%TD*%
D16*
%TO.C,R31*%
X10830000Y98310000D03*
X10830000Y99330000D03*
%TD*%
D21*
%TO.C,C37*%
X35450000Y95780000D03*
X35450000Y96740000D03*
%TD*%
D52*
%TO.C,R33*%
X81450000Y87922500D03*
X81450000Y86097500D03*
%TD*%
D19*
%TO.C,D3*%
X46307533Y31957434D03*
X44732533Y31957434D03*
%TD*%
D23*
%TO.C,C3*%
X17140000Y25599711D03*
X17140000Y24639711D03*
%TD*%
D53*
X-5000000Y129360000D02*
X0Y134360000D01*
X-5000000Y106760000D02*
X-5000000Y129360000D01*
X-5000000Y100760000D02*
X-4720000Y101040000D01*
X-5000000Y98560000D02*
X-5000000Y100760000D01*
X-4720000Y106480000D02*
X-5000000Y106760000D01*
X-4720000Y101040000D02*
X-4720000Y106480000D01*
X-3600000Y97160000D02*
X-5000000Y98560000D01*
X-3600000Y87960000D02*
X-3600000Y97160000D01*
X0Y134360000D02*
X36000000Y134360000D01*
X0Y84360000D02*
X-3600000Y87960000D01*
X0Y84360000D02*
X0Y0D01*
X36000000Y134360000D02*
X62000000Y134360000D01*
X62000000Y134360000D02*
X98000000Y134360000D01*
X98000000Y134360000D02*
X103000000Y129360000D01*
X98000000Y84410000D02*
X98000000Y0D01*
X98000000Y0D02*
X0Y0D01*
X103000000Y129360000D02*
X103000000Y89410000D01*
X103000000Y89410000D02*
X98000000Y84410000D01*
M02*
