%TF.GenerationSoftware,KiCad,Pcbnew,10.0.1*%
%TF.CreationDate,2026-05-15T15:57:58+01:00*%
%TF.ProjectId,FED3 tester,46454433-2074-4657-9374-65722e6b6963,rev?*%
%TF.SameCoordinates,PX3adc5c0PY972d2c0*%
%TF.FileFunction,Drillmap*%
%TF.FilePolarity,Positive*%
%FSLAX45Y45*%
G04 Gerber Fmt 4.5, Leading zero omitted, Abs format (unit mm)*
G04 Created by KiCad (PCBNEW 10.0.1) date 2026-05-15 15:57:58*
%MOMM*%
%LPD*%
G01*
G04 APERTURE LIST*
%ADD10C,0.250000*%
%ADD11C,0.200000*%
%ADD12C,0.100000*%
%ADD13C,0.175000*%
G04 APERTURE END LIST*
D10*
X-500000Y12936000D02*
X0Y13436000D01*
X-500000Y10676000D02*
X-500000Y12936000D01*
X-500000Y10076000D02*
X-472000Y10104000D01*
X-500000Y9856000D02*
X-500000Y10076000D01*
X-472000Y10648000D02*
X-500000Y10676000D01*
X-472000Y10104000D02*
X-472000Y10648000D01*
X-360000Y9716000D02*
X-500000Y9856000D01*
X-360000Y8796000D02*
X-360000Y9716000D01*
X0Y13436000D02*
X3600000Y13436000D01*
X0Y8436000D02*
X-360000Y8796000D01*
X0Y8436000D02*
X0Y0D01*
X3600000Y13436000D02*
X6200000Y13436000D01*
X6200000Y13436000D02*
X9800000Y13436000D01*
X9800000Y13436000D02*
X10300000Y12936000D01*
X9800000Y8441000D02*
X9800000Y0D01*
X9800000Y0D02*
X0Y0D01*
X10300000Y12936000D02*
X10300000Y8941000D01*
X10300000Y8941000D02*
X9800000Y8441000D01*
D11*
D12*
X-247000Y12535000D02*
X-227000Y12515000D01*
X-227000Y12535000D02*
X-247000Y12515000D01*
X-244000Y10699000D02*
X-224000Y10679000D01*
X-224000Y10699000D02*
X-244000Y10679000D01*
X-242000Y11680000D02*
X-222000Y11660000D01*
X-222000Y11680000D02*
X-242000Y11660000D01*
X-239000Y9876000D02*
X-219000Y9856000D01*
X-219000Y9876000D02*
X-239000Y9856000D01*
X-224000Y10227000D02*
X-204000Y10207000D01*
X-204000Y10227000D02*
X-224000Y10207000D01*
X-192000Y11362000D02*
X-172000Y11342000D01*
X-172000Y11362000D02*
X-192000Y11342000D01*
X-146000Y8924000D02*
X-126000Y8904000D01*
X-126000Y8924000D02*
X-146000Y8904000D01*
X256000Y5367000D02*
X276000Y5347000D01*
X276000Y5367000D02*
X256000Y5347000D01*
X260000Y7302000D02*
X280000Y7282000D01*
X280000Y7302000D02*
X260000Y7282000D01*
X260000Y6225000D02*
X280000Y6205000D01*
X280000Y6225000D02*
X260000Y6205000D01*
X276000Y8212000D02*
X296000Y8192000D01*
X296000Y8212000D02*
X276000Y8192000D01*
X284000Y4525000D02*
X304000Y4505000D01*
X304000Y4525000D02*
X284000Y4505000D01*
X292000Y3232000D02*
X312000Y3212000D01*
X312000Y3232000D02*
X292000Y3212000D01*
X300000Y2131000D02*
X320000Y2111000D01*
X320000Y2131000D02*
X300000Y2111000D01*
X308000Y1062000D02*
X328000Y1042000D01*
X328000Y1062000D02*
X308000Y1042000D01*
X336000Y13292000D02*
X356000Y13272000D01*
X356000Y13292000D02*
X336000Y13272000D01*
X718000Y11232000D02*
X738000Y11212000D01*
X738000Y11232000D02*
X718000Y11212000D01*
X807500Y11022000D02*
X827500Y11002000D01*
X827500Y11022000D02*
X807500Y11002000D01*
X819000Y1675000D02*
X839000Y1655000D01*
X839000Y1675000D02*
X819000Y1655000D01*
X833000Y7487000D02*
X853000Y7467000D01*
X853000Y7487000D02*
X833000Y7467000D01*
X833000Y7017000D02*
X853000Y6997000D01*
X853000Y7017000D02*
X833000Y6997000D01*
X839500Y7847000D02*
X859500Y7827000D01*
X859500Y7847000D02*
X839500Y7827000D01*
X885000Y9748000D02*
X905000Y9728000D01*
X905000Y9748000D02*
X885000Y9728000D01*
X898500Y8331000D02*
X918500Y8311000D01*
X918500Y8331000D02*
X898500Y8311000D01*
X901000Y164000D02*
X921000Y144000D01*
X921000Y164000D02*
X901000Y144000D01*
X969000Y10555000D02*
X989000Y10535000D01*
X989000Y10555000D02*
X969000Y10535000D01*
X1003000Y7252000D02*
X1023000Y7232000D01*
X1023000Y7252000D02*
X1003000Y7232000D01*
X1033000Y12219000D02*
X1053000Y12199000D01*
X1053000Y12219000D02*
X1033000Y12199000D01*
X1073000Y10009000D02*
X1093000Y9989000D01*
X1093000Y10009000D02*
X1073000Y9989000D01*
X1192000Y4026000D02*
X1212000Y4006000D01*
X1212000Y4026000D02*
X1192000Y4006000D01*
X1234000Y6294000D02*
X1254000Y6274000D01*
X1254000Y6294000D02*
X1234000Y6274000D01*
X1246000Y2739000D02*
X1266000Y2719000D01*
X1266000Y2739000D02*
X1246000Y2719000D01*
X1283000Y7252000D02*
X1303000Y7232000D01*
X1303000Y7252000D02*
X1283000Y7232000D01*
X1349000Y8893000D02*
X1369000Y8873000D01*
X1369000Y8893000D02*
X1349000Y8873000D01*
X1404000Y1351971D02*
X1424000Y1331971D01*
X1424000Y1351971D02*
X1404000Y1331971D01*
X1412000Y881471D02*
X1432000Y861471D01*
X1432000Y881471D02*
X1412000Y861471D01*
X1434000Y10723000D02*
X1454000Y10703000D01*
X1454000Y10723000D02*
X1434000Y10703000D01*
X1450000Y7618000D02*
X1470000Y7598000D01*
X1470000Y7618000D02*
X1450000Y7598000D01*
X1497000Y1889000D02*
X1517000Y1869000D01*
X1517000Y1889000D02*
X1497000Y1869000D01*
X1504000Y6713500D02*
X1524000Y6693500D01*
X1524000Y6713500D02*
X1504000Y6693500D01*
X1508000Y13272000D02*
X1528000Y13252000D01*
X1528000Y13272000D02*
X1508000Y13252000D01*
X1515000Y11749000D02*
X1535000Y11729000D01*
X1535000Y11749000D02*
X1515000Y11729000D01*
X1524000Y6526000D02*
X1544000Y6506000D01*
X1544000Y6526000D02*
X1524000Y6506000D01*
X1578000Y5000000D02*
X1598000Y4980000D01*
X1598000Y5000000D02*
X1578000Y4980000D01*
X1588000Y3507000D02*
X1608000Y3487000D01*
X1608000Y3507000D02*
X1588000Y3487000D01*
X1617000Y10284000D02*
X1637000Y10264000D01*
X1637000Y10284000D02*
X1617000Y10264000D01*
X1618000Y952000D02*
X1638000Y932000D01*
X1638000Y952000D02*
X1618000Y932000D01*
X1622750Y11501000D02*
X1642750Y11481000D01*
X1642750Y11501000D02*
X1622750Y11481000D01*
X1692000Y1253971D02*
X1712000Y1233971D01*
X1712000Y1253971D02*
X1692000Y1233971D01*
X1779000Y2196971D02*
X1799000Y2176971D01*
X1799000Y2196971D02*
X1779000Y2176971D01*
X1785000Y2578000D02*
X1805000Y2558000D01*
X1805000Y2578000D02*
X1785000Y2558000D01*
X1818000Y7502000D02*
X1838000Y7482000D01*
X1838000Y7502000D02*
X1818000Y7482000D01*
X1831750Y11349140D02*
X1851750Y11329140D01*
X1851750Y11349140D02*
X1831750Y11329140D01*
X1832000Y603971D02*
X1852000Y583971D01*
X1852000Y603971D02*
X1832000Y583971D01*
X1859000Y7296000D02*
X1879000Y7276000D01*
X1879000Y7296000D02*
X1859000Y7276000D01*
X1883000Y1621971D02*
X1903000Y1601971D01*
X1903000Y1621971D02*
X1883000Y1601971D01*
X1892000Y523971D02*
X1912000Y503971D01*
X1912000Y523971D02*
X1892000Y503971D01*
X1998594Y603798D02*
X2018594Y583798D01*
X2018594Y603798D02*
X1998594Y583798D01*
X2001000Y11623000D02*
X2021000Y11603000D01*
X2021000Y11623000D02*
X2001000Y11603000D01*
X2043000Y6967000D02*
X2063000Y6947000D01*
X2063000Y6967000D02*
X2043000Y6947000D01*
X2112000Y518971D02*
X2132000Y498971D01*
X2132000Y518971D02*
X2112000Y498971D01*
X2158000Y8214000D02*
X2178000Y8194000D01*
X2178000Y8214000D02*
X2158000Y8194000D01*
X2159000Y1801971D02*
X2179000Y1781971D01*
X2179000Y1801971D02*
X2159000Y1781971D01*
X2163000Y2516000D02*
X2183000Y2496000D01*
X2183000Y2516000D02*
X2163000Y2496000D01*
X2199000Y1621000D02*
X2219000Y1601000D01*
X2219000Y1621000D02*
X2199000Y1601000D01*
X2208000Y7417000D02*
X2228000Y7397000D01*
X2228000Y7417000D02*
X2208000Y7397000D01*
X2219000Y2191971D02*
X2239000Y2171971D01*
X2239000Y2191971D02*
X2219000Y2171971D01*
X2251000Y9246000D02*
X2271000Y9226000D01*
X2271000Y9246000D02*
X2251000Y9226000D01*
X2255000Y10747000D02*
X2275000Y10727000D01*
X2275000Y10747000D02*
X2255000Y10727000D01*
X2259000Y9908000D02*
X2279000Y9888000D01*
X2279000Y9908000D02*
X2259000Y9888000D01*
X2261000Y8374000D02*
X2281000Y8354000D01*
X2281000Y8374000D02*
X2261000Y8354000D01*
X2272000Y1248971D02*
X2292000Y1228971D01*
X2292000Y1248971D02*
X2272000Y1228971D01*
X2288000Y8225000D02*
X2308000Y8205000D01*
X2308000Y8225000D02*
X2288000Y8205000D01*
X2292000Y893971D02*
X2312000Y873971D01*
X2312000Y893971D02*
X2292000Y873971D01*
X2299000Y7973000D02*
X2319000Y7953000D01*
X2319000Y7973000D02*
X2299000Y7953000D01*
X2312000Y4300000D02*
X2332000Y4280000D01*
X2332000Y4300000D02*
X2312000Y4280000D01*
X2316000Y6778000D02*
X2336000Y6758000D01*
X2336000Y6778000D02*
X2316000Y6758000D01*
X2325000Y11618500D02*
X2345000Y11598500D01*
X2345000Y11618500D02*
X2325000Y11598500D01*
X2331000Y7849000D02*
X2351000Y7829000D01*
X2351000Y7849000D02*
X2331000Y7829000D01*
X2332000Y3127000D02*
X2352000Y3107000D01*
X2352000Y3127000D02*
X2332000Y3107000D01*
X2344000Y5581000D02*
X2364000Y5561000D01*
X2364000Y5581000D02*
X2344000Y5561000D01*
X2374000Y12226000D02*
X2394000Y12206000D01*
X2394000Y12226000D02*
X2374000Y12206000D01*
X2390750Y1726971D02*
X2410750Y1706971D01*
X2410750Y1726971D02*
X2390750Y1706971D01*
X2402000Y8112000D02*
X2422000Y8092000D01*
X2422000Y8112000D02*
X2402000Y8092000D01*
X2414000Y2846971D02*
X2434000Y2826971D01*
X2434000Y2846971D02*
X2414000Y2826971D01*
X2470000Y9581000D02*
X2490000Y9561000D01*
X2490000Y9581000D02*
X2470000Y9561000D01*
X2517000Y8221000D02*
X2537000Y8201000D01*
X2537000Y8221000D02*
X2517000Y8201000D01*
X2518000Y2967000D02*
X2538000Y2947000D01*
X2538000Y2967000D02*
X2518000Y2947000D01*
X2541000Y3827000D02*
X2561000Y3807000D01*
X2561000Y3827000D02*
X2541000Y3807000D01*
X2547000Y2443000D02*
X2567000Y2423000D01*
X2567000Y2443000D02*
X2547000Y2423000D01*
X2558250Y7191000D02*
X2578250Y7171000D01*
X2578250Y7191000D02*
X2558250Y7171000D01*
X2565000Y12486000D02*
X2585000Y12466000D01*
X2585000Y12486000D02*
X2565000Y12466000D01*
X2569000Y11187000D02*
X2589000Y11167000D01*
X2589000Y11187000D02*
X2569000Y11167000D01*
X2580000Y9181000D02*
X2600000Y9161000D01*
X2600000Y9181000D02*
X2580000Y9161000D01*
X2587000Y6132000D02*
X2607000Y6112000D01*
X2607000Y6132000D02*
X2587000Y6112000D01*
X2595000Y9260000D02*
X2615000Y9240000D01*
X2615000Y9260000D02*
X2595000Y9240000D01*
X2604000Y8082000D02*
X2624000Y8062000D01*
X2624000Y8082000D02*
X2604000Y8062000D01*
X2613000Y3162000D02*
X2633000Y3142000D01*
X2633000Y3162000D02*
X2613000Y3142000D01*
X2617500Y7041500D02*
X2637500Y7021500D01*
X2637500Y7041500D02*
X2617500Y7021500D01*
X2630000Y9091000D02*
X2650000Y9071000D01*
X2650000Y9091000D02*
X2630000Y9071000D01*
X2644000Y1746971D02*
X2664000Y1726971D01*
X2664000Y1746971D02*
X2644000Y1726971D01*
X2690000Y10581000D02*
X2710000Y10561000D01*
X2710000Y10581000D02*
X2690000Y10561000D01*
X2719000Y7984000D02*
X2739000Y7964000D01*
X2739000Y7984000D02*
X2719000Y7964000D01*
X2720631Y7880067D02*
X2740631Y7860067D01*
X2740631Y7880067D02*
X2720631Y7860067D01*
X2725000Y8202000D02*
X2745000Y8182000D01*
X2745000Y8202000D02*
X2725000Y8182000D01*
X2729000Y13283000D02*
X2749000Y13263000D01*
X2749000Y13283000D02*
X2729000Y13263000D01*
X2730000Y11616000D02*
X2750000Y11596000D01*
X2750000Y11616000D02*
X2730000Y11596000D01*
X2750000Y154000D02*
X2770000Y134000D01*
X2770000Y154000D02*
X2750000Y134000D01*
X2753250Y9697750D02*
X2773250Y9677750D01*
X2773250Y9697750D02*
X2753250Y9677750D01*
X2785000Y8356000D02*
X2805000Y8336000D01*
X2805000Y8356000D02*
X2785000Y8336000D01*
X2785000Y7331000D02*
X2805000Y7311000D01*
X2805000Y7331000D02*
X2785000Y7311000D01*
X2801000Y11527000D02*
X2821000Y11507000D01*
X2821000Y11527000D02*
X2801000Y11507000D01*
X2804000Y4960000D02*
X2824000Y4940000D01*
X2824000Y4960000D02*
X2804000Y4940000D01*
X2844000Y6797000D02*
X2864000Y6777000D01*
X2864000Y6797000D02*
X2844000Y6777000D01*
X2858000Y8162000D02*
X2878000Y8142000D01*
X2878000Y8162000D02*
X2858000Y8142000D01*
X2880000Y11364140D02*
X2900000Y11344140D01*
X2900000Y11364140D02*
X2880000Y11344140D01*
X2881000Y8846000D02*
X2901000Y8826000D01*
X2901000Y8846000D02*
X2881000Y8826000D01*
X2892000Y11255140D02*
X2912000Y11235140D01*
X2912000Y11255140D02*
X2892000Y11235140D01*
X2907000Y11154000D02*
X2927000Y11134000D01*
X2927000Y11154000D02*
X2907000Y11134000D01*
X3042000Y2863000D02*
X3062000Y2843000D01*
X3062000Y2863000D02*
X3042000Y2843000D01*
X3046000Y11125500D02*
X3066000Y11105500D01*
X3066000Y11125500D02*
X3046000Y11105500D01*
X3046000Y2749000D02*
X3066000Y2729000D01*
X3066000Y2749000D02*
X3046000Y2729000D01*
X3079000Y11305000D02*
X3099000Y11285000D01*
X3099000Y11305000D02*
X3079000Y11285000D01*
X3099971Y2676971D02*
X3119971Y2656971D01*
X3119971Y2676971D02*
X3099971Y2656971D01*
X3136359Y11242500D02*
X3156359Y11222500D01*
X3156359Y11242500D02*
X3136359Y11222500D01*
X3189000Y6796000D02*
X3209000Y6776000D01*
X3209000Y6796000D02*
X3189000Y6776000D01*
X3190000Y9501000D02*
X3210000Y9481000D01*
X3210000Y9501000D02*
X3190000Y9481000D01*
X3296000Y7680000D02*
X3316000Y7660000D01*
X3316000Y7680000D02*
X3296000Y7660000D01*
X3324000Y5682000D02*
X3344000Y5662000D01*
X3344000Y5682000D02*
X3324000Y5662000D01*
X3360000Y3324000D02*
X3380000Y3304000D01*
X3380000Y3324000D02*
X3360000Y3304000D01*
X3408000Y1277000D02*
X3428000Y1257000D01*
X3428000Y1277000D02*
X3408000Y1257000D01*
X3450000Y9681000D02*
X3470000Y9661000D01*
X3470000Y9681000D02*
X3450000Y9661000D01*
X3518000Y4382320D02*
X3538000Y4362320D01*
X3538000Y4382320D02*
X3518000Y4362320D01*
X3640000Y11497000D02*
X3660000Y11477000D01*
X3660000Y11497000D02*
X3640000Y11477000D01*
X3640000Y9586000D02*
X3660000Y9566000D01*
X3660000Y9586000D02*
X3640000Y9566000D01*
X3643000Y2170000D02*
X3663000Y2150000D01*
X3663000Y2170000D02*
X3643000Y2150000D01*
X3717500Y7200250D02*
X3737500Y7180250D01*
X3737500Y7200250D02*
X3717500Y7180250D01*
X3939000Y146000D02*
X3959000Y126000D01*
X3959000Y146000D02*
X3939000Y126000D01*
X3953834Y2890424D02*
X3973834Y2870424D01*
X3973834Y2890424D02*
X3953834Y2870424D01*
X3973834Y3525424D02*
X3993834Y3505424D01*
X3993834Y3525424D02*
X3973834Y3505424D01*
X3979154Y3205743D02*
X3999154Y3185743D01*
X3999154Y3205743D02*
X3979154Y3185743D01*
X4023778Y5680778D02*
X4043778Y5660778D01*
X4043778Y5680778D02*
X4023778Y5660778D01*
X4068000Y8602000D02*
X4088000Y8582000D01*
X4088000Y8602000D02*
X4068000Y8582000D01*
X4138000Y8172000D02*
X4158000Y8152000D01*
X4158000Y8172000D02*
X4138000Y8152000D01*
X4145000Y7507000D02*
X4165000Y7487000D01*
X4165000Y7507000D02*
X4145000Y7487000D01*
X4155000Y8997000D02*
X4175000Y8977000D01*
X4175000Y8997000D02*
X4155000Y8977000D01*
X4208000Y6647000D02*
X4228000Y6627000D01*
X4228000Y6647000D02*
X4208000Y6627000D01*
X4368000Y1605000D02*
X4388000Y1585000D01*
X4388000Y1605000D02*
X4368000Y1585000D01*
X4378000Y5172000D02*
X4398000Y5152000D01*
X4398000Y5172000D02*
X4378000Y5152000D01*
X4398000Y7058000D02*
X4418000Y7038000D01*
X4418000Y7058000D02*
X4398000Y7038000D01*
X4413000Y11553000D02*
X4433000Y11533000D01*
X4433000Y11553000D02*
X4413000Y11533000D01*
X4634000Y8038000D02*
X4654000Y8018000D01*
X4654000Y8038000D02*
X4634000Y8018000D01*
X4648000Y11727000D02*
X4668000Y11707000D01*
X4668000Y11727000D02*
X4648000Y11707000D01*
X4664000Y3652000D02*
X4684000Y3632000D01*
X4684000Y3652000D02*
X4664000Y3632000D01*
X4664000Y2752000D02*
X4684000Y2732000D01*
X4684000Y2752000D02*
X4664000Y2732000D01*
X4688000Y5559000D02*
X4708000Y5539000D01*
X4708000Y5559000D02*
X4688000Y5539000D01*
X4718000Y12032000D02*
X4738000Y12012000D01*
X4738000Y12032000D02*
X4718000Y12012000D01*
X4761000Y1127000D02*
X4781000Y1107000D01*
X4781000Y1127000D02*
X4761000Y1107000D01*
X4795000Y6780000D02*
X4815000Y6760000D01*
X4815000Y6780000D02*
X4795000Y6760000D01*
X4853000Y11782000D02*
X4873000Y11762000D01*
X4873000Y11782000D02*
X4853000Y11762000D01*
X4873000Y10652000D02*
X4893000Y10632000D01*
X4893000Y10652000D02*
X4873000Y10632000D01*
X5098000Y6182000D02*
X5118000Y6162000D01*
X5118000Y6182000D02*
X5098000Y6162000D01*
X5105000Y150000D02*
X5125000Y130000D01*
X5125000Y150000D02*
X5105000Y130000D01*
X5107000Y13289000D02*
X5127000Y13269000D01*
X5127000Y13289000D02*
X5107000Y13269000D01*
X5118000Y8937000D02*
X5138000Y8917000D01*
X5138000Y8937000D02*
X5118000Y8917000D01*
X5258000Y10697000D02*
X5278000Y10677000D01*
X5278000Y10697000D02*
X5258000Y10677000D01*
X5356194Y10355716D02*
X5376194Y10335716D01*
X5376194Y10355716D02*
X5356194Y10335716D01*
X5405686Y10959480D02*
X5425686Y10939480D01*
X5425686Y10959480D02*
X5405686Y10939480D01*
X5430000Y10581000D02*
X5450000Y10561000D01*
X5450000Y10581000D02*
X5430000Y10561000D01*
X5441890Y11019390D02*
X5461890Y10999390D01*
X5461890Y11019390D02*
X5441890Y10999390D01*
X5445071Y10893420D02*
X5465071Y10873420D01*
X5465071Y10893420D02*
X5445071Y10873420D01*
X5488000Y9197000D02*
X5508000Y9177000D01*
X5508000Y9197000D02*
X5488000Y9177000D01*
X5498000Y10472000D02*
X5518000Y10452000D01*
X5518000Y10472000D02*
X5498000Y10452000D01*
X5528000Y10837000D02*
X5548000Y10817000D01*
X5548000Y10837000D02*
X5528000Y10817000D01*
X5555000Y7029500D02*
X5575000Y7009500D01*
X5575000Y7029500D02*
X5555000Y7009500D01*
X5578000Y4379820D02*
X5598000Y4359820D01*
X5598000Y4379820D02*
X5578000Y4359820D01*
X5592000Y11553000D02*
X5612000Y11533000D01*
X5612000Y11553000D02*
X5592000Y11533000D01*
X5611500Y8235000D02*
X5631500Y8215000D01*
X5631500Y8235000D02*
X5611500Y8215000D01*
X5615000Y8938000D02*
X5635000Y8918000D01*
X5635000Y8938000D02*
X5615000Y8918000D01*
X5651000Y3753000D02*
X5671000Y3733000D01*
X5671000Y3753000D02*
X5651000Y3733000D01*
X5666000Y5636000D02*
X5686000Y5616000D01*
X5686000Y5636000D02*
X5666000Y5616000D01*
X5666000Y4758000D02*
X5686000Y4738000D01*
X5686000Y4758000D02*
X5666000Y4738000D01*
X5671500Y10272000D02*
X5691500Y10252000D01*
X5691500Y10272000D02*
X5671500Y10252000D01*
X5697000Y3437000D02*
X5717000Y3417000D01*
X5717000Y3437000D02*
X5697000Y3417000D01*
X5700000Y11482500D02*
X5720000Y11462500D01*
X5720000Y11482500D02*
X5700000Y11462500D01*
X5723000Y3120000D02*
X5743000Y3100000D01*
X5743000Y3120000D02*
X5723000Y3100000D01*
X5727500Y10330325D02*
X5747500Y10310325D01*
X5747500Y10330325D02*
X5727500Y10310325D01*
X5731000Y10490000D02*
X5751000Y10470000D01*
X5751000Y10490000D02*
X5731000Y10470000D01*
X5798000Y10362000D02*
X5818000Y10342000D01*
X5818000Y10362000D02*
X5798000Y10342000D01*
X5808033Y11479033D02*
X5828033Y11459033D01*
X5828033Y11479033D02*
X5808033Y11459033D01*
X5850000Y11081000D02*
X5870000Y11061000D01*
X5870000Y11081000D02*
X5850000Y11061000D01*
X5891810Y11543239D02*
X5911810Y11523239D01*
X5911810Y11543239D02*
X5891810Y11523239D01*
X5892000Y10153000D02*
X5912000Y10133000D01*
X5912000Y10153000D02*
X5892000Y10133000D01*
X5930000Y10731000D02*
X5950000Y10711000D01*
X5950000Y10731000D02*
X5930000Y10711000D01*
X5950500Y11401000D02*
X5970500Y11381000D01*
X5970500Y11401000D02*
X5950500Y11381000D01*
X5964000Y6853000D02*
X5984000Y6833000D01*
X5984000Y6853000D02*
X5964000Y6833000D01*
X5964000Y3457000D02*
X5984000Y3437000D01*
X5984000Y3457000D02*
X5964000Y3437000D01*
X5976000Y2416000D02*
X5996000Y2396000D01*
X5996000Y2416000D02*
X5976000Y2396000D01*
X5977000Y4753000D02*
X5997000Y4733000D01*
X5997000Y4753000D02*
X5977000Y4733000D01*
X5981000Y9228000D02*
X6001000Y9208000D01*
X6001000Y9228000D02*
X5981000Y9208000D01*
X5982000Y5630000D02*
X6002000Y5610000D01*
X6002000Y5630000D02*
X5982000Y5610000D01*
X5983000Y7697000D02*
X6003000Y7677000D01*
X6003000Y7697000D02*
X5983000Y7677000D01*
X5984000Y10304000D02*
X6004000Y10284000D01*
X6004000Y10304000D02*
X5984000Y10284000D01*
X5985000Y10210500D02*
X6005000Y10190500D01*
X6005000Y10210500D02*
X5985000Y10190500D01*
X5985000Y6542000D02*
X6005000Y6522000D01*
X6005000Y6542000D02*
X5985000Y6522000D01*
X5986000Y9045000D02*
X6006000Y9025000D01*
X6006000Y9045000D02*
X5986000Y9025000D01*
X5986000Y7938000D02*
X6006000Y7918000D01*
X6006000Y7938000D02*
X5986000Y7918000D01*
X5996000Y7076000D02*
X6016000Y7056000D01*
X6016000Y7076000D02*
X5996000Y7056000D01*
X5997000Y10106000D02*
X6017000Y10086000D01*
X6017000Y10106000D02*
X5997000Y10086000D01*
X6003000Y11712000D02*
X6023000Y11692000D01*
X6023000Y11712000D02*
X6003000Y11692000D01*
X6018000Y11557000D02*
X6038000Y11537000D01*
X6038000Y11557000D02*
X6018000Y11537000D01*
X6023750Y10877890D02*
X6043750Y10857890D01*
X6043750Y10877890D02*
X6023750Y10857890D01*
X6073000Y11802000D02*
X6093000Y11782000D01*
X6093000Y11802000D02*
X6073000Y11782000D01*
X6077000Y10306000D02*
X6097000Y10286000D01*
X6097000Y10306000D02*
X6077000Y10286000D01*
X6086500Y10386000D02*
X6106500Y10366000D01*
X6106500Y10386000D02*
X6086500Y10366000D01*
X6205000Y747000D02*
X6225000Y727000D01*
X6225000Y747000D02*
X6205000Y727000D01*
X6210000Y11381000D02*
X6230000Y11361000D01*
X6230000Y11381000D02*
X6210000Y11361000D01*
X6215000Y10706000D02*
X6235000Y10686000D01*
X6235000Y10706000D02*
X6215000Y10686000D01*
X6230000Y11071000D02*
X6250000Y11051000D01*
X6250000Y11071000D02*
X6230000Y11051000D01*
X6238000Y4677000D02*
X6258000Y4657000D01*
X6258000Y4677000D02*
X6238000Y4657000D01*
X6248000Y10182000D02*
X6268000Y10162000D01*
X6268000Y10182000D02*
X6248000Y10162000D01*
X6267000Y8120000D02*
X6287000Y8100000D01*
X6287000Y8120000D02*
X6267000Y8100000D01*
X6275000Y12311000D02*
X6295000Y12291000D01*
X6295000Y12311000D02*
X6275000Y12291000D01*
X6281000Y7049000D02*
X6301000Y7029000D01*
X6301000Y7049000D02*
X6281000Y7029000D01*
X6283000Y7608000D02*
X6303000Y7588000D01*
X6303000Y7608000D02*
X6283000Y7588000D01*
X6292000Y6803000D02*
X6312000Y6783000D01*
X6312000Y6803000D02*
X6292000Y6783000D01*
X6292000Y3982000D02*
X6312000Y3962000D01*
X6312000Y3982000D02*
X6292000Y3962000D01*
X6299000Y1076000D02*
X6319000Y1056000D01*
X6319000Y1076000D02*
X6299000Y1056000D01*
X6308000Y8207000D02*
X6328000Y8187000D01*
X6328000Y8207000D02*
X6308000Y8187000D01*
X6311000Y2128000D02*
X6331000Y2108000D01*
X6331000Y2128000D02*
X6311000Y2108000D01*
X6321000Y5195000D02*
X6341000Y5175000D01*
X6341000Y5195000D02*
X6321000Y5175000D01*
X6323000Y6022000D02*
X6343000Y6002000D01*
X6343000Y6022000D02*
X6323000Y6002000D01*
X6351239Y12111000D02*
X6371239Y12091000D01*
X6371239Y12111000D02*
X6351239Y12091000D01*
X6351239Y11418840D02*
X6371239Y11398840D01*
X6371239Y11418840D02*
X6351239Y11398840D01*
X6363500Y6486500D02*
X6383500Y6466500D01*
X6383500Y6486500D02*
X6363500Y6466500D01*
X6364000Y10015000D02*
X6384000Y9995000D01*
X6384000Y10015000D02*
X6364000Y9995000D01*
X6368000Y942000D02*
X6388000Y922000D01*
X6388000Y942000D02*
X6368000Y922000D01*
X6368000Y587000D02*
X6388000Y567000D01*
X6388000Y587000D02*
X6368000Y567000D01*
X6405000Y11361000D02*
X6425000Y11341000D01*
X6425000Y11361000D02*
X6405000Y11341000D01*
X6408000Y10127000D02*
X6428000Y10107000D01*
X6428000Y10127000D02*
X6408000Y10107000D01*
X6426000Y10478000D02*
X6446000Y10458000D01*
X6446000Y10478000D02*
X6426000Y10458000D01*
X6438000Y4562000D02*
X6458000Y4542000D01*
X6458000Y4562000D02*
X6438000Y4542000D01*
X6468000Y10330000D02*
X6488000Y10310000D01*
X6488000Y10330000D02*
X6468000Y10310000D01*
X6480000Y11976000D02*
X6500000Y11956000D01*
X6500000Y11976000D02*
X6480000Y11956000D01*
X6480000Y11420000D02*
X6500000Y11400000D01*
X6500000Y11420000D02*
X6480000Y11400000D01*
X6498000Y4652000D02*
X6518000Y4632000D01*
X6518000Y4652000D02*
X6498000Y4632000D01*
X6500610Y10110695D02*
X6520610Y10090695D01*
X6520610Y10110695D02*
X6500610Y10090695D01*
X6520000Y11196000D02*
X6540000Y11176000D01*
X6540000Y11196000D02*
X6520000Y11176000D01*
X6540000Y11106000D02*
X6560000Y11086000D01*
X6560000Y11106000D02*
X6540000Y11086000D01*
X6562000Y3146000D02*
X6582000Y3126000D01*
X6582000Y3146000D02*
X6562000Y3126000D01*
X6570000Y9539000D02*
X6590000Y9519000D01*
X6590000Y9539000D02*
X6570000Y9519000D01*
X6573000Y10512000D02*
X6593000Y10492000D01*
X6593000Y10512000D02*
X6573000Y10492000D01*
X6573000Y8630000D02*
X6593000Y8610000D01*
X6593000Y8630000D02*
X6573000Y8610000D01*
X6574000Y9209000D02*
X6594000Y9189000D01*
X6594000Y9209000D02*
X6574000Y9189000D01*
X6574000Y6518000D02*
X6594000Y6498000D01*
X6594000Y6518000D02*
X6574000Y6498000D01*
X6575000Y9067000D02*
X6595000Y9047000D01*
X6595000Y9067000D02*
X6575000Y9047000D01*
X6580902Y7004098D02*
X6600902Y6984098D01*
X6600902Y7004098D02*
X6580902Y6984098D01*
X6583000Y10877000D02*
X6603000Y10857000D01*
X6603000Y10877000D02*
X6583000Y10857000D01*
X6585000Y10961000D02*
X6605000Y10941000D01*
X6605000Y10961000D02*
X6585000Y10941000D01*
X6595086Y8424287D02*
X6615086Y8404287D01*
X6615086Y8424287D02*
X6595086Y8404287D01*
X6596000Y7090000D02*
X6616000Y7070000D01*
X6616000Y7090000D02*
X6596000Y7070000D01*
X6598000Y2790000D02*
X6618000Y2770000D01*
X6618000Y2790000D02*
X6598000Y2770000D01*
X6606000Y5647000D02*
X6626000Y5627000D01*
X6626000Y5647000D02*
X6606000Y5627000D01*
X6611682Y6218318D02*
X6631682Y6198318D01*
X6631682Y6218318D02*
X6611682Y6198318D01*
X6628000Y2488818D02*
X6648000Y2468818D01*
X6648000Y2488818D02*
X6628000Y2468818D01*
X6638000Y4350318D02*
X6658000Y4330318D01*
X6658000Y4350318D02*
X6638000Y4330318D01*
X6640000Y11801000D02*
X6660000Y11781000D01*
X6660000Y11801000D02*
X6640000Y11781000D01*
X6648000Y10673000D02*
X6668000Y10653000D01*
X6668000Y10673000D02*
X6648000Y10653000D01*
X6653000Y6647000D02*
X6673000Y6627000D01*
X6673000Y6647000D02*
X6653000Y6627000D01*
X6663000Y8482000D02*
X6683000Y8462000D01*
X6683000Y8482000D02*
X6663000Y8462000D01*
X6681000Y10944000D02*
X6701000Y10924000D01*
X6701000Y10944000D02*
X6681000Y10924000D01*
X6720000Y11616000D02*
X6740000Y11596000D01*
X6740000Y11616000D02*
X6720000Y11596000D01*
X6741000Y138000D02*
X6761000Y118000D01*
X6761000Y138000D02*
X6741000Y118000D01*
X6746000Y11128000D02*
X6766000Y11108000D01*
X6766000Y11128000D02*
X6746000Y11108000D01*
X6778000Y9922000D02*
X6798000Y9902000D01*
X6798000Y9922000D02*
X6778000Y9902000D01*
X6797000Y2954000D02*
X6817000Y2934000D01*
X6817000Y2954000D02*
X6797000Y2934000D01*
X6808000Y10942000D02*
X6828000Y10922000D01*
X6828000Y10942000D02*
X6808000Y10922000D01*
X6808000Y10442000D02*
X6828000Y10422000D01*
X6828000Y10442000D02*
X6808000Y10422000D01*
X6828000Y10598000D02*
X6848000Y10578000D01*
X6848000Y10598000D02*
X6828000Y10578000D01*
X6845000Y7797000D02*
X6865000Y7777000D01*
X6865000Y7797000D02*
X6845000Y7777000D01*
X6850000Y9081000D02*
X6870000Y9061000D01*
X6870000Y9081000D02*
X6850000Y9061000D01*
X6868000Y11557000D02*
X6888000Y11537000D01*
X6888000Y11557000D02*
X6868000Y11537000D01*
X6872000Y6737000D02*
X6892000Y6717000D01*
X6892000Y6737000D02*
X6872000Y6717000D01*
X6883000Y10862000D02*
X6903000Y10842000D01*
X6903000Y10862000D02*
X6883000Y10842000D01*
X6918000Y6972000D02*
X6938000Y6952000D01*
X6938000Y6972000D02*
X6918000Y6952000D01*
X6920000Y8561000D02*
X6940000Y8541000D01*
X6940000Y8561000D02*
X6920000Y8541000D01*
X6942000Y9258000D02*
X6962000Y9238000D01*
X6962000Y9258000D02*
X6942000Y9238000D01*
X6948000Y11722000D02*
X6968000Y11702000D01*
X6968000Y11722000D02*
X6948000Y11702000D01*
X6988000Y11032000D02*
X7008000Y11012000D01*
X7008000Y11032000D02*
X6988000Y11012000D01*
X7004000Y3582000D02*
X7024000Y3562000D01*
X7024000Y3582000D02*
X7004000Y3562000D01*
X7016000Y1601000D02*
X7036000Y1581000D01*
X7036000Y1601000D02*
X7016000Y1581000D01*
X7127000Y8786000D02*
X7147000Y8766000D01*
X7147000Y8786000D02*
X7127000Y8766000D01*
X7135000Y9943000D02*
X7155000Y9923000D01*
X7155000Y9943000D02*
X7135000Y9923000D01*
X7142000Y5557000D02*
X7162000Y5537000D01*
X7162000Y5557000D02*
X7142000Y5537000D01*
X7150500Y2488818D02*
X7170500Y2468818D01*
X7170500Y2488818D02*
X7150500Y2468818D01*
X7255000Y11486000D02*
X7275000Y11466000D01*
X7275000Y11486000D02*
X7255000Y11466000D01*
X7259000Y13047000D02*
X7279000Y13027000D01*
X7279000Y13047000D02*
X7259000Y13027000D01*
X7273000Y796000D02*
X7293000Y776000D01*
X7293000Y796000D02*
X7273000Y776000D01*
X7326500Y9531000D02*
X7346500Y9511000D01*
X7346500Y9531000D02*
X7326500Y9511000D01*
X7335000Y9861000D02*
X7355000Y9841000D01*
X7355000Y9861000D02*
X7335000Y9841000D01*
X7591000Y7557000D02*
X7611000Y7537000D01*
X7611000Y7557000D02*
X7591000Y7537000D01*
X7805000Y13292000D02*
X7825000Y13272000D01*
X7825000Y13292000D02*
X7805000Y13272000D01*
X8013000Y8809000D02*
X8033000Y8789000D01*
X8033000Y8809000D02*
X8013000Y8789000D01*
X8050000Y10381000D02*
X8070000Y10361000D01*
X8070000Y10381000D02*
X8050000Y10361000D01*
X8052411Y11229233D02*
X8072411Y11209233D01*
X8072411Y11229233D02*
X8052411Y11209233D01*
X8086000Y1927000D02*
X8106000Y1907000D01*
X8106000Y1927000D02*
X8086000Y1907000D01*
X8137500Y11756000D02*
X8157500Y11736000D01*
X8157500Y11756000D02*
X8137500Y11736000D01*
X8148000Y2493818D02*
X8168000Y2473818D01*
X8168000Y2493818D02*
X8148000Y2473818D01*
X8160000Y7697000D02*
X8180000Y7677000D01*
X8180000Y7697000D02*
X8160000Y7677000D01*
X8176000Y4802000D02*
X8196000Y4782000D01*
X8196000Y4802000D02*
X8176000Y4782000D01*
X8178000Y11037000D02*
X8198000Y11017000D01*
X8198000Y11037000D02*
X8178000Y11017000D01*
X8181000Y5643000D02*
X8201000Y5623000D01*
X8201000Y5643000D02*
X8181000Y5623000D01*
X8188000Y7592000D02*
X8208000Y7572000D01*
X8208000Y7592000D02*
X8188000Y7572000D01*
X8188000Y3906000D02*
X8208000Y3886000D01*
X8208000Y3906000D02*
X8188000Y3886000D01*
X8190000Y10097000D02*
X8210000Y10077000D01*
X8210000Y10097000D02*
X8190000Y10077000D01*
X8194000Y9616000D02*
X8214000Y9596000D01*
X8214000Y9616000D02*
X8194000Y9596000D01*
X8196742Y8907690D02*
X8216742Y8887690D01*
X8216742Y8907690D02*
X8196742Y8887690D01*
X8197000Y6730000D02*
X8217000Y6710000D01*
X8217000Y6730000D02*
X8197000Y6710000D01*
X8273000Y11482000D02*
X8293000Y11462000D01*
X8293000Y11482000D02*
X8273000Y11462000D01*
X8278000Y2793818D02*
X8298000Y2773818D01*
X8298000Y2793818D02*
X8278000Y2773818D01*
X8347000Y10221000D02*
X8367000Y10201000D01*
X8367000Y10221000D02*
X8347000Y10201000D01*
X8348000Y10917000D02*
X8368000Y10897000D01*
X8368000Y10917000D02*
X8348000Y10897000D01*
X8371000Y6718000D02*
X8391000Y6698000D01*
X8391000Y6718000D02*
X8371000Y6698000D01*
X8397000Y8267000D02*
X8417000Y8247000D01*
X8417000Y8267000D02*
X8397000Y8247000D01*
X8403000Y8447000D02*
X8423000Y8427000D01*
X8423000Y8447000D02*
X8403000Y8427000D01*
X8408000Y9396000D02*
X8428000Y9376000D01*
X8428000Y9396000D02*
X8408000Y9376000D01*
X8411000Y7137000D02*
X8431000Y7117000D01*
X8431000Y7137000D02*
X8411000Y7117000D01*
X8412000Y3032000D02*
X8432000Y3012000D01*
X8432000Y3032000D02*
X8412000Y3012000D01*
X8425500Y699500D02*
X8445500Y679500D01*
X8445500Y699500D02*
X8425500Y679500D01*
X8446000Y9092000D02*
X8466000Y9072000D01*
X8466000Y9092000D02*
X8446000Y9072000D01*
X8448000Y9884000D02*
X8468000Y9864000D01*
X8468000Y9884000D02*
X8448000Y9864000D01*
X8460000Y4847000D02*
X8480000Y4827000D01*
X8480000Y4847000D02*
X8460000Y4827000D01*
X8481000Y6005000D02*
X8501000Y5985000D01*
X8501000Y6005000D02*
X8481000Y5985000D01*
X8525000Y10641000D02*
X8545000Y10621000D01*
X8545000Y10641000D02*
X8525000Y10621000D01*
X8525000Y6702000D02*
X8545000Y6682000D01*
X8545000Y6702000D02*
X8525000Y6682000D01*
X8618000Y10542000D02*
X8638000Y10522000D01*
X8638000Y10542000D02*
X8618000Y10522000D01*
X8637000Y12409000D02*
X8657000Y12389000D01*
X8657000Y12409000D02*
X8637000Y12389000D01*
X8668000Y4650318D02*
X8688000Y4630318D01*
X8688000Y4650318D02*
X8668000Y4630318D01*
X8674000Y6583989D02*
X8694000Y6563989D01*
X8694000Y6583989D02*
X8674000Y6563989D01*
X8674000Y6218318D02*
X8694000Y6198318D01*
X8694000Y6218318D02*
X8674000Y6198318D01*
X8678000Y4350318D02*
X8698000Y4330318D01*
X8698000Y4350318D02*
X8678000Y4330318D01*
X8688682Y2493818D02*
X8708682Y2473818D01*
X8708682Y2493818D02*
X8688682Y2473818D01*
X8703000Y11057000D02*
X8723000Y11037000D01*
X8723000Y11057000D02*
X8703000Y11037000D01*
X8717000Y4892000D02*
X8737000Y4872000D01*
X8737000Y4892000D02*
X8717000Y4872000D01*
X8730000Y6519000D02*
X8750000Y6499000D01*
X8750000Y6519000D02*
X8730000Y6499000D01*
X8769750Y8951000D02*
X8789750Y8931000D01*
X8789750Y8951000D02*
X8769750Y8931000D01*
X8824000Y194000D02*
X8844000Y174000D01*
X8844000Y194000D02*
X8824000Y174000D01*
X8860000Y8361000D02*
X8880000Y8341000D01*
X8880000Y8361000D02*
X8860000Y8341000D01*
X8874000Y9604000D02*
X8894000Y9584000D01*
X8894000Y9604000D02*
X8874000Y9584000D01*
X8898000Y3862000D02*
X8918000Y3842000D01*
X8918000Y3862000D02*
X8898000Y3842000D01*
X9493000Y10977000D02*
X9513000Y10957000D01*
X9513000Y10977000D02*
X9493000Y10957000D01*
X9536000Y13292000D02*
X9556000Y13272000D01*
X9556000Y13292000D02*
X9536000Y13272000D01*
X9571000Y2224000D02*
X9591000Y2204000D01*
X9591000Y2224000D02*
X9571000Y2204000D01*
X9584000Y7051000D02*
X9604000Y7031000D01*
X9604000Y7051000D02*
X9584000Y7031000D01*
X9585000Y3272000D02*
X9605000Y3252000D01*
X9605000Y3272000D02*
X9585000Y3252000D01*
X9602000Y8383000D02*
X9622000Y8363000D01*
X9622000Y8383000D02*
X9602000Y8363000D01*
X9602000Y4393000D02*
X9622000Y4373000D01*
X9622000Y4393000D02*
X9602000Y4373000D01*
X9612000Y6167000D02*
X9632000Y6147000D01*
X9632000Y6167000D02*
X9612000Y6147000D01*
X9612000Y5447000D02*
X9632000Y5427000D01*
X9632000Y5447000D02*
X9612000Y5427000D01*
X9613000Y925000D02*
X9633000Y905000D01*
X9633000Y925000D02*
X9613000Y905000D01*
X9706000Y11450000D02*
X9726000Y11430000D01*
X9726000Y11450000D02*
X9706000Y11430000D01*
X10097000Y9008000D02*
X10117000Y8988000D01*
X10117000Y9008000D02*
X10097000Y8988000D01*
X10107000Y12657000D02*
X10127000Y12637000D01*
X10127000Y12657000D02*
X10107000Y12637000D01*
X10111000Y11635000D02*
X10131000Y11615000D01*
X10131000Y11635000D02*
X10111000Y11615000D01*
X10111000Y10692000D02*
X10131000Y10672000D01*
X10131000Y10692000D02*
X10111000Y10672000D01*
X1576000Y677471D02*
G75*
G02*
X1516000Y677471I-30000J0D01*
G01*
X1516000Y677471D02*
G75*
G02*
X1576000Y677471I30000J0D01*
G01*
X1516000Y732471D02*
X1516000Y622471D01*
X1576000Y622471D02*
G75*
G02*
X1516000Y622471I-30000J0D01*
G01*
X1576000Y622471D02*
X1576000Y732471D01*
X1576000Y732471D02*
G75*
G03*
X1516000Y732471I-30000J0D01*
G01*
X1576000Y259471D02*
G75*
G02*
X1516000Y259471I-30000J0D01*
G01*
X1516000Y259471D02*
G75*
G02*
X1576000Y259471I30000J0D01*
G01*
X1516000Y299471D02*
X1516000Y219471D01*
X1576000Y219471D02*
G75*
G02*
X1516000Y219471I-30000J0D01*
G01*
X1576000Y219471D02*
X1576000Y299471D01*
X1576000Y299471D02*
G75*
G03*
X1516000Y299471I-30000J0D01*
G01*
X2440000Y677471D02*
G75*
G02*
X2380000Y677471I-30000J0D01*
G01*
X2380000Y677471D02*
G75*
G02*
X2440000Y677471I30000J0D01*
G01*
X2380000Y732471D02*
X2380000Y622471D01*
X2440000Y622471D02*
G75*
G02*
X2380000Y622471I-30000J0D01*
G01*
X2440000Y622471D02*
X2440000Y732471D01*
X2440000Y732471D02*
G75*
G03*
X2380000Y732471I-30000J0D01*
G01*
X2440000Y259471D02*
G75*
G02*
X2380000Y259471I-30000J0D01*
G01*
X2380000Y259471D02*
G75*
G02*
X2440000Y259471I30000J0D01*
G01*
X2380000Y299471D02*
X2380000Y219471D01*
X2440000Y219471D02*
G75*
G02*
X2380000Y219471I-30000J0D01*
G01*
X2440000Y219471D02*
X2440000Y299471D01*
X2440000Y299471D02*
G75*
G03*
X2380000Y299471I-30000J0D01*
G01*
X3695110Y8846360D02*
X3695110Y8746360D01*
X3645110Y8796360D02*
X3745110Y8796360D01*
X3865110Y13166000D02*
X3865110Y13066000D01*
X3815110Y13116000D02*
X3915110Y13116000D01*
X3949110Y8846360D02*
X3949110Y8746360D01*
X3899110Y8796360D02*
X3999110Y8796360D01*
X3999110Y12250500D02*
X3999110Y12150500D01*
X3949110Y12200500D02*
X4049110Y12200500D01*
X3999110Y11996500D02*
X3999110Y11896500D01*
X3949110Y11946500D02*
X4049110Y11946500D01*
X4253110Y12250500D02*
X4253110Y12150500D01*
X4203110Y12200500D02*
X4303110Y12200500D01*
X4253110Y11996500D02*
X4253110Y11896500D01*
X4203110Y11946500D02*
X4303110Y11946500D01*
X4390000Y719971D02*
X4390000Y619971D01*
X4340000Y669971D02*
X4440000Y669971D01*
X4390000Y465971D02*
X4390000Y365971D01*
X4340000Y415971D02*
X4440000Y415971D01*
X4507110Y12250500D02*
X4507110Y12150500D01*
X4457110Y12200500D02*
X4557110Y12200500D01*
X4507110Y11996500D02*
X4507110Y11896500D01*
X4457110Y11946500D02*
X4557110Y11946500D01*
X4644000Y719971D02*
X4644000Y619971D01*
X4594000Y669971D02*
X4694000Y669971D01*
X4644000Y465971D02*
X4644000Y365971D01*
X4594000Y415971D02*
X4694000Y415971D01*
X4809000Y13091000D02*
X4809000Y12991000D01*
X4759000Y13041000D02*
X4859000Y13041000D01*
X4898000Y719971D02*
X4898000Y619971D01*
X4848000Y669971D02*
X4948000Y669971D01*
X4898000Y465971D02*
X4898000Y365971D01*
X4848000Y415971D02*
X4948000Y415971D01*
X5063000Y13091000D02*
X5063000Y12991000D01*
X5013000Y13041000D02*
X5113000Y13041000D01*
X5317000Y13091000D02*
X5317000Y12991000D01*
X5267000Y13041000D02*
X5367000Y13041000D01*
X5571000Y13091000D02*
X5571000Y12991000D01*
X5521000Y13041000D02*
X5621000Y13041000D01*
X5825000Y13091000D02*
X5825000Y12991000D01*
X5775000Y13041000D02*
X5875000Y13041000D01*
X7448000Y13088500D02*
X7448000Y12988500D01*
X7398000Y13038500D02*
X7498000Y13038500D01*
X7702000Y13088500D02*
X7702000Y12988500D01*
X7652000Y13038500D02*
X7752000Y13038500D01*
X7956000Y13088500D02*
X7956000Y12988500D01*
X7906000Y13038500D02*
X8006000Y13038500D01*
X8210000Y13088500D02*
X8210000Y12988500D01*
X8160000Y13038500D02*
X8260000Y13038500D01*
X8464000Y13088500D02*
X8464000Y12988500D01*
X8414000Y13038500D02*
X8514000Y13038500D01*
D13*
X-265518Y11419488D02*
X-265518Y11543232D01*
X-389262Y11543232D01*
X-389262Y11419488D01*
X-265518Y11419488D01*
X-238018Y9984488D02*
X-238018Y10108232D01*
X-361762Y10108232D01*
X-361762Y9984488D01*
X-238018Y9984488D01*
X596982Y10209488D02*
X596982Y10333232D01*
X473238Y10333232D01*
X473238Y10209488D01*
X596982Y10209488D01*
X1781982Y10891988D02*
X1781982Y11015732D01*
X1658238Y11015732D01*
X1658238Y10891988D01*
X1781982Y10891988D01*
X3386982Y10096988D02*
X3386982Y10220732D01*
X3263238Y10220732D01*
X3263238Y10096988D01*
X3386982Y10096988D01*
X3514482Y9274488D02*
X3514482Y9398232D01*
X3390738Y9398232D01*
X3390738Y9274488D01*
X3514482Y9274488D01*
X3889482Y10779488D02*
X3889482Y10903232D01*
X3765738Y10903232D01*
X3765738Y10779488D01*
X3889482Y10779488D01*
X4445777Y8817513D02*
X4445777Y8941258D01*
X4322033Y8941258D01*
X4322033Y8817513D01*
X4445777Y8817513D01*
X4445777Y8563513D02*
X4445777Y8687258D01*
X4322033Y8687258D01*
X4322033Y8563513D01*
X4445777Y8563513D01*
X4699777Y8817513D02*
X4699777Y8941258D01*
X4576033Y8941258D01*
X4576033Y8817513D01*
X4699777Y8817513D01*
X4699777Y8563513D02*
X4699777Y8687258D01*
X4576033Y8687258D01*
X4576033Y8563513D01*
X4699777Y8563513D01*
X4953777Y8817513D02*
X4953777Y8941258D01*
X4830033Y8941258D01*
X4830033Y8817513D01*
X4953777Y8817513D01*
X4953777Y8563513D02*
X4953777Y8687258D01*
X4830033Y8687258D01*
X4830033Y8563513D01*
X4953777Y8563513D01*
X6831982Y12501988D02*
X6831982Y12625732D01*
X6708238Y12625732D01*
X6708238Y12501988D01*
X6831982Y12501988D01*
X7561982Y11094488D02*
X7561982Y11218232D01*
X7438238Y11218232D01*
X7438238Y11094488D01*
X7561982Y11094488D01*
X7581982Y8571988D02*
X7581982Y8695732D01*
X7458238Y8695732D01*
X7458238Y8571988D01*
X7581982Y8571988D01*
X9831982Y9684488D02*
X9831982Y9808232D01*
X9708238Y9808232D01*
X9708238Y9684488D01*
X9831982Y9684488D01*
D11*
X-251723Y-323984D02*
X-251723Y-123984D01*
X-251723Y-123984D02*
X-204104Y-123984D01*
X-204104Y-123984D02*
X-175533Y-133508D01*
X-175533Y-133508D02*
X-156485Y-152555D01*
X-156485Y-152555D02*
X-146961Y-171603D01*
X-146961Y-171603D02*
X-137438Y-209698D01*
X-137438Y-209698D02*
X-137438Y-238269D01*
X-137438Y-238269D02*
X-146961Y-276365D01*
X-146961Y-276365D02*
X-156485Y-295412D01*
X-156485Y-295412D02*
X-175533Y-314460D01*
X-175533Y-314460D02*
X-204104Y-323984D01*
X-204104Y-323984D02*
X-251723Y-323984D01*
X-51723Y-323984D02*
X-51723Y-190650D01*
X-51723Y-228746D02*
X-42199Y-209698D01*
X-42199Y-209698D02*
X-32676Y-200174D01*
X-32676Y-200174D02*
X-13628Y-190650D01*
X-13628Y-190650D02*
X5420Y-190650D01*
X72086Y-323984D02*
X72086Y-190650D01*
X72086Y-123984D02*
X62562Y-133508D01*
X62562Y-133508D02*
X72086Y-143031D01*
X72086Y-143031D02*
X81610Y-133508D01*
X81610Y-133508D02*
X72086Y-123984D01*
X72086Y-123984D02*
X72086Y-143031D01*
X195896Y-323984D02*
X176848Y-314460D01*
X176848Y-314460D02*
X167324Y-295412D01*
X167324Y-295412D02*
X167324Y-123984D01*
X300658Y-323984D02*
X281610Y-314460D01*
X281610Y-314460D02*
X272086Y-295412D01*
X272086Y-295412D02*
X272086Y-123984D01*
X529229Y-323984D02*
X529229Y-123984D01*
X529229Y-123984D02*
X595896Y-266841D01*
X595896Y-266841D02*
X662563Y-123984D01*
X662563Y-123984D02*
X662563Y-323984D01*
X843515Y-323984D02*
X843515Y-219222D01*
X843515Y-219222D02*
X833991Y-200174D01*
X833991Y-200174D02*
X814943Y-190650D01*
X814943Y-190650D02*
X776848Y-190650D01*
X776848Y-190650D02*
X757801Y-200174D01*
X843515Y-314460D02*
X824467Y-323984D01*
X824467Y-323984D02*
X776848Y-323984D01*
X776848Y-323984D02*
X757801Y-314460D01*
X757801Y-314460D02*
X748277Y-295412D01*
X748277Y-295412D02*
X748277Y-276365D01*
X748277Y-276365D02*
X757801Y-257317D01*
X757801Y-257317D02*
X776848Y-247793D01*
X776848Y-247793D02*
X824467Y-247793D01*
X824467Y-247793D02*
X843515Y-238269D01*
X938753Y-190650D02*
X938753Y-390650D01*
X938753Y-200174D02*
X957801Y-190650D01*
X957801Y-190650D02*
X995896Y-190650D01*
X995896Y-190650D02*
X1014943Y-200174D01*
X1014943Y-200174D02*
X1024467Y-209698D01*
X1024467Y-209698D02*
X1033991Y-228746D01*
X1033991Y-228746D02*
X1033991Y-285889D01*
X1033991Y-285889D02*
X1024467Y-304936D01*
X1024467Y-304936D02*
X1014943Y-314460D01*
X1014943Y-314460D02*
X995896Y-323984D01*
X995896Y-323984D02*
X957801Y-323984D01*
X957801Y-323984D02*
X938753Y-314460D01*
X1119705Y-304936D02*
X1129229Y-314460D01*
X1129229Y-314460D02*
X1119705Y-323984D01*
X1119705Y-323984D02*
X1110182Y-314460D01*
X1110182Y-314460D02*
X1119705Y-304936D01*
X1119705Y-304936D02*
X1119705Y-323984D01*
X1119705Y-200174D02*
X1129229Y-209698D01*
X1129229Y-209698D02*
X1119705Y-219222D01*
X1119705Y-219222D02*
X1110182Y-209698D01*
X1110182Y-209698D02*
X1119705Y-200174D01*
X1119705Y-200174D02*
X1119705Y-219222D01*
D12*
X-532500Y-642500D02*
X-512500Y-662500D01*
X-512500Y-642500D02*
X-532500Y-662500D01*
D11*
X-213628Y-543984D02*
X-194580Y-543984D01*
X-194580Y-543984D02*
X-175533Y-553508D01*
X-175533Y-553508D02*
X-166009Y-563031D01*
X-166009Y-563031D02*
X-156485Y-582079D01*
X-156485Y-582079D02*
X-146961Y-620174D01*
X-146961Y-620174D02*
X-146961Y-667793D01*
X-146961Y-667793D02*
X-156485Y-705888D01*
X-156485Y-705888D02*
X-166009Y-724936D01*
X-166009Y-724936D02*
X-175533Y-734460D01*
X-175533Y-734460D02*
X-194580Y-743984D01*
X-194580Y-743984D02*
X-213628Y-743984D01*
X-213628Y-743984D02*
X-232676Y-734460D01*
X-232676Y-734460D02*
X-242199Y-724936D01*
X-242199Y-724936D02*
X-251723Y-705888D01*
X-251723Y-705888D02*
X-261247Y-667793D01*
X-261247Y-667793D02*
X-261247Y-620174D01*
X-261247Y-620174D02*
X-251723Y-582079D01*
X-251723Y-582079D02*
X-242199Y-563031D01*
X-242199Y-563031D02*
X-232676Y-553508D01*
X-232676Y-553508D02*
X-213628Y-543984D01*
X-61247Y-724936D02*
X-51723Y-734460D01*
X-51723Y-734460D02*
X-61247Y-743984D01*
X-61247Y-743984D02*
X-70771Y-734460D01*
X-70771Y-734460D02*
X-61247Y-724936D01*
X-61247Y-724936D02*
X-61247Y-743984D01*
X24467Y-563031D02*
X33991Y-553508D01*
X33991Y-553508D02*
X53039Y-543984D01*
X53039Y-543984D02*
X100658Y-543984D01*
X100658Y-543984D02*
X119705Y-553508D01*
X119705Y-553508D02*
X129229Y-563031D01*
X129229Y-563031D02*
X138753Y-582079D01*
X138753Y-582079D02*
X138753Y-601127D01*
X138753Y-601127D02*
X129229Y-629698D01*
X129229Y-629698D02*
X14943Y-743984D01*
X14943Y-743984D02*
X138753Y-743984D01*
X262563Y-543984D02*
X281610Y-543984D01*
X281610Y-543984D02*
X300658Y-553508D01*
X300658Y-553508D02*
X310182Y-563031D01*
X310182Y-563031D02*
X319705Y-582079D01*
X319705Y-582079D02*
X329229Y-620174D01*
X329229Y-620174D02*
X329229Y-667793D01*
X329229Y-667793D02*
X319705Y-705888D01*
X319705Y-705888D02*
X310182Y-724936D01*
X310182Y-724936D02*
X300658Y-734460D01*
X300658Y-734460D02*
X281610Y-743984D01*
X281610Y-743984D02*
X262563Y-743984D01*
X262563Y-743984D02*
X243515Y-734460D01*
X243515Y-734460D02*
X233991Y-724936D01*
X233991Y-724936D02*
X224467Y-705888D01*
X224467Y-705888D02*
X214943Y-667793D01*
X214943Y-667793D02*
X214943Y-620174D01*
X214943Y-620174D02*
X224467Y-582079D01*
X224467Y-582079D02*
X233991Y-563031D01*
X233991Y-563031D02*
X243515Y-553508D01*
X243515Y-553508D02*
X262563Y-543984D01*
X453039Y-543984D02*
X472086Y-543984D01*
X472086Y-543984D02*
X491134Y-553508D01*
X491134Y-553508D02*
X500658Y-563031D01*
X500658Y-563031D02*
X510182Y-582079D01*
X510182Y-582079D02*
X519705Y-620174D01*
X519705Y-620174D02*
X519705Y-667793D01*
X519705Y-667793D02*
X510182Y-705888D01*
X510182Y-705888D02*
X500658Y-724936D01*
X500658Y-724936D02*
X491134Y-734460D01*
X491134Y-734460D02*
X472086Y-743984D01*
X472086Y-743984D02*
X453039Y-743984D01*
X453039Y-743984D02*
X433991Y-734460D01*
X433991Y-734460D02*
X424467Y-724936D01*
X424467Y-724936D02*
X414943Y-705888D01*
X414943Y-705888D02*
X405420Y-667793D01*
X405420Y-667793D02*
X405420Y-620174D01*
X405420Y-620174D02*
X414943Y-582079D01*
X414943Y-582079D02*
X424467Y-563031D01*
X424467Y-563031D02*
X433991Y-553508D01*
X433991Y-553508D02*
X453039Y-543984D01*
X605420Y-743984D02*
X605420Y-610650D01*
X605420Y-629698D02*
X614944Y-620174D01*
X614944Y-620174D02*
X633991Y-610650D01*
X633991Y-610650D02*
X662563Y-610650D01*
X662563Y-610650D02*
X681610Y-620174D01*
X681610Y-620174D02*
X691134Y-639222D01*
X691134Y-639222D02*
X691134Y-743984D01*
X691134Y-639222D02*
X700658Y-620174D01*
X700658Y-620174D02*
X719705Y-610650D01*
X719705Y-610650D02*
X748277Y-610650D01*
X748277Y-610650D02*
X767324Y-620174D01*
X767324Y-620174D02*
X776848Y-639222D01*
X776848Y-639222D02*
X776848Y-743984D01*
X872086Y-743984D02*
X872086Y-610650D01*
X872086Y-629698D02*
X881610Y-620174D01*
X881610Y-620174D02*
X900658Y-610650D01*
X900658Y-610650D02*
X929229Y-610650D01*
X929229Y-610650D02*
X948277Y-620174D01*
X948277Y-620174D02*
X957801Y-639222D01*
X957801Y-639222D02*
X957801Y-743984D01*
X957801Y-639222D02*
X967324Y-620174D01*
X967324Y-620174D02*
X986372Y-610650D01*
X986372Y-610650D02*
X1014943Y-610650D01*
X1014943Y-610650D02*
X1033991Y-620174D01*
X1033991Y-620174D02*
X1043515Y-639222D01*
X1043515Y-639222D02*
X1043515Y-743984D01*
X1433991Y-534460D02*
X1262563Y-791603D01*
X1691134Y-543984D02*
X1710182Y-543984D01*
X1710182Y-543984D02*
X1729229Y-553508D01*
X1729229Y-553508D02*
X1738753Y-563031D01*
X1738753Y-563031D02*
X1748277Y-582079D01*
X1748277Y-582079D02*
X1757801Y-620174D01*
X1757801Y-620174D02*
X1757801Y-667793D01*
X1757801Y-667793D02*
X1748277Y-705888D01*
X1748277Y-705888D02*
X1738753Y-724936D01*
X1738753Y-724936D02*
X1729229Y-734460D01*
X1729229Y-734460D02*
X1710182Y-743984D01*
X1710182Y-743984D02*
X1691134Y-743984D01*
X1691134Y-743984D02*
X1672086Y-734460D01*
X1672086Y-734460D02*
X1662563Y-724936D01*
X1662563Y-724936D02*
X1653039Y-705888D01*
X1653039Y-705888D02*
X1643515Y-667793D01*
X1643515Y-667793D02*
X1643515Y-620174D01*
X1643515Y-620174D02*
X1653039Y-582079D01*
X1653039Y-582079D02*
X1662563Y-563031D01*
X1662563Y-563031D02*
X1672086Y-553508D01*
X1672086Y-553508D02*
X1691134Y-543984D01*
X1843515Y-724936D02*
X1853039Y-734460D01*
X1853039Y-734460D02*
X1843515Y-743984D01*
X1843515Y-743984D02*
X1833991Y-734460D01*
X1833991Y-734460D02*
X1843515Y-724936D01*
X1843515Y-724936D02*
X1843515Y-743984D01*
X1976848Y-543984D02*
X1995896Y-543984D01*
X1995896Y-543984D02*
X2014944Y-553508D01*
X2014944Y-553508D02*
X2024467Y-563031D01*
X2024467Y-563031D02*
X2033991Y-582079D01*
X2033991Y-582079D02*
X2043515Y-620174D01*
X2043515Y-620174D02*
X2043515Y-667793D01*
X2043515Y-667793D02*
X2033991Y-705888D01*
X2033991Y-705888D02*
X2024467Y-724936D01*
X2024467Y-724936D02*
X2014944Y-734460D01*
X2014944Y-734460D02*
X1995896Y-743984D01*
X1995896Y-743984D02*
X1976848Y-743984D01*
X1976848Y-743984D02*
X1957801Y-734460D01*
X1957801Y-734460D02*
X1948277Y-724936D01*
X1948277Y-724936D02*
X1938753Y-705888D01*
X1938753Y-705888D02*
X1929229Y-667793D01*
X1929229Y-667793D02*
X1929229Y-620174D01*
X1929229Y-620174D02*
X1938753Y-582079D01*
X1938753Y-582079D02*
X1948277Y-563031D01*
X1948277Y-563031D02*
X1957801Y-553508D01*
X1957801Y-553508D02*
X1976848Y-543984D01*
X2167325Y-543984D02*
X2186372Y-543984D01*
X2186372Y-543984D02*
X2205420Y-553508D01*
X2205420Y-553508D02*
X2214944Y-563031D01*
X2214944Y-563031D02*
X2224468Y-582079D01*
X2224468Y-582079D02*
X2233991Y-620174D01*
X2233991Y-620174D02*
X2233991Y-667793D01*
X2233991Y-667793D02*
X2224468Y-705888D01*
X2224468Y-705888D02*
X2214944Y-724936D01*
X2214944Y-724936D02*
X2205420Y-734460D01*
X2205420Y-734460D02*
X2186372Y-743984D01*
X2186372Y-743984D02*
X2167325Y-743984D01*
X2167325Y-743984D02*
X2148277Y-734460D01*
X2148277Y-734460D02*
X2138753Y-724936D01*
X2138753Y-724936D02*
X2129229Y-705888D01*
X2129229Y-705888D02*
X2119706Y-667793D01*
X2119706Y-667793D02*
X2119706Y-620174D01*
X2119706Y-620174D02*
X2129229Y-582079D01*
X2129229Y-582079D02*
X2138753Y-563031D01*
X2138753Y-563031D02*
X2148277Y-553508D01*
X2148277Y-553508D02*
X2167325Y-543984D01*
X2300658Y-543984D02*
X2433991Y-543984D01*
X2433991Y-543984D02*
X2348277Y-743984D01*
X2519706Y-743984D02*
X2557801Y-743984D01*
X2557801Y-743984D02*
X2576849Y-734460D01*
X2576849Y-734460D02*
X2586372Y-724936D01*
X2586372Y-724936D02*
X2605420Y-696365D01*
X2605420Y-696365D02*
X2614944Y-658270D01*
X2614944Y-658270D02*
X2614944Y-582079D01*
X2614944Y-582079D02*
X2605420Y-563031D01*
X2605420Y-563031D02*
X2595896Y-553508D01*
X2595896Y-553508D02*
X2576849Y-543984D01*
X2576849Y-543984D02*
X2538753Y-543984D01*
X2538753Y-543984D02*
X2519706Y-553508D01*
X2519706Y-553508D02*
X2510182Y-563031D01*
X2510182Y-563031D02*
X2500658Y-582079D01*
X2500658Y-582079D02*
X2500658Y-629698D01*
X2500658Y-629698D02*
X2510182Y-648746D01*
X2510182Y-648746D02*
X2519706Y-658270D01*
X2519706Y-658270D02*
X2538753Y-667793D01*
X2538753Y-667793D02*
X2576849Y-667793D01*
X2576849Y-667793D02*
X2595896Y-658270D01*
X2595896Y-658270D02*
X2605420Y-648746D01*
X2605420Y-648746D02*
X2614944Y-629698D01*
X2691134Y-543984D02*
X2691134Y-582079D01*
X2767325Y-543984D02*
X2767325Y-582079D01*
X3062563Y-820174D02*
X3053039Y-810650D01*
X3053039Y-810650D02*
X3033991Y-782079D01*
X3033991Y-782079D02*
X3024468Y-763031D01*
X3024468Y-763031D02*
X3014944Y-734460D01*
X3014944Y-734460D02*
X3005420Y-686841D01*
X3005420Y-686841D02*
X3005420Y-648746D01*
X3005420Y-648746D02*
X3014944Y-601127D01*
X3014944Y-601127D02*
X3024468Y-572555D01*
X3024468Y-572555D02*
X3033991Y-553508D01*
X3033991Y-553508D02*
X3053039Y-524936D01*
X3053039Y-524936D02*
X3062563Y-515412D01*
X3119706Y-543984D02*
X3243515Y-543984D01*
X3243515Y-543984D02*
X3176848Y-620174D01*
X3176848Y-620174D02*
X3205420Y-620174D01*
X3205420Y-620174D02*
X3224468Y-629698D01*
X3224468Y-629698D02*
X3233991Y-639222D01*
X3233991Y-639222D02*
X3243515Y-658270D01*
X3243515Y-658270D02*
X3243515Y-705888D01*
X3243515Y-705888D02*
X3233991Y-724936D01*
X3233991Y-724936D02*
X3224468Y-734460D01*
X3224468Y-734460D02*
X3205420Y-743984D01*
X3205420Y-743984D02*
X3148277Y-743984D01*
X3148277Y-743984D02*
X3129229Y-734460D01*
X3129229Y-734460D02*
X3119706Y-724936D01*
X3414944Y-543984D02*
X3376848Y-543984D01*
X3376848Y-543984D02*
X3357801Y-553508D01*
X3357801Y-553508D02*
X3348277Y-563031D01*
X3348277Y-563031D02*
X3329229Y-591603D01*
X3329229Y-591603D02*
X3319706Y-629698D01*
X3319706Y-629698D02*
X3319706Y-705888D01*
X3319706Y-705888D02*
X3329229Y-724936D01*
X3329229Y-724936D02*
X3338753Y-734460D01*
X3338753Y-734460D02*
X3357801Y-743984D01*
X3357801Y-743984D02*
X3395896Y-743984D01*
X3395896Y-743984D02*
X3414944Y-734460D01*
X3414944Y-734460D02*
X3424468Y-724936D01*
X3424468Y-724936D02*
X3433991Y-705888D01*
X3433991Y-705888D02*
X3433991Y-658270D01*
X3433991Y-658270D02*
X3424468Y-639222D01*
X3424468Y-639222D02*
X3414944Y-629698D01*
X3414944Y-629698D02*
X3395896Y-620174D01*
X3395896Y-620174D02*
X3357801Y-620174D01*
X3357801Y-620174D02*
X3338753Y-629698D01*
X3338753Y-629698D02*
X3329229Y-639222D01*
X3329229Y-639222D02*
X3319706Y-658270D01*
X3614944Y-543984D02*
X3519706Y-543984D01*
X3519706Y-543984D02*
X3510182Y-639222D01*
X3510182Y-639222D02*
X3519706Y-629698D01*
X3519706Y-629698D02*
X3538753Y-620174D01*
X3538753Y-620174D02*
X3586372Y-620174D01*
X3586372Y-620174D02*
X3605420Y-629698D01*
X3605420Y-629698D02*
X3614944Y-639222D01*
X3614944Y-639222D02*
X3624468Y-658270D01*
X3624468Y-658270D02*
X3624468Y-705888D01*
X3624468Y-705888D02*
X3614944Y-724936D01*
X3614944Y-724936D02*
X3605420Y-734460D01*
X3605420Y-734460D02*
X3586372Y-743984D01*
X3586372Y-743984D02*
X3538753Y-743984D01*
X3538753Y-743984D02*
X3519706Y-734460D01*
X3519706Y-734460D02*
X3510182Y-724936D01*
X3862563Y-743984D02*
X3862563Y-543984D01*
X3948277Y-743984D02*
X3948277Y-639222D01*
X3948277Y-639222D02*
X3938753Y-620174D01*
X3938753Y-620174D02*
X3919706Y-610650D01*
X3919706Y-610650D02*
X3891134Y-610650D01*
X3891134Y-610650D02*
X3872087Y-620174D01*
X3872087Y-620174D02*
X3862563Y-629698D01*
X4072087Y-743984D02*
X4053039Y-734460D01*
X4053039Y-734460D02*
X4043515Y-724936D01*
X4043515Y-724936D02*
X4033991Y-705888D01*
X4033991Y-705888D02*
X4033991Y-648746D01*
X4033991Y-648746D02*
X4043515Y-629698D01*
X4043515Y-629698D02*
X4053039Y-620174D01*
X4053039Y-620174D02*
X4072087Y-610650D01*
X4072087Y-610650D02*
X4100658Y-610650D01*
X4100658Y-610650D02*
X4119706Y-620174D01*
X4119706Y-620174D02*
X4129230Y-629698D01*
X4129230Y-629698D02*
X4138753Y-648746D01*
X4138753Y-648746D02*
X4138753Y-705888D01*
X4138753Y-705888D02*
X4129230Y-724936D01*
X4129230Y-724936D02*
X4119706Y-734460D01*
X4119706Y-734460D02*
X4100658Y-743984D01*
X4100658Y-743984D02*
X4072087Y-743984D01*
X4253039Y-743984D02*
X4233992Y-734460D01*
X4233992Y-734460D02*
X4224468Y-715412D01*
X4224468Y-715412D02*
X4224468Y-543984D01*
X4405420Y-734460D02*
X4386373Y-743984D01*
X4386373Y-743984D02*
X4348277Y-743984D01*
X4348277Y-743984D02*
X4329230Y-734460D01*
X4329230Y-734460D02*
X4319706Y-715412D01*
X4319706Y-715412D02*
X4319706Y-639222D01*
X4319706Y-639222D02*
X4329230Y-620174D01*
X4329230Y-620174D02*
X4348277Y-610650D01*
X4348277Y-610650D02*
X4386373Y-610650D01*
X4386373Y-610650D02*
X4405420Y-620174D01*
X4405420Y-620174D02*
X4414944Y-639222D01*
X4414944Y-639222D02*
X4414944Y-658270D01*
X4414944Y-658270D02*
X4319706Y-677317D01*
X4491134Y-734460D02*
X4510182Y-743984D01*
X4510182Y-743984D02*
X4548277Y-743984D01*
X4548277Y-743984D02*
X4567325Y-734460D01*
X4567325Y-734460D02*
X4576849Y-715412D01*
X4576849Y-715412D02*
X4576849Y-705888D01*
X4576849Y-705888D02*
X4567325Y-686841D01*
X4567325Y-686841D02*
X4548277Y-677317D01*
X4548277Y-677317D02*
X4519706Y-677317D01*
X4519706Y-677317D02*
X4500658Y-667793D01*
X4500658Y-667793D02*
X4491134Y-648746D01*
X4491134Y-648746D02*
X4491134Y-639222D01*
X4491134Y-639222D02*
X4500658Y-620174D01*
X4500658Y-620174D02*
X4519706Y-610650D01*
X4519706Y-610650D02*
X4548277Y-610650D01*
X4548277Y-610650D02*
X4567325Y-620174D01*
X4643515Y-820174D02*
X4653039Y-810650D01*
X4653039Y-810650D02*
X4672087Y-782079D01*
X4672087Y-782079D02*
X4681611Y-763031D01*
X4681611Y-763031D02*
X4691134Y-734460D01*
X4691134Y-734460D02*
X4700658Y-686841D01*
X4700658Y-686841D02*
X4700658Y-648746D01*
X4700658Y-648746D02*
X4691134Y-601127D01*
X4691134Y-601127D02*
X4681611Y-572555D01*
X4681611Y-572555D02*
X4672087Y-553508D01*
X4672087Y-553508D02*
X4653039Y-524936D01*
X4653039Y-524936D02*
X4643515Y-515412D01*
D12*
X-512500Y-916500D02*
G75*
G02*
X-572500Y-916500I-30000J0D01*
G01*
X-572500Y-916500D02*
G75*
G02*
X-512500Y-916500I30000J0D01*
G01*
D11*
X-213628Y-807984D02*
X-194580Y-807984D01*
X-194580Y-807984D02*
X-175533Y-817508D01*
X-175533Y-817508D02*
X-166009Y-827031D01*
X-166009Y-827031D02*
X-156485Y-846079D01*
X-156485Y-846079D02*
X-146961Y-884174D01*
X-146961Y-884174D02*
X-146961Y-931793D01*
X-146961Y-931793D02*
X-156485Y-969888D01*
X-156485Y-969888D02*
X-166009Y-988936D01*
X-166009Y-988936D02*
X-175533Y-998460D01*
X-175533Y-998460D02*
X-194580Y-1007984D01*
X-194580Y-1007984D02*
X-213628Y-1007984D01*
X-213628Y-1007984D02*
X-232676Y-998460D01*
X-232676Y-998460D02*
X-242199Y-988936D01*
X-242199Y-988936D02*
X-251723Y-969888D01*
X-251723Y-969888D02*
X-261247Y-931793D01*
X-261247Y-931793D02*
X-261247Y-884174D01*
X-261247Y-884174D02*
X-251723Y-846079D01*
X-251723Y-846079D02*
X-242199Y-827031D01*
X-242199Y-827031D02*
X-232676Y-817508D01*
X-232676Y-817508D02*
X-213628Y-807984D01*
X-61247Y-988936D02*
X-51723Y-998460D01*
X-51723Y-998460D02*
X-61247Y-1007984D01*
X-61247Y-1007984D02*
X-70771Y-998460D01*
X-70771Y-998460D02*
X-61247Y-988936D01*
X-61247Y-988936D02*
X-61247Y-1007984D01*
X119705Y-807984D02*
X81610Y-807984D01*
X81610Y-807984D02*
X62562Y-817508D01*
X62562Y-817508D02*
X53039Y-827031D01*
X53039Y-827031D02*
X33991Y-855603D01*
X33991Y-855603D02*
X24467Y-893698D01*
X24467Y-893698D02*
X24467Y-969888D01*
X24467Y-969888D02*
X33991Y-988936D01*
X33991Y-988936D02*
X43515Y-998460D01*
X43515Y-998460D02*
X62562Y-1007984D01*
X62562Y-1007984D02*
X100658Y-1007984D01*
X100658Y-1007984D02*
X119705Y-998460D01*
X119705Y-998460D02*
X129229Y-988936D01*
X129229Y-988936D02*
X138753Y-969888D01*
X138753Y-969888D02*
X138753Y-922269D01*
X138753Y-922269D02*
X129229Y-903222D01*
X129229Y-903222D02*
X119705Y-893698D01*
X119705Y-893698D02*
X100658Y-884174D01*
X100658Y-884174D02*
X62562Y-884174D01*
X62562Y-884174D02*
X43515Y-893698D01*
X43515Y-893698D02*
X33991Y-903222D01*
X33991Y-903222D02*
X24467Y-922269D01*
X262563Y-807984D02*
X281610Y-807984D01*
X281610Y-807984D02*
X300658Y-817508D01*
X300658Y-817508D02*
X310182Y-827031D01*
X310182Y-827031D02*
X319705Y-846079D01*
X319705Y-846079D02*
X329229Y-884174D01*
X329229Y-884174D02*
X329229Y-931793D01*
X329229Y-931793D02*
X319705Y-969888D01*
X319705Y-969888D02*
X310182Y-988936D01*
X310182Y-988936D02*
X300658Y-998460D01*
X300658Y-998460D02*
X281610Y-1007984D01*
X281610Y-1007984D02*
X262563Y-1007984D01*
X262563Y-1007984D02*
X243515Y-998460D01*
X243515Y-998460D02*
X233991Y-988936D01*
X233991Y-988936D02*
X224467Y-969888D01*
X224467Y-969888D02*
X214943Y-931793D01*
X214943Y-931793D02*
X214943Y-884174D01*
X214943Y-884174D02*
X224467Y-846079D01*
X224467Y-846079D02*
X233991Y-827031D01*
X233991Y-827031D02*
X243515Y-817508D01*
X243515Y-817508D02*
X262563Y-807984D01*
X453039Y-807984D02*
X472086Y-807984D01*
X472086Y-807984D02*
X491134Y-817508D01*
X491134Y-817508D02*
X500658Y-827031D01*
X500658Y-827031D02*
X510182Y-846079D01*
X510182Y-846079D02*
X519705Y-884174D01*
X519705Y-884174D02*
X519705Y-931793D01*
X519705Y-931793D02*
X510182Y-969888D01*
X510182Y-969888D02*
X500658Y-988936D01*
X500658Y-988936D02*
X491134Y-998460D01*
X491134Y-998460D02*
X472086Y-1007984D01*
X472086Y-1007984D02*
X453039Y-1007984D01*
X453039Y-1007984D02*
X433991Y-998460D01*
X433991Y-998460D02*
X424467Y-988936D01*
X424467Y-988936D02*
X414943Y-969888D01*
X414943Y-969888D02*
X405420Y-931793D01*
X405420Y-931793D02*
X405420Y-884174D01*
X405420Y-884174D02*
X414943Y-846079D01*
X414943Y-846079D02*
X424467Y-827031D01*
X424467Y-827031D02*
X433991Y-817508D01*
X433991Y-817508D02*
X453039Y-807984D01*
X605420Y-1007984D02*
X605420Y-874650D01*
X605420Y-893698D02*
X614944Y-884174D01*
X614944Y-884174D02*
X633991Y-874650D01*
X633991Y-874650D02*
X662563Y-874650D01*
X662563Y-874650D02*
X681610Y-884174D01*
X681610Y-884174D02*
X691134Y-903222D01*
X691134Y-903222D02*
X691134Y-1007984D01*
X691134Y-903222D02*
X700658Y-884174D01*
X700658Y-884174D02*
X719705Y-874650D01*
X719705Y-874650D02*
X748277Y-874650D01*
X748277Y-874650D02*
X767324Y-884174D01*
X767324Y-884174D02*
X776848Y-903222D01*
X776848Y-903222D02*
X776848Y-1007984D01*
X872086Y-1007984D02*
X872086Y-874650D01*
X872086Y-893698D02*
X881610Y-884174D01*
X881610Y-884174D02*
X900658Y-874650D01*
X900658Y-874650D02*
X929229Y-874650D01*
X929229Y-874650D02*
X948277Y-884174D01*
X948277Y-884174D02*
X957801Y-903222D01*
X957801Y-903222D02*
X957801Y-1007984D01*
X957801Y-903222D02*
X967324Y-884174D01*
X967324Y-884174D02*
X986372Y-874650D01*
X986372Y-874650D02*
X1014943Y-874650D01*
X1014943Y-874650D02*
X1033991Y-884174D01*
X1033991Y-884174D02*
X1043515Y-903222D01*
X1043515Y-903222D02*
X1043515Y-1007984D01*
X1433991Y-798460D02*
X1262563Y-1055603D01*
X1691134Y-807984D02*
X1710182Y-807984D01*
X1710182Y-807984D02*
X1729229Y-817508D01*
X1729229Y-817508D02*
X1738753Y-827031D01*
X1738753Y-827031D02*
X1748277Y-846079D01*
X1748277Y-846079D02*
X1757801Y-884174D01*
X1757801Y-884174D02*
X1757801Y-931793D01*
X1757801Y-931793D02*
X1748277Y-969888D01*
X1748277Y-969888D02*
X1738753Y-988936D01*
X1738753Y-988936D02*
X1729229Y-998460D01*
X1729229Y-998460D02*
X1710182Y-1007984D01*
X1710182Y-1007984D02*
X1691134Y-1007984D01*
X1691134Y-1007984D02*
X1672086Y-998460D01*
X1672086Y-998460D02*
X1662563Y-988936D01*
X1662563Y-988936D02*
X1653039Y-969888D01*
X1653039Y-969888D02*
X1643515Y-931793D01*
X1643515Y-931793D02*
X1643515Y-884174D01*
X1643515Y-884174D02*
X1653039Y-846079D01*
X1653039Y-846079D02*
X1662563Y-827031D01*
X1662563Y-827031D02*
X1672086Y-817508D01*
X1672086Y-817508D02*
X1691134Y-807984D01*
X1843515Y-988936D02*
X1853039Y-998460D01*
X1853039Y-998460D02*
X1843515Y-1007984D01*
X1843515Y-1007984D02*
X1833991Y-998460D01*
X1833991Y-998460D02*
X1843515Y-988936D01*
X1843515Y-988936D02*
X1843515Y-1007984D01*
X1976848Y-807984D02*
X1995896Y-807984D01*
X1995896Y-807984D02*
X2014944Y-817508D01*
X2014944Y-817508D02*
X2024467Y-827031D01*
X2024467Y-827031D02*
X2033991Y-846079D01*
X2033991Y-846079D02*
X2043515Y-884174D01*
X2043515Y-884174D02*
X2043515Y-931793D01*
X2043515Y-931793D02*
X2033991Y-969888D01*
X2033991Y-969888D02*
X2024467Y-988936D01*
X2024467Y-988936D02*
X2014944Y-998460D01*
X2014944Y-998460D02*
X1995896Y-1007984D01*
X1995896Y-1007984D02*
X1976848Y-1007984D01*
X1976848Y-1007984D02*
X1957801Y-998460D01*
X1957801Y-998460D02*
X1948277Y-988936D01*
X1948277Y-988936D02*
X1938753Y-969888D01*
X1938753Y-969888D02*
X1929229Y-931793D01*
X1929229Y-931793D02*
X1929229Y-884174D01*
X1929229Y-884174D02*
X1938753Y-846079D01*
X1938753Y-846079D02*
X1948277Y-827031D01*
X1948277Y-827031D02*
X1957801Y-817508D01*
X1957801Y-817508D02*
X1976848Y-807984D01*
X2119706Y-827031D02*
X2129229Y-817508D01*
X2129229Y-817508D02*
X2148277Y-807984D01*
X2148277Y-807984D02*
X2195896Y-807984D01*
X2195896Y-807984D02*
X2214944Y-817508D01*
X2214944Y-817508D02*
X2224468Y-827031D01*
X2224468Y-827031D02*
X2233991Y-846079D01*
X2233991Y-846079D02*
X2233991Y-865127D01*
X2233991Y-865127D02*
X2224468Y-893698D01*
X2224468Y-893698D02*
X2110182Y-1007984D01*
X2110182Y-1007984D02*
X2233991Y-1007984D01*
X2300658Y-807984D02*
X2424468Y-807984D01*
X2424468Y-807984D02*
X2357801Y-884174D01*
X2357801Y-884174D02*
X2386372Y-884174D01*
X2386372Y-884174D02*
X2405420Y-893698D01*
X2405420Y-893698D02*
X2414944Y-903222D01*
X2414944Y-903222D02*
X2424468Y-922269D01*
X2424468Y-922269D02*
X2424468Y-969888D01*
X2424468Y-969888D02*
X2414944Y-988936D01*
X2414944Y-988936D02*
X2405420Y-998460D01*
X2405420Y-998460D02*
X2386372Y-1007984D01*
X2386372Y-1007984D02*
X2329229Y-1007984D01*
X2329229Y-1007984D02*
X2310182Y-998460D01*
X2310182Y-998460D02*
X2300658Y-988936D01*
X2595896Y-807984D02*
X2557801Y-807984D01*
X2557801Y-807984D02*
X2538753Y-817508D01*
X2538753Y-817508D02*
X2529229Y-827031D01*
X2529229Y-827031D02*
X2510182Y-855603D01*
X2510182Y-855603D02*
X2500658Y-893698D01*
X2500658Y-893698D02*
X2500658Y-969888D01*
X2500658Y-969888D02*
X2510182Y-988936D01*
X2510182Y-988936D02*
X2519706Y-998460D01*
X2519706Y-998460D02*
X2538753Y-1007984D01*
X2538753Y-1007984D02*
X2576849Y-1007984D01*
X2576849Y-1007984D02*
X2595896Y-998460D01*
X2595896Y-998460D02*
X2605420Y-988936D01*
X2605420Y-988936D02*
X2614944Y-969888D01*
X2614944Y-969888D02*
X2614944Y-922269D01*
X2614944Y-922269D02*
X2605420Y-903222D01*
X2605420Y-903222D02*
X2595896Y-893698D01*
X2595896Y-893698D02*
X2576849Y-884174D01*
X2576849Y-884174D02*
X2538753Y-884174D01*
X2538753Y-884174D02*
X2519706Y-893698D01*
X2519706Y-893698D02*
X2510182Y-903222D01*
X2510182Y-903222D02*
X2500658Y-922269D01*
X2691134Y-807984D02*
X2691134Y-846079D01*
X2767325Y-807984D02*
X2767325Y-846079D01*
X3062563Y-1084174D02*
X3053039Y-1074650D01*
X3053039Y-1074650D02*
X3033991Y-1046079D01*
X3033991Y-1046079D02*
X3024468Y-1027031D01*
X3024468Y-1027031D02*
X3014944Y-998460D01*
X3014944Y-998460D02*
X3005420Y-950841D01*
X3005420Y-950841D02*
X3005420Y-912746D01*
X3005420Y-912746D02*
X3014944Y-865127D01*
X3014944Y-865127D02*
X3024468Y-836555D01*
X3024468Y-836555D02*
X3033991Y-817508D01*
X3033991Y-817508D02*
X3053039Y-788936D01*
X3053039Y-788936D02*
X3062563Y-779412D01*
X3176848Y-807984D02*
X3195896Y-807984D01*
X3195896Y-807984D02*
X3214944Y-817508D01*
X3214944Y-817508D02*
X3224468Y-827031D01*
X3224468Y-827031D02*
X3233991Y-846079D01*
X3233991Y-846079D02*
X3243515Y-884174D01*
X3243515Y-884174D02*
X3243515Y-931793D01*
X3243515Y-931793D02*
X3233991Y-969888D01*
X3233991Y-969888D02*
X3224468Y-988936D01*
X3224468Y-988936D02*
X3214944Y-998460D01*
X3214944Y-998460D02*
X3195896Y-1007984D01*
X3195896Y-1007984D02*
X3176848Y-1007984D01*
X3176848Y-1007984D02*
X3157801Y-998460D01*
X3157801Y-998460D02*
X3148277Y-988936D01*
X3148277Y-988936D02*
X3138753Y-969888D01*
X3138753Y-969888D02*
X3129229Y-931793D01*
X3129229Y-931793D02*
X3129229Y-884174D01*
X3129229Y-884174D02*
X3138753Y-846079D01*
X3138753Y-846079D02*
X3148277Y-827031D01*
X3148277Y-827031D02*
X3157801Y-817508D01*
X3157801Y-817508D02*
X3176848Y-807984D01*
X3481610Y-1007984D02*
X3481610Y-807984D01*
X3567325Y-1007984D02*
X3567325Y-903222D01*
X3567325Y-903222D02*
X3557801Y-884174D01*
X3557801Y-884174D02*
X3538753Y-874650D01*
X3538753Y-874650D02*
X3510182Y-874650D01*
X3510182Y-874650D02*
X3491134Y-884174D01*
X3491134Y-884174D02*
X3481610Y-893698D01*
X3691134Y-1007984D02*
X3672087Y-998460D01*
X3672087Y-998460D02*
X3662563Y-988936D01*
X3662563Y-988936D02*
X3653039Y-969888D01*
X3653039Y-969888D02*
X3653039Y-912746D01*
X3653039Y-912746D02*
X3662563Y-893698D01*
X3662563Y-893698D02*
X3672087Y-884174D01*
X3672087Y-884174D02*
X3691134Y-874650D01*
X3691134Y-874650D02*
X3719706Y-874650D01*
X3719706Y-874650D02*
X3738753Y-884174D01*
X3738753Y-884174D02*
X3748277Y-893698D01*
X3748277Y-893698D02*
X3757801Y-912746D01*
X3757801Y-912746D02*
X3757801Y-969888D01*
X3757801Y-969888D02*
X3748277Y-988936D01*
X3748277Y-988936D02*
X3738753Y-998460D01*
X3738753Y-998460D02*
X3719706Y-1007984D01*
X3719706Y-1007984D02*
X3691134Y-1007984D01*
X3872087Y-1007984D02*
X3853039Y-998460D01*
X3853039Y-998460D02*
X3843515Y-979412D01*
X3843515Y-979412D02*
X3843515Y-807984D01*
X4024468Y-998460D02*
X4005420Y-1007984D01*
X4005420Y-1007984D02*
X3967325Y-1007984D01*
X3967325Y-1007984D02*
X3948277Y-998460D01*
X3948277Y-998460D02*
X3938753Y-979412D01*
X3938753Y-979412D02*
X3938753Y-903222D01*
X3938753Y-903222D02*
X3948277Y-884174D01*
X3948277Y-884174D02*
X3967325Y-874650D01*
X3967325Y-874650D02*
X4005420Y-874650D01*
X4005420Y-874650D02*
X4024468Y-884174D01*
X4024468Y-884174D02*
X4033991Y-903222D01*
X4033991Y-903222D02*
X4033991Y-922269D01*
X4033991Y-922269D02*
X3938753Y-941317D01*
X4110182Y-998460D02*
X4129230Y-1007984D01*
X4129230Y-1007984D02*
X4167325Y-1007984D01*
X4167325Y-1007984D02*
X4186372Y-998460D01*
X4186372Y-998460D02*
X4195896Y-979412D01*
X4195896Y-979412D02*
X4195896Y-969888D01*
X4195896Y-969888D02*
X4186372Y-950841D01*
X4186372Y-950841D02*
X4167325Y-941317D01*
X4167325Y-941317D02*
X4138753Y-941317D01*
X4138753Y-941317D02*
X4119706Y-931793D01*
X4119706Y-931793D02*
X4110182Y-912746D01*
X4110182Y-912746D02*
X4110182Y-903222D01*
X4110182Y-903222D02*
X4119706Y-884174D01*
X4119706Y-884174D02*
X4138753Y-874650D01*
X4138753Y-874650D02*
X4167325Y-874650D01*
X4167325Y-874650D02*
X4186372Y-884174D01*
X4433992Y-931793D02*
X4586373Y-931793D01*
X4510182Y-1007984D02*
X4510182Y-855603D01*
X4919706Y-874650D02*
X4919706Y-1007984D01*
X4872087Y-798460D02*
X4824468Y-941317D01*
X4824468Y-941317D02*
X4948277Y-941317D01*
X5167325Y-998460D02*
X5186373Y-1007984D01*
X5186373Y-1007984D02*
X5224468Y-1007984D01*
X5224468Y-1007984D02*
X5243516Y-998460D01*
X5243516Y-998460D02*
X5253039Y-979412D01*
X5253039Y-979412D02*
X5253039Y-969888D01*
X5253039Y-969888D02*
X5243516Y-950841D01*
X5243516Y-950841D02*
X5224468Y-941317D01*
X5224468Y-941317D02*
X5195896Y-941317D01*
X5195896Y-941317D02*
X5176849Y-931793D01*
X5176849Y-931793D02*
X5167325Y-912746D01*
X5167325Y-912746D02*
X5167325Y-903222D01*
X5167325Y-903222D02*
X5176849Y-884174D01*
X5176849Y-884174D02*
X5195896Y-874650D01*
X5195896Y-874650D02*
X5224468Y-874650D01*
X5224468Y-874650D02*
X5243516Y-884174D01*
X5367325Y-1007984D02*
X5348277Y-998460D01*
X5348277Y-998460D02*
X5338754Y-979412D01*
X5338754Y-979412D02*
X5338754Y-807984D01*
X5472087Y-1007984D02*
X5453039Y-998460D01*
X5453039Y-998460D02*
X5443516Y-988936D01*
X5443516Y-988936D02*
X5433992Y-969888D01*
X5433992Y-969888D02*
X5433992Y-912746D01*
X5433992Y-912746D02*
X5443516Y-893698D01*
X5443516Y-893698D02*
X5453039Y-884174D01*
X5453039Y-884174D02*
X5472087Y-874650D01*
X5472087Y-874650D02*
X5500658Y-874650D01*
X5500658Y-874650D02*
X5519706Y-884174D01*
X5519706Y-884174D02*
X5529230Y-893698D01*
X5529230Y-893698D02*
X5538754Y-912746D01*
X5538754Y-912746D02*
X5538754Y-969888D01*
X5538754Y-969888D02*
X5529230Y-988936D01*
X5529230Y-988936D02*
X5519706Y-998460D01*
X5519706Y-998460D02*
X5500658Y-1007984D01*
X5500658Y-1007984D02*
X5472087Y-1007984D01*
X5595896Y-874650D02*
X5672087Y-874650D01*
X5624468Y-807984D02*
X5624468Y-979412D01*
X5624468Y-979412D02*
X5633992Y-998460D01*
X5633992Y-998460D02*
X5653039Y-1007984D01*
X5653039Y-1007984D02*
X5672087Y-1007984D01*
X5729230Y-998460D02*
X5748277Y-1007984D01*
X5748277Y-1007984D02*
X5786373Y-1007984D01*
X5786373Y-1007984D02*
X5805420Y-998460D01*
X5805420Y-998460D02*
X5814944Y-979412D01*
X5814944Y-979412D02*
X5814944Y-969888D01*
X5814944Y-969888D02*
X5805420Y-950841D01*
X5805420Y-950841D02*
X5786373Y-941317D01*
X5786373Y-941317D02*
X5757801Y-941317D01*
X5757801Y-941317D02*
X5738754Y-931793D01*
X5738754Y-931793D02*
X5729230Y-912746D01*
X5729230Y-912746D02*
X5729230Y-903222D01*
X5729230Y-903222D02*
X5738754Y-884174D01*
X5738754Y-884174D02*
X5757801Y-874650D01*
X5757801Y-874650D02*
X5786373Y-874650D01*
X5786373Y-874650D02*
X5805420Y-884174D01*
X5881611Y-1084174D02*
X5891135Y-1074650D01*
X5891135Y-1074650D02*
X5910182Y-1046079D01*
X5910182Y-1046079D02*
X5919706Y-1027031D01*
X5919706Y-1027031D02*
X5929230Y-998460D01*
X5929230Y-998460D02*
X5938754Y-950841D01*
X5938754Y-950841D02*
X5938754Y-912746D01*
X5938754Y-912746D02*
X5929230Y-865127D01*
X5929230Y-865127D02*
X5919706Y-836555D01*
X5919706Y-836555D02*
X5910182Y-817508D01*
X5910182Y-817508D02*
X5891135Y-788936D01*
X5891135Y-788936D02*
X5881611Y-779412D01*
D12*
X-562500Y-1130500D02*
X-562500Y-1230500D01*
X-612500Y-1180500D02*
X-512500Y-1180500D01*
D11*
X-146961Y-1271984D02*
X-261247Y-1271984D01*
X-204104Y-1271984D02*
X-204104Y-1071984D01*
X-204104Y-1071984D02*
X-223152Y-1100555D01*
X-223152Y-1100555D02*
X-242199Y-1119603D01*
X-242199Y-1119603D02*
X-261247Y-1129127D01*
X-61247Y-1252936D02*
X-51723Y-1262460D01*
X-51723Y-1262460D02*
X-61247Y-1271984D01*
X-61247Y-1271984D02*
X-70771Y-1262460D01*
X-70771Y-1262460D02*
X-61247Y-1252936D01*
X-61247Y-1252936D02*
X-61247Y-1271984D01*
X72086Y-1071984D02*
X91134Y-1071984D01*
X91134Y-1071984D02*
X110182Y-1081508D01*
X110182Y-1081508D02*
X119705Y-1091031D01*
X119705Y-1091031D02*
X129229Y-1110079D01*
X129229Y-1110079D02*
X138753Y-1148174D01*
X138753Y-1148174D02*
X138753Y-1195793D01*
X138753Y-1195793D02*
X129229Y-1233889D01*
X129229Y-1233889D02*
X119705Y-1252936D01*
X119705Y-1252936D02*
X110182Y-1262460D01*
X110182Y-1262460D02*
X91134Y-1271984D01*
X91134Y-1271984D02*
X72086Y-1271984D01*
X72086Y-1271984D02*
X53039Y-1262460D01*
X53039Y-1262460D02*
X43515Y-1252936D01*
X43515Y-1252936D02*
X33991Y-1233889D01*
X33991Y-1233889D02*
X24467Y-1195793D01*
X24467Y-1195793D02*
X24467Y-1148174D01*
X24467Y-1148174D02*
X33991Y-1110079D01*
X33991Y-1110079D02*
X43515Y-1091031D01*
X43515Y-1091031D02*
X53039Y-1081508D01*
X53039Y-1081508D02*
X72086Y-1071984D01*
X262563Y-1071984D02*
X281610Y-1071984D01*
X281610Y-1071984D02*
X300658Y-1081508D01*
X300658Y-1081508D02*
X310182Y-1091031D01*
X310182Y-1091031D02*
X319705Y-1110079D01*
X319705Y-1110079D02*
X329229Y-1148174D01*
X329229Y-1148174D02*
X329229Y-1195793D01*
X329229Y-1195793D02*
X319705Y-1233889D01*
X319705Y-1233889D02*
X310182Y-1252936D01*
X310182Y-1252936D02*
X300658Y-1262460D01*
X300658Y-1262460D02*
X281610Y-1271984D01*
X281610Y-1271984D02*
X262563Y-1271984D01*
X262563Y-1271984D02*
X243515Y-1262460D01*
X243515Y-1262460D02*
X233991Y-1252936D01*
X233991Y-1252936D02*
X224467Y-1233889D01*
X224467Y-1233889D02*
X214943Y-1195793D01*
X214943Y-1195793D02*
X214943Y-1148174D01*
X214943Y-1148174D02*
X224467Y-1110079D01*
X224467Y-1110079D02*
X233991Y-1091031D01*
X233991Y-1091031D02*
X243515Y-1081508D01*
X243515Y-1081508D02*
X262563Y-1071984D01*
X453039Y-1071984D02*
X472086Y-1071984D01*
X472086Y-1071984D02*
X491134Y-1081508D01*
X491134Y-1081508D02*
X500658Y-1091031D01*
X500658Y-1091031D02*
X510182Y-1110079D01*
X510182Y-1110079D02*
X519705Y-1148174D01*
X519705Y-1148174D02*
X519705Y-1195793D01*
X519705Y-1195793D02*
X510182Y-1233889D01*
X510182Y-1233889D02*
X500658Y-1252936D01*
X500658Y-1252936D02*
X491134Y-1262460D01*
X491134Y-1262460D02*
X472086Y-1271984D01*
X472086Y-1271984D02*
X453039Y-1271984D01*
X453039Y-1271984D02*
X433991Y-1262460D01*
X433991Y-1262460D02*
X424467Y-1252936D01*
X424467Y-1252936D02*
X414943Y-1233889D01*
X414943Y-1233889D02*
X405420Y-1195793D01*
X405420Y-1195793D02*
X405420Y-1148174D01*
X405420Y-1148174D02*
X414943Y-1110079D01*
X414943Y-1110079D02*
X424467Y-1091031D01*
X424467Y-1091031D02*
X433991Y-1081508D01*
X433991Y-1081508D02*
X453039Y-1071984D01*
X605420Y-1271984D02*
X605420Y-1138650D01*
X605420Y-1157698D02*
X614944Y-1148174D01*
X614944Y-1148174D02*
X633991Y-1138650D01*
X633991Y-1138650D02*
X662563Y-1138650D01*
X662563Y-1138650D02*
X681610Y-1148174D01*
X681610Y-1148174D02*
X691134Y-1167222D01*
X691134Y-1167222D02*
X691134Y-1271984D01*
X691134Y-1167222D02*
X700658Y-1148174D01*
X700658Y-1148174D02*
X719705Y-1138650D01*
X719705Y-1138650D02*
X748277Y-1138650D01*
X748277Y-1138650D02*
X767324Y-1148174D01*
X767324Y-1148174D02*
X776848Y-1167222D01*
X776848Y-1167222D02*
X776848Y-1271984D01*
X872086Y-1271984D02*
X872086Y-1138650D01*
X872086Y-1157698D02*
X881610Y-1148174D01*
X881610Y-1148174D02*
X900658Y-1138650D01*
X900658Y-1138650D02*
X929229Y-1138650D01*
X929229Y-1138650D02*
X948277Y-1148174D01*
X948277Y-1148174D02*
X957801Y-1167222D01*
X957801Y-1167222D02*
X957801Y-1271984D01*
X957801Y-1167222D02*
X967324Y-1148174D01*
X967324Y-1148174D02*
X986372Y-1138650D01*
X986372Y-1138650D02*
X1014943Y-1138650D01*
X1014943Y-1138650D02*
X1033991Y-1148174D01*
X1033991Y-1148174D02*
X1043515Y-1167222D01*
X1043515Y-1167222D02*
X1043515Y-1271984D01*
X1433991Y-1062460D02*
X1262563Y-1319603D01*
X1691134Y-1071984D02*
X1710182Y-1071984D01*
X1710182Y-1071984D02*
X1729229Y-1081508D01*
X1729229Y-1081508D02*
X1738753Y-1091031D01*
X1738753Y-1091031D02*
X1748277Y-1110079D01*
X1748277Y-1110079D02*
X1757801Y-1148174D01*
X1757801Y-1148174D02*
X1757801Y-1195793D01*
X1757801Y-1195793D02*
X1748277Y-1233889D01*
X1748277Y-1233889D02*
X1738753Y-1252936D01*
X1738753Y-1252936D02*
X1729229Y-1262460D01*
X1729229Y-1262460D02*
X1710182Y-1271984D01*
X1710182Y-1271984D02*
X1691134Y-1271984D01*
X1691134Y-1271984D02*
X1672086Y-1262460D01*
X1672086Y-1262460D02*
X1662563Y-1252936D01*
X1662563Y-1252936D02*
X1653039Y-1233889D01*
X1653039Y-1233889D02*
X1643515Y-1195793D01*
X1643515Y-1195793D02*
X1643515Y-1148174D01*
X1643515Y-1148174D02*
X1653039Y-1110079D01*
X1653039Y-1110079D02*
X1662563Y-1091031D01*
X1662563Y-1091031D02*
X1672086Y-1081508D01*
X1672086Y-1081508D02*
X1691134Y-1071984D01*
X1843515Y-1252936D02*
X1853039Y-1262460D01*
X1853039Y-1262460D02*
X1843515Y-1271984D01*
X1843515Y-1271984D02*
X1833991Y-1262460D01*
X1833991Y-1262460D02*
X1843515Y-1252936D01*
X1843515Y-1252936D02*
X1843515Y-1271984D01*
X1976848Y-1071984D02*
X1995896Y-1071984D01*
X1995896Y-1071984D02*
X2014944Y-1081508D01*
X2014944Y-1081508D02*
X2024467Y-1091031D01*
X2024467Y-1091031D02*
X2033991Y-1110079D01*
X2033991Y-1110079D02*
X2043515Y-1148174D01*
X2043515Y-1148174D02*
X2043515Y-1195793D01*
X2043515Y-1195793D02*
X2033991Y-1233889D01*
X2033991Y-1233889D02*
X2024467Y-1252936D01*
X2024467Y-1252936D02*
X2014944Y-1262460D01*
X2014944Y-1262460D02*
X1995896Y-1271984D01*
X1995896Y-1271984D02*
X1976848Y-1271984D01*
X1976848Y-1271984D02*
X1957801Y-1262460D01*
X1957801Y-1262460D02*
X1948277Y-1252936D01*
X1948277Y-1252936D02*
X1938753Y-1233889D01*
X1938753Y-1233889D02*
X1929229Y-1195793D01*
X1929229Y-1195793D02*
X1929229Y-1148174D01*
X1929229Y-1148174D02*
X1938753Y-1110079D01*
X1938753Y-1110079D02*
X1948277Y-1091031D01*
X1948277Y-1091031D02*
X1957801Y-1081508D01*
X1957801Y-1081508D02*
X1976848Y-1071984D01*
X2110182Y-1071984D02*
X2233991Y-1071984D01*
X2233991Y-1071984D02*
X2167325Y-1148174D01*
X2167325Y-1148174D02*
X2195896Y-1148174D01*
X2195896Y-1148174D02*
X2214944Y-1157698D01*
X2214944Y-1157698D02*
X2224468Y-1167222D01*
X2224468Y-1167222D02*
X2233991Y-1186270D01*
X2233991Y-1186270D02*
X2233991Y-1233889D01*
X2233991Y-1233889D02*
X2224468Y-1252936D01*
X2224468Y-1252936D02*
X2214944Y-1262460D01*
X2214944Y-1262460D02*
X2195896Y-1271984D01*
X2195896Y-1271984D02*
X2138753Y-1271984D01*
X2138753Y-1271984D02*
X2119706Y-1262460D01*
X2119706Y-1262460D02*
X2110182Y-1252936D01*
X2329229Y-1271984D02*
X2367325Y-1271984D01*
X2367325Y-1271984D02*
X2386372Y-1262460D01*
X2386372Y-1262460D02*
X2395896Y-1252936D01*
X2395896Y-1252936D02*
X2414944Y-1224365D01*
X2414944Y-1224365D02*
X2424468Y-1186270D01*
X2424468Y-1186270D02*
X2424468Y-1110079D01*
X2424468Y-1110079D02*
X2414944Y-1091031D01*
X2414944Y-1091031D02*
X2405420Y-1081508D01*
X2405420Y-1081508D02*
X2386372Y-1071984D01*
X2386372Y-1071984D02*
X2348277Y-1071984D01*
X2348277Y-1071984D02*
X2329229Y-1081508D01*
X2329229Y-1081508D02*
X2319706Y-1091031D01*
X2319706Y-1091031D02*
X2310182Y-1110079D01*
X2310182Y-1110079D02*
X2310182Y-1157698D01*
X2310182Y-1157698D02*
X2319706Y-1176746D01*
X2319706Y-1176746D02*
X2329229Y-1186270D01*
X2329229Y-1186270D02*
X2348277Y-1195793D01*
X2348277Y-1195793D02*
X2386372Y-1195793D01*
X2386372Y-1195793D02*
X2405420Y-1186270D01*
X2405420Y-1186270D02*
X2414944Y-1176746D01*
X2414944Y-1176746D02*
X2424468Y-1157698D01*
X2595896Y-1138650D02*
X2595896Y-1271984D01*
X2548277Y-1062460D02*
X2500658Y-1205317D01*
X2500658Y-1205317D02*
X2624468Y-1205317D01*
X2691134Y-1071984D02*
X2691134Y-1110079D01*
X2767325Y-1071984D02*
X2767325Y-1110079D01*
X3062563Y-1348174D02*
X3053039Y-1338650D01*
X3053039Y-1338650D02*
X3033991Y-1310079D01*
X3033991Y-1310079D02*
X3024468Y-1291031D01*
X3024468Y-1291031D02*
X3014944Y-1262460D01*
X3014944Y-1262460D02*
X3005420Y-1214841D01*
X3005420Y-1214841D02*
X3005420Y-1176746D01*
X3005420Y-1176746D02*
X3014944Y-1129127D01*
X3014944Y-1129127D02*
X3024468Y-1100555D01*
X3024468Y-1100555D02*
X3033991Y-1081508D01*
X3033991Y-1081508D02*
X3053039Y-1052936D01*
X3053039Y-1052936D02*
X3062563Y-1043412D01*
X3129229Y-1091031D02*
X3138753Y-1081508D01*
X3138753Y-1081508D02*
X3157801Y-1071984D01*
X3157801Y-1071984D02*
X3205420Y-1071984D01*
X3205420Y-1071984D02*
X3224468Y-1081508D01*
X3224468Y-1081508D02*
X3233991Y-1091031D01*
X3233991Y-1091031D02*
X3243515Y-1110079D01*
X3243515Y-1110079D02*
X3243515Y-1129127D01*
X3243515Y-1129127D02*
X3233991Y-1157698D01*
X3233991Y-1157698D02*
X3119706Y-1271984D01*
X3119706Y-1271984D02*
X3243515Y-1271984D01*
X3424468Y-1071984D02*
X3329229Y-1071984D01*
X3329229Y-1071984D02*
X3319706Y-1167222D01*
X3319706Y-1167222D02*
X3329229Y-1157698D01*
X3329229Y-1157698D02*
X3348277Y-1148174D01*
X3348277Y-1148174D02*
X3395896Y-1148174D01*
X3395896Y-1148174D02*
X3414944Y-1157698D01*
X3414944Y-1157698D02*
X3424468Y-1167222D01*
X3424468Y-1167222D02*
X3433991Y-1186270D01*
X3433991Y-1186270D02*
X3433991Y-1233889D01*
X3433991Y-1233889D02*
X3424468Y-1252936D01*
X3424468Y-1252936D02*
X3414944Y-1262460D01*
X3414944Y-1262460D02*
X3395896Y-1271984D01*
X3395896Y-1271984D02*
X3348277Y-1271984D01*
X3348277Y-1271984D02*
X3329229Y-1262460D01*
X3329229Y-1262460D02*
X3319706Y-1252936D01*
X3672087Y-1271984D02*
X3672087Y-1071984D01*
X3757801Y-1271984D02*
X3757801Y-1167222D01*
X3757801Y-1167222D02*
X3748277Y-1148174D01*
X3748277Y-1148174D02*
X3729230Y-1138650D01*
X3729230Y-1138650D02*
X3700658Y-1138650D01*
X3700658Y-1138650D02*
X3681610Y-1148174D01*
X3681610Y-1148174D02*
X3672087Y-1157698D01*
X3881610Y-1271984D02*
X3862563Y-1262460D01*
X3862563Y-1262460D02*
X3853039Y-1252936D01*
X3853039Y-1252936D02*
X3843515Y-1233889D01*
X3843515Y-1233889D02*
X3843515Y-1176746D01*
X3843515Y-1176746D02*
X3853039Y-1157698D01*
X3853039Y-1157698D02*
X3862563Y-1148174D01*
X3862563Y-1148174D02*
X3881610Y-1138650D01*
X3881610Y-1138650D02*
X3910182Y-1138650D01*
X3910182Y-1138650D02*
X3929230Y-1148174D01*
X3929230Y-1148174D02*
X3938753Y-1157698D01*
X3938753Y-1157698D02*
X3948277Y-1176746D01*
X3948277Y-1176746D02*
X3948277Y-1233889D01*
X3948277Y-1233889D02*
X3938753Y-1252936D01*
X3938753Y-1252936D02*
X3929230Y-1262460D01*
X3929230Y-1262460D02*
X3910182Y-1271984D01*
X3910182Y-1271984D02*
X3881610Y-1271984D01*
X4062563Y-1271984D02*
X4043515Y-1262460D01*
X4043515Y-1262460D02*
X4033991Y-1243412D01*
X4033991Y-1243412D02*
X4033991Y-1071984D01*
X4214944Y-1262460D02*
X4195896Y-1271984D01*
X4195896Y-1271984D02*
X4157801Y-1271984D01*
X4157801Y-1271984D02*
X4138753Y-1262460D01*
X4138753Y-1262460D02*
X4129230Y-1243412D01*
X4129230Y-1243412D02*
X4129230Y-1167222D01*
X4129230Y-1167222D02*
X4138753Y-1148174D01*
X4138753Y-1148174D02*
X4157801Y-1138650D01*
X4157801Y-1138650D02*
X4195896Y-1138650D01*
X4195896Y-1138650D02*
X4214944Y-1148174D01*
X4214944Y-1148174D02*
X4224468Y-1167222D01*
X4224468Y-1167222D02*
X4224468Y-1186270D01*
X4224468Y-1186270D02*
X4129230Y-1205317D01*
X4300658Y-1262460D02*
X4319706Y-1271984D01*
X4319706Y-1271984D02*
X4357801Y-1271984D01*
X4357801Y-1271984D02*
X4376849Y-1262460D01*
X4376849Y-1262460D02*
X4386373Y-1243412D01*
X4386373Y-1243412D02*
X4386373Y-1233889D01*
X4386373Y-1233889D02*
X4376849Y-1214841D01*
X4376849Y-1214841D02*
X4357801Y-1205317D01*
X4357801Y-1205317D02*
X4329230Y-1205317D01*
X4329230Y-1205317D02*
X4310182Y-1195793D01*
X4310182Y-1195793D02*
X4300658Y-1176746D01*
X4300658Y-1176746D02*
X4300658Y-1167222D01*
X4300658Y-1167222D02*
X4310182Y-1148174D01*
X4310182Y-1148174D02*
X4329230Y-1138650D01*
X4329230Y-1138650D02*
X4357801Y-1138650D01*
X4357801Y-1138650D02*
X4376849Y-1148174D01*
X4453039Y-1348174D02*
X4462563Y-1338650D01*
X4462563Y-1338650D02*
X4481611Y-1310079D01*
X4481611Y-1310079D02*
X4491134Y-1291031D01*
X4491134Y-1291031D02*
X4500658Y-1262460D01*
X4500658Y-1262460D02*
X4510182Y-1214841D01*
X4510182Y-1214841D02*
X4510182Y-1176746D01*
X4510182Y-1176746D02*
X4500658Y-1129127D01*
X4500658Y-1129127D02*
X4491134Y-1100555D01*
X4491134Y-1100555D02*
X4481611Y-1081508D01*
X4481611Y-1081508D02*
X4462563Y-1052936D01*
X4462563Y-1052936D02*
X4453039Y-1043412D01*
D13*
X-538128Y-1506372D02*
X-538128Y-1382628D01*
X-661872Y-1382628D01*
X-661872Y-1506372D01*
X-538128Y-1506372D01*
D11*
X-146961Y-1535984D02*
X-261247Y-1535984D01*
X-204104Y-1535984D02*
X-204104Y-1335984D01*
X-204104Y-1335984D02*
X-223152Y-1364555D01*
X-223152Y-1364555D02*
X-242199Y-1383603D01*
X-242199Y-1383603D02*
X-261247Y-1393127D01*
X-61247Y-1516936D02*
X-51723Y-1526460D01*
X-51723Y-1526460D02*
X-61247Y-1535984D01*
X-61247Y-1535984D02*
X-70771Y-1526460D01*
X-70771Y-1526460D02*
X-61247Y-1516936D01*
X-61247Y-1516936D02*
X-61247Y-1535984D01*
X14943Y-1335984D02*
X148277Y-1335984D01*
X148277Y-1335984D02*
X62562Y-1535984D01*
X319705Y-1335984D02*
X224467Y-1335984D01*
X224467Y-1335984D02*
X214943Y-1431222D01*
X214943Y-1431222D02*
X224467Y-1421698D01*
X224467Y-1421698D02*
X243515Y-1412174D01*
X243515Y-1412174D02*
X291134Y-1412174D01*
X291134Y-1412174D02*
X310182Y-1421698D01*
X310182Y-1421698D02*
X319705Y-1431222D01*
X319705Y-1431222D02*
X329229Y-1450269D01*
X329229Y-1450269D02*
X329229Y-1497888D01*
X329229Y-1497888D02*
X319705Y-1516936D01*
X319705Y-1516936D02*
X310182Y-1526460D01*
X310182Y-1526460D02*
X291134Y-1535984D01*
X291134Y-1535984D02*
X243515Y-1535984D01*
X243515Y-1535984D02*
X224467Y-1526460D01*
X224467Y-1526460D02*
X214943Y-1516936D01*
X453039Y-1335984D02*
X472086Y-1335984D01*
X472086Y-1335984D02*
X491134Y-1345508D01*
X491134Y-1345508D02*
X500658Y-1355031D01*
X500658Y-1355031D02*
X510182Y-1374079D01*
X510182Y-1374079D02*
X519705Y-1412174D01*
X519705Y-1412174D02*
X519705Y-1459793D01*
X519705Y-1459793D02*
X510182Y-1497888D01*
X510182Y-1497888D02*
X500658Y-1516936D01*
X500658Y-1516936D02*
X491134Y-1526460D01*
X491134Y-1526460D02*
X472086Y-1535984D01*
X472086Y-1535984D02*
X453039Y-1535984D01*
X453039Y-1535984D02*
X433991Y-1526460D01*
X433991Y-1526460D02*
X424467Y-1516936D01*
X424467Y-1516936D02*
X414943Y-1497888D01*
X414943Y-1497888D02*
X405420Y-1459793D01*
X405420Y-1459793D02*
X405420Y-1412174D01*
X405420Y-1412174D02*
X414943Y-1374079D01*
X414943Y-1374079D02*
X424467Y-1355031D01*
X424467Y-1355031D02*
X433991Y-1345508D01*
X433991Y-1345508D02*
X453039Y-1335984D01*
X605420Y-1535984D02*
X605420Y-1402650D01*
X605420Y-1421698D02*
X614944Y-1412174D01*
X614944Y-1412174D02*
X633991Y-1402650D01*
X633991Y-1402650D02*
X662563Y-1402650D01*
X662563Y-1402650D02*
X681610Y-1412174D01*
X681610Y-1412174D02*
X691134Y-1431222D01*
X691134Y-1431222D02*
X691134Y-1535984D01*
X691134Y-1431222D02*
X700658Y-1412174D01*
X700658Y-1412174D02*
X719705Y-1402650D01*
X719705Y-1402650D02*
X748277Y-1402650D01*
X748277Y-1402650D02*
X767324Y-1412174D01*
X767324Y-1412174D02*
X776848Y-1431222D01*
X776848Y-1431222D02*
X776848Y-1535984D01*
X872086Y-1535984D02*
X872086Y-1402650D01*
X872086Y-1421698D02*
X881610Y-1412174D01*
X881610Y-1412174D02*
X900658Y-1402650D01*
X900658Y-1402650D02*
X929229Y-1402650D01*
X929229Y-1402650D02*
X948277Y-1412174D01*
X948277Y-1412174D02*
X957801Y-1431222D01*
X957801Y-1431222D02*
X957801Y-1535984D01*
X957801Y-1431222D02*
X967324Y-1412174D01*
X967324Y-1412174D02*
X986372Y-1402650D01*
X986372Y-1402650D02*
X1014943Y-1402650D01*
X1014943Y-1402650D02*
X1033991Y-1412174D01*
X1033991Y-1412174D02*
X1043515Y-1431222D01*
X1043515Y-1431222D02*
X1043515Y-1535984D01*
X1433991Y-1326460D02*
X1262563Y-1583603D01*
X1691134Y-1335984D02*
X1710182Y-1335984D01*
X1710182Y-1335984D02*
X1729229Y-1345508D01*
X1729229Y-1345508D02*
X1738753Y-1355031D01*
X1738753Y-1355031D02*
X1748277Y-1374079D01*
X1748277Y-1374079D02*
X1757801Y-1412174D01*
X1757801Y-1412174D02*
X1757801Y-1459793D01*
X1757801Y-1459793D02*
X1748277Y-1497888D01*
X1748277Y-1497888D02*
X1738753Y-1516936D01*
X1738753Y-1516936D02*
X1729229Y-1526460D01*
X1729229Y-1526460D02*
X1710182Y-1535984D01*
X1710182Y-1535984D02*
X1691134Y-1535984D01*
X1691134Y-1535984D02*
X1672086Y-1526460D01*
X1672086Y-1526460D02*
X1662563Y-1516936D01*
X1662563Y-1516936D02*
X1653039Y-1497888D01*
X1653039Y-1497888D02*
X1643515Y-1459793D01*
X1643515Y-1459793D02*
X1643515Y-1412174D01*
X1643515Y-1412174D02*
X1653039Y-1374079D01*
X1653039Y-1374079D02*
X1662563Y-1355031D01*
X1662563Y-1355031D02*
X1672086Y-1345508D01*
X1672086Y-1345508D02*
X1691134Y-1335984D01*
X1843515Y-1516936D02*
X1853039Y-1526460D01*
X1853039Y-1526460D02*
X1843515Y-1535984D01*
X1843515Y-1535984D02*
X1833991Y-1526460D01*
X1833991Y-1526460D02*
X1843515Y-1516936D01*
X1843515Y-1516936D02*
X1843515Y-1535984D01*
X1976848Y-1335984D02*
X1995896Y-1335984D01*
X1995896Y-1335984D02*
X2014944Y-1345508D01*
X2014944Y-1345508D02*
X2024467Y-1355031D01*
X2024467Y-1355031D02*
X2033991Y-1374079D01*
X2033991Y-1374079D02*
X2043515Y-1412174D01*
X2043515Y-1412174D02*
X2043515Y-1459793D01*
X2043515Y-1459793D02*
X2033991Y-1497888D01*
X2033991Y-1497888D02*
X2024467Y-1516936D01*
X2024467Y-1516936D02*
X2014944Y-1526460D01*
X2014944Y-1526460D02*
X1995896Y-1535984D01*
X1995896Y-1535984D02*
X1976848Y-1535984D01*
X1976848Y-1535984D02*
X1957801Y-1526460D01*
X1957801Y-1526460D02*
X1948277Y-1516936D01*
X1948277Y-1516936D02*
X1938753Y-1497888D01*
X1938753Y-1497888D02*
X1929229Y-1459793D01*
X1929229Y-1459793D02*
X1929229Y-1412174D01*
X1929229Y-1412174D02*
X1938753Y-1374079D01*
X1938753Y-1374079D02*
X1948277Y-1355031D01*
X1948277Y-1355031D02*
X1957801Y-1345508D01*
X1957801Y-1345508D02*
X1976848Y-1335984D01*
X2214944Y-1335984D02*
X2176848Y-1335984D01*
X2176848Y-1335984D02*
X2157801Y-1345508D01*
X2157801Y-1345508D02*
X2148277Y-1355031D01*
X2148277Y-1355031D02*
X2129229Y-1383603D01*
X2129229Y-1383603D02*
X2119706Y-1421698D01*
X2119706Y-1421698D02*
X2119706Y-1497888D01*
X2119706Y-1497888D02*
X2129229Y-1516936D01*
X2129229Y-1516936D02*
X2138753Y-1526460D01*
X2138753Y-1526460D02*
X2157801Y-1535984D01*
X2157801Y-1535984D02*
X2195896Y-1535984D01*
X2195896Y-1535984D02*
X2214944Y-1526460D01*
X2214944Y-1526460D02*
X2224468Y-1516936D01*
X2224468Y-1516936D02*
X2233991Y-1497888D01*
X2233991Y-1497888D02*
X2233991Y-1450269D01*
X2233991Y-1450269D02*
X2224468Y-1431222D01*
X2224468Y-1431222D02*
X2214944Y-1421698D01*
X2214944Y-1421698D02*
X2195896Y-1412174D01*
X2195896Y-1412174D02*
X2157801Y-1412174D01*
X2157801Y-1412174D02*
X2138753Y-1421698D01*
X2138753Y-1421698D02*
X2129229Y-1431222D01*
X2129229Y-1431222D02*
X2119706Y-1450269D01*
X2348277Y-1421698D02*
X2329229Y-1412174D01*
X2329229Y-1412174D02*
X2319706Y-1402650D01*
X2319706Y-1402650D02*
X2310182Y-1383603D01*
X2310182Y-1383603D02*
X2310182Y-1374079D01*
X2310182Y-1374079D02*
X2319706Y-1355031D01*
X2319706Y-1355031D02*
X2329229Y-1345508D01*
X2329229Y-1345508D02*
X2348277Y-1335984D01*
X2348277Y-1335984D02*
X2386372Y-1335984D01*
X2386372Y-1335984D02*
X2405420Y-1345508D01*
X2405420Y-1345508D02*
X2414944Y-1355031D01*
X2414944Y-1355031D02*
X2424468Y-1374079D01*
X2424468Y-1374079D02*
X2424468Y-1383603D01*
X2424468Y-1383603D02*
X2414944Y-1402650D01*
X2414944Y-1402650D02*
X2405420Y-1412174D01*
X2405420Y-1412174D02*
X2386372Y-1421698D01*
X2386372Y-1421698D02*
X2348277Y-1421698D01*
X2348277Y-1421698D02*
X2329229Y-1431222D01*
X2329229Y-1431222D02*
X2319706Y-1440746D01*
X2319706Y-1440746D02*
X2310182Y-1459793D01*
X2310182Y-1459793D02*
X2310182Y-1497888D01*
X2310182Y-1497888D02*
X2319706Y-1516936D01*
X2319706Y-1516936D02*
X2329229Y-1526460D01*
X2329229Y-1526460D02*
X2348277Y-1535984D01*
X2348277Y-1535984D02*
X2386372Y-1535984D01*
X2386372Y-1535984D02*
X2405420Y-1526460D01*
X2405420Y-1526460D02*
X2414944Y-1516936D01*
X2414944Y-1516936D02*
X2424468Y-1497888D01*
X2424468Y-1497888D02*
X2424468Y-1459793D01*
X2424468Y-1459793D02*
X2414944Y-1440746D01*
X2414944Y-1440746D02*
X2405420Y-1431222D01*
X2405420Y-1431222D02*
X2386372Y-1421698D01*
X2519706Y-1535984D02*
X2557801Y-1535984D01*
X2557801Y-1535984D02*
X2576849Y-1526460D01*
X2576849Y-1526460D02*
X2586372Y-1516936D01*
X2586372Y-1516936D02*
X2605420Y-1488365D01*
X2605420Y-1488365D02*
X2614944Y-1450269D01*
X2614944Y-1450269D02*
X2614944Y-1374079D01*
X2614944Y-1374079D02*
X2605420Y-1355031D01*
X2605420Y-1355031D02*
X2595896Y-1345508D01*
X2595896Y-1345508D02*
X2576849Y-1335984D01*
X2576849Y-1335984D02*
X2538753Y-1335984D01*
X2538753Y-1335984D02*
X2519706Y-1345508D01*
X2519706Y-1345508D02*
X2510182Y-1355031D01*
X2510182Y-1355031D02*
X2500658Y-1374079D01*
X2500658Y-1374079D02*
X2500658Y-1421698D01*
X2500658Y-1421698D02*
X2510182Y-1440746D01*
X2510182Y-1440746D02*
X2519706Y-1450269D01*
X2519706Y-1450269D02*
X2538753Y-1459793D01*
X2538753Y-1459793D02*
X2576849Y-1459793D01*
X2576849Y-1459793D02*
X2595896Y-1450269D01*
X2595896Y-1450269D02*
X2605420Y-1440746D01*
X2605420Y-1440746D02*
X2614944Y-1421698D01*
X2691134Y-1335984D02*
X2691134Y-1374079D01*
X2767325Y-1335984D02*
X2767325Y-1374079D01*
X3062563Y-1612174D02*
X3053039Y-1602650D01*
X3053039Y-1602650D02*
X3033991Y-1574079D01*
X3033991Y-1574079D02*
X3024468Y-1555031D01*
X3024468Y-1555031D02*
X3014944Y-1526460D01*
X3014944Y-1526460D02*
X3005420Y-1478841D01*
X3005420Y-1478841D02*
X3005420Y-1440746D01*
X3005420Y-1440746D02*
X3014944Y-1393127D01*
X3014944Y-1393127D02*
X3024468Y-1364555D01*
X3024468Y-1364555D02*
X3033991Y-1345508D01*
X3033991Y-1345508D02*
X3053039Y-1316936D01*
X3053039Y-1316936D02*
X3062563Y-1307412D01*
X3243515Y-1535984D02*
X3129229Y-1535984D01*
X3186372Y-1535984D02*
X3186372Y-1335984D01*
X3186372Y-1335984D02*
X3167325Y-1364555D01*
X3167325Y-1364555D02*
X3148277Y-1383603D01*
X3148277Y-1383603D02*
X3129229Y-1393127D01*
X3310182Y-1335984D02*
X3443515Y-1335984D01*
X3443515Y-1335984D02*
X3357801Y-1535984D01*
X3672087Y-1535984D02*
X3672087Y-1335984D01*
X3757801Y-1535984D02*
X3757801Y-1431222D01*
X3757801Y-1431222D02*
X3748277Y-1412174D01*
X3748277Y-1412174D02*
X3729230Y-1402650D01*
X3729230Y-1402650D02*
X3700658Y-1402650D01*
X3700658Y-1402650D02*
X3681610Y-1412174D01*
X3681610Y-1412174D02*
X3672087Y-1421698D01*
X3881610Y-1535984D02*
X3862563Y-1526460D01*
X3862563Y-1526460D02*
X3853039Y-1516936D01*
X3853039Y-1516936D02*
X3843515Y-1497888D01*
X3843515Y-1497888D02*
X3843515Y-1440746D01*
X3843515Y-1440746D02*
X3853039Y-1421698D01*
X3853039Y-1421698D02*
X3862563Y-1412174D01*
X3862563Y-1412174D02*
X3881610Y-1402650D01*
X3881610Y-1402650D02*
X3910182Y-1402650D01*
X3910182Y-1402650D02*
X3929230Y-1412174D01*
X3929230Y-1412174D02*
X3938753Y-1421698D01*
X3938753Y-1421698D02*
X3948277Y-1440746D01*
X3948277Y-1440746D02*
X3948277Y-1497888D01*
X3948277Y-1497888D02*
X3938753Y-1516936D01*
X3938753Y-1516936D02*
X3929230Y-1526460D01*
X3929230Y-1526460D02*
X3910182Y-1535984D01*
X3910182Y-1535984D02*
X3881610Y-1535984D01*
X4062563Y-1535984D02*
X4043515Y-1526460D01*
X4043515Y-1526460D02*
X4033991Y-1507412D01*
X4033991Y-1507412D02*
X4033991Y-1335984D01*
X4214944Y-1526460D02*
X4195896Y-1535984D01*
X4195896Y-1535984D02*
X4157801Y-1535984D01*
X4157801Y-1535984D02*
X4138753Y-1526460D01*
X4138753Y-1526460D02*
X4129230Y-1507412D01*
X4129230Y-1507412D02*
X4129230Y-1431222D01*
X4129230Y-1431222D02*
X4138753Y-1412174D01*
X4138753Y-1412174D02*
X4157801Y-1402650D01*
X4157801Y-1402650D02*
X4195896Y-1402650D01*
X4195896Y-1402650D02*
X4214944Y-1412174D01*
X4214944Y-1412174D02*
X4224468Y-1431222D01*
X4224468Y-1431222D02*
X4224468Y-1450269D01*
X4224468Y-1450269D02*
X4129230Y-1469317D01*
X4300658Y-1526460D02*
X4319706Y-1535984D01*
X4319706Y-1535984D02*
X4357801Y-1535984D01*
X4357801Y-1535984D02*
X4376849Y-1526460D01*
X4376849Y-1526460D02*
X4386373Y-1507412D01*
X4386373Y-1507412D02*
X4386373Y-1497888D01*
X4386373Y-1497888D02*
X4376849Y-1478841D01*
X4376849Y-1478841D02*
X4357801Y-1469317D01*
X4357801Y-1469317D02*
X4329230Y-1469317D01*
X4329230Y-1469317D02*
X4310182Y-1459793D01*
X4310182Y-1459793D02*
X4300658Y-1440746D01*
X4300658Y-1440746D02*
X4300658Y-1431222D01*
X4300658Y-1431222D02*
X4310182Y-1412174D01*
X4310182Y-1412174D02*
X4329230Y-1402650D01*
X4329230Y-1402650D02*
X4357801Y-1402650D01*
X4357801Y-1402650D02*
X4376849Y-1412174D01*
X4453039Y-1612174D02*
X4462563Y-1602650D01*
X4462563Y-1602650D02*
X4481611Y-1574079D01*
X4481611Y-1574079D02*
X4491134Y-1555031D01*
X4491134Y-1555031D02*
X4500658Y-1526460D01*
X4500658Y-1526460D02*
X4510182Y-1478841D01*
X4510182Y-1478841D02*
X4510182Y-1440746D01*
X4510182Y-1440746D02*
X4500658Y-1393127D01*
X4500658Y-1393127D02*
X4491134Y-1364555D01*
X4491134Y-1364555D02*
X4481611Y-1345508D01*
X4481611Y-1345508D02*
X4462563Y-1316936D01*
X4462563Y-1316936D02*
X4453039Y-1307412D01*
M02*
