%TF.GenerationSoftware,KiCad,Pcbnew,10.0.1*%
%TF.CreationDate,2026-05-15T16:00:14+01:00*%
%TF.ProjectId,FED3 tester,46454433-2074-4657-9374-65722e6b6963,rev?*%
%TF.SameCoordinates,PX3adc5c0PY972d2c0*%
%TF.FileFunction,Legend,Bot*%
%TF.FilePolarity,Positive*%
%FSLAX46Y46*%
G04 Gerber Fmt 4.6, Leading zero omitted, Abs format (unit mm)*
G04 Created by KiCad (PCBNEW 10.0.1) date 2026-05-15 16:00:14*
%MOMM*%
%LPD*%
G01*
G04 APERTURE LIST*
%ADD10C,2.950000*%
%ADD11C,2.500000*%
%ADD12C,6.050000*%
%ADD13R,1.700000X1.700000*%
%ADD14C,1.700000*%
%ADD15C,0.650000*%
%ADD16O,1.000000X2.100000*%
%ADD17O,1.000000X1.800000*%
%ADD18R,2.200000X2.200000*%
%ADD19C,2.200000*%
%TA.AperFunction,Profile*%
%ADD20C,0.250000*%
%TD*%
G04 APERTURE END LIST*
%LPC*%
D10*
%TO.C,Ref\u002A\u002A*%
X92650000Y78951049D03*
%TD*%
D11*
%TO.C,TP7*%
X34526100Y93363600D03*
%TD*%
D12*
%TO.C,@HOLE6*%
X82500000Y124360000D03*
%TD*%
D11*
%TO.C,TP3*%
X17201100Y109538600D03*
%TD*%
D10*
%TO.C,Ref\u002A\u002A*%
X51100000Y74150000D03*
%TD*%
D11*
%TO.C,TP11*%
X33251100Y101588600D03*
%TD*%
D10*
%TO.C,*%
X20350000Y126960000D03*
%TD*%
D11*
%TO.C,TP4*%
X97701100Y97463600D03*
%TD*%
D13*
%TO.C,J6*%
X58250000Y130410000D03*
D14*
X55710000Y130410000D03*
X53170000Y130410000D03*
X50630000Y130410000D03*
X48090000Y130410000D03*
%TD*%
D11*
%TO.C,TP10*%
X-3273900Y114813600D03*
%TD*%
D10*
%TO.C,Ref\u002A\u002A*%
X91340000Y15700000D03*
%TD*%
D11*
%TO.C,TP5*%
X75001100Y111563600D03*
%TD*%
D13*
%TO.C,J7*%
X36951100Y87963600D03*
D14*
X39491100Y87963600D03*
%TD*%
D10*
%TO.C,Ref\u002A\u002A*%
X3700000Y89350000D03*
%TD*%
D15*
%TO.C,J1*%
X16890000Y6274711D03*
X22670000Y6274711D03*
D16*
X15460000Y6774711D03*
D17*
X15460000Y2594711D03*
D16*
X24100000Y6774711D03*
D17*
X24100000Y2594711D03*
%TD*%
D11*
%TO.C,TP9*%
X-2998900Y100463600D03*
%TD*%
D10*
%TO.C,Ref\u002A\u002A*%
X50740000Y15700000D03*
%TD*%
D11*
%TO.C,TP8*%
X5351100Y102713600D03*
%TD*%
%TO.C,TP2*%
X75201100Y86338600D03*
%TD*%
D18*
%TO.C,J3*%
X43839050Y86253857D03*
D19*
X43839050Y88793857D03*
X46379050Y86253857D03*
X46379050Y88793857D03*
X48919050Y86253857D03*
X48919050Y88793857D03*
%TD*%
D13*
%TO.C,TP1*%
X38651100Y131160000D03*
%TD*%
D11*
%TO.C,TP6*%
X67701100Y125638600D03*
%TD*%
D12*
%TO.C,@HOLE6*%
X79000000Y98360000D03*
%TD*%
D13*
%TO.C,J2*%
X39991100Y119465000D03*
D14*
X39991100Y122005000D03*
X42531100Y119465000D03*
X42531100Y122005000D03*
X45071100Y119465000D03*
X45071100Y122005000D03*
%TD*%
D11*
%TO.C,TP12*%
X38276100Y108413600D03*
%TD*%
D12*
%TO.C,@HOLE6*%
X5000000Y115360000D03*
%TD*%
D13*
%TO.C,J4*%
X48980000Y6699711D03*
D14*
X48980000Y4159711D03*
X46440000Y6699711D03*
X46440000Y4159711D03*
X43900000Y6699711D03*
X43900000Y4159711D03*
%TD*%
D13*
%TO.C,J5*%
X84640000Y130385000D03*
D14*
X82100000Y130385000D03*
X79560000Y130385000D03*
X77020000Y130385000D03*
X74480000Y130385000D03*
%TD*%
D10*
%TO.C,*%
X75200000Y123201049D03*
%TD*%
%LPD*%
D20*
X-5000000Y129360000D02*
X0Y134360000D01*
X-5000000Y106760000D02*
X-5000000Y129360000D01*
X-5000000Y100760000D02*
X-4720000Y101040000D01*
X-5000000Y98560000D02*
X-5000000Y100760000D01*
X-4720000Y106480000D02*
X-5000000Y106760000D01*
X-4720000Y101040000D02*
X-4720000Y106480000D01*
X-3600000Y97160000D02*
X-5000000Y98560000D01*
X-3600000Y87960000D02*
X-3600000Y97160000D01*
X0Y134360000D02*
X36000000Y134360000D01*
X0Y84360000D02*
X-3600000Y87960000D01*
X0Y84360000D02*
X0Y0D01*
X36000000Y134360000D02*
X62000000Y134360000D01*
X62000000Y134360000D02*
X98000000Y134360000D01*
X98000000Y134360000D02*
X103000000Y129360000D01*
X98000000Y84410000D02*
X98000000Y0D01*
X98000000Y0D02*
X0Y0D01*
X103000000Y129360000D02*
X103000000Y89410000D01*
X103000000Y89410000D02*
X98000000Y84410000D01*
M02*
