%TF.GenerationSoftware,KiCad,Pcbnew,10.0.1*%
%TF.CreationDate,2026-05-15T16:00:14+01:00*%
%TF.ProjectId,FED3 tester,46454433-2074-4657-9374-65722e6b6963,rev?*%
%TF.SameCoordinates,PX3adc5c0PY972d2c0*%
%TF.FileFunction,Copper,L1,Top*%
%TF.FilePolarity,Positive*%
%FSLAX46Y46*%
G04 Gerber Fmt 4.6, Leading zero omitted, Abs format (unit mm)*
G04 Created by KiCad (PCBNEW 10.0.1) date 2026-05-15 16:00:14*
%MOMM*%
%LPD*%
G01*
G04 APERTURE LIST*
G04 Aperture macros list*
%AMRoundRect*
0 Rectangle with rounded corners*
0 $1 Rounding radius*
0 $2 $3 $4 $5 $6 $7 $8 $9 X,Y pos of 4 corners*
0 Add a 4 corners polygon primitive as box body*
4,1,4,$2,$3,$4,$5,$6,$7,$8,$9,$2,$3,0*
0 Add four circle primitives for the rounded corners*
1,1,$1+$1,$2,$3*
1,1,$1+$1,$4,$5*
1,1,$1+$1,$6,$7*
1,1,$1+$1,$8,$9*
0 Add four rect primitives between the rounded corners*
20,1,$1+$1,$2,$3,$4,$5,0*
20,1,$1+$1,$4,$5,$6,$7,0*
20,1,$1+$1,$6,$7,$8,$9,0*
20,1,$1+$1,$8,$9,$2,$3,0*%
G04 Aperture macros list end*
%TA.AperFunction,NonConductor*%
%ADD10C,0.200000*%
%TD*%
%TA.AperFunction,SMDPad,CuDef*%
%ADD11RoundRect,0.135000X0.135000X0.185000X-0.135000X0.185000X-0.135000X-0.185000X0.135000X-0.185000X0*%
%TD*%
%TA.AperFunction,SMDPad,CuDef*%
%ADD12RoundRect,0.140000X-0.140000X-0.170000X0.140000X-0.170000X0.140000X0.170000X-0.140000X0.170000X0*%
%TD*%
%TA.AperFunction,SMDPad,CuDef*%
%ADD13RoundRect,0.225000X-0.250000X0.225000X-0.250000X-0.225000X0.250000X-0.225000X0.250000X0.225000X0*%
%TD*%
%TA.AperFunction,SMDPad,CuDef*%
%ADD14RoundRect,0.135000X-0.185000X0.135000X-0.185000X-0.135000X0.185000X-0.135000X0.185000X0.135000X0*%
%TD*%
%TA.AperFunction,SMDPad,CuDef*%
%ADD15RoundRect,0.135000X-0.135000X-0.185000X0.135000X-0.185000X0.135000X0.185000X-0.135000X0.185000X0*%
%TD*%
%TA.AperFunction,SMDPad,CuDef*%
%ADD16RoundRect,0.112500X0.112500X-0.350000X0.112500X0.350000X-0.112500X0.350000X-0.112500X-0.350000X0*%
%TD*%
%TA.AperFunction,SMDPad,CuDef*%
%ADD17RoundRect,0.135000X0.185000X-0.135000X0.185000X0.135000X-0.185000X0.135000X-0.185000X-0.135000X0*%
%TD*%
%TA.AperFunction,SMDPad,CuDef*%
%ADD18RoundRect,0.200000X-0.275000X0.200000X-0.275000X-0.200000X0.275000X-0.200000X0.275000X0.200000X0*%
%TD*%
%TA.AperFunction,SMDPad,CuDef*%
%ADD19RoundRect,0.140000X0.140000X0.170000X-0.140000X0.170000X-0.140000X-0.170000X0.140000X-0.170000X0*%
%TD*%
%TA.AperFunction,SMDPad,CuDef*%
%ADD20RoundRect,0.218750X0.218750X0.256250X-0.218750X0.256250X-0.218750X-0.256250X0.218750X-0.256250X0*%
%TD*%
%TA.AperFunction,SMDPad,CuDef*%
%ADD21RoundRect,0.100000X-0.100000X0.850000X-0.100000X-0.850000X0.100000X-0.850000X0.100000X0.850000X0*%
%TD*%
%TA.AperFunction,ComponentPad*%
%ADD22C,2.500000*%
%TD*%
%TA.AperFunction,SMDPad,CuDef*%
%ADD23RoundRect,0.140000X0.170000X-0.140000X0.170000X0.140000X-0.170000X0.140000X-0.170000X-0.140000X0*%
%TD*%
%TA.AperFunction,SMDPad,CuDef*%
%ADD24RoundRect,0.150000X-0.150000X0.587500X-0.150000X-0.587500X0.150000X-0.587500X0.150000X0.587500X0*%
%TD*%
%TA.AperFunction,SMDPad,CuDef*%
%ADD25RoundRect,0.140000X-0.170000X0.140000X-0.170000X-0.140000X0.170000X-0.140000X0.170000X0.140000X0*%
%TD*%
%TA.AperFunction,SMDPad,CuDef*%
%ADD26R,1.600000X1.400000*%
%TD*%
%TA.AperFunction,SMDPad,CuDef*%
%ADD27RoundRect,0.225000X0.375000X-0.225000X0.375000X0.225000X-0.375000X0.225000X-0.375000X-0.225000X0*%
%TD*%
%TA.AperFunction,ComponentPad*%
%ADD28R,1.700000X1.700000*%
%TD*%
%TA.AperFunction,ComponentPad*%
%ADD29C,1.700000*%
%TD*%
%TA.AperFunction,SMDPad,CuDef*%
%ADD30RoundRect,0.225000X-0.225000X-0.250000X0.225000X-0.250000X0.225000X0.250000X-0.225000X0.250000X0*%
%TD*%
%TA.AperFunction,SMDPad,CuDef*%
%ADD31R,2.000000X0.700000*%
%TD*%
%TA.AperFunction,SMDPad,CuDef*%
%ADD32RoundRect,0.150000X0.150000X-0.512500X0.150000X0.512500X-0.150000X0.512500X-0.150000X-0.512500X0*%
%TD*%
%TA.AperFunction,SMDPad,CuDef*%
%ADD33R,0.700000X2.000000*%
%TD*%
%TA.AperFunction,SMDPad,CuDef*%
%ADD34RoundRect,0.225000X-0.375000X0.225000X-0.375000X-0.225000X0.375000X-0.225000X0.375000X0.225000X0*%
%TD*%
%TA.AperFunction,SMDPad,CuDef*%
%ADD35RoundRect,0.250000X-0.262500X-0.450000X0.262500X-0.450000X0.262500X0.450000X-0.262500X0.450000X0*%
%TD*%
%TA.AperFunction,SMDPad,CuDef*%
%ADD36RoundRect,0.150000X-0.587500X-0.150000X0.587500X-0.150000X0.587500X0.150000X-0.587500X0.150000X0*%
%TD*%
%TA.AperFunction,SMDPad,CuDef*%
%ADD37RoundRect,0.250000X0.650000X-0.325000X0.650000X0.325000X-0.650000X0.325000X-0.650000X-0.325000X0*%
%TD*%
%TA.AperFunction,SMDPad,CuDef*%
%ADD38RoundRect,0.150000X0.950000X0.150000X-0.950000X0.150000X-0.950000X-0.150000X0.950000X-0.150000X0*%
%TD*%
%TA.AperFunction,SMDPad,CuDef*%
%ADD39RoundRect,0.537500X0.537500X1.187500X-0.537500X1.187500X-0.537500X-1.187500X0.537500X-1.187500X0*%
%TD*%
%TA.AperFunction,SMDPad,CuDef*%
%ADD40RoundRect,0.150000X-0.150000X-0.425000X0.150000X-0.425000X0.150000X0.425000X-0.150000X0.425000X0*%
%TD*%
%TA.AperFunction,SMDPad,CuDef*%
%ADD41RoundRect,0.075000X-0.075000X-0.500000X0.075000X-0.500000X0.075000X0.500000X-0.075000X0.500000X0*%
%TD*%
%TA.AperFunction,ComponentPad*%
%ADD42O,1.000000X2.100000*%
%TD*%
%TA.AperFunction,ComponentPad*%
%ADD43O,1.000000X1.800000*%
%TD*%
%TA.AperFunction,SMDPad,CuDef*%
%ADD44RoundRect,0.150000X-0.512500X-0.150000X0.512500X-0.150000X0.512500X0.150000X-0.512500X0.150000X0*%
%TD*%
%TA.AperFunction,SMDPad,CuDef*%
%ADD45RoundRect,0.225000X0.225000X0.375000X-0.225000X0.375000X-0.225000X-0.375000X0.225000X-0.375000X0*%
%TD*%
%TA.AperFunction,SMDPad,CuDef*%
%ADD46RoundRect,0.200000X-0.650000X0.925000X-0.650000X-0.925000X0.650000X-0.925000X0.650000X0.925000X0*%
%TD*%
%TA.AperFunction,ComponentPad*%
%ADD47R,2.200000X2.200000*%
%TD*%
%TA.AperFunction,ComponentPad*%
%ADD48C,2.200000*%
%TD*%
%TA.AperFunction,SMDPad,CuDef*%
%ADD49RoundRect,0.218750X-0.218750X-0.256250X0.218750X-0.256250X0.218750X0.256250X-0.218750X0.256250X0*%
%TD*%
%TA.AperFunction,SMDPad,CuDef*%
%ADD50RoundRect,0.150000X-0.150000X0.512500X-0.150000X-0.512500X0.150000X-0.512500X0.150000X0.512500X0*%
%TD*%
%TA.AperFunction,SMDPad,CuDef*%
%ADD51R,1.400000X1.200000*%
%TD*%
%TA.AperFunction,SMDPad,CuDef*%
%ADD52RoundRect,0.225000X0.250000X-0.225000X0.250000X0.225000X-0.250000X0.225000X-0.250000X-0.225000X0*%
%TD*%
%TA.AperFunction,SMDPad,CuDef*%
%ADD53RoundRect,0.200000X0.275000X-0.200000X0.275000X0.200000X-0.275000X0.200000X-0.275000X-0.200000X0*%
%TD*%
%TA.AperFunction,SMDPad,CuDef*%
%ADD54RoundRect,0.062500X-0.475000X-0.062500X0.475000X-0.062500X0.475000X0.062500X-0.475000X0.062500X0*%
%TD*%
%TA.AperFunction,SMDPad,CuDef*%
%ADD55RoundRect,0.062500X-0.062500X-0.475000X0.062500X-0.475000X0.062500X0.475000X-0.062500X0.475000X0*%
%TD*%
%TA.AperFunction,HeatsinkPad*%
%ADD56R,5.200000X5.200000*%
%TD*%
%TA.AperFunction,SMDPad,CuDef*%
%ADD57RoundRect,0.250000X0.450000X-0.262500X0.450000X0.262500X-0.450000X0.262500X-0.450000X-0.262500X0*%
%TD*%
%TA.AperFunction,SMDPad,CuDef*%
%ADD58RoundRect,0.250000X-0.450000X0.262500X-0.450000X-0.262500X0.450000X-0.262500X0.450000X0.262500X0*%
%TD*%
%TA.AperFunction,ViaPad*%
%ADD59C,0.500000*%
%TD*%
%TA.AperFunction,ViaPad*%
%ADD60C,0.550000*%
%TD*%
%TA.AperFunction,Conductor*%
%ADD61C,0.210000*%
%TD*%
%TA.AperFunction,Conductor*%
%ADD62C,0.230000*%
%TD*%
%TA.AperFunction,Conductor*%
%ADD63C,0.220000*%
%TD*%
%TA.AperFunction,Conductor*%
%ADD64C,0.250000*%
%TD*%
%TA.AperFunction,Conductor*%
%ADD65C,0.300000*%
%TD*%
%TA.AperFunction,Conductor*%
%ADD66C,0.500000*%
%TD*%
%TA.AperFunction,Conductor*%
%ADD67C,0.350000*%
%TD*%
%TA.AperFunction,Conductor*%
%ADD68C,0.260000*%
%TD*%
%TA.AperFunction,Profile*%
%ADD69C,0.250000*%
%TD*%
G04 APERTURE END LIST*
D10*
X6300000Y57810000D02*
G75*
G02*
X4700000Y57810000I-800000J0D01*
G01*
X4700000Y57810000D02*
G75*
G02*
X6300000Y57810000I800000J0D01*
G01*
D11*
%TO.P,R48,1*%
%TO.N,GND*%
X84590000Y97860000D03*
%TO.P,R48,2*%
%TO.N,/main core/I_ON{slash}OFF_Test*%
X83570000Y97860000D03*
%TD*%
D12*
%TO.P,C6,1*%
%TO.N,USB+5V*%
X24720000Y70910000D03*
%TO.P,C6,2*%
%TO.N,GND*%
X25680000Y70910000D03*
%TD*%
D13*
%TO.P,C12,1*%
%TO.N,AVCC*%
X57232500Y117915000D03*
%TO.P,C12,2*%
%TO.N,GND*%
X57232500Y116365000D03*
%TD*%
D14*
%TO.P,R8,1*%
%TO.N,GND*%
X17280000Y74930000D03*
%TO.P,R8,2*%
%TO.N,Net-(U4-FB)*%
X17280000Y73910000D03*
%TD*%
D15*
%TO.P,R32,1*%
%TO.N,GND*%
X30040000Y89035000D03*
%TO.P,R32,2*%
%TO.N,Net-(U8-+)*%
X31060000Y89035000D03*
%TD*%
D16*
%TO.P,Q2,1,G_1*%
%TO.N,Net-(Q2-G)*%
X13810000Y94922500D03*
%TO.P,Q2,2,S_2*%
%TO.N,USB+5V*%
X15110000Y94922500D03*
%TO.P,Q2,3,D_3*%
%TO.N,/main core/DUT stage/VUSB_DUT*%
X14460000Y96697500D03*
%TD*%
D17*
%TO.P,R22,1*%
%TO.N,Net-(U7--)*%
X24787500Y112451400D03*
%TO.P,R22,2*%
%TO.N,Net-(C33-Pad1)*%
X24787500Y113471400D03*
%TD*%
D12*
%TO.P,C31,1*%
%TO.N,Net-(C31-Pad1)*%
X71545000Y95210000D03*
%TO.P,C31,2*%
%TO.N,GND*%
X72505000Y95210000D03*
%TD*%
D18*
%TO.P,R7,1*%
%TO.N,Net-(U4-FB)*%
X17280000Y72505000D03*
%TO.P,R7,2*%
%TO.N,3.7V*%
X17280000Y70855000D03*
%TD*%
D11*
%TO.P,R14,1*%
%TO.N,Net-(D6-A)*%
X10112500Y82230000D03*
%TO.P,R14,2*%
%TO.N,/main core/STATE_LED*%
X9092500Y82230000D03*
%TD*%
D17*
%TO.P,R3,1*%
%TO.N,/CC2*%
X21900000Y11393311D03*
%TO.P,R3,2*%
%TO.N,GND*%
X21900000Y12413311D03*
%TD*%
D19*
%TO.P,C32,1*%
%TO.N,/main core/VBattest_check*%
X72455000Y98510000D03*
%TO.P,C32,2*%
%TO.N,GND*%
X71495000Y98510000D03*
%TD*%
D20*
%TO.P,D2,1,K_1*%
%TO.N,GND*%
X46307533Y35132434D03*
%TO.P,D2,2,A_2*%
%TO.N,Net-(D2-A)*%
X44732533Y35132434D03*
%TD*%
D21*
%TO.P,U1,1,TXD_1*%
%TO.N,/main core/FTDI_TXD*%
X28165000Y26669711D03*
%TO.P,U1,2,DTR_2*%
%TO.N,unconnected-(U1-DTR-Pad2)*%
X27515000Y26669711D03*
%TO.P,U1,3,RTS_3*%
%TO.N,/main core/FTDI_RTS*%
X26865000Y26669711D03*
%TO.P,U1,4,VCCIO_4*%
%TO.N,+3V3*%
X26215000Y26669711D03*
%TO.P,U1,5,RXD_5*%
%TO.N,/main core/FTDI_RXD*%
X25565000Y26669711D03*
%TO.P,U1,6,RI_6*%
%TO.N,unconnected-(U1-RI-Pad6)*%
X24915000Y26669711D03*
%TO.P,U1,7,GND_7*%
%TO.N,GND*%
X24265000Y26669711D03*
%TO.P,U1,8,n.c_8*%
%TO.N,unconnected-(U1-n.c-Pad8)*%
X23615000Y26669711D03*
%TO.P,U1,9,DCR_9*%
%TO.N,unconnected-(U1-DCR-Pad9)*%
X22965000Y26669711D03*
%TO.P,U1,10,DCD_10*%
%TO.N,unconnected-(U1-DCD-Pad10)*%
X22315000Y26669711D03*
%TO.P,U1,11,CTS_11*%
%TO.N,/main core/FTDI_CTS*%
X21665000Y26669711D03*
%TO.P,U1,12,CBUS4_12*%
%TO.N,unconnected-(U1-CBUS4-Pad12)*%
X21015000Y26669711D03*
%TO.P,U1,13,CBUS2_13*%
%TO.N,unconnected-(U1-CBUS2-Pad13)*%
X20365000Y26669711D03*
%TO.P,U1,14,CBUS3_14*%
%TO.N,unconnected-(U1-CBUS3-Pad14)*%
X19715000Y26669711D03*
%TO.P,U1,15,USBD+_15*%
%TO.N,/USBD+*%
X19715000Y19669711D03*
%TO.P,U1,16,USBD-_16*%
%TO.N,/USBD-*%
X20365000Y19669711D03*
%TO.P,U1,17,3V3OUT_17*%
%TO.N,Net-(U1-3V3OUT)*%
X21015000Y19669711D03*
%TO.P,U1,18,GND_18*%
%TO.N,GND*%
X21665000Y19669711D03*
%TO.P,U1,19,~{RESET}_19*%
%TO.N,Net-(U1-~{RESET})*%
X22315000Y19669711D03*
%TO.P,U1,20,VCC_20*%
%TO.N,USB+5V*%
X22965000Y19669711D03*
%TO.P,U1,21,GND_21*%
%TO.N,GND*%
X23615000Y19669711D03*
%TO.P,U1,22,CBUS1_22*%
%TO.N,unconnected-(U1-CBUS1-Pad22)*%
X24265000Y19669711D03*
%TO.P,U1,23,CBUS0_23*%
%TO.N,unconnected-(U1-CBUS0-Pad23)*%
X24915000Y19669711D03*
%TO.P,U1,24,n.c_24*%
%TO.N,unconnected-(U1-n.c-Pad24)*%
X25565000Y19669711D03*
%TO.P,U1,25,AGND_25*%
%TO.N,GND*%
X26215000Y19669711D03*
%TO.P,U1,26,TEST_26*%
X26865000Y19669711D03*
%TO.P,U1,27,OSCI_27*%
%TO.N,unconnected-(U1-OSCI-Pad27)*%
X27515000Y19669711D03*
%TO.P,U1,28,OSCO_28*%
%TO.N,unconnected-(U1-OSCO-Pad28)*%
X28165000Y19669711D03*
%TD*%
D22*
%TO.P,TP7,1,1_1*%
%TO.N,/main core/DUT stage/VccRGB_DUT*%
X34526100Y93363600D03*
%TD*%
D19*
%TO.P,C4,1*%
%TO.N,Net-(J1-SHIELD)*%
X15130000Y9553311D03*
%TO.P,C4,2*%
%TO.N,GND*%
X14170000Y9553311D03*
%TD*%
D12*
%TO.P,C5,1*%
%TO.N,GND*%
X14170000Y11003311D03*
%TO.P,C5,2*%
%TO.N,Net-(J1-SHIELD)*%
X15130000Y11003311D03*
%TD*%
D22*
%TO.P,TP3,1,1_1*%
%TO.N,/main core/DUT stage/+3V3_DUT*%
X17201100Y109538600D03*
%TD*%
D17*
%TO.P,R40,1*%
%TO.N,/main core/Relay_ThermalPin*%
X41175000Y69472500D03*
%TO.P,R40,2*%
%TO.N,Net-(Q5-G)*%
X41175000Y70492500D03*
%TD*%
%TO.P,R44,1*%
%TO.N,/main core/ADC Bat_I*%
X88750000Y90510000D03*
%TO.P,R44,2*%
%TO.N,Net-(R44-Pad2)*%
X88750000Y91530000D03*
%TD*%
D20*
%TO.P,D1,1,K_1*%
%TO.N,GND*%
X46670639Y56707784D03*
%TO.P,D1,2,A_2*%
%TO.N,Net-(D1-A)*%
X45095639Y56707784D03*
%TD*%
D12*
%TO.P,C27,1*%
%TO.N,/main core/Buzzer_OK*%
X69000000Y109320000D03*
%TO.P,C27,2*%
%TO.N,GND*%
X69960000Y109320000D03*
%TD*%
D15*
%TO.P,R6,1*%
%TO.N,GND*%
X14140000Y12353311D03*
%TO.P,R6,2*%
%TO.N,Net-(J1-SHIELD)*%
X15160000Y12353311D03*
%TD*%
%TO.P,R25,1*%
%TO.N,GND*%
X16327500Y114035000D03*
%TO.P,R25,2*%
%TO.N,Net-(U7-+)*%
X17347500Y114035000D03*
%TD*%
D22*
%TO.P,TP11,1,1_1*%
%TO.N,/main core/LED_GREEN*%
X33251100Y101588600D03*
%TD*%
D11*
%TO.P,R35,1*%
%TO.N,GND*%
X84540000Y89747500D03*
%TO.P,R35,2*%
%TO.N,Net-(K1-Pad3)*%
X83520000Y89747500D03*
%TD*%
D17*
%TO.P,R1,1*%
%TO.N,/CC1*%
X17850000Y11393311D03*
%TO.P,R1,2*%
%TO.N,GND*%
X17850000Y12413311D03*
%TD*%
D23*
%TO.P,C35,1*%
%TO.N,+3V3*%
X28650000Y95830000D03*
%TO.P,C35,2*%
%TO.N,GND*%
X28650000Y96790000D03*
%TD*%
D24*
%TO.P,Q5,1,G_1*%
%TO.N,Net-(Q5-G)*%
X39150000Y70470000D03*
%TO.P,Q5,2,S_2*%
%TO.N,GND*%
X37250000Y70470000D03*
%TO.P,Q5,3,D_3*%
%TO.N,Net-(D10-A)*%
X38200000Y68595000D03*
%TD*%
D11*
%TO.P,R12,1*%
%TO.N,Net-(D4-A)*%
X41776233Y28782434D03*
%TO.P,R12,2*%
%TO.N,/main core/LED#4*%
X40756233Y28782434D03*
%TD*%
D25*
%TO.P,C23,1*%
%TO.N,/main core/RGBW_NOK*%
X67180000Y105300000D03*
%TO.P,C23,2*%
%TO.N,GND*%
X67180000Y104340000D03*
%TD*%
%TO.P,C16,1*%
%TO.N,/main core/START_SW*%
X62880000Y100100000D03*
%TO.P,C16,2*%
%TO.N,GND*%
X62880000Y99140000D03*
%TD*%
D22*
%TO.P,TP4,1,1_1*%
%TO.N,GND*%
X97701100Y97463600D03*
%TD*%
D23*
%TO.P,C29,1*%
%TO.N,+3V3*%
X68650000Y91530000D03*
%TO.P,C29,2*%
%TO.N,GND*%
X68650000Y92490000D03*
%TD*%
D12*
%TO.P,C25,1*%
%TO.N,/main core/Motor_OK*%
X67400000Y106620000D03*
%TO.P,C25,2*%
%TO.N,GND*%
X68360000Y106620000D03*
%TD*%
D14*
%TO.P,R42,1*%
%TO.N,GND*%
X56080000Y91220000D03*
%TO.P,R42,2*%
%TO.N,/main core/Relay_VBattest*%
X56080000Y90200000D03*
%TD*%
D26*
%TO.P,SW3,1,1_1*%
%TO.N,GND*%
X54084188Y43698197D03*
X46884188Y43698197D03*
%TO.P,SW3,2,2_2*%
%TO.N,/main core/Prog_NOK*%
X54084188Y46698197D03*
X46884188Y46698197D03*
%TD*%
D27*
%TO.P,D10,1,K_1*%
%TO.N,RELAY+5V*%
X43065000Y74970000D03*
%TO.P,D10,2,A_2*%
%TO.N,Net-(D10-A)*%
X43065000Y78270000D03*
%TD*%
D28*
%TO.P,J6,1,Pin_1_1*%
%TO.N,GND*%
X58250000Y130410000D03*
D29*
%TO.P,J6,2,Pin_2_2*%
%TO.N,/main core/DUT stage/Motor-O*%
X55710000Y130410000D03*
%TO.P,J6,3,Pin_3_3*%
%TO.N,/main core/DUT stage/Motor-Y*%
X53170000Y130410000D03*
%TO.P,J6,4,Pin_4_4*%
%TO.N,/main core/DUT stage/Motor-P*%
X50630000Y130410000D03*
%TO.P,J6,5,Pin_5_5*%
%TO.N,/main core/DUT stage/Motor-B*%
X48090000Y130410000D03*
%TD*%
D22*
%TO.P,TP10,1,1_1*%
%TO.N,Net-(R38-Pad2)*%
X-3273900Y114813600D03*
%TD*%
D30*
%TO.P,C8,1*%
%TO.N,+3V3*%
X24850000Y77960000D03*
%TO.P,C8,2*%
%TO.N,GND*%
X26400000Y77960000D03*
%TD*%
D26*
%TO.P,SW5,1,1_1*%
%TO.N,GND*%
X85193295Y43403183D03*
X77993295Y43403183D03*
%TO.P,SW5,2,2_2*%
%TO.N,/main core/RGBW_NOK*%
X85193295Y46403183D03*
X77993295Y46403183D03*
%TD*%
D31*
%TO.P,K1,1*%
%TO.N,Net-(D9-A)*%
X59300000Y81310000D03*
%TO.P,K1,3*%
%TO.N,Net-(K1-Pad3)*%
X59300000Y75910000D03*
%TO.P,K1,5*%
%TO.N,3.7V*%
X65300000Y73710000D03*
%TO.P,K1,7*%
%TO.N,unconnected-(K1-Pad7)*%
X65300000Y78110000D03*
%TO.P,K1,8*%
%TO.N,RELAY+5V*%
X65300000Y81310000D03*
%TD*%
D17*
%TO.P,R41,1*%
%TO.N,GND*%
X7280000Y110160000D03*
%TO.P,R41,2*%
%TO.N,/main core/LED_CHRG*%
X7280000Y111180000D03*
%TD*%
D11*
%TO.P,R37,1*%
%TO.N,Net-(U9-S-)*%
X84540000Y85747500D03*
%TO.P,R37,2*%
%TO.N,/main core/DUT stage/VBatt_DUT*%
X83520000Y85747500D03*
%TD*%
D14*
%TO.P,R39,1*%
%TO.N,/main core/Relay_VBattest*%
X56070000Y88420000D03*
%TO.P,R39,2*%
%TO.N,Net-(Q4-G)*%
X56070000Y87400000D03*
%TD*%
D32*
%TO.P,U8,1*%
%TO.N,Net-(U8--)*%
X29132500Y91022500D03*
%TO.P,U8,2,V-_2*%
%TO.N,GND*%
X30082500Y91022500D03*
%TO.P,U8,3,+_3*%
%TO.N,Net-(U8-+)*%
X31032500Y91022500D03*
%TO.P,U8,4,-_4*%
%TO.N,Net-(U8--)*%
X31032500Y93297500D03*
%TO.P,U8,5,V+_5*%
%TO.N,+3V3*%
X29132500Y93297500D03*
%TD*%
D24*
%TO.P,Q3,1,G_1*%
%TO.N,Net-(Q3-G)*%
X10830000Y96007500D03*
%TO.P,Q3,2,S_2*%
%TO.N,GND*%
X8930000Y96007500D03*
%TO.P,Q3,3,D_3*%
%TO.N,Net-(Q3-D)*%
X9880000Y94132500D03*
%TD*%
D33*
%TO.P,K3,1*%
%TO.N,Net-(D11-A)*%
X89600000Y103010000D03*
%TO.P,K3,3*%
%TO.N,/main core/ADC Bat_I*%
X95000000Y103010000D03*
%TO.P,K3,5*%
%TO.N,Net-(K3-Pad5)*%
X97200000Y109010000D03*
%TO.P,K3,7*%
%TO.N,unconnected-(K3-Pad7)*%
X92800000Y109010000D03*
%TO.P,K3,8*%
%TO.N,RELAY+5V*%
X89600000Y109010000D03*
%TD*%
D15*
%TO.P,R26,1*%
%TO.N,Net-(Q3-D)*%
X12570000Y89970000D03*
%TO.P,R26,2*%
%TO.N,USB+5V*%
X13590000Y89970000D03*
%TD*%
D26*
%TO.P,SW2,1,1_1*%
%TO.N,GND*%
X44159188Y43723197D03*
X36959188Y43723197D03*
%TO.P,SW2,2,2_2*%
%TO.N,/main core/Prog_OK*%
X44159188Y46723197D03*
X36959188Y46723197D03*
%TD*%
D32*
%TO.P,U6,1*%
%TO.N,Net-(U6--)*%
X70425000Y89172500D03*
%TO.P,U6,2,V-_2*%
%TO.N,GND*%
X71375000Y89172500D03*
%TO.P,U6,3,+_3*%
%TO.N,Net-(U6-+)*%
X72325000Y89172500D03*
%TO.P,U6,4,-_4*%
%TO.N,Net-(U6--)*%
X72325000Y91447500D03*
%TO.P,U6,5,V+_5*%
%TO.N,+3V3*%
X70425000Y91447500D03*
%TD*%
D11*
%TO.P,R34,1*%
%TO.N,/main core/POWER_EN*%
X53180000Y108380000D03*
%TO.P,R34,2*%
%TO.N,Net-(R34-Pad2)*%
X52160000Y108380000D03*
%TD*%
D34*
%TO.P,D5,1,K_1*%
%TO.N,Net-(BZ1-+)*%
X85140000Y118502500D03*
%TO.P,D5,2,A_2*%
%TO.N,Net-(BZ1--)*%
X85140000Y115202500D03*
%TD*%
D26*
%TO.P,SW9,1,1_1*%
%TO.N,GND*%
X85193295Y24838183D03*
X77993295Y24838183D03*
%TO.P,SW9,2,2_2*%
%TO.N,/main core/Buzzer_NOK*%
X85193295Y27838183D03*
X77993295Y27838183D03*
%TD*%
D35*
%TO.P,L2,1*%
%TO.N,USB+5V*%
X24727500Y66410000D03*
%TO.P,L2,2*%
%TO.N,RELAY+5V*%
X26552500Y66410000D03*
%TD*%
D26*
%TO.P,SW7,1,1_1*%
%TO.N,GND*%
X85193295Y62083183D03*
X77993295Y62083183D03*
%TO.P,SW7,2,2_2*%
%TO.N,/main core/Motor_NOK*%
X85193295Y65083183D03*
X77993295Y65083183D03*
%TD*%
D11*
%TO.P,R20,1*%
%TO.N,Net-(U6--)*%
X72435000Y93660000D03*
%TO.P,R20,2*%
%TO.N,Net-(C31-Pad1)*%
X71415000Y93660000D03*
%TD*%
D36*
%TO.P,Q1,1,G_1*%
%TO.N,/main core/Buzzer*%
X84312500Y112710000D03*
%TO.P,Q1,2,S_2*%
%TO.N,GND*%
X84312500Y110810000D03*
%TO.P,Q1,3,D_3*%
%TO.N,Net-(BZ1--)*%
X86187500Y111760000D03*
%TD*%
D23*
%TO.P,C34,1*%
%TO.N,/main core/+3V3test_check*%
X29887500Y112481400D03*
%TO.P,C34,2*%
%TO.N,GND*%
X29887500Y113441400D03*
%TD*%
D15*
%TO.P,R21,1*%
%TO.N,Net-(C31-Pad1)*%
X71465000Y96960000D03*
%TO.P,R21,2*%
%TO.N,/main core/VBattest_check*%
X72485000Y96960000D03*
%TD*%
D11*
%TO.P,R49,1*%
%TO.N,GND*%
X97160000Y113580000D03*
%TO.P,R49,2*%
%TO.N,Net-(R45-Pad1)*%
X96140000Y113580000D03*
%TD*%
D33*
%TO.P,K2,1*%
%TO.N,Net-(D10-A)*%
X39775000Y79692500D03*
%TO.P,K2,3*%
%TO.N,/main core/DUT stage/ExtVUSB_DUT*%
X34375000Y79692500D03*
%TO.P,K2,5*%
%TO.N,unconnected-(K2-Pad5)*%
X32175000Y73692500D03*
%TO.P,K2,7*%
%TO.N,/main core/DUT stage/ThermalPin_DUT*%
X36575000Y73692500D03*
%TO.P,K2,8*%
%TO.N,RELAY+5V*%
X39775000Y73692500D03*
%TD*%
D11*
%TO.P,R9,1*%
%TO.N,Net-(D1-A)*%
X42139339Y56707784D03*
%TO.P,R9,2*%
%TO.N,/main core/LED#1*%
X41119339Y56707784D03*
%TD*%
D15*
%TO.P,R28,1*%
%TO.N,Net-(Q3-D)*%
X12570000Y91870000D03*
%TO.P,R28,2*%
%TO.N,Net-(Q2-G)*%
X13590000Y91870000D03*
%TD*%
D12*
%TO.P,C26,1*%
%TO.N,/main core/Motor_NOK*%
X68900000Y107720000D03*
%TO.P,C26,2*%
%TO.N,GND*%
X69860000Y107720000D03*
%TD*%
D22*
%TO.P,TP5,1,1_1*%
%TO.N,GND*%
X75001100Y111563600D03*
%TD*%
D23*
%TO.P,C24,1*%
%TO.N,+3V3*%
X66650000Y116070000D03*
%TO.P,C24,2*%
%TO.N,GND*%
X66650000Y117030000D03*
%TD*%
D25*
%TO.P,C36,1*%
%TO.N,Net-(C36-Pad1)*%
X32050000Y96690000D03*
%TO.P,C36,2*%
%TO.N,GND*%
X32050000Y95730000D03*
%TD*%
%TO.P,C33,1*%
%TO.N,Net-(C33-Pad1)*%
X26387500Y113441400D03*
%TO.P,C33,2*%
%TO.N,GND*%
X26387500Y112481400D03*
%TD*%
D11*
%TO.P,R19,1*%
%TO.N,Net-(U7-+)*%
X17397500Y112335000D03*
%TO.P,R19,2*%
%TO.N,/main core/DUT stage/+3V3_DUT*%
X16377500Y112335000D03*
%TD*%
D37*
%TO.P,C14,1*%
%TO.N,3.7V*%
X20530000Y71145000D03*
%TO.P,C14,2*%
%TO.N,GND*%
X20530000Y74095000D03*
%TD*%
D28*
%TO.P,J7,1,Pin_1_1*%
%TO.N,/main core/DUT stage/ExtVUSB_DUT*%
X36951100Y87963600D03*
D29*
%TO.P,J7,2,Pin_2_2*%
%TO.N,/main core/DUT stage/ThermalPin_DUT*%
X39491100Y87963600D03*
%TD*%
D36*
%TO.P,Q6,1,G_1*%
%TO.N,Net-(Q6-G)*%
X86892500Y99860000D03*
%TO.P,Q6,2,S_2*%
%TO.N,GND*%
X86892500Y97960000D03*
%TO.P,Q6,3,D_3*%
%TO.N,Net-(D11-A)*%
X88767500Y98910000D03*
%TD*%
D14*
%TO.P,R23,1*%
%TO.N,Net-(C33-Pad1)*%
X28087500Y113471400D03*
%TO.P,R23,2*%
%TO.N,/main core/+3V3test_check*%
X28087500Y112451400D03*
%TD*%
D38*
%TO.P,U4,1,IN_1*%
%TO.N,USB+5V*%
X14717500Y69880000D03*
%TO.P,U4,2,OUT_2*%
%TO.N,3.7V*%
X14717500Y71150000D03*
%TO.P,U4,3,GND_3*%
%TO.N,GND*%
X14717500Y72420000D03*
%TO.P,U4,4,FB_4*%
%TO.N,Net-(U4-FB)*%
X14717500Y73690000D03*
%TO.P,U4,5,EN_5*%
%TO.N,USB+5V*%
X14717500Y74960000D03*
D39*
%TO.P,U4,6,GND_6*%
%TO.N,GND*%
X8417500Y72420000D03*
%TD*%
D40*
%TO.P,J1,A1,GND_A1*%
%TO.N,GND*%
X16580000Y7349711D03*
%TO.P,J1,A4,VBUS_A4*%
%TO.N,/VBUS*%
X17380000Y7349711D03*
D41*
%TO.P,J1,A5,CC1_A5*%
%TO.N,/CC1*%
X18530000Y7349711D03*
%TO.P,J1,A6,D+_A6*%
%TO.N,/D+*%
X19530000Y7349711D03*
%TO.P,J1,A7,D-_A7*%
%TO.N,/D-*%
X20030000Y7349711D03*
%TO.P,J1,A8,SBU1_A8*%
%TO.N,unconnected-(J1-SBU1-PadA8)*%
X21030000Y7349711D03*
D40*
%TO.P,J1,A9,VBUS_A9*%
%TO.N,/VBUS*%
X22180000Y7349711D03*
%TO.P,J1,A12,GND_A12*%
%TO.N,GND*%
X22980000Y7349711D03*
%TO.P,J1,B1,GND_B1*%
X22980000Y7349711D03*
%TO.P,J1,B4,VBUS_B4*%
%TO.N,/VBUS*%
X22180000Y7349711D03*
D41*
%TO.P,J1,B5,CC2_B5*%
%TO.N,/CC2*%
X21530000Y7349711D03*
%TO.P,J1,B6,D+_B6*%
%TO.N,/D+*%
X20530000Y7349711D03*
%TO.P,J1,B7,D-_B7*%
%TO.N,/D-*%
X19030000Y7349711D03*
%TO.P,J1,B8,SBU2_B8*%
%TO.N,unconnected-(J1-SBU2-PadB8)*%
X18030000Y7349711D03*
D40*
%TO.P,J1,B9,VBUS_B9*%
%TO.N,/VBUS*%
X17380000Y7349711D03*
%TO.P,J1,B12,GND_B12*%
%TO.N,GND*%
X16580000Y7349711D03*
D42*
%TO.P,J1,SH,SHIELD_SH*%
%TO.N,Net-(J1-SHIELD)*%
X15460000Y6774711D03*
D43*
X15460000Y2594711D03*
D42*
X24100000Y6774711D03*
D43*
X24100000Y2594711D03*
%TD*%
D22*
%TO.P,TP9,1,1_1*%
%TO.N,Net-(R34-Pad2)*%
X-2998900Y100463600D03*
%TD*%
D17*
%TO.P,R29,1*%
%TO.N,Net-(U8--)*%
X30400000Y95800000D03*
%TO.P,R29,2*%
%TO.N,Net-(C36-Pad1)*%
X30400000Y96820000D03*
%TD*%
%TO.P,R24,1*%
%TO.N,GND*%
X70285000Y85517500D03*
%TO.P,R24,2*%
%TO.N,Net-(U6-+)*%
X70285000Y86537500D03*
%TD*%
D14*
%TO.P,R5,1*%
%TO.N,/USBD+*%
X19200000Y12413311D03*
%TO.P,R5,2*%
%TO.N,/D+*%
X19200000Y11393311D03*
%TD*%
D30*
%TO.P,C7,1*%
%TO.N,USB+5V*%
X24725000Y69210000D03*
%TO.P,C7,2*%
%TO.N,GND*%
X26275000Y69210000D03*
%TD*%
D12*
%TO.P,C9,1*%
%TO.N,+3V3*%
X24820000Y79810000D03*
%TO.P,C9,2*%
%TO.N,GND*%
X25780000Y79810000D03*
%TD*%
D26*
%TO.P,SW1,1,1_1*%
%TO.N,GND*%
X49470639Y61745284D03*
X42270639Y61745284D03*
%TO.P,SW1,2,2_2*%
%TO.N,/main core/START_SW*%
X49470639Y64745284D03*
X42270639Y64745284D03*
%TD*%
D44*
%TO.P,U7,1*%
%TO.N,Net-(U7--)*%
X19850000Y114335000D03*
%TO.P,U7,2,V-_2*%
%TO.N,GND*%
X19850000Y113385000D03*
%TO.P,U7,3,+_3*%
%TO.N,Net-(U7-+)*%
X19850000Y112435000D03*
%TO.P,U7,4,-_4*%
%TO.N,Net-(U7--)*%
X22125000Y112435000D03*
%TO.P,U7,5,V+_5*%
%TO.N,+3V3*%
X22125000Y114335000D03*
%TD*%
D17*
%TO.P,R27,1*%
%TO.N,Net-(U8-+)*%
X33075000Y89675000D03*
%TO.P,R27,2*%
%TO.N,/main core/DUT stage/VccRGB_DUT*%
X33075000Y90695000D03*
%TD*%
D45*
%TO.P,D9,1,K_1*%
%TO.N,RELAY+5V*%
X63972500Y84710000D03*
%TO.P,D9,2,A_2*%
%TO.N,Net-(D9-A)*%
X60672500Y84710000D03*
%TD*%
D17*
%TO.P,R38,1*%
%TO.N,/main core/LED_CHRG*%
X5780000Y110160000D03*
%TO.P,R38,2*%
%TO.N,Net-(R38-Pad2)*%
X5780000Y111180000D03*
%TD*%
D11*
%TO.P,R11,1*%
%TO.N,Net-(D3-A)*%
X41776233Y31957434D03*
%TO.P,R11,2*%
%TO.N,/main core/LED#3*%
X40756233Y31957434D03*
%TD*%
D22*
%TO.P,TP8,1,1_1*%
%TO.N,/main core/DUT stage/VUSB_DUT*%
X5351100Y102713600D03*
%TD*%
D14*
%TO.P,R18,1*%
%TO.N,Net-(U6-+)*%
X72395000Y86537500D03*
%TO.P,R18,2*%
%TO.N,/main core/DUT stage/VBatt_DUT*%
X72395000Y85517500D03*
%TD*%
%TO.P,R30,1*%
%TO.N,Net-(C36-Pad1)*%
X33750000Y96770000D03*
%TO.P,R30,2*%
%TO.N,/main core/VccRGB_check*%
X33750000Y95750000D03*
%TD*%
D12*
%TO.P,C2,1*%
%TO.N,USB+5V*%
X22960000Y16119711D03*
%TO.P,C2,2*%
%TO.N,GND*%
X23920000Y16119711D03*
%TD*%
D44*
%TO.P,U3,1,IN_1*%
%TO.N,USB+5V*%
X52495000Y117957500D03*
%TO.P,U3,2,GND_2*%
%TO.N,GND*%
X52495000Y117007500D03*
%TO.P,U3,3,EN_3*%
%TO.N,USB+5V*%
X52495000Y116057500D03*
%TO.P,U3,4,NC_4*%
%TO.N,unconnected-(U3-NC-Pad4)*%
X54770000Y116057500D03*
%TO.P,U3,5,OUT_5*%
%TO.N,AVCC*%
X54770000Y117957500D03*
%TD*%
D14*
%TO.P,R43,1*%
%TO.N,GND*%
X43240000Y70482500D03*
%TO.P,R43,2*%
%TO.N,/main core/Relay_ThermalPin*%
X43240000Y69462500D03*
%TD*%
D26*
%TO.P,SW6,1,1_1*%
%TO.N,GND*%
X75268295Y62083183D03*
X68068295Y62083183D03*
%TO.P,SW6,2,2_2*%
%TO.N,/main core/Motor_OK*%
X75268295Y65083183D03*
X68068295Y65083183D03*
%TD*%
D46*
%TO.P,BZ1,1,+_1*%
%TO.N,Net-(BZ1-+)*%
X89252690Y118876310D03*
%TO.P,BZ1,2,-_2*%
%TO.N,Net-(BZ1--)*%
X89252690Y114676310D03*
%TO.P,BZ1,3*%
%TO.N,unconnected-(BZ1-Pad3)*%
X92752690Y118876310D03*
%TD*%
D22*
%TO.P,TP2,1,1_1*%
%TO.N,/main core/DUT stage/VBatt_DUT*%
X75201100Y86338600D03*
%TD*%
D25*
%TO.P,C21,1*%
%TO.N,/main core/Prog_NOK*%
X66080000Y100100000D03*
%TO.P,C21,2*%
%TO.N,GND*%
X66080000Y99140000D03*
%TD*%
D17*
%TO.P,R15,1*%
%TO.N,GND*%
X81860000Y111170000D03*
%TO.P,R15,2*%
%TO.N,/main core/Buzzer*%
X81860000Y112190000D03*
%TD*%
D15*
%TO.P,R46,1*%
%TO.N,/main core/I_ON{slash}OFF_Test*%
X83570000Y99830000D03*
%TO.P,R46,2*%
%TO.N,Net-(Q6-G)*%
X84590000Y99830000D03*
%TD*%
D47*
%TO.P,J3,1,Pin_1_1*%
%TO.N,GND*%
X43839050Y86253857D03*
D48*
%TO.P,J3,2,Pin_2_2*%
%TO.N,/main core/DUT stage/DUT_~{RESET}*%
X43839050Y88793857D03*
%TO.P,J3,3,Pin_3_3*%
%TO.N,/main core/DUT stage/SWDIO_DUT*%
X46379050Y86253857D03*
%TO.P,J3,4,Pin_4_4*%
%TO.N,unconnected-(J3-Pin_4-Pad4)*%
X46379050Y88793857D03*
%TO.P,J3,5,Pin_5_5*%
%TO.N,/main core/DUT stage/SWCLK_DUT*%
X48919050Y86253857D03*
%TO.P,J3,6,Pin_6_6*%
%TO.N,+3V3*%
X48919050Y88793857D03*
%TD*%
D49*
%TO.P,D6,1,K_1*%
%TO.N,GND*%
X8542500Y79770000D03*
%TO.P,D6,2,A_2*%
%TO.N,Net-(D6-A)*%
X10117500Y79770000D03*
%TD*%
D50*
%TO.P,U9,1,OUT_1*%
%TO.N,/main core/ADC Bat_I*%
X88747500Y88010000D03*
%TO.P,U9,2,GND_2*%
%TO.N,GND*%
X87797500Y88010000D03*
%TO.P,U9,3,S+_3*%
%TO.N,Net-(U9-S+)*%
X86847500Y88010000D03*
%TO.P,U9,4,S-_4*%
%TO.N,Net-(U9-S-)*%
X86847500Y85735000D03*
%TO.P,U9,5,Vcc_5*%
%TO.N,USB+5V*%
X88747500Y85735000D03*
%TD*%
D12*
%TO.P,C15,1*%
%TO.N,USB+5V*%
X14200000Y67870000D03*
%TO.P,C15,2*%
%TO.N,GND*%
X15160000Y67870000D03*
%TD*%
D28*
%TO.P,TP1,1,1_1*%
%TO.N,GND*%
X38651100Y131160000D03*
%TD*%
D22*
%TO.P,TP6,1,1_1*%
%TO.N,GND*%
X67701100Y125638600D03*
%TD*%
D20*
%TO.P,D7,1,K_1*%
%TO.N,GND*%
X72849495Y6825683D03*
%TO.P,D7,2,A_2*%
%TO.N,Net-(D7-A)*%
X71274495Y6825683D03*
%TD*%
D34*
%TO.P,D11,1,K_1*%
%TO.N,RELAY+5V*%
X85130000Y107550000D03*
%TO.P,D11,2,A_2*%
%TO.N,Net-(D11-A)*%
X85130000Y104250000D03*
%TD*%
D26*
%TO.P,SW8,1,1_1*%
%TO.N,GND*%
X75268295Y24788183D03*
X68068295Y24788183D03*
%TO.P,SW8,2,2_2*%
%TO.N,/main core/Buzzer_OK*%
X75268295Y27788183D03*
X68068295Y27788183D03*
%TD*%
D51*
%TO.P,OSC1,1,~{Stby}_1*%
%TO.N,unconnected-(OSC1-~{Stby}-Pad1)*%
X65130000Y117952500D03*
%TO.P,OSC1,2,GND_2*%
%TO.N,GND*%
X62530000Y117952500D03*
%TO.P,OSC1,3,OUT_3*%
%TO.N,/main core/OSC*%
X62530000Y115952490D03*
%TO.P,OSC1,4,VDD_4*%
%TO.N,+3V3*%
X65130000Y115952490D03*
%TD*%
D14*
%TO.P,R4,1*%
%TO.N,/USBD-*%
X20550000Y12413311D03*
%TO.P,R4,2*%
%TO.N,/D-*%
X20550000Y11393311D03*
%TD*%
D52*
%TO.P,C11,1*%
%TO.N,USB+5V*%
X49732500Y116115000D03*
%TO.P,C11,2*%
%TO.N,GND*%
X49732500Y117665000D03*
%TD*%
D28*
%TO.P,J2,1,Pin_1_1*%
%TO.N,/main core/PDI_DATA*%
X39991100Y119465000D03*
D29*
%TO.P,J2,2,Pin_2_2*%
%TO.N,+3V3*%
X39991100Y122005000D03*
%TO.P,J2,3,Pin_3_3*%
%TO.N,unconnected-(J2-Pin_3-Pad3)*%
X42531100Y119465000D03*
%TO.P,J2,4,Pin_4_4*%
%TO.N,unconnected-(J2-Pin_4-Pad4)*%
X42531100Y122005000D03*
%TO.P,J2,5,Pin_5_5*%
%TO.N,/main core/PDI_CLOCK*%
X45071100Y119465000D03*
%TO.P,J2,6,Pin_6_6*%
%TO.N,GND*%
X45071100Y122005000D03*
%TD*%
D23*
%TO.P,C1,1*%
%TO.N,+3V3*%
X26240000Y29639711D03*
%TO.P,C1,2*%
%TO.N,GND*%
X26240000Y30599711D03*
%TD*%
D25*
%TO.P,C20,1*%
%TO.N,/main core/Prog_OK*%
X64580000Y100100000D03*
%TO.P,C20,2*%
%TO.N,GND*%
X64580000Y99140000D03*
%TD*%
D22*
%TO.P,TP12,1,1_1*%
%TO.N,/main core/RED_LED*%
X38276100Y108413600D03*
%TD*%
D12*
%TO.P,C17,1*%
%TO.N,+3V3*%
X66610000Y110190000D03*
%TO.P,C17,2*%
%TO.N,GND*%
X67570000Y110190000D03*
%TD*%
D19*
%TO.P,C30,1*%
%TO.N,+3V3*%
X22017500Y116135000D03*
%TO.P,C30,2*%
%TO.N,GND*%
X21057500Y116135000D03*
%TD*%
D32*
%TO.P,U2,1,IN_1*%
%TO.N,USB+5V*%
X24732500Y73222500D03*
%TO.P,U2,2,GND_2*%
%TO.N,GND*%
X25682500Y73222500D03*
%TO.P,U2,3,EN_3*%
%TO.N,USB+5V*%
X26632500Y73222500D03*
%TO.P,U2,4,NC_4*%
%TO.N,unconnected-(U2-NC-Pad4)*%
X26632500Y75497500D03*
%TO.P,U2,5,OUT_5*%
%TO.N,+3V3*%
X24732500Y75497500D03*
%TD*%
D19*
%TO.P,C18,1*%
%TO.N,+3V3*%
X54360000Y106920000D03*
%TO.P,C18,2*%
%TO.N,GND*%
X53400000Y106920000D03*
%TD*%
D53*
%TO.P,R47,1*%
%TO.N,Net-(R44-Pad2)*%
X88810000Y93255000D03*
%TO.P,R47,2*%
%TO.N,GND*%
X88810000Y94905000D03*
%TD*%
D25*
%TO.P,C13,1*%
%TO.N,AVCC*%
X59232500Y117920000D03*
%TO.P,C13,2*%
%TO.N,GND*%
X59232500Y116960000D03*
%TD*%
D11*
%TO.P,R16,1*%
%TO.N,Net-(D7-A)*%
X64810000Y6820000D03*
%TO.P,R16,2*%
%TO.N,/main core/PASS*%
X63790000Y6820000D03*
%TD*%
D26*
%TO.P,SW4,1,1_1*%
%TO.N,GND*%
X75268295Y43403183D03*
X68068295Y43403183D03*
%TO.P,SW4,2,2_2*%
%TO.N,/main core/RGBW_OK*%
X75268295Y46403183D03*
X68068295Y46403183D03*
%TD*%
D20*
%TO.P,D4,1,K_1*%
%TO.N,GND*%
X46307533Y28782434D03*
%TO.P,D4,2,A_2*%
%TO.N,Net-(D4-A)*%
X44732533Y28782434D03*
%TD*%
D23*
%TO.P,C28,1*%
%TO.N,/main core/Buzzer_NOK*%
X68780000Y116140000D03*
%TO.P,C28,2*%
%TO.N,GND*%
X68780000Y117100000D03*
%TD*%
D28*
%TO.P,J4,1,Pin_1_1*%
%TO.N,+3V3*%
X48980000Y6699711D03*
D29*
%TO.P,J4,2,Pin_2_2*%
%TO.N,/main core/DUT stage/SWCLK_DUT*%
X48980000Y4159711D03*
%TO.P,J4,3,Pin_3_3*%
%TO.N,unconnected-(J4-Pin_3-Pad3)*%
X46440000Y6699711D03*
%TO.P,J4,4,Pin_4_4*%
%TO.N,/main core/DUT stage/SWDIO_DUT*%
X46440000Y4159711D03*
%TO.P,J4,5,Pin_5_5*%
%TO.N,/main core/DUT stage/DUT_~{RESET}*%
X43900000Y6699711D03*
%TO.P,J4,6,Pin_6_6*%
%TO.N,GND*%
X43900000Y4159711D03*
%TD*%
D54*
%TO.P,U5,1,PA5/ADC5_1*%
%TO.N,/main core/RED_LED*%
X57182500Y111178900D03*
%TO.P,U5,2,PA6/ADC6_2*%
%TO.N,/main core/LED_GREEN*%
X57182500Y110678900D03*
%TO.P,U5,3,PA7/ADC7/AC0-OUT_3*%
%TO.N,/main core/ADC Bat_I*%
X57182500Y110178900D03*
%TO.P,U5,4,PB0/ADC8/AREF_4*%
%TO.N,/main core/Relay_VBattest*%
X57182500Y109678900D03*
%TO.P,U5,5,PB1/ADC9_5*%
%TO.N,/main core/Relay_ThermalPin*%
X57182500Y109178900D03*
%TO.P,U5,6,PB2/ADC10/DAC0_6*%
%TO.N,/main core/I_ON{slash}OFF_Test*%
X57182500Y108678900D03*
%TO.P,U5,7,PB3/ADC11/DAC1_7*%
%TO.N,/main core/POWER_EN*%
X57182500Y108178900D03*
%TO.P,U5,8,GND_8*%
%TO.N,GND*%
X57182500Y107678900D03*
%TO.P,U5,9,VCC_9*%
%TO.N,+3V3*%
X57182500Y107178900D03*
%TO.P,U5,10,PC0/OC0A/SDA_10*%
%TO.N,/main core/LED#1*%
X57182500Y106678900D03*
%TO.P,U5,11,PC1/OC0B/XCK0/SCL_11*%
%TO.N,/main core/LED#2*%
X57182500Y106178900D03*
D55*
%TO.P,U5,12,PC2/OC0C/RXD0_12*%
%TO.N,/main core/LED#3*%
X58020000Y105341400D03*
%TO.P,U5,13,PC3/OC0D/TXD0_13*%
%TO.N,/main core/LED#4*%
X58520000Y105341400D03*
%TO.P,U5,14,PC4/OC1A/~{SS}_14*%
%TO.N,/main core/VUSB_2DUT*%
X59020000Y105341400D03*
%TO.P,U5,15,PC5/OC1B/MOSI/XCK1_15*%
%TO.N,/main core/PASS*%
X59520000Y105341400D03*
%TO.P,U5,16,PC6/MISO/RXD1_16*%
%TO.N,/main core/FAIL*%
X60020000Y105341400D03*
%TO.P,U5,17,PC7/SCK/TXD1/CLCKO/EVO_17*%
%TO.N,/main core/Buzzer*%
X60520000Y105341400D03*
%TO.P,U5,18,GND_18*%
%TO.N,GND*%
X61020000Y105341400D03*
%TO.P,U5,19,VCC_19*%
%TO.N,+3V3*%
X61520000Y105341400D03*
%TO.P,U5,20,PD0/OC0A_20*%
%TO.N,/main core/START_SW*%
X62020000Y105341400D03*
%TO.P,U5,21,PD1/OC0B/XCK0_21*%
%TO.N,/main core/Prog_OK*%
X62520000Y105341400D03*
%TO.P,U5,22,PD2/OC0C/RXD0_22*%
%TO.N,/main core/Prog_NOK*%
X63020000Y105341400D03*
D54*
%TO.P,U5,23,PD3/OC0D/TXD0_23*%
%TO.N,/main core/RGBW_OK*%
X63857500Y106178900D03*
%TO.P,U5,24,PD4/OC1A/~{SS}_24*%
%TO.N,/main core/RGBW_NOK*%
X63857500Y106678900D03*
%TO.P,U5,25,PD5/OC1B/XCK1/MOSI_25*%
%TO.N,/main core/Motor_OK*%
X63857500Y107178900D03*
%TO.P,U5,26,PD6/RXD1/MISO/D-_26*%
%TO.N,/main core/Motor_NOK*%
X63857500Y107678900D03*
%TO.P,U5,27,PD7/TXD1/SCK/CLCKO/D+_27*%
%TO.N,/main core/Buzzer_OK*%
X63857500Y108178900D03*
%TO.P,U5,28,PE0/OC0A/SDA_28*%
%TO.N,/main core/FTDI_RTS*%
X63857500Y108678900D03*
%TO.P,U5,29,PE1/OC0B/XCK0/SCL_29*%
%TO.N,/main core/FTDI_CTS*%
X63857500Y109178900D03*
%TO.P,U5,30,GND_30*%
%TO.N,GND*%
X63857500Y109678900D03*
%TO.P,U5,31,VCC_31*%
%TO.N,+3V3*%
X63857500Y110178900D03*
%TO.P,U5,32,PE2/OC0C/RXD0_32*%
%TO.N,/main core/FTDI_TXD*%
X63857500Y110678900D03*
%TO.P,U5,33,PE3/OC0D/TXD0_33*%
%TO.N,/main core/FTDI_RXD*%
X63857500Y111178900D03*
D55*
%TO.P,U5,34,PDI_DATA_34*%
%TO.N,/main core/PDI_DATA*%
X63020000Y112016400D03*
%TO.P,U5,35,~{RESET}/PDI_CLOCK_35*%
%TO.N,/main core/PDI_CLOCK*%
X62520000Y112016400D03*
%TO.P,U5,36,PR0/XTAL2_36*%
%TO.N,/main core/STATE_LED*%
X62020000Y112016400D03*
%TO.P,U5,37,PR1/XTAL1_37*%
%TO.N,/main core/OSC*%
X61520000Y112016400D03*
%TO.P,U5,38,GND_38*%
%TO.N,GND*%
X61020000Y112016400D03*
%TO.P,U5,39,AVCC_39*%
%TO.N,AVCC*%
X60520000Y112016400D03*
%TO.P,U5,40,PA0/ADC0/AREF_40*%
%TO.N,/main core/Buzzer_NOK*%
X60020000Y112016400D03*
%TO.P,U5,41,PA1/ADC1_41*%
%TO.N,/main core/VBattest_check*%
X59520000Y112016400D03*
%TO.P,U5,42,PA2/ADC2_42*%
%TO.N,/main core/VccRGB_check*%
X59020000Y112016400D03*
%TO.P,U5,43,PA3/ADC3_43*%
%TO.N,/main core/+3V3test_check*%
X58520000Y112016400D03*
%TO.P,U5,44,PA4/ADC4_44*%
%TO.N,/main core/LED_CHRG*%
X58020000Y112016400D03*
D56*
%TO.P,U5,45,GND_45*%
%TO.N,GND*%
X60520000Y108678900D03*
%TD*%
D14*
%TO.P,R2,1*%
%TO.N,Net-(U1-3V3OUT)*%
X17140000Y22879711D03*
%TO.P,R2,2*%
%TO.N,Net-(U1-~{RESET})*%
X17140000Y21859711D03*
%TD*%
D28*
%TO.P,J5,1,Pin_1_1*%
%TO.N,GND*%
X84640000Y130385000D03*
D29*
%TO.P,J5,2,Pin_2_2*%
%TO.N,/main core/DUT stage/Motor-O*%
X82100000Y130385000D03*
%TO.P,J5,3,Pin_3_3*%
%TO.N,/main core/DUT stage/Motor-Y*%
X79560000Y130385000D03*
%TO.P,J5,4,Pin_4_4*%
%TO.N,/main core/DUT stage/Motor-P*%
X77020000Y130385000D03*
%TO.P,J5,5,Pin_5_5*%
%TO.N,/main core/DUT stage/Motor-B*%
X74480000Y130385000D03*
%TD*%
D15*
%TO.P,R45,1*%
%TO.N,Net-(R45-Pad1)*%
X96140000Y112017500D03*
%TO.P,R45,2*%
%TO.N,Net-(K3-Pad5)*%
X97160000Y112017500D03*
%TD*%
D17*
%TO.P,R13,1*%
%TO.N,+3V3*%
X82580000Y117490000D03*
%TO.P,R13,2*%
%TO.N,Net-(BZ1-+)*%
X82580000Y118510000D03*
%TD*%
D11*
%TO.P,R10,1*%
%TO.N,Net-(D2-A)*%
X41776233Y35163434D03*
%TO.P,R10,2*%
%TO.N,/main core/LED#2*%
X40756233Y35163434D03*
%TD*%
%TO.P,R36,1*%
%TO.N,Net-(U9-S+)*%
X84540000Y88220000D03*
%TO.P,R36,2*%
%TO.N,Net-(K1-Pad3)*%
X83520000Y88220000D03*
%TD*%
D25*
%TO.P,C22,1*%
%TO.N,/main core/RGBW_OK*%
X65880000Y104200000D03*
%TO.P,C22,2*%
%TO.N,GND*%
X65880000Y103240000D03*
%TD*%
D20*
%TO.P,D8,1,K_1*%
%TO.N,GND*%
X82811995Y6900683D03*
%TO.P,D8,2,A_2*%
%TO.N,Net-(D8-A)*%
X81236995Y6900683D03*
%TD*%
D25*
%TO.P,C19,1*%
%TO.N,+3V3*%
X61001100Y101922500D03*
%TO.P,C19,2*%
%TO.N,GND*%
X61001100Y100962500D03*
%TD*%
D36*
%TO.P,Q4,1,G_1*%
%TO.N,Net-(Q4-G)*%
X56062500Y85660000D03*
%TO.P,Q4,2,S_2*%
%TO.N,GND*%
X56062500Y83760000D03*
%TO.P,Q4,3,D_3*%
%TO.N,Net-(D9-A)*%
X57937500Y84710000D03*
%TD*%
D57*
%TO.P,L1,1*%
%TO.N,/VBUS*%
X14160000Y15617500D03*
%TO.P,L1,2*%
%TO.N,USB+5V*%
X14160000Y17442500D03*
%TD*%
D23*
%TO.P,C10,1*%
%TO.N,USB+5V*%
X47582500Y116160000D03*
%TO.P,C10,2*%
%TO.N,GND*%
X47582500Y117120000D03*
%TD*%
D11*
%TO.P,R17,1*%
%TO.N,Net-(D8-A)*%
X64780000Y8250000D03*
%TO.P,R17,2*%
%TO.N,/main core/FAIL*%
X63760000Y8250000D03*
%TD*%
D17*
%TO.P,R31,1*%
%TO.N,Net-(Q3-G)*%
X10830000Y98310000D03*
%TO.P,R31,2*%
%TO.N,/main core/VUSB_2DUT*%
X10830000Y99330000D03*
%TD*%
D23*
%TO.P,C37,1*%
%TO.N,/main core/VccRGB_check*%
X35450000Y95780000D03*
%TO.P,C37,2*%
%TO.N,GND*%
X35450000Y96740000D03*
%TD*%
D58*
%TO.P,R33,1*%
%TO.N,Net-(K1-Pad3)*%
X81450000Y87922500D03*
%TO.P,R33,2*%
%TO.N,/main core/DUT stage/VBatt_DUT*%
X81450000Y86097500D03*
%TD*%
D20*
%TO.P,D3,1,K_1*%
%TO.N,GND*%
X46307533Y31957434D03*
%TO.P,D3,2,A_2*%
%TO.N,Net-(D3-A)*%
X44732533Y31957434D03*
%TD*%
D25*
%TO.P,C3,1*%
%TO.N,GND*%
X17140000Y25599711D03*
%TO.P,C3,2*%
%TO.N,Net-(U1-3V3OUT)*%
X17140000Y24639711D03*
%TD*%
D59*
%TO.N,GND*%
X16280000Y9420000D03*
X63210000Y21180000D03*
X51170000Y132790000D03*
X101170000Y126470000D03*
X47710000Y11170000D03*
X51150000Y1400000D03*
X96120000Y83730000D03*
X14220000Y8714711D03*
X28680000Y81520000D03*
X66500000Y117910000D03*
X8495000Y78370000D03*
X62770000Y81100000D03*
X64780000Y103200000D03*
X41480000Y81620000D03*
X27600000Y1440000D03*
X71605000Y24788183D03*
X2700000Y62150000D03*
X82000000Y100870000D03*
X69520000Y92480000D03*
X20110000Y116130000D03*
X25970000Y61220000D03*
X63330000Y60120000D03*
X95810000Y22140000D03*
X34180000Y12670000D03*
X28140000Y49500000D03*
X23260000Y67680000D03*
X8430000Y70070000D03*
X66216817Y62083183D03*
X62910000Y70390000D03*
X12560000Y27290000D03*
X84700000Y48370000D03*
X62580000Y101720000D03*
X60060000Y70660000D03*
X81580000Y24838183D03*
X22650000Y107370000D03*
X64900000Y114100000D03*
X86986817Y24838183D03*
X66060000Y70800000D03*
X-2370000Y125250000D03*
X80960000Y19170000D03*
X95940000Y70410000D03*
X59740000Y34470000D03*
X17950000Y25680000D03*
X71370000Y87760000D03*
X33340000Y56720000D03*
X-2140000Y102170000D03*
X21690000Y17919711D03*
X26230000Y31520000D03*
X86880000Y43403183D03*
X2860000Y82020000D03*
X27390000Y132730000D03*
X12440000Y62840000D03*
X60130000Y117020000D03*
X58600000Y110710000D03*
X18280000Y74920000D03*
X72690000Y130370000D03*
X56760000Y56260000D03*
X89080000Y38520000D03*
X36530000Y21600000D03*
X46740000Y27420000D03*
X27306310Y78700671D03*
X96220000Y61570000D03*
X56020000Y115430000D03*
X62400000Y110610000D03*
X68550000Y77870000D03*
X70140000Y35720000D03*
X68380000Y105880000D03*
X86470000Y123990000D03*
X17020000Y12439711D03*
X15880000Y49900000D03*
X46980000Y55490000D03*
X66160000Y56370000D03*
X33060000Y76700000D03*
X24007500Y17169711D03*
X9110000Y1540000D03*
X62850000Y123010000D03*
X27632500Y96877500D03*
X56215000Y82250000D03*
X18417500Y113391400D03*
X81880000Y110270000D03*
X18690000Y72860000D03*
X32000000Y94910000D03*
X15140000Y67035000D03*
X43880000Y51620000D03*
X84355000Y6895000D03*
X2660000Y53570000D03*
X25790000Y111770000D03*
X71450000Y99330000D03*
X28910000Y88360000D03*
X22690000Y98980000D03*
X22820000Y12389711D03*
X65850000Y90570000D03*
X44080000Y70480000D03*
X81980000Y38960000D03*
X26275000Y70315000D03*
X70260000Y15910000D03*
X25510000Y38170000D03*
X26540000Y17369711D03*
X82070000Y67200000D03*
X84210000Y71270000D03*
X34600000Y96710000D03*
X15980000Y34970000D03*
X76010000Y75470000D03*
X60070000Y100960000D03*
X65800000Y95290000D03*
X23020000Y8839711D03*
X68070000Y29440000D03*
X33700000Y33140000D03*
X69980000Y110220000D03*
X60830000Y117920000D03*
X37275000Y71902500D03*
X62930000Y75980000D03*
X48630000Y117720000D03*
X84560000Y90820000D03*
X43780000Y15950000D03*
X15070000Y18790000D03*
X-2340000Y106890000D03*
X23410000Y78390000D03*
X64360000Y104680000D03*
X66380000Y24788183D03*
X59870000Y47430000D03*
X8430000Y74770000D03*
X3460000Y132820000D03*
X14140000Y13419711D03*
X69580000Y117120000D03*
X8175000Y110120000D03*
X86840000Y62083183D03*
X28900000Y113541400D03*
X57330000Y31100000D03*
X59400000Y107210000D03*
X24240000Y28369711D03*
X52680000Y106870000D03*
X21680000Y82040000D03*
X96220000Y54370000D03*
X84130000Y84370000D03*
X23420000Y31170000D03*
X3100000Y21210000D03*
X22710000Y83640000D03*
X67510000Y1280000D03*
X83810000Y67080000D03*
X84580000Y98740000D03*
X73365000Y95210000D03*
X59960000Y90350000D03*
X65720000Y31360000D03*
X59920000Y56200000D03*
X54980000Y91870000D03*
X23220000Y42900000D03*
X66910000Y109340000D03*
X2700000Y72920000D03*
X16327500Y114910000D03*
X82040000Y96060000D03*
X72830000Y7860000D03*
X67880000Y99120000D03*
X39490000Y1360000D03*
X14600000Y76080000D03*
X81860000Y47920000D03*
X46580000Y117170000D03*
X84180000Y93860000D03*
X97160000Y114400000D03*
X57410000Y104800000D03*
X51280000Y89270000D03*
X63090000Y10660000D03*
X14440000Y107130000D03*
X57070000Y34270000D03*
X-1820000Y113520000D03*
X68180000Y104320000D03*
X-1360000Y89140000D03*
X65830000Y86200000D03*
X82067417Y88976897D03*
X60337500Y108678900D03*
X63310000Y51850000D03*
X8290000Y16650000D03*
X78150000Y132820000D03*
X81910000Y56330000D03*
X47280000Y120220000D03*
X69300000Y85510000D03*
X23540000Y55710000D03*
X30560000Y27390000D03*
X9790000Y105450000D03*
X15340000Y65160000D03*
X28110000Y115170000D03*
X12020000Y40160000D03*
X88840000Y95940000D03*
X2940000Y45150000D03*
X101210000Y106820000D03*
X44230000Y115430000D03*
X71520000Y55470000D03*
X8950000Y97380000D03*
X3180000Y10520000D03*
X51080000Y61720000D03*
X35280000Y43723197D03*
X59740000Y68430000D03*
X59960000Y79280000D03*
X84070000Y82570000D03*
X84910000Y59950000D03*
X25682500Y71810000D03*
X66050857Y84142870D03*
X28540000Y67870000D03*
X3020000Y32220000D03*
X86840000Y65739892D03*
X101070000Y89980000D03*
X68820000Y67270000D03*
X69280000Y69620000D03*
X55880000Y43698197D03*
X67560000Y111180000D03*
X-2290000Y98660000D03*
X87270000Y48820000D03*
X95460000Y132820000D03*
X59910000Y92180000D03*
X81980000Y75820000D03*
X12930000Y72420000D03*
X63020000Y67930000D03*
X22180000Y74070000D03*
X22610000Y92360000D03*
X53661940Y103457161D03*
X62150000Y7370000D03*
X15180000Y132620000D03*
X46740000Y36420000D03*
X63020000Y39720000D03*
X48050000Y67700000D03*
X31990000Y67860000D03*
X59860000Y24060000D03*
X62250000Y106960000D03*
X56610000Y37430000D03*
X84220000Y30220000D03*
X101210000Y116250000D03*
X10130000Y72420000D03*
X65840000Y91990000D03*
X88340000Y1840000D03*
X96230000Y9150000D03*
X56760000Y47480000D03*
X41650000Y89870000D03*
X10430000Y122090000D03*
X87797500Y89410000D03*
X96120000Y43830000D03*
X40780000Y85920000D03*
X95950000Y32620000D03*
X16270000Y102740000D03*
X59950000Y65320000D03*
X26050000Y92500000D03*
X66480000Y43403183D03*
X-2320000Y116700000D03*
%TO.N,/main core/I_ON{slash}OFF_Test*%
X83570000Y102110000D03*
X83580000Y109070000D03*
X55380000Y108270000D03*
%TO.N,USB+5V*%
X27950000Y73210000D03*
X15250000Y117390000D03*
X18930000Y16119711D03*
X88700000Y83510000D03*
X22090000Y16110000D03*
X27950000Y83460000D03*
X13590000Y88830000D03*
%TO.N,3.7V*%
X65909020Y69940980D03*
X20530000Y69570000D03*
%TO.N,/main core/STATE_LED*%
X63180000Y81970000D03*
X62200000Y113710000D03*
X9085000Y83210000D03*
%TO.N,/main core/VBattest_check*%
X72650000Y114760000D03*
X73450000Y98510000D03*
X59605000Y113910000D03*
%TO.N,/main core/FTDI_TXD*%
X31099711Y26669711D03*
X65500000Y110960000D03*
D60*
X31463586Y112324999D03*
D59*
%TO.N,/main core/FTDI_RTS*%
X30520000Y28530000D03*
X65930000Y108670000D03*
D60*
X30560000Y111155000D03*
D59*
%TO.N,+3V3*%
X22980000Y82150000D03*
X59950000Y102005000D03*
X67300000Y116060000D03*
X81475000Y117460000D03*
X46440000Y80280000D03*
X25280000Y29570000D03*
X23840000Y122160000D03*
X54400000Y105710000D03*
X27290000Y79740000D03*
X24120000Y81020000D03*
X25900000Y91710000D03*
X27350000Y81920000D03*
X23350000Y116085000D03*
X27400000Y116060000D03*
X27000000Y105710000D03*
X25270000Y82110000D03*
X25750000Y124760000D03*
X23090000Y79630000D03*
X26400000Y90810000D03*
X24800000Y95710000D03*
X26140000Y80720000D03*
X68600000Y90710000D03*
D60*
%TO.N,/main core/FTDI_RXD*%
X30890000Y112950000D03*
D59*
X25570000Y24330000D03*
X65300000Y111860000D03*
%TO.N,/main core/FTDI_CTS*%
X65950000Y109510000D03*
D60*
X29170000Y111440000D03*
D59*
X21730000Y25060000D03*
%TO.N,Net-(U1-~{RESET})*%
X22290000Y21819711D03*
X17890000Y21869711D03*
%TO.N,/main core/Relay_ThermalPin*%
X55650000Y70195000D03*
X54550710Y108834197D03*
%TO.N,/main core/ADC Bat_I*%
X95030000Y109670000D03*
X54518900Y110093900D03*
%TO.N,/main core/Buzzer_OK*%
X66080000Y27800000D03*
X68180000Y109320000D03*
%TO.N,Net-(K1-Pad3)*%
X59930000Y76870000D03*
X80230000Y87990000D03*
X81700000Y76870000D03*
%TO.N,/main core/LED#4*%
X58080000Y103520000D03*
X39638345Y28804237D03*
%TO.N,/main core/RGBW_NOK*%
X86780000Y46403183D03*
X86280000Y105320000D03*
%TO.N,/main core/START_SW*%
X63735000Y64765000D03*
X63740000Y100050000D03*
%TO.N,/main core/Motor_OK*%
X66580000Y106630000D03*
X65840000Y65080000D03*
%TO.N,/main core/Relay_VBattest*%
X54156855Y109494796D03*
X56250000Y89280000D03*
%TO.N,/main core/Prog_NOK*%
X62480000Y46670000D03*
X65106101Y101006949D03*
%TO.N,RELAY+5V*%
X66730000Y84720000D03*
X41550000Y74970000D03*
X42180000Y66370000D03*
X85350000Y66920000D03*
X85350000Y106310000D03*
X66630000Y66370000D03*
%TO.N,/main core/LED_CHRG*%
X57100000Y114725000D03*
X7280000Y112220000D03*
%TO.N,/main core/Prog_OK*%
X64180000Y101170000D03*
X64480000Y45520000D03*
%TO.N,Net-(R34-Pad2)*%
X48830000Y106420000D03*
%TO.N,/main core/Buzzer_NOK*%
X82830000Y114720000D03*
X68780000Y115470000D03*
X60280000Y115470000D03*
X82880000Y27838183D03*
%TO.N,/main core/Motor_NOK*%
X68930000Y108520000D03*
X87400000Y65090000D03*
X87130000Y110470000D03*
%TO.N,/main core/Buzzer*%
X60965000Y103760000D03*
X80600000Y103710000D03*
X80624107Y112192333D03*
%TO.N,/main core/+3V3test_check*%
X29020000Y112451400D03*
X58180332Y114690332D03*
%TO.N,/main core/LED#1*%
X55080000Y104620000D03*
X40337784Y56707784D03*
%TO.N,/D+*%
X19020000Y5139711D03*
X21220000Y5089711D03*
%TO.N,/D-*%
X20085943Y5937978D03*
X18420000Y5939711D03*
%TO.N,/main core/LED#3*%
X39891542Y31957434D03*
X57375000Y103203252D03*
%TO.N,/main core/VccRGB_check*%
X36500000Y95760000D03*
X59018098Y115332390D03*
X36500000Y114870000D03*
%TO.N,/main core/PDI_DATA*%
X64150000Y113510000D03*
X64900000Y119660000D03*
%TO.N,/main core/PDI_CLOCK*%
X63612387Y121010000D03*
X63612387Y114088403D03*
%TO.N,/main core/PASS*%
X59940000Y102940000D03*
X63780000Y5770000D03*
%TO.N,/main core/RGBW_OK*%
X65830000Y105020000D03*
X65080000Y46420000D03*
%TO.N,/main core/LED#2*%
X39838345Y35154237D03*
X56815000Y102620000D03*
%TO.N,/main core/VUSB_2DUT*%
X59020000Y101430000D03*
X10830000Y99990000D03*
%TO.N,/main core/FAIL*%
X60870000Y102960000D03*
X63780000Y9320000D03*
%TD*%
%TO.N,+3V3*%
D61*
X66650000Y115993600D02*
X66610000Y115953600D01*
X66610000Y115953600D02*
X66610000Y110190000D01*
X66650000Y116070000D02*
X66650000Y115993600D01*
%TO.N,GND*%
D62*
X66500000Y117910000D02*
X66501100Y117908900D01*
X66501100Y117908900D02*
X66501100Y117178900D01*
X66501100Y117178900D02*
X66650000Y117030000D01*
%TO.N,AVCC*%
D61*
X60014889Y117920000D02*
X59232500Y117920000D01*
X60685000Y117249889D02*
X60014889Y117920000D01*
X60685000Y116255000D02*
X60685000Y117249889D01*
X60910000Y115090000D02*
X60910000Y116030000D01*
X60695000Y113405000D02*
X60695000Y114875000D01*
X60589000Y112085400D02*
X60589000Y113299000D01*
X60520000Y112016400D02*
X60589000Y112085400D01*
X60589000Y113299000D02*
X60695000Y113405000D01*
X60695000Y114875000D02*
X60910000Y115090000D01*
X60910000Y116030000D02*
X60685000Y116255000D01*
%TO.N,GND*%
D63*
X47580000Y117150000D02*
X46600000Y117150000D01*
X55880000Y43698197D02*
X54084188Y43698197D01*
D62*
X17942789Y25687211D02*
X17950000Y25680000D01*
D63*
X72830000Y7860000D02*
X72830000Y6845178D01*
D62*
X24265000Y26669711D02*
X24265000Y28344711D01*
D63*
X68068295Y62083183D02*
X75268295Y62083183D01*
X36959188Y43723197D02*
X44159188Y43723197D01*
D64*
X8930000Y97360000D02*
X8950000Y97380000D01*
D62*
X24007500Y17852211D02*
X24007500Y17169711D01*
D63*
X68068295Y43403183D02*
X75268295Y43403183D01*
D62*
X8510000Y78385000D02*
X8495000Y78370000D01*
D65*
X25682500Y73222500D02*
X25682500Y71810000D01*
D63*
X84349317Y6900683D02*
X84355000Y6895000D01*
D62*
X37250000Y70470000D02*
X37250000Y71877500D01*
D63*
X61020000Y108178900D02*
X60520000Y108678900D01*
X51512500Y117037500D02*
X52492500Y117037500D01*
D62*
X26540000Y17369711D02*
X26565000Y17344711D01*
D63*
X46740000Y27420000D02*
X46307533Y27852467D01*
D61*
X68360000Y105900000D02*
X68380000Y105880000D01*
D62*
X32000000Y95710000D02*
X32000000Y94910000D01*
D63*
X56215000Y82250000D02*
X56215000Y83607500D01*
X68660000Y92480000D02*
X68650000Y92490000D01*
D61*
X67180000Y104340000D02*
X68160000Y104340000D01*
D64*
X7280000Y110160000D02*
X8135000Y110160000D01*
X84540000Y90800000D02*
X84540000Y89747500D01*
D63*
X97160000Y113580000D02*
X97160000Y114400000D01*
D61*
X22796400Y12413311D02*
X22820000Y12389711D01*
D63*
X8417500Y70082500D02*
X8430000Y70070000D01*
D61*
X68360000Y106620000D02*
X68360000Y105900000D01*
X27600000Y96910000D02*
X27632500Y96877500D01*
D62*
X24007500Y17169711D02*
X24007500Y16119711D01*
D63*
X82811995Y6900683D02*
X84349317Y6900683D01*
D62*
X25790000Y111770000D02*
X26387500Y112367500D01*
D63*
X30082500Y91022500D02*
X30082500Y89077500D01*
X86880000Y43403183D02*
X85193295Y43403183D01*
X66380000Y24788183D02*
X68068295Y24788183D01*
D62*
X26565000Y17344711D02*
X26865000Y17644711D01*
X44080000Y70480000D02*
X43242500Y70480000D01*
D63*
X8417500Y72420000D02*
X8417500Y70082500D01*
D62*
X82060000Y110970000D02*
X81860000Y111170000D01*
D63*
X77993295Y62083183D02*
X85193295Y62083183D01*
D61*
X67860000Y99140000D02*
X67880000Y99120000D01*
X28650000Y96877500D02*
X27632500Y96877500D01*
D65*
X16600000Y7233311D02*
X16600000Y9100000D01*
D62*
X23615000Y19669711D02*
X23615000Y18244711D01*
D63*
X57182500Y107678900D02*
X59520000Y107678900D01*
X17280000Y74930000D02*
X18270000Y74930000D01*
X61520000Y109678900D02*
X60520000Y108678900D01*
X84590000Y98730000D02*
X84580000Y98740000D01*
X87797500Y89410000D02*
X87797500Y88010000D01*
X84590000Y97860000D02*
X86792500Y97860000D01*
X15140000Y67850000D02*
X15160000Y67870000D01*
D62*
X18423900Y113385000D02*
X18417500Y113391400D01*
X60070000Y100960000D02*
X60998600Y100960000D01*
D63*
X51054716Y61745284D02*
X51080000Y61720000D01*
D62*
X66500000Y117810000D02*
X66500000Y117910000D01*
D63*
X22155000Y74095000D02*
X22180000Y74070000D01*
D62*
X26387500Y112367500D02*
X26387500Y112393900D01*
D61*
X69560000Y117100000D02*
X69580000Y117120000D01*
D63*
X86840000Y62083183D02*
X85193295Y62083183D01*
D62*
X26215000Y19669711D02*
X26215000Y17694711D01*
D61*
X62880000Y99140000D02*
X64580000Y99140000D01*
D63*
X77993295Y43403183D02*
X85193295Y43403183D01*
D61*
X28910000Y88930000D02*
X29030000Y89050000D01*
D63*
X71605000Y24788183D02*
X75268295Y24788183D01*
X57827500Y116960000D02*
X59232500Y116960000D01*
D62*
X43242500Y70480000D02*
X43240000Y70482500D01*
D63*
X8417500Y74757500D02*
X8430000Y74770000D01*
D62*
X21665000Y19669711D02*
X21665000Y17944711D01*
D63*
X46600000Y117150000D02*
X46580000Y117170000D01*
X61020000Y105341400D02*
X61020000Y108178900D01*
D61*
X29030000Y89050000D02*
X30025000Y89050000D01*
D63*
X88810000Y95910000D02*
X88840000Y95940000D01*
X66480000Y43403183D02*
X68068295Y43403183D01*
D62*
X20965000Y116130000D02*
X20970000Y116135000D01*
D61*
X17850000Y12413311D02*
X17046400Y12413311D01*
D65*
X16600000Y9100000D02*
X16280000Y9420000D01*
D62*
X26865000Y17644711D02*
X26865000Y19669711D01*
D61*
X65880000Y103240000D02*
X64820000Y103240000D01*
X64820000Y103240000D02*
X64780000Y103200000D01*
X69960000Y110200000D02*
X69980000Y110220000D01*
D63*
X30082500Y89077500D02*
X30040000Y89035000D01*
D62*
X71450000Y99330000D02*
X71495000Y99285000D01*
X35500000Y96710000D02*
X34600000Y96710000D01*
D63*
X20530000Y74095000D02*
X22155000Y74095000D01*
D65*
X26275000Y70315000D02*
X25680000Y70910000D01*
D61*
X70285000Y85517500D02*
X69307500Y85517500D01*
D63*
X35280000Y43723197D02*
X36959188Y43723197D01*
X46670639Y55799361D02*
X46670639Y56707784D01*
X63857500Y109678900D02*
X61520000Y109678900D01*
D62*
X67560000Y111180000D02*
X67570000Y111170000D01*
D64*
X52730000Y106920000D02*
X52680000Y106870000D01*
D61*
X21900000Y12413311D02*
X22796400Y12413311D01*
D63*
X49730000Y117695000D02*
X48655000Y117695000D01*
D62*
X60998600Y100960000D02*
X61001100Y100962500D01*
D63*
X77993295Y24838183D02*
X81580000Y24838183D01*
X18270000Y74930000D02*
X18280000Y74920000D01*
D61*
X30025000Y89050000D02*
X30040000Y89035000D01*
D62*
X17140000Y25687211D02*
X17942789Y25687211D01*
X20110000Y116130000D02*
X20965000Y116130000D01*
D63*
X46884188Y43698197D02*
X54084188Y43698197D01*
D64*
X8135000Y110160000D02*
X8175000Y110120000D01*
D63*
X8417500Y72420000D02*
X10130000Y72420000D01*
X57262500Y116395000D02*
X57827500Y116960000D01*
X25780000Y79810000D02*
X26400000Y79190000D01*
X8417500Y72420000D02*
X8417500Y74757500D01*
X49730000Y117695000D02*
X50855000Y117695000D01*
X56215000Y83607500D02*
X56062500Y83760000D01*
D64*
X84560000Y90820000D02*
X84540000Y90800000D01*
D61*
X69860000Y109220000D02*
X69960000Y109320000D01*
X69960000Y109320000D02*
X69960000Y110200000D01*
D63*
X60830000Y117920000D02*
X62231100Y117920000D01*
D62*
X27306310Y78700671D02*
X26565639Y77960000D01*
D63*
X14717500Y72420000D02*
X12930000Y72420000D01*
X81580000Y24838183D02*
X85193295Y24838183D01*
D65*
X23000000Y7233311D02*
X23000000Y8819711D01*
D62*
X66500000Y117023600D02*
X66500000Y117910000D01*
D63*
X42270639Y61745284D02*
X49470639Y61745284D01*
X68068295Y24788183D02*
X71605000Y24788183D01*
D62*
X67570000Y111170000D02*
X67570000Y110190000D01*
D61*
X68780000Y117100000D02*
X69560000Y117100000D01*
D62*
X8510000Y79780000D02*
X8510000Y78385000D01*
D61*
X66080000Y99140000D02*
X67860000Y99140000D01*
D63*
X49470639Y61745284D02*
X51054716Y61745284D01*
D62*
X71495000Y98597500D02*
X71407500Y98510000D01*
X14220000Y9514711D02*
X14220000Y8714711D01*
D63*
X59520000Y107678900D02*
X60520000Y108678900D01*
X66216817Y62083183D02*
X68068295Y62083183D01*
D65*
X26275000Y69210000D02*
X26275000Y70315000D01*
D62*
X26215000Y17694711D02*
X26540000Y17369711D01*
D63*
X59230000Y116990000D02*
X60100000Y116990000D01*
D62*
X28900000Y113541400D02*
X29875000Y113541400D01*
D61*
X69860000Y107720000D02*
X69860000Y109220000D01*
D63*
X60100000Y116990000D02*
X60130000Y117020000D01*
D62*
X16327500Y114910000D02*
X16327500Y114035000D01*
D63*
X88810000Y94905000D02*
X88810000Y95910000D01*
D61*
X17046400Y12413311D02*
X17020000Y12439711D01*
D62*
X26230000Y31520000D02*
X26230000Y30697211D01*
D63*
X26400000Y79190000D02*
X26400000Y77960000D01*
X50855000Y117695000D02*
X51512500Y117037500D01*
X46307533Y35987533D02*
X46740000Y36420000D01*
D62*
X37250000Y71877500D02*
X37275000Y71902500D01*
D63*
X84590000Y97860000D02*
X84590000Y98730000D01*
D62*
X71495000Y99285000D02*
X71495000Y98597500D01*
X21665000Y17944711D02*
X21690000Y17919711D01*
D63*
X56080000Y91220000D02*
X55530000Y91220000D01*
X69520000Y92480000D02*
X68660000Y92480000D01*
X15140000Y67035000D02*
X15140000Y67850000D01*
X86986817Y24838183D02*
X85193295Y24838183D01*
D61*
X14140000Y12353311D02*
X14140000Y13419711D01*
D62*
X81880000Y110270000D02*
X81880000Y111110000D01*
X26565639Y77960000D02*
X26400000Y77960000D01*
D61*
X23000000Y8819711D02*
X23020000Y8839711D01*
D63*
X61020000Y112016400D02*
X61020000Y109178900D01*
D61*
X28910000Y88360000D02*
X28910000Y88930000D01*
D62*
X19850000Y113385000D02*
X18423900Y113385000D01*
D63*
X48655000Y117695000D02*
X48630000Y117720000D01*
D62*
X23615000Y18244711D02*
X24007500Y17852211D01*
D63*
X46980000Y55490000D02*
X46670639Y55799361D01*
D62*
X84152500Y110970000D02*
X82060000Y110970000D01*
X24265000Y28344711D02*
X24240000Y28369711D01*
D61*
X14170000Y11003311D02*
X14170000Y12323311D01*
D63*
X46307533Y27852467D02*
X46307533Y35987533D01*
D64*
X8930000Y96007500D02*
X8930000Y97360000D01*
D63*
X71375000Y87765000D02*
X71370000Y87760000D01*
D61*
X69307500Y85517500D02*
X69300000Y85510000D01*
D63*
X71375000Y89172500D02*
X71375000Y87765000D01*
D62*
X73365000Y95210000D02*
X72592500Y95210000D01*
D64*
X53400000Y106920000D02*
X52730000Y106920000D01*
D61*
X62880000Y99140000D02*
X66080000Y99140000D01*
X68160000Y104340000D02*
X68180000Y104320000D01*
D63*
X54980000Y91770000D02*
X54980000Y91870000D01*
D61*
X14120000Y13439711D02*
X14140000Y13419711D01*
D63*
X55530000Y91220000D02*
X54980000Y91770000D01*
%TO.N,/main core/I_ON{slash}OFF_Test*%
X83570000Y102110000D02*
X83570000Y99830000D01*
X83570000Y99670000D02*
X83570000Y97860000D01*
X57182500Y108678900D02*
X55788900Y108678900D01*
X55788900Y108678900D02*
X55380000Y108270000D01*
%TO.N,USB+5V*%
D64*
X28113173Y116160000D02*
X26788173Y117485000D01*
D63*
X22099711Y16119711D02*
X22090000Y16110000D01*
D65*
X24720000Y70910000D02*
X24720000Y69215000D01*
D66*
X24727500Y66410000D02*
X24727500Y69207500D01*
D67*
X12270000Y69880000D02*
X11630000Y70520000D01*
D65*
X26632500Y73222500D02*
X27937500Y73222500D01*
D64*
X47582500Y116160000D02*
X28113173Y116160000D01*
D63*
X47580000Y116190000D02*
X49685000Y116190000D01*
D64*
X14160000Y17442500D02*
X17557500Y17442500D01*
D67*
X13590000Y75510000D02*
X13590000Y89970000D01*
D63*
X52492500Y116087500D02*
X49787500Y116087500D01*
X53680000Y116320000D02*
X53680000Y117720000D01*
D67*
X15110000Y90280000D02*
X15110000Y94672500D01*
X14150000Y65390000D02*
X14150000Y66149171D01*
X12620000Y74960000D02*
X14717500Y74960000D01*
D65*
X25000000Y74360000D02*
X26400000Y74360000D01*
D67*
X14150000Y69440000D02*
X14590000Y69880000D01*
D65*
X26400000Y74360000D02*
X26632500Y74127500D01*
D63*
X52492500Y116087500D02*
X53447500Y116087500D01*
D65*
X24732500Y73222500D02*
X24732500Y70922500D01*
D67*
X14150000Y64480000D02*
X14150000Y65390000D01*
X14410829Y66410000D02*
X24727500Y66410000D01*
D64*
X17557500Y17442500D02*
X18880289Y16119711D01*
D65*
X24732500Y73222500D02*
X24732500Y74092500D01*
X26632500Y74127500D02*
X26632500Y73222500D01*
D67*
X15345000Y117485000D02*
X15250000Y117390000D01*
D63*
X53412500Y117987500D02*
X52492500Y117987500D01*
D67*
X13590000Y89970000D02*
X14800000Y89970000D01*
X14800000Y89970000D02*
X15110000Y90280000D01*
X14150000Y17452500D02*
X14150000Y64480000D01*
D63*
X53680000Y117720000D02*
X53412500Y117987500D01*
D61*
X88747500Y83557500D02*
X88700000Y83510000D01*
D64*
X26788173Y117485000D02*
X15345000Y117485000D01*
D63*
X22960000Y16119711D02*
X22099711Y16119711D01*
D67*
X11630000Y70520000D02*
X11630000Y73970000D01*
X14150000Y66149171D02*
X14410829Y66410000D01*
X14140000Y74960000D02*
X13590000Y75510000D01*
D63*
X53447500Y116087500D02*
X53680000Y116320000D01*
D67*
X11630000Y73970000D02*
X12620000Y74960000D01*
X14717500Y69880000D02*
X12270000Y69880000D01*
D62*
X88747500Y85735000D02*
X88747500Y83557500D01*
D65*
X24732500Y74092500D02*
X25000000Y74360000D01*
D67*
X14150000Y66149171D02*
X14150000Y69440000D01*
D65*
X27937500Y73222500D02*
X27950000Y73210000D01*
D62*
X22965000Y19669711D02*
X22965000Y16212211D01*
%TO.N,AVCC*%
D63*
X57230000Y117945000D02*
X59225000Y117945000D01*
X54767500Y117987500D02*
X57187500Y117987500D01*
%TO.N,Net-(U4-FB)*%
X14717500Y73690000D02*
X17060000Y73690000D01*
X17280000Y72190000D02*
X17280000Y73910000D01*
X17060000Y73690000D02*
X17280000Y73910000D01*
%TO.N,Net-(U8-+)*%
X31032500Y91022500D02*
X31032500Y89062500D01*
X33075000Y89675000D02*
X32435000Y89035000D01*
X32435000Y89035000D02*
X31060000Y89035000D01*
%TO.N,Net-(Q2-G)*%
D64*
X13590000Y91870000D02*
X13720000Y92000000D01*
X13720000Y94832500D02*
X13810000Y94922500D01*
X13720000Y92000000D02*
X13720000Y94832500D01*
%TO.N,/main core/DUT stage/VUSB_DUT*%
D67*
X14460000Y102200000D02*
X14460000Y96747500D01*
X13946400Y102713600D02*
X14460000Y102200000D01*
X5351100Y102713600D02*
X13946400Y102713600D01*
%TO.N,Net-(U7--)*%
D62*
X22125000Y112435000D02*
X20225000Y114335000D01*
X22125000Y112435000D02*
X24771100Y112435000D01*
%TO.N,Net-(C33-Pad1)*%
X24787500Y113471400D02*
X26330000Y113471400D01*
X26387500Y113528900D02*
X28030000Y113528900D01*
%TO.N,Net-(C31-Pad1)*%
D61*
X71415000Y93660000D02*
X71415000Y95167500D01*
X71457500Y95210000D02*
X71457500Y96952500D01*
%TO.N,3.7V*%
D67*
X20555000Y69595000D02*
X20555000Y71120000D01*
X65909020Y69940980D02*
X65300000Y70550000D01*
D65*
X14717500Y71150000D02*
X17260000Y71150000D01*
D67*
X65300000Y70550000D02*
X65300000Y73710000D01*
D65*
X17455000Y71145000D02*
X20530000Y71145000D01*
D67*
X20530000Y69570000D02*
X20555000Y69595000D01*
%TO.N,Net-(D6-A)*%
D63*
X10112500Y82230000D02*
X10112500Y79775000D01*
%TO.N,/main core/STATE_LED*%
X9085000Y83210000D02*
X9085000Y82362500D01*
X62020000Y113530000D02*
X62200000Y113710000D01*
X62020000Y112016400D02*
X62020000Y113530000D01*
%TO.N,/CC2*%
D61*
X21550000Y7233311D02*
X21550000Y9919711D01*
X21900000Y10269711D02*
X21900000Y11393311D01*
X21550000Y9919711D02*
X21900000Y10269711D01*
%TO.N,/main core/VBattest_check*%
D63*
X59520000Y113825000D02*
X59605000Y113910000D01*
X73450000Y98510000D02*
X72455000Y98510000D01*
D62*
X72485000Y96960000D02*
X72485000Y98452500D01*
D63*
X59520000Y112016400D02*
X59520000Y113825000D01*
%TO.N,Net-(D2-A)*%
X41736233Y35163434D02*
X44661533Y35163434D01*
%TO.N,/main core/FTDI_TXD*%
X63857500Y110678900D02*
X65218900Y110678900D01*
X65218900Y110678900D02*
X65500000Y110960000D01*
X31099711Y26669711D02*
X28165000Y26669711D01*
%TO.N,/main core/FTDI_RTS*%
X27090000Y28530000D02*
X26880000Y28320000D01*
X65681100Y108678900D02*
X63857500Y108678900D01*
X65690000Y108670000D02*
X65681100Y108678900D01*
X30520000Y28530000D02*
X27090000Y28530000D01*
X26880000Y28320000D02*
X26880000Y26684711D01*
X65930000Y108670000D02*
X65690000Y108670000D01*
%TO.N,+3V3*%
D61*
X61520000Y102410000D02*
X61520000Y105341400D01*
X67300000Y116060000D02*
X66586100Y116060000D01*
D63*
X68600000Y91442500D02*
X70420000Y91442500D01*
X29132500Y95260000D02*
X29132500Y93297500D01*
D61*
X66501100Y115975000D02*
X64886110Y115975000D01*
D63*
X28650000Y95742500D02*
X29132500Y95260000D01*
D62*
X22125000Y114335000D02*
X22125000Y116115000D01*
X26215000Y26669711D02*
X26215000Y29527211D01*
X25297789Y29552211D02*
X26240000Y29552211D01*
D63*
X23840000Y122160000D02*
X24525000Y122160000D01*
X82580000Y117490000D02*
X81505000Y117490000D01*
D62*
X24850000Y77960000D02*
X24850000Y79780000D01*
D61*
X54632500Y107192500D02*
X57168900Y107192500D01*
X54400000Y105710000D02*
X54400000Y106880000D01*
D63*
X25025000Y95710000D02*
X25057500Y95742500D01*
X24525000Y122160000D02*
X24680000Y122005000D01*
D61*
X59982500Y101972500D02*
X60951100Y101972500D01*
D63*
X23350000Y116085000D02*
X22155000Y116085000D01*
X25057500Y95742500D02*
X28650000Y95742500D01*
D61*
X63857500Y110178900D02*
X66598900Y110178900D01*
X61070000Y101960000D02*
X61520000Y102410000D01*
D63*
X68600000Y90710000D02*
X68600000Y91442500D01*
D61*
X66598900Y110178900D02*
X66610000Y110190000D01*
X67300000Y116060000D02*
X67310000Y116060000D01*
X59950000Y102005000D02*
X59982500Y101972500D01*
D63*
X24800000Y95710000D02*
X25025000Y95710000D01*
D62*
X25280000Y29570000D02*
X25297789Y29552211D01*
D63*
X81505000Y117490000D02*
X81475000Y117460000D01*
X24680000Y122005000D02*
X39991100Y122005000D01*
D62*
X24732500Y75497500D02*
X24732500Y77842500D01*
D61*
X54360000Y106920000D02*
X54632500Y107192500D01*
%TO.N,/main core/FTDI_RXD*%
D63*
X64618900Y111178900D02*
X65300000Y111860000D01*
X63857500Y111178900D02*
X64618900Y111178900D01*
X25570000Y24330000D02*
X25570000Y26664711D01*
%TO.N,/main core/FTDI_CTS*%
X65618900Y109178900D02*
X65950000Y109510000D01*
X63857500Y109178900D02*
X65618900Y109178900D01*
X21665000Y25125000D02*
X21665000Y26669711D01*
X21730000Y25060000D02*
X21665000Y25125000D01*
%TO.N,/USBD+*%
X19715000Y19669711D02*
X19715000Y12928311D01*
X19715000Y12928311D02*
X19200000Y12413311D01*
%TO.N,/USBD-*%
X20365000Y19669711D02*
X20365000Y12598311D01*
X20365000Y12598311D02*
X20550000Y12413311D01*
%TO.N,Net-(U1-3V3OUT)*%
D62*
X17140000Y22879711D02*
X17140000Y24552211D01*
X21015000Y19669711D02*
X21015000Y22044711D01*
X21015000Y22044711D02*
X20180000Y22879711D01*
X20180000Y22879711D02*
X17140000Y22879711D01*
%TO.N,Net-(U1-~{RESET})*%
X17140000Y21859711D02*
X17880000Y21859711D01*
X22315000Y19669711D02*
X22315000Y21794711D01*
X22315000Y21794711D02*
X22290000Y21819711D01*
X17880000Y21859711D02*
X17890000Y21869711D01*
%TO.N,/main core/DUT stage/VccRGB_DUT*%
D63*
X33075000Y90695000D02*
X33075000Y91912500D01*
X33075000Y91912500D02*
X34526100Y93363600D01*
%TO.N,Net-(J1-SHIELD)*%
D61*
X15480000Y6658311D02*
X15480000Y9203311D01*
X15480000Y6658311D02*
X15480000Y2478311D01*
X24120000Y2478311D02*
X24120000Y6658311D01*
X15130000Y11003311D02*
X15130000Y9553311D01*
X15480000Y9203311D02*
X15130000Y9553311D01*
X15160000Y12353311D02*
X15160000Y11033311D01*
X15480000Y2478311D02*
X24120000Y2478311D01*
%TO.N,/main core/DUT stage/+3V3_DUT*%
D63*
X16377500Y110362200D02*
X17201100Y109538600D01*
X16377500Y112335000D02*
X16377500Y110362200D01*
%TO.N,/main core/Relay_ThermalPin*%
D62*
X55650000Y70195000D02*
X55650000Y70125000D01*
X54987500Y69462500D02*
X43240000Y69462500D01*
X54864197Y108834197D02*
X55208900Y109178900D01*
X54550710Y108834197D02*
X54864197Y108834197D01*
X55650000Y70125000D02*
X54987500Y69462500D01*
X55208900Y109178900D02*
X57182500Y109178900D01*
X43240000Y69462500D02*
X41185000Y69462500D01*
%TO.N,Net-(Q5-G)*%
D61*
X41175000Y70492500D02*
X39172500Y70492500D01*
%TO.N,/main core/ADC Bat_I*%
D63*
X95030000Y109670000D02*
X95000000Y109640000D01*
X95000000Y90980000D02*
X94530000Y90510000D01*
X95000000Y109640000D02*
X95000000Y90980000D01*
X88755000Y90510000D02*
X88755000Y88017500D01*
X88750000Y90510000D02*
X88755000Y90510000D01*
X54518900Y110093900D02*
X54603900Y110178900D01*
X54603900Y110178900D02*
X57182500Y110178900D01*
X94530000Y90510000D02*
X88755000Y90510000D01*
%TO.N,Net-(R44-Pad2)*%
D62*
X88750000Y93195000D02*
X88810000Y93255000D01*
X88750000Y91530000D02*
X88750000Y93195000D01*
X88800000Y91580000D02*
X88750000Y91530000D01*
%TO.N,Net-(D1-A)*%
D63*
X42139339Y56707784D02*
X45095639Y56707784D01*
%TO.N,/main core/Buzzer_OK*%
X66080000Y27800000D02*
X68056478Y27800000D01*
X64721100Y108178900D02*
X63857500Y108178900D01*
X64790000Y108110000D02*
X64721100Y108178900D01*
X68180000Y109320000D02*
X69000000Y109320000D01*
X75268295Y27788183D02*
X68068295Y27788183D01*
X68090000Y109320000D02*
X66880000Y108110000D01*
X66880000Y108110000D02*
X64790000Y108110000D01*
X69000000Y109320000D02*
X68090000Y109320000D01*
%TO.N,Net-(U7-+)*%
D62*
X17397500Y112335000D02*
X17397500Y113985000D01*
X17397500Y112335000D02*
X19750000Y112335000D01*
%TO.N,/main core/LED_GREEN*%
D63*
X34178600Y101588600D02*
X43268900Y110678900D01*
X43268900Y110678900D02*
X57182500Y110678900D01*
%TO.N,Net-(K1-Pad3)*%
D67*
X80230000Y87990000D02*
X80715000Y87990000D01*
D63*
X83520000Y89747500D02*
X83520000Y88220000D01*
X83520000Y88220000D02*
X81747500Y88220000D01*
X81747500Y88220000D02*
X81450000Y87922500D01*
D67*
X59930000Y76870000D02*
X59930000Y75910000D01*
%TO.N,/CC1*%
D61*
X18550000Y9859711D02*
X17850000Y10559711D01*
X17850000Y10559711D02*
X17850000Y11393311D01*
X18550000Y7233311D02*
X18550000Y9859711D01*
%TO.N,Net-(D10-A)*%
D68*
X40357500Y78270000D02*
X39775000Y78852500D01*
X38200000Y68595000D02*
X38200000Y77287500D01*
X43065000Y78270000D02*
X40357500Y78270000D01*
X38200000Y77287500D02*
X39775000Y78862500D01*
%TO.N,Net-(D4-A)*%
D63*
X41736233Y28782434D02*
X44642533Y28782434D01*
%TO.N,/main core/LED#4*%
X39660148Y28782434D02*
X39638345Y28804237D01*
X40716233Y28782434D02*
X39660148Y28782434D01*
X58584000Y104024000D02*
X58584000Y105277400D01*
X58584000Y105277400D02*
X58520000Y105341400D01*
X58080000Y103520000D02*
X58584000Y104024000D01*
%TO.N,/main core/RGBW_NOK*%
X77993295Y46403183D02*
X85193295Y46403183D01*
X66580000Y105320000D02*
X65221100Y106678900D01*
X85193295Y46403183D02*
X86780000Y46403183D01*
X86280000Y105320000D02*
X66580000Y105320000D01*
X65221100Y106678900D02*
X63857500Y106678900D01*
%TO.N,/main core/START_SW*%
X63690000Y100100000D02*
X63740000Y100050000D01*
X62390000Y100100000D02*
X62880000Y100100000D01*
X62880000Y100100000D02*
X63690000Y100100000D01*
D64*
X63715284Y64745284D02*
X49470639Y64745284D01*
X63735000Y64765000D02*
X63715284Y64745284D01*
D63*
X62020000Y100470000D02*
X62390000Y100100000D01*
D64*
X42270639Y64745284D02*
X49470639Y64745284D01*
D63*
X62020000Y105341400D02*
X62020000Y100470000D01*
%TO.N,/main core/Motor_OK*%
X63857500Y107178900D02*
X66031100Y107178900D01*
X66580000Y106630000D02*
X67390000Y106630000D01*
X65840000Y65080000D02*
X68065112Y65080000D01*
X68068295Y65083183D02*
X75268295Y65083183D01*
X66031100Y107178900D02*
X66580000Y106630000D01*
X67390000Y106630000D02*
X67400000Y106620000D01*
%TO.N,/main core/Relay_VBattest*%
X56344900Y109604900D02*
X56418900Y109678900D01*
X56070000Y88420000D02*
X56250000Y88600000D01*
X55780000Y109610000D02*
X55785100Y109604900D01*
X54876200Y109494796D02*
X54991404Y109610000D01*
X54156855Y109494796D02*
X54876200Y109494796D01*
X56250000Y88600000D02*
X56250000Y90030000D01*
X56250000Y90030000D02*
X56080000Y90200000D01*
X55785100Y109604900D02*
X56344900Y109604900D01*
X54991404Y109610000D02*
X55780000Y109610000D01*
X56418900Y109678900D02*
X57182500Y109678900D01*
%TO.N,/main core/Prog_NOK*%
X65106101Y101006949D02*
X65080000Y101033050D01*
D64*
X62447464Y46702536D02*
X56309680Y46702536D01*
X62480000Y46670000D02*
X62447464Y46702536D01*
D61*
X66080000Y100100000D02*
X66080000Y100720000D01*
D63*
X65080000Y101320000D02*
X63020000Y103380000D01*
D61*
X66080000Y100720000D02*
X65793051Y101006949D01*
D64*
X56309680Y46702536D02*
X54088527Y46702536D01*
D63*
X65080000Y101033050D02*
X65080000Y101320000D01*
D61*
X65793051Y101006949D02*
X65106101Y101006949D01*
D63*
X63020000Y103380000D02*
X63020000Y105341400D01*
D64*
X46884188Y46698197D02*
X54084188Y46698197D01*
%TO.N,RELAY+5V*%
D62*
X66720000Y84710000D02*
X63972500Y84710000D01*
D67*
X85350000Y106310000D02*
X85350000Y107460000D01*
X26552500Y66410000D02*
X42140000Y66410000D01*
X43065000Y74970000D02*
X41550000Y74970000D01*
D63*
X89600000Y108420000D02*
X89600000Y109010000D01*
X85130000Y107550000D02*
X88730000Y107550000D01*
D67*
X40242500Y74970000D02*
X39775000Y74502500D01*
D62*
X63972500Y82637500D02*
X65300000Y81310000D01*
D63*
X88730000Y107550000D02*
X89600000Y108420000D01*
D62*
X66730000Y84720000D02*
X66720000Y84710000D01*
X63972500Y84710000D02*
X63972500Y82637500D01*
D67*
X42140000Y66410000D02*
X42180000Y66370000D01*
X41550000Y74970000D02*
X40242500Y74970000D01*
%TO.N,Net-(R38-Pad2)*%
D63*
X-2700000Y111180000D02*
X-3273900Y111753900D01*
X5780000Y111180000D02*
X-2700000Y111180000D01*
X-3273900Y111753900D02*
X-3273900Y114813600D01*
%TO.N,Net-(D9-A)*%
D64*
X60672500Y81872500D02*
X60110000Y81310000D01*
X60110000Y81310000D02*
X59300000Y81310000D01*
X60672500Y84710000D02*
X60672500Y81872500D01*
D63*
X57937500Y84710000D02*
X60672500Y84710000D01*
%TO.N,/main core/LED_CHRG*%
X57100000Y114710000D02*
X58020000Y113790000D01*
X6990000Y111180000D02*
X7280000Y111180000D01*
X57100000Y114725000D02*
X57100000Y114710000D01*
X7280000Y112220000D02*
X7280000Y111180000D01*
X58020000Y113790000D02*
X58020000Y112016400D01*
X5970000Y110160000D02*
X6990000Y111180000D01*
%TO.N,Net-(U9-S-)*%
X84540000Y85747500D02*
X86835000Y85747500D01*
%TO.N,/main core/DUT stage/VBatt_DUT*%
X81677500Y85870000D02*
X83397500Y85870000D01*
D67*
X81208900Y86338600D02*
X81450000Y86097500D01*
X75201100Y86338600D02*
X81208900Y86338600D01*
D63*
X81450000Y86097500D02*
X81677500Y85870000D01*
D61*
X75201100Y86338600D02*
X74380000Y85517500D01*
X74380000Y85517500D02*
X72395000Y85517500D01*
D63*
X83397500Y85870000D02*
X83520000Y85747500D01*
%TO.N,Net-(Q4-G)*%
X56070000Y87400000D02*
X56070000Y85667500D01*
X56070000Y85667500D02*
X56062500Y85660000D01*
%TO.N,Net-(U8--)*%
X30637500Y93297500D02*
X31032500Y93297500D01*
X30400000Y94835000D02*
X31050000Y94185000D01*
X31050000Y94185000D02*
X31050000Y93315000D01*
X29132500Y91792500D02*
X30637500Y93297500D01*
X29132500Y91022500D02*
X29132500Y91792500D01*
X30400000Y95800000D02*
X30400000Y94835000D01*
%TO.N,Net-(Q3-G)*%
X10830000Y96007500D02*
X10830000Y98310000D01*
%TO.N,Net-(Q3-D)*%
D64*
X9880000Y92220000D02*
X9880000Y94132500D01*
X12570000Y89970000D02*
X12570000Y91870000D01*
X12570000Y91870000D02*
X10230000Y91870000D01*
X10230000Y91870000D02*
X9880000Y92220000D01*
%TO.N,Net-(D11-A)*%
D63*
X89600000Y99292411D02*
X89217589Y98910000D01*
X85130000Y104250000D02*
X89004659Y104250000D01*
X89004659Y104250000D02*
X89600000Y103654659D01*
X89600000Y103010000D02*
X89600000Y99292411D01*
X89217589Y98910000D02*
X88767500Y98910000D01*
X89600000Y103654659D02*
X89600000Y103010000D01*
%TO.N,Net-(K3-Pad5)*%
X97160000Y112017500D02*
X97160000Y109050000D01*
%TO.N,/main core/Prog_OK*%
X64480000Y45520000D02*
X45362385Y45520000D01*
D61*
X64180000Y101170000D02*
X64480000Y100870000D01*
D63*
X45362385Y45520000D02*
X44159188Y46723197D01*
D61*
X64480000Y100870000D02*
X64480000Y100200000D01*
X64480000Y100200000D02*
X64580000Y100100000D01*
D63*
X62520000Y102830000D02*
X62520000Y105341400D01*
X44159188Y46723197D02*
X36959188Y46723197D01*
X64180000Y101170000D02*
X62520000Y102830000D01*
%TO.N,Net-(U6--)*%
D61*
X70425000Y89535000D02*
X72262500Y91372500D01*
X72325000Y91447500D02*
X72325000Y93550000D01*
%TO.N,Net-(U6-+)*%
D62*
X70285000Y86537500D02*
X72395000Y86537500D01*
X72395000Y86537500D02*
X72395000Y89102500D01*
%TO.N,/main core/POWER_EN*%
D63*
X54730000Y107650000D02*
X54000000Y108380000D01*
X56087574Y107650000D02*
X54730000Y107650000D01*
X54000000Y108380000D02*
X53180000Y108380000D01*
X56616474Y108178900D02*
X56087574Y107650000D01*
X57182500Y108178900D02*
X56616474Y108178900D01*
%TO.N,Net-(R34-Pad2)*%
D64*
X52160000Y108380000D02*
X52160000Y107560000D01*
X51020000Y106420000D02*
X48830000Y106420000D01*
X52160000Y107560000D02*
X51020000Y106420000D01*
%TO.N,Net-(BZ1-+)*%
D62*
X82580000Y118510000D02*
X85132500Y118510000D01*
X85140000Y118502500D02*
X88878880Y118502500D01*
%TO.N,Net-(BZ1--)*%
X85140000Y115202500D02*
X88726500Y115202500D01*
X86187500Y114155000D02*
X85140000Y115202500D01*
X86187500Y111760000D02*
X86187500Y114155000D01*
%TO.N,/main core/Buzzer_NOK*%
D63*
X77993295Y27838183D02*
X85193295Y27838183D01*
X60020000Y112016400D02*
X60020000Y113460000D01*
X85193295Y27838183D02*
X82880000Y27838183D01*
X60020000Y113460000D02*
X60280000Y113720000D01*
X60280000Y113720000D02*
X60280000Y115470000D01*
D61*
X68780000Y116140000D02*
X68780000Y115470000D01*
%TO.N,/main core/Motor_NOK*%
D63*
X68858900Y107678900D02*
X68930000Y107750000D01*
X68930000Y107750000D02*
X68930000Y108520000D01*
X77993295Y65083183D02*
X85193295Y65083183D01*
X63857500Y107678900D02*
X68858900Y107678900D01*
X87400000Y65090000D02*
X85200112Y65090000D01*
%TO.N,/main core/Buzzer*%
D62*
X80730000Y112190000D02*
X81860000Y112190000D01*
D63*
X60965000Y103760000D02*
X60520000Y104205000D01*
D62*
X82380000Y112710000D02*
X84312500Y112710000D01*
D63*
X60520000Y104205000D02*
X60520000Y105341400D01*
D62*
X81860000Y112190000D02*
X82380000Y112710000D01*
X80624107Y112192333D02*
X80727667Y112192333D01*
X80727667Y112192333D02*
X80730000Y112190000D01*
%TO.N,/main core/+3V3test_check*%
X29830000Y112451400D02*
X28087500Y112451400D01*
D63*
X58180332Y114529668D02*
X58180332Y114690332D01*
D62*
X29077500Y112393900D02*
X29887500Y112393900D01*
D63*
X58180332Y114529668D02*
X58520000Y114190000D01*
D62*
X29020000Y112451400D02*
X29077500Y112393900D01*
D63*
X58520000Y112016400D02*
X58520000Y114190000D01*
%TO.N,Net-(R45-Pad1)*%
X96140000Y112017500D02*
X96140000Y113580000D01*
%TO.N,/main core/DUT stage/ExtVUSB_DUT*%
X34375000Y79692500D02*
X34375000Y80985000D01*
X34375000Y80985000D02*
X36951100Y83561100D01*
X36951100Y83561100D02*
X36951100Y87963600D01*
%TO.N,/main core/DUT stage/ThermalPin_DUT*%
X36575000Y80285000D02*
X36575000Y73692500D01*
X39425000Y83135000D02*
X36575000Y80285000D01*
X39425000Y87897500D02*
X39425000Y83135000D01*
%TO.N,/main core/LED#1*%
X55678900Y106678900D02*
X57182500Y106678900D01*
X41119339Y56707784D02*
X40337784Y56707784D01*
X55080000Y106080000D02*
X55678900Y106678900D01*
X55080000Y104620000D02*
X55080000Y106080000D01*
%TO.N,Net-(C36-Pad1)*%
X32050000Y96777500D02*
X33742500Y96777500D01*
X30400000Y96820000D02*
X32007500Y96820000D01*
%TO.N,Net-(Q6-G)*%
X84430000Y99830000D02*
X86862500Y99830000D01*
%TO.N,/VBUS*%
D65*
X21520000Y4139711D02*
X21920000Y4539711D01*
X18220000Y4139711D02*
X21520000Y4139711D01*
X17580000Y6539305D02*
X17580000Y4779711D01*
D66*
X17380000Y7349711D02*
X17380000Y9670000D01*
D65*
X17380000Y6739305D02*
X17580000Y6539305D01*
D66*
X16220000Y10830000D02*
X16220000Y13420000D01*
D65*
X21920000Y6423777D02*
X22051000Y6554777D01*
D66*
X17380000Y9670000D02*
X16220000Y10830000D01*
X16220000Y13420000D02*
X14150000Y15490000D01*
D65*
X17580000Y4779711D02*
X18220000Y4139711D01*
X22051000Y6554777D02*
X22051000Y7084311D01*
X17380000Y7349711D02*
X17380000Y6739305D01*
X21920000Y4539711D02*
X21920000Y6423777D01*
%TO.N,/D+*%
D61*
X21220000Y5089711D02*
X21220000Y5639711D01*
X21220000Y5639711D02*
X20550000Y6309711D01*
X19020000Y5629711D02*
X19550000Y6159711D01*
X19550000Y8459711D02*
X19200000Y8809711D01*
X19550000Y6159711D02*
X19550000Y7233311D01*
X20550000Y6309711D02*
X20550000Y7233311D01*
X19020000Y5139711D02*
X19020000Y5629711D01*
X19200000Y8809711D02*
X19200000Y11393311D01*
X19550000Y7233311D02*
X19550000Y8459711D01*
%TO.N,/D-*%
X18420000Y5939711D02*
X19050000Y6569711D01*
X20550000Y8869711D02*
X20550000Y11393311D01*
X20050000Y7233311D02*
X20050000Y8369711D01*
X19050000Y7233311D02*
X19050000Y6569711D01*
X20092159Y6117552D02*
X20092159Y5944194D01*
X20092159Y5944194D02*
X20085943Y5937978D01*
X20050000Y6159711D02*
X20092159Y6117552D01*
X20050000Y8369711D02*
X20550000Y8869711D01*
X20050000Y7233311D02*
X20050000Y6159711D01*
%TO.N,Net-(D3-A)*%
D63*
X41736233Y31957434D02*
X44667533Y31957434D01*
%TO.N,/main core/LED#3*%
X58020000Y104510000D02*
X58020000Y105341400D01*
X57375000Y103865000D02*
X58020000Y104510000D01*
D61*
X39891542Y31957434D02*
X40716233Y31957434D01*
D63*
X57375000Y103203252D02*
X57375000Y103865000D01*
%TO.N,/main core/VccRGB_check*%
X59020000Y115330488D02*
X59018098Y115332390D01*
X59024161Y115326327D02*
X59024161Y115194161D01*
X35450000Y95780000D02*
X36480000Y95780000D01*
X36432500Y95692500D02*
X36500000Y95760000D01*
X59020000Y112016400D02*
X59020000Y115330488D01*
X36480000Y95780000D02*
X36500000Y95760000D01*
X59024161Y115194161D02*
X59020000Y115190000D01*
X35450000Y95692500D02*
X33807500Y95692500D01*
X59018098Y115332390D02*
X59024161Y115326327D01*
%TO.N,Net-(U9-S+)*%
X84762500Y88220000D02*
X84552500Y88010000D01*
X86847500Y88010000D02*
X86637500Y88220000D01*
X86637500Y88220000D02*
X84762500Y88220000D01*
%TO.N,Net-(D7-A)*%
X65025683Y6825683D02*
X71274495Y6825683D01*
X65020000Y6820000D02*
X65025683Y6825683D01*
X64810000Y6820000D02*
X65020000Y6820000D01*
%TO.N,/main core/PDI_DATA*%
X63700000Y113510000D02*
X63020000Y112830000D01*
X64150000Y113510000D02*
X63700000Y113510000D01*
X63020000Y112830000D02*
X63020000Y112016400D01*
%TO.N,/main core/PDI_CLOCK*%
X62520000Y113201270D02*
X62520000Y112016400D01*
X63407133Y114088403D02*
X62520000Y113201270D01*
X63612387Y114088403D02*
X63407133Y114088403D01*
%TO.N,/main core/RED_LED*%
X38276100Y108413600D02*
X41041400Y111178900D01*
X41041400Y111178900D02*
X57182500Y111178900D01*
%TO.N,/main core/PASS*%
X59520000Y103360000D02*
X59940000Y102940000D01*
X59520000Y105341400D02*
X59520000Y103360000D01*
X63780000Y5770000D02*
X63780000Y6810000D01*
%TO.N,/main core/RGBW_OK*%
X65021100Y106178900D02*
X63857500Y106178900D01*
X75268295Y46403183D02*
X68068295Y46403183D01*
X65830000Y105020000D02*
X65830000Y105370000D01*
X65096817Y46403183D02*
X68068295Y46403183D01*
D61*
X65880000Y104200000D02*
X65880000Y104970000D01*
D63*
X65080000Y46420000D02*
X65096817Y46403183D01*
X65830000Y105370000D02*
X65021100Y106178900D01*
D61*
X65880000Y104970000D02*
X65830000Y105020000D01*
%TO.N,/main core/LED#2*%
X40716233Y35163434D02*
X39847542Y35163434D01*
D63*
X56815000Y102620000D02*
X56815000Y105811400D01*
X56815000Y105811400D02*
X57182500Y106178900D01*
D61*
X39847542Y35163434D02*
X39838345Y35154237D01*
%TO.N,/main core/VUSB_2DUT*%
D63*
X10830000Y99330000D02*
X10830000Y99990000D01*
X59020000Y101430000D02*
X59020000Y105341400D01*
%TO.N,/main core/FAIL*%
X63760000Y9300000D02*
X63780000Y9320000D01*
X60020000Y105341400D02*
X60020000Y103810000D01*
X60020000Y103810000D02*
X60870000Y102960000D01*
X63760000Y8250000D02*
X63760000Y9300000D01*
%TO.N,Net-(D8-A)*%
X64950000Y8420000D02*
X79717678Y8420000D01*
X64780000Y8250000D02*
X64950000Y8420000D01*
X79717678Y8420000D02*
X81236995Y6900683D01*
%TO.N,/main core/OSC*%
D61*
X61600000Y114190000D02*
X62530000Y115120000D01*
X61600000Y112655356D02*
X61600000Y114190000D01*
X61520000Y112016400D02*
X61520000Y112575356D01*
X61520000Y112575356D02*
X61600000Y112655356D01*
X62530000Y115120000D02*
X62530000Y115952490D01*
%TD*%
%TA.AperFunction,Conductor*%
%TO.N,+3V3*%
G36*
X27723039Y82590315D02*
G01*
X27768794Y82537511D01*
X27780000Y82486000D01*
X27780000Y79309000D01*
X27760315Y79241961D01*
X27707511Y79196206D01*
X27656000Y79185000D01*
X26817941Y79185000D01*
X26750902Y79204685D01*
X26705147Y79257489D01*
X26698168Y79276902D01*
X26689340Y79309848D01*
X26648462Y79380651D01*
X26590651Y79438462D01*
X26296818Y79732295D01*
X26263333Y79793618D01*
X26260499Y79819976D01*
X26260499Y80019895D01*
X26260499Y80019900D01*
X26253972Y80069487D01*
X26203224Y80178316D01*
X26118316Y80263224D01*
X26009487Y80313972D01*
X26009485Y80313973D01*
X26009486Y80313973D01*
X25959902Y80320500D01*
X25600102Y80320500D01*
X25591746Y80319400D01*
X25590459Y80319231D01*
X25521425Y80329999D01*
X25475964Y80370352D01*
X25474499Y80369215D01*
X25469714Y80375384D01*
X25355383Y80489715D01*
X25355374Y80489722D01*
X25216193Y80572033D01*
X25216190Y80572035D01*
X25070001Y80614507D01*
X25070000Y80614506D01*
X25070000Y79934000D01*
X25050315Y79866961D01*
X24997511Y79821206D01*
X24946000Y79810000D01*
X24820000Y79810000D01*
X24820000Y79684000D01*
X24800315Y79616961D01*
X24747511Y79571206D01*
X24696000Y79560000D01*
X24041210Y79560000D01*
X24042854Y79539090D01*
X24087968Y79383805D01*
X24087968Y79383804D01*
X24094878Y79372121D01*
X24112061Y79304397D01*
X24089901Y79238134D01*
X24035434Y79194371D01*
X23988146Y79185000D01*
X22724000Y79185000D01*
X22656961Y79204685D01*
X22611206Y79257489D01*
X22600000Y79309000D01*
X22600000Y80060001D01*
X24041209Y80060001D01*
X24041210Y80060000D01*
X24570000Y80060000D01*
X24570000Y80614506D01*
X24569998Y80614507D01*
X24423809Y80572035D01*
X24423806Y80572033D01*
X24284625Y80489722D01*
X24284616Y80489715D01*
X24170285Y80375384D01*
X24170278Y80375375D01*
X24087968Y80236196D01*
X24087966Y80236191D01*
X24042855Y80080919D01*
X24042854Y80080913D01*
X24041209Y80060001D01*
X22600000Y80060001D01*
X22600000Y82486000D01*
X22619685Y82553039D01*
X22672489Y82598794D01*
X22724000Y82610000D01*
X27656000Y82610000D01*
X27723039Y82590315D01*
G37*
%TD.AperFunction*%
%TD*%
%TA.AperFunction,Conductor*%
%TO.N,GND*%
G36*
X61528859Y118520230D02*
G01*
X61574614Y118467426D01*
X61585820Y118415915D01*
X61585820Y114659224D01*
X61566135Y114592185D01*
X61549501Y114571543D01*
X61355541Y114377584D01*
X61355535Y114377575D01*
X61315321Y114307925D01*
X61315320Y114307923D01*
X61294500Y114230220D01*
X61294500Y113172239D01*
X61274815Y113105200D01*
X61222011Y113059445D01*
X61154314Y113049300D01*
X61145000Y113050527D01*
X61145000Y112199915D01*
X60895000Y112199915D01*
X60895000Y113103601D01*
X60894500Y113107161D01*
X60894500Y113121096D01*
X60914185Y113188135D01*
X60930819Y113208777D01*
X60939461Y113217419D01*
X60952879Y113240660D01*
X60979681Y113287081D01*
X61000500Y113364780D01*
X61000500Y114697096D01*
X61020185Y114764135D01*
X61036819Y114784777D01*
X61154461Y114902419D01*
X61175462Y114938794D01*
X61194681Y114972081D01*
X61215500Y115049780D01*
X61215500Y116070220D01*
X61194681Y116147919D01*
X61154461Y116217581D01*
X61097581Y116274461D01*
X61026819Y116345223D01*
X60993334Y116406546D01*
X60990500Y116432904D01*
X60990500Y117290107D01*
X60990500Y117290109D01*
X60969681Y117367808D01*
X60929461Y117437470D01*
X60872581Y117494350D01*
X60262688Y118104243D01*
X60248028Y118131089D01*
X60231447Y118156802D01*
X60230524Y118163146D01*
X60229203Y118165566D01*
X60226369Y118191729D01*
X60226016Y118415720D01*
X60245595Y118482790D01*
X60298327Y118528628D01*
X60350016Y118539915D01*
X61461820Y118539915D01*
X61528859Y118520230D01*
G37*
%TD.AperFunction*%
%TD*%
D69*
X-5000000Y129360000D02*
X0Y134360000D01*
X-5000000Y106760000D02*
X-5000000Y129360000D01*
X-5000000Y100760000D02*
X-4720000Y101040000D01*
X-5000000Y98560000D02*
X-5000000Y100760000D01*
X-4720000Y106480000D02*
X-5000000Y106760000D01*
X-4720000Y101040000D02*
X-4720000Y106480000D01*
X-3600000Y97160000D02*
X-5000000Y98560000D01*
X-3600000Y87960000D02*
X-3600000Y97160000D01*
X0Y134360000D02*
X36000000Y134360000D01*
X0Y84360000D02*
X-3600000Y87960000D01*
X0Y84360000D02*
X0Y0D01*
X36000000Y134360000D02*
X62000000Y134360000D01*
X62000000Y134360000D02*
X98000000Y134360000D01*
X98000000Y134360000D02*
X103000000Y129360000D01*
X98000000Y84410000D02*
X98000000Y0D01*
X98000000Y0D02*
X0Y0D01*
X103000000Y129360000D02*
X103000000Y89410000D01*
X103000000Y89410000D02*
X98000000Y84410000D01*
M02*
