%TF.GenerationSoftware,KiCad,Pcbnew,10.0.1*%
%TF.CreationDate,2026-05-15T16:00:14+01:00*%
%TF.ProjectId,FED3 tester,46454433-2074-4657-9374-65722e6b6963,rev?*%
%TF.SameCoordinates,PX3adc5c0PY972d2c0*%
%TF.FileFunction,Other,User*%
%FSLAX46Y46*%
G04 Gerber Fmt 4.6, Leading zero omitted, Abs format (unit mm)*
G04 Created by KiCad (PCBNEW 10.0.1) date 2026-05-15 16:00:14*
%MOMM*%
%LPD*%
G01*
G04 APERTURE LIST*
%ADD10C,0.050000*%
%TA.AperFunction,Profile*%
%ADD11C,0.250000*%
%TD*%
G04 APERTURE END LIST*
%TO.C,R48*%
D10*
X83150000Y98330000D02*
X85010000Y98330000D01*
X85010000Y97390000D01*
X83150000Y97390000D01*
X83150000Y98330000D01*
%TO.C,C6*%
X24290000Y71370000D02*
X26110000Y71370000D01*
X26110000Y70450000D01*
X24290000Y70450000D01*
X24290000Y71370000D01*
%TO.C,C12*%
X56502500Y118620000D02*
X57962500Y118620000D01*
X57962500Y115660000D01*
X56502500Y115660000D01*
X56502500Y118620000D01*
%TO.C,R8*%
X16810000Y75350000D02*
X17750000Y75350000D01*
X17750000Y73490000D01*
X16810000Y73490000D01*
X16810000Y75350000D01*
%TO.C,R32*%
X29620000Y89505000D02*
X31480000Y89505000D01*
X31480000Y88565000D01*
X29620000Y88565000D01*
X29620000Y89505000D01*
%TO.C,Q2*%
X13360000Y96540000D02*
X14130000Y96540000D01*
X13360000Y95080000D02*
X13360000Y96540000D01*
X13480000Y95080000D02*
X13360000Y95080000D01*
X13480000Y94360000D02*
X13480000Y95080000D01*
X14130000Y97260000D02*
X14790000Y97260000D01*
X14130000Y96540000D02*
X14130000Y97260000D01*
X14140000Y95080000D02*
X14140000Y94360000D01*
X14140000Y94360000D02*
X13480000Y94360000D01*
X14780000Y95080000D02*
X14140000Y95080000D01*
X14780000Y94360000D02*
X14780000Y95080000D01*
X14790000Y97260000D02*
X14790000Y96540000D01*
X14790000Y96540000D02*
X15560000Y96540000D01*
X15440000Y95080000D02*
X15440000Y94360000D01*
X15440000Y94360000D02*
X14780000Y94360000D01*
X15560000Y96540000D02*
X15560000Y95080000D01*
X15560000Y95080000D02*
X15440000Y95080000D01*
%TO.C,R22*%
X24317500Y113891400D02*
X25257500Y113891400D01*
X25257500Y112031400D01*
X24317500Y112031400D01*
X24317500Y113891400D01*
%TO.C,C31*%
X71115000Y95670000D02*
X72935000Y95670000D01*
X72935000Y94750000D01*
X71115000Y94750000D01*
X71115000Y95670000D01*
%TO.C,R7*%
X16550000Y73160000D02*
X18010000Y73160000D01*
X18010000Y70200000D01*
X16550000Y70200000D01*
X16550000Y73160000D01*
%TO.C,R14*%
X8672500Y82700000D02*
X10532500Y82700000D01*
X10532500Y81760000D01*
X8672500Y81760000D01*
X8672500Y82700000D01*
%TO.C,R3*%
X21430000Y12833311D02*
X22370000Y12833311D01*
X22370000Y10973311D01*
X21430000Y10973311D01*
X21430000Y12833311D01*
%TO.C,C32*%
X71065000Y98970000D02*
X72885000Y98970000D01*
X72885000Y98050000D01*
X71065000Y98050000D01*
X71065000Y98970000D01*
%TO.C,D2*%
X44040033Y35862434D02*
X47000033Y35862434D01*
X47000033Y34402434D01*
X44040033Y34402434D01*
X44040033Y35862434D01*
%TO.C,U1*%
X18590000Y26069711D02*
X19260000Y26069711D01*
X18590000Y20269711D02*
X18590000Y26069711D01*
X19260000Y27869711D02*
X28620000Y27869711D01*
X19260000Y26069711D02*
X19260000Y27869711D01*
X19260000Y20269711D02*
X18590000Y20269711D01*
X19260000Y18469711D02*
X19260000Y20269711D01*
X28620000Y27869711D02*
X28620000Y26069711D01*
X28620000Y26069711D02*
X29290000Y26069711D01*
X28620000Y20269711D02*
X28620000Y18469711D01*
X28620000Y18469711D02*
X19260000Y18469711D01*
X29290000Y26069711D02*
X29290000Y20269711D01*
X29290000Y20269711D02*
X28620000Y20269711D01*
%TO.C,TP7*%
X35746756Y93363600D02*
G75*
G02*
X33305444Y93363600I-1220656J0D01*
G01*
X33305444Y93363600D02*
G75*
G02*
X35746756Y93363600I1220656J0D01*
G01*
%TO.C,C4*%
X13740000Y10013311D02*
X15560000Y10013311D01*
X15560000Y9093311D01*
X13740000Y9093311D01*
X13740000Y10013311D01*
%TO.C,C5*%
X13740000Y11463311D02*
X15560000Y11463311D01*
X15560000Y10543311D01*
X13740000Y10543311D01*
X13740000Y11463311D01*
%TO.C,TP3*%
X18421756Y109538600D02*
G75*
G02*
X15980444Y109538600I-1220656J0D01*
G01*
X15980444Y109538600D02*
G75*
G02*
X18421756Y109538600I1220656J0D01*
G01*
%TO.C,R40*%
X40705000Y70912500D02*
X41645000Y70912500D01*
X41645000Y69052500D01*
X40705000Y69052500D01*
X40705000Y70912500D01*
%TO.C,R44*%
X88280000Y91950000D02*
X89220000Y91950000D01*
X89220000Y90090000D01*
X88280000Y90090000D01*
X88280000Y91950000D01*
%TO.C,D1*%
X44403139Y57437784D02*
X47363139Y57437784D01*
X47363139Y55977784D01*
X44403139Y55977784D01*
X44403139Y57437784D01*
%TO.C,C27*%
X68570000Y109780000D02*
X70390000Y109780000D01*
X70390000Y108860000D01*
X68570000Y108860000D01*
X68570000Y109780000D01*
%TO.C,R6*%
X13720000Y12823311D02*
X15580000Y12823311D01*
X15580000Y11883311D01*
X13720000Y11883311D01*
X13720000Y12823311D01*
%TO.C,R25*%
X15907500Y114505000D02*
X17767500Y114505000D01*
X17767500Y113565000D01*
X15907500Y113565000D01*
X15907500Y114505000D01*
%TO.C,TP11*%
X34471756Y101588600D02*
G75*
G02*
X32030444Y101588600I-1220656J0D01*
G01*
X32030444Y101588600D02*
G75*
G02*
X34471756Y101588600I1220656J0D01*
G01*
%TO.C,R35*%
X83100000Y90217500D02*
X84960000Y90217500D01*
X84960000Y89277500D01*
X83100000Y89277500D01*
X83100000Y90217500D01*
%TO.C,R1*%
X17380000Y12833311D02*
X18320000Y12833311D01*
X18320000Y10973311D01*
X17380000Y10973311D01*
X17380000Y12833311D01*
%TO.C,C35*%
X28190000Y97220000D02*
X29110000Y97220000D01*
X29110000Y95400000D01*
X28190000Y95400000D01*
X28190000Y97220000D01*
%TO.C,Q5*%
X36500000Y70432500D02*
X36700000Y70432500D01*
X36500000Y68632500D02*
X36500000Y70432500D01*
X36700000Y71462500D02*
X37810000Y71462500D01*
X36700000Y70432500D02*
X36700000Y71462500D01*
X37650000Y68632500D02*
X36500000Y68632500D01*
X37650000Y67602500D02*
X37650000Y68632500D01*
X37810000Y71462500D02*
X37810000Y70432500D01*
X37810000Y70432500D02*
X38590000Y70432500D01*
X38590000Y71462500D02*
X39700000Y71462500D01*
X38590000Y70432500D02*
X38590000Y71462500D01*
X38750000Y68632500D02*
X38750000Y67602500D01*
X38750000Y67602500D02*
X37650000Y67602500D01*
X39700000Y71462500D02*
X39700000Y70432500D01*
X39700000Y70432500D02*
X39900000Y70432500D01*
X39900000Y70432500D02*
X39900000Y68632500D01*
X39900000Y68632500D02*
X38750000Y68632500D01*
%TO.C,R12*%
X40336233Y29252434D02*
X42196233Y29252434D01*
X42196233Y28312434D01*
X40336233Y28312434D01*
X40336233Y29252434D01*
%TO.C,C23*%
X66720000Y105730000D02*
X67640000Y105730000D01*
X67640000Y103910000D01*
X66720000Y103910000D01*
X66720000Y105730000D01*
%TO.C,C16*%
X62420000Y100530000D02*
X63340000Y100530000D01*
X63340000Y98710000D01*
X62420000Y98710000D01*
X62420000Y100530000D01*
%TO.C,TP4*%
X98921756Y97463600D02*
G75*
G02*
X96480444Y97463600I-1220656J0D01*
G01*
X96480444Y97463600D02*
G75*
G02*
X98921756Y97463600I1220656J0D01*
G01*
%TO.C,C29*%
X68190000Y92920000D02*
X69110000Y92920000D01*
X69110000Y91100000D01*
X68190000Y91100000D01*
X68190000Y92920000D01*
%TO.C,C25*%
X66970000Y107080000D02*
X68790000Y107080000D01*
X68790000Y106160000D01*
X66970000Y106160000D01*
X66970000Y107080000D01*
%TO.C,R42*%
X55610000Y91640000D02*
X56550000Y91640000D01*
X56550000Y89780000D01*
X55610000Y89780000D01*
X55610000Y91640000D01*
%TO.C,SW3*%
X45834188Y47698197D02*
X55134188Y47698197D01*
X45834188Y42698197D02*
X45834188Y47698197D01*
X55134188Y47698197D02*
X55134188Y42698197D01*
X55134188Y42698197D02*
X45834188Y42698197D01*
%TO.C,D10*%
X41915000Y78970000D02*
X44215000Y78970000D01*
X41915000Y74270000D02*
X41915000Y78970000D01*
X41915000Y74270000D02*
X44215000Y74270000D01*
X44215000Y78970000D02*
X44215000Y74270000D01*
%TO.C,J6*%
X46300000Y140960000D02*
X46300000Y128660000D01*
X46300000Y128660000D02*
X60000000Y128660000D01*
X60000000Y140960000D02*
X46300000Y140960000D01*
X60000000Y128660000D02*
X60000000Y140960000D01*
%TO.C,TP10*%
X-2053244Y114813600D02*
G75*
G02*
X-4494556Y114813600I-1220656J0D01*
G01*
X-4494556Y114813600D02*
G75*
G02*
X-2053244Y114813600I1220656J0D01*
G01*
%TO.C,C8*%
X24145000Y78690000D02*
X27105000Y78690000D01*
X27105000Y77230000D01*
X24145000Y77230000D01*
X24145000Y78690000D01*
%TO.C,SW5*%
X76943295Y47403183D02*
X86243295Y47403183D01*
X76943295Y42403183D02*
X76943295Y47403183D01*
X86243295Y47403183D02*
X86243295Y42403183D01*
X86243295Y42403183D02*
X76943295Y42403183D01*
%TO.C,K1*%
X58050000Y82560000D02*
X58050000Y72060000D01*
X58050000Y72060000D02*
X66550000Y72060000D01*
X66550000Y82560000D02*
X58050000Y82560000D01*
X66550000Y72060000D02*
X66550000Y82560000D01*
%TO.C,R41*%
X6810000Y111600000D02*
X7750000Y111600000D01*
X7750000Y109740000D01*
X6810000Y109740000D01*
X6810000Y111600000D01*
%TO.C,R37*%
X83100000Y86217500D02*
X84960000Y86217500D01*
X84960000Y85277500D01*
X83100000Y85277500D01*
X83100000Y86217500D01*
%TO.C,R39*%
X55600000Y88840000D02*
X56540000Y88840000D01*
X56540000Y86980000D01*
X55600000Y86980000D01*
X55600000Y88840000D01*
%TO.C,U8*%
X28382500Y93210000D02*
X28582500Y93210000D01*
X28382500Y91110000D02*
X28382500Y93210000D01*
X28582500Y94210000D02*
X29692500Y94210000D01*
X28582500Y93210000D02*
X28582500Y94210000D01*
X28582500Y91110000D02*
X28382500Y91110000D01*
X28582500Y90110000D02*
X28582500Y91110000D01*
X29692500Y94210000D02*
X29692500Y93210000D01*
X29692500Y93210000D02*
X30472500Y93210000D01*
X30472500Y94210000D02*
X31582500Y94210000D01*
X30472500Y93210000D02*
X30472500Y94210000D01*
X31582500Y94210000D02*
X31582500Y93210000D01*
X31582500Y93210000D02*
X31782500Y93210000D01*
X31582500Y91110000D02*
X31582500Y90110000D01*
X31582500Y90110000D02*
X28582500Y90110000D01*
X31782500Y93210000D02*
X31782500Y91110000D01*
X31782500Y91110000D02*
X31582500Y91110000D01*
%TO.C,Q3*%
X8180000Y95970000D02*
X8380000Y95970000D01*
X8180000Y94170000D02*
X8180000Y95970000D01*
X8380000Y97000000D02*
X9490000Y97000000D01*
X8380000Y95970000D02*
X8380000Y97000000D01*
X9330000Y94170000D02*
X8180000Y94170000D01*
X9330000Y93140000D02*
X9330000Y94170000D01*
X9490000Y97000000D02*
X9490000Y95970000D01*
X9490000Y95970000D02*
X10270000Y95970000D01*
X10270000Y97000000D02*
X11380000Y97000000D01*
X10270000Y95970000D02*
X10270000Y97000000D01*
X10430000Y94170000D02*
X10430000Y93140000D01*
X10430000Y93140000D02*
X9330000Y93140000D01*
X11380000Y97000000D02*
X11380000Y95970000D01*
X11380000Y95970000D02*
X11580000Y95970000D01*
X11580000Y95970000D02*
X11580000Y94170000D01*
X11580000Y94170000D02*
X10430000Y94170000D01*
%TO.C,K3*%
X88350000Y110260000D02*
X88350000Y101760000D01*
X88350000Y101760000D02*
X98850000Y101760000D01*
X98850000Y110260000D02*
X88350000Y110260000D01*
X98850000Y101760000D02*
X98850000Y110260000D01*
%TO.C,R26*%
X12150000Y90440000D02*
X14010000Y90440000D01*
X14010000Y89500000D01*
X12150000Y89500000D01*
X12150000Y90440000D01*
%TO.C,SW2*%
X35909188Y47723197D02*
X45209188Y47723197D01*
X35909188Y42723197D02*
X35909188Y47723197D01*
X45209188Y47723197D02*
X45209188Y42723197D01*
X45209188Y42723197D02*
X35909188Y42723197D01*
%TO.C,U6*%
X69675000Y91360000D02*
X69875000Y91360000D01*
X69675000Y89260000D02*
X69675000Y91360000D01*
X69875000Y92360000D02*
X70985000Y92360000D01*
X69875000Y91360000D02*
X69875000Y92360000D01*
X69875000Y89260000D02*
X69675000Y89260000D01*
X69875000Y88260000D02*
X69875000Y89260000D01*
X70985000Y92360000D02*
X70985000Y91360000D01*
X70985000Y91360000D02*
X71765000Y91360000D01*
X71765000Y92360000D02*
X72875000Y92360000D01*
X71765000Y91360000D02*
X71765000Y92360000D01*
X72875000Y92360000D02*
X72875000Y91360000D01*
X72875000Y91360000D02*
X73075000Y91360000D01*
X72875000Y89260000D02*
X72875000Y88260000D01*
X72875000Y88260000D02*
X69875000Y88260000D01*
X73075000Y91360000D02*
X73075000Y89260000D01*
X73075000Y89260000D02*
X72875000Y89260000D01*
%TO.C,R34*%
X51740000Y108850000D02*
X53600000Y108850000D01*
X53600000Y107910000D01*
X51740000Y107910000D01*
X51740000Y108850000D01*
%TO.C,D5*%
X83990000Y114502500D02*
X83990000Y119202500D01*
X86290000Y119202500D02*
X83990000Y119202500D01*
X86290000Y119202500D02*
X86290000Y114502500D01*
X86290000Y114502500D02*
X83990000Y114502500D01*
%TO.C,SW9*%
X76943295Y28838183D02*
X86243295Y28838183D01*
X76943295Y23838183D02*
X76943295Y28838183D01*
X86243295Y28838183D02*
X86243295Y23838183D01*
X86243295Y23838183D02*
X76943295Y23838183D01*
%TO.C,L2*%
X23960000Y67360000D02*
X27320000Y67360000D01*
X27320000Y65460000D01*
X23960000Y65460000D01*
X23960000Y67360000D01*
%TO.C,SW7*%
X76943295Y66083183D02*
X86243295Y66083183D01*
X76943295Y61083183D02*
X76943295Y66083183D01*
X86243295Y66083183D02*
X86243295Y61083183D01*
X86243295Y61083183D02*
X76943295Y61083183D01*
%TO.C,R20*%
X70995000Y94130000D02*
X72855000Y94130000D01*
X72855000Y93190000D01*
X70995000Y93190000D01*
X70995000Y94130000D01*
%TO.C,Q1*%
X83320000Y113260000D02*
X84350000Y113260000D01*
X83320000Y112150000D02*
X83320000Y113260000D01*
X83320000Y111370000D02*
X84350000Y111370000D01*
X83320000Y110260000D02*
X83320000Y111370000D01*
X84350000Y113460000D02*
X86150000Y113460000D01*
X84350000Y113260000D02*
X84350000Y113460000D01*
X84350000Y112150000D02*
X83320000Y112150000D01*
X84350000Y111370000D02*
X84350000Y112150000D01*
X84350000Y110260000D02*
X83320000Y110260000D01*
X84350000Y110060000D02*
X84350000Y110260000D01*
X86150000Y113460000D02*
X86150000Y112310000D01*
X86150000Y112310000D02*
X87180000Y112310000D01*
X86150000Y111210000D02*
X86150000Y110060000D01*
X86150000Y110060000D02*
X84350000Y110060000D01*
X87180000Y112310000D02*
X87180000Y111210000D01*
X87180000Y111210000D02*
X86150000Y111210000D01*
%TO.C,C34*%
X29427500Y113871400D02*
X30347500Y113871400D01*
X30347500Y112051400D01*
X29427500Y112051400D01*
X29427500Y113871400D01*
%TO.C,R21*%
X71045000Y97430000D02*
X72905000Y97430000D01*
X72905000Y96490000D01*
X71045000Y96490000D01*
X71045000Y97430000D01*
%TO.C,R49*%
X95720000Y114050000D02*
X97580000Y114050000D01*
X97580000Y113110000D01*
X95720000Y113110000D01*
X95720000Y114050000D01*
%TO.C,K2*%
X30525000Y80942500D02*
X30525000Y72442500D01*
X30525000Y72442500D02*
X41025000Y72442500D01*
X41025000Y80942500D02*
X30525000Y80942500D01*
X41025000Y72442500D02*
X41025000Y80942500D01*
%TO.C,R9*%
X40699339Y57177784D02*
X42559339Y57177784D01*
X42559339Y56237784D01*
X40699339Y56237784D01*
X40699339Y57177784D01*
%TO.C,R28*%
X12150000Y92340000D02*
X14010000Y92340000D01*
X14010000Y91400000D01*
X12150000Y91400000D01*
X12150000Y92340000D01*
%TO.C,C26*%
X68470000Y108180000D02*
X70290000Y108180000D01*
X70290000Y107260000D01*
X68470000Y107260000D01*
X68470000Y108180000D01*
%TO.C,TP5*%
X76221756Y111563600D02*
G75*
G02*
X73780444Y111563600I-1220656J0D01*
G01*
X73780444Y111563600D02*
G75*
G02*
X76221756Y111563600I1220656J0D01*
G01*
%TO.C,C24*%
X66190000Y117460000D02*
X67110000Y117460000D01*
X67110000Y115640000D01*
X66190000Y115640000D01*
X66190000Y117460000D01*
%TO.C,C36*%
X31590000Y97120000D02*
X32510000Y97120000D01*
X32510000Y95300000D01*
X31590000Y95300000D01*
X31590000Y97120000D01*
%TO.C,C33*%
X25927500Y113871400D02*
X26847500Y113871400D01*
X26847500Y112051400D01*
X25927500Y112051400D01*
X25927500Y113871400D01*
%TO.C,R19*%
X15957500Y112805000D02*
X17817500Y112805000D01*
X17817500Y111865000D01*
X15957500Y111865000D01*
X15957500Y112805000D01*
%TO.C,C14*%
X19380000Y74920000D02*
X21680000Y74920000D01*
X21680000Y70320000D01*
X19380000Y70320000D01*
X19380000Y74920000D01*
%TO.C,J7*%
X35181100Y89733600D02*
X41261100Y89733600D01*
X35181100Y86193600D02*
X35181100Y89733600D01*
X41261100Y89733600D02*
X41261100Y86193600D01*
X41261100Y86193600D02*
X35181100Y86193600D01*
%TO.C,Q6*%
X85900000Y100410000D02*
X86930000Y100410000D01*
X85900000Y99300000D02*
X85900000Y100410000D01*
X85900000Y98520000D02*
X86930000Y98520000D01*
X85900000Y97410000D02*
X85900000Y98520000D01*
X86930000Y100610000D02*
X88730000Y100610000D01*
X86930000Y100410000D02*
X86930000Y100610000D01*
X86930000Y99300000D02*
X85900000Y99300000D01*
X86930000Y98520000D02*
X86930000Y99300000D01*
X86930000Y97410000D02*
X85900000Y97410000D01*
X86930000Y97210000D02*
X86930000Y97410000D01*
X88730000Y100610000D02*
X88730000Y99460000D01*
X88730000Y99460000D02*
X89760000Y99460000D01*
X88730000Y98360000D02*
X88730000Y97210000D01*
X88730000Y97210000D02*
X86930000Y97210000D01*
X89760000Y99460000D02*
X89760000Y98360000D01*
X89760000Y98360000D02*
X88730000Y98360000D01*
%TO.C,R23*%
X27617500Y113891400D02*
X28557500Y113891400D01*
X28557500Y112031400D01*
X27617500Y112031400D01*
X27617500Y113891400D01*
%TO.C,U4*%
X7090000Y76020000D02*
X7090000Y68820000D01*
X7090000Y76020000D02*
X16070000Y76020000D01*
X16070000Y68820000D02*
X7090000Y68820000D01*
X16070000Y68820000D02*
X16070000Y76020000D01*
%TO.C,J1*%
X14460000Y8429711D02*
X25100000Y8429711D01*
X25100000Y-510289D01*
X14460000Y-510289D01*
X14460000Y8429711D01*
%TO.C,TP9*%
X-1778244Y100463600D02*
G75*
G02*
X-4219556Y100463600I-1220656J0D01*
G01*
X-4219556Y100463600D02*
G75*
G02*
X-1778244Y100463600I1220656J0D01*
G01*
%TO.C,R29*%
X29930000Y97240000D02*
X30870000Y97240000D01*
X30870000Y95380000D01*
X29930000Y95380000D01*
X29930000Y97240000D01*
%TO.C,R24*%
X69815000Y86957500D02*
X70755000Y86957500D01*
X70755000Y85097500D01*
X69815000Y85097500D01*
X69815000Y86957500D01*
%TO.C,R5*%
X18730000Y12833311D02*
X19670000Y12833311D01*
X19670000Y10973311D01*
X18730000Y10973311D01*
X18730000Y12833311D01*
%TO.C,C7*%
X24020000Y69940000D02*
X26980000Y69940000D01*
X26980000Y68480000D01*
X24020000Y68480000D01*
X24020000Y69940000D01*
%TO.C,C9*%
X24390000Y80270000D02*
X26210000Y80270000D01*
X26210000Y79350000D01*
X24390000Y79350000D01*
X24390000Y80270000D01*
%TO.C,SW1*%
X41220639Y65745284D02*
X50520639Y65745284D01*
X41220639Y60745284D02*
X41220639Y65745284D01*
X50520639Y65745284D02*
X50520639Y60745284D01*
X50520639Y60745284D02*
X41220639Y60745284D01*
%TO.C,U7*%
X18937500Y114885000D02*
X19937500Y114885000D01*
X18937500Y111885000D02*
X18937500Y114885000D01*
X19937500Y115085000D02*
X22037500Y115085000D01*
X19937500Y114885000D02*
X19937500Y115085000D01*
X19937500Y111885000D02*
X18937500Y111885000D01*
X19937500Y111685000D02*
X19937500Y111885000D01*
X22037500Y115085000D02*
X22037500Y114885000D01*
X22037500Y114885000D02*
X23037500Y114885000D01*
X22037500Y113775000D02*
X22037500Y112995000D01*
X22037500Y112995000D02*
X23037500Y112995000D01*
X22037500Y111885000D02*
X22037500Y111685000D01*
X22037500Y111685000D02*
X19937500Y111685000D01*
X23037500Y114885000D02*
X23037500Y113775000D01*
X23037500Y113775000D02*
X22037500Y113775000D01*
X23037500Y112995000D02*
X23037500Y111885000D01*
X23037500Y111885000D02*
X22037500Y111885000D01*
%TO.C,R27*%
X32605000Y91115000D02*
X33545000Y91115000D01*
X33545000Y89255000D01*
X32605000Y89255000D01*
X32605000Y91115000D01*
%TO.C,D9*%
X59972500Y85860000D02*
X64672500Y85860000D01*
X59972500Y83560000D02*
X59972500Y85860000D01*
X64672500Y83560000D02*
X59972500Y83560000D01*
X64672500Y83560000D02*
X64672500Y85860000D01*
%TO.C,R38*%
X5310000Y111600000D02*
X6250000Y111600000D01*
X6250000Y109740000D01*
X5310000Y109740000D01*
X5310000Y111600000D01*
%TO.C,R11*%
X40336233Y32427434D02*
X42196233Y32427434D01*
X42196233Y31487434D01*
X40336233Y31487434D01*
X40336233Y32427434D01*
%TO.C,TP8*%
X6571756Y102713600D02*
G75*
G02*
X4130444Y102713600I-1220656J0D01*
G01*
X4130444Y102713600D02*
G75*
G02*
X6571756Y102713600I1220656J0D01*
G01*
%TO.C,R18*%
X71925000Y86957500D02*
X72865000Y86957500D01*
X72865000Y85097500D01*
X71925000Y85097500D01*
X71925000Y86957500D01*
%TO.C,R30*%
X33280000Y97190000D02*
X34220000Y97190000D01*
X34220000Y95330000D01*
X33280000Y95330000D01*
X33280000Y97190000D01*
%TO.C,C2*%
X22530000Y16579711D02*
X24350000Y16579711D01*
X24350000Y15659711D01*
X22530000Y15659711D01*
X22530000Y16579711D01*
%TO.C,U3*%
X51582500Y118507500D02*
X52582500Y118507500D01*
X51582500Y115507500D02*
X51582500Y118507500D01*
X52582500Y118707500D02*
X54682500Y118707500D01*
X52582500Y118507500D02*
X52582500Y118707500D01*
X52582500Y115507500D02*
X51582500Y115507500D01*
X52582500Y115307500D02*
X52582500Y115507500D01*
X54682500Y118707500D02*
X54682500Y118507500D01*
X54682500Y118507500D02*
X55682500Y118507500D01*
X54682500Y117397500D02*
X54682500Y116617500D01*
X54682500Y116617500D02*
X55682500Y116617500D01*
X54682500Y115507500D02*
X54682500Y115307500D01*
X54682500Y115307500D02*
X52582500Y115307500D01*
X55682500Y118507500D02*
X55682500Y117397500D01*
X55682500Y117397500D02*
X54682500Y117397500D01*
X55682500Y116617500D02*
X55682500Y115507500D01*
X55682500Y115507500D02*
X54682500Y115507500D01*
%TO.C,R43*%
X42770000Y70902500D02*
X43710000Y70902500D01*
X43710000Y69042500D01*
X42770000Y69042500D01*
X42770000Y70902500D01*
%TO.C,SW6*%
X67018295Y66083183D02*
X76318295Y66083183D01*
X67018295Y61083183D02*
X67018295Y66083183D01*
X76318295Y66083183D02*
X76318295Y61083183D01*
X76318295Y61083183D02*
X67018295Y61083183D01*
%TO.C,TP2*%
X76421756Y86338600D02*
G75*
G02*
X73980444Y86338600I-1220656J0D01*
G01*
X73980444Y86338600D02*
G75*
G02*
X76421756Y86338600I1220656J0D01*
G01*
%TO.C,C21*%
X65620000Y100530000D02*
X66540000Y100530000D01*
X66540000Y98710000D01*
X65620000Y98710000D01*
X65620000Y100530000D01*
%TO.C,R15*%
X81390000Y112610000D02*
X82330000Y112610000D01*
X82330000Y110750000D01*
X81390000Y110750000D01*
X81390000Y112610000D01*
%TO.C,R46*%
X83150000Y100300000D02*
X85010000Y100300000D01*
X85010000Y99360000D01*
X83150000Y99360000D01*
X83150000Y100300000D01*
%TO.C,J3*%
X42069050Y90573857D02*
X42069050Y84483857D01*
X42069050Y84483857D02*
X50689050Y84483857D01*
X50689050Y90573857D02*
X42069050Y90573857D01*
X50689050Y84483857D02*
X50689050Y90573857D01*
%TO.C,D6*%
X7850000Y80500000D02*
X10810000Y80500000D01*
X10810000Y79040000D01*
X7850000Y79040000D01*
X7850000Y80500000D01*
%TO.C,U9*%
X86097500Y87922500D02*
X86297500Y87922500D01*
X86097500Y85822500D02*
X86097500Y87922500D01*
X86297500Y88922500D02*
X89297500Y88922500D01*
X86297500Y87922500D02*
X86297500Y88922500D01*
X86297500Y85822500D02*
X86097500Y85822500D01*
X86297500Y84822500D02*
X86297500Y85822500D01*
X87407500Y85822500D02*
X87407500Y84822500D01*
X87407500Y84822500D02*
X86297500Y84822500D01*
X88187500Y85822500D02*
X87407500Y85822500D01*
X88187500Y84822500D02*
X88187500Y85822500D01*
X89297500Y88922500D02*
X89297500Y87922500D01*
X89297500Y87922500D02*
X89497500Y87922500D01*
X89297500Y85822500D02*
X89297500Y84822500D01*
X89297500Y84822500D02*
X88187500Y84822500D01*
X89497500Y87922500D02*
X89497500Y85822500D01*
X89497500Y85822500D02*
X89297500Y85822500D01*
%TO.C,C15*%
X13770000Y68330000D02*
X15590000Y68330000D01*
X15590000Y67410000D01*
X13770000Y67410000D01*
X13770000Y68330000D01*
%TO.C,TP1*%
X36881100Y132930000D02*
X40421100Y132930000D01*
X40421100Y129390000D01*
X36881100Y129390000D01*
X36881100Y132930000D01*
%TO.C,TP6*%
X68921756Y125638600D02*
G75*
G02*
X66480444Y125638600I-1220656J0D01*
G01*
X66480444Y125638600D02*
G75*
G02*
X68921756Y125638600I1220656J0D01*
G01*
%TO.C,D7*%
X70581995Y7555683D02*
X73541995Y7555683D01*
X73541995Y6095683D01*
X70581995Y6095683D01*
X70581995Y7555683D01*
%TO.C,D11*%
X83980000Y103550000D02*
X83980000Y108250000D01*
X86280000Y108250000D02*
X83980000Y108250000D01*
X86280000Y108250000D02*
X86280000Y103550000D01*
X86280000Y103550000D02*
X83980000Y103550000D01*
%TO.C,SW8*%
X67018295Y28788183D02*
X76318295Y28788183D01*
X67018295Y23788183D02*
X67018295Y28788183D01*
X76318295Y28788183D02*
X76318295Y23788183D01*
X76318295Y23788183D02*
X67018295Y23788183D01*
%TO.C,OSC1*%
X61929980Y118502500D02*
X65730020Y118502500D01*
X61929980Y115402490D02*
X61929980Y118502500D01*
X61929980Y115402490D02*
X65730020Y115402490D01*
X65730020Y115402490D02*
X65730020Y118502500D01*
%TO.C,R4*%
X20080000Y12833311D02*
X21020000Y12833311D01*
X21020000Y10973311D01*
X20080000Y10973311D01*
X20080000Y12833311D01*
%TO.C,C11*%
X49002500Y118370000D02*
X50462500Y118370000D01*
X50462500Y115410000D01*
X49002500Y115410000D01*
X49002500Y118370000D01*
%TO.C,J2*%
X38221100Y123785000D02*
X46841100Y123785000D01*
X46841100Y117695000D01*
X38221100Y117695000D01*
X38221100Y123785000D01*
%TO.C,C1*%
X25780000Y31029711D02*
X26700000Y31029711D01*
X26700000Y29209711D01*
X25780000Y29209711D01*
X25780000Y31029711D01*
%TO.C,C20*%
X64120000Y100530000D02*
X65040000Y100530000D01*
X65040000Y98710000D01*
X64120000Y98710000D01*
X64120000Y100530000D01*
%TO.C,TP12*%
X39496756Y108413600D02*
G75*
G02*
X37055444Y108413600I-1220656J0D01*
G01*
X37055444Y108413600D02*
G75*
G02*
X39496756Y108413600I1220656J0D01*
G01*
%TO.C,C17*%
X66180000Y110650000D02*
X68000000Y110650000D01*
X68000000Y109730000D01*
X66180000Y109730000D01*
X66180000Y110650000D01*
%TO.C,C30*%
X20627500Y116595000D02*
X22447500Y116595000D01*
X22447500Y115675000D01*
X20627500Y115675000D01*
X20627500Y116595000D01*
%TO.C,U2*%
X23982500Y75410000D02*
X24182500Y75410000D01*
X23982500Y73310000D02*
X23982500Y75410000D01*
X24182500Y76410000D02*
X25292500Y76410000D01*
X24182500Y75410000D02*
X24182500Y76410000D01*
X24182500Y73310000D02*
X23982500Y73310000D01*
X24182500Y72310000D02*
X24182500Y73310000D01*
X25292500Y76410000D02*
X25292500Y75410000D01*
X25292500Y75410000D02*
X26072500Y75410000D01*
X26072500Y76410000D02*
X27182500Y76410000D01*
X26072500Y75410000D02*
X26072500Y76410000D01*
X27182500Y76410000D02*
X27182500Y75410000D01*
X27182500Y75410000D02*
X27382500Y75410000D01*
X27182500Y73310000D02*
X27182500Y72310000D01*
X27182500Y72310000D02*
X24182500Y72310000D01*
X27382500Y75410000D02*
X27382500Y73310000D01*
X27382500Y73310000D02*
X27182500Y73310000D01*
%TO.C,C18*%
X52970000Y107380000D02*
X54790000Y107380000D01*
X54790000Y106460000D01*
X52970000Y106460000D01*
X52970000Y107380000D01*
%TO.C,R47*%
X88080000Y95560000D02*
X89540000Y95560000D01*
X89540000Y92600000D01*
X88080000Y92600000D01*
X88080000Y95560000D01*
%TO.C,C13*%
X58772500Y118350000D02*
X59692500Y118350000D01*
X59692500Y116530000D01*
X58772500Y116530000D01*
X58772500Y118350000D01*
%TO.C,R16*%
X63370000Y7290000D02*
X65230000Y7290000D01*
X65230000Y6350000D01*
X63370000Y6350000D01*
X63370000Y7290000D01*
%TO.C,SW4*%
X67018295Y47403183D02*
X76318295Y47403183D01*
X67018295Y42403183D02*
X67018295Y47403183D01*
X76318295Y47403183D02*
X76318295Y42403183D01*
X76318295Y42403183D02*
X67018295Y42403183D01*
%TO.C,D4*%
X44040033Y29512434D02*
X47000033Y29512434D01*
X47000033Y28052434D01*
X44040033Y28052434D01*
X44040033Y29512434D01*
%TO.C,C28*%
X68320000Y117530000D02*
X69240000Y117530000D01*
X69240000Y115710000D01*
X68320000Y115710000D01*
X68320000Y117530000D01*
%TO.C,J4*%
X42130000Y8469711D02*
X50750000Y8469711D01*
X50750000Y-6390289D01*
X42130000Y-6390289D01*
X42130000Y8469711D01*
%TO.C,U5*%
X56390000Y111558900D02*
X56770000Y111558900D01*
X56390000Y105798900D02*
X56390000Y111558900D01*
X56770000Y112428900D02*
X57640000Y112428900D01*
X56770000Y111558900D02*
X56770000Y112428900D01*
X56770000Y105798900D02*
X56390000Y105798900D01*
X56770000Y104928900D02*
X56770000Y105798900D01*
X57640000Y112808900D02*
X63400000Y112808900D01*
X57640000Y112428900D02*
X57640000Y112808900D01*
X57640000Y104928900D02*
X56770000Y104928900D01*
X57640000Y104548900D02*
X57640000Y104928900D01*
X63400000Y112808900D02*
X63400000Y112428900D01*
X63400000Y112428900D02*
X64270000Y112428900D01*
X63400000Y104928900D02*
X63400000Y104548900D01*
X63400000Y104548900D02*
X57640000Y104548900D01*
X64270000Y112428900D02*
X64270000Y111558900D01*
X64270000Y111558900D02*
X64650000Y111558900D01*
X64270000Y105798900D02*
X64270000Y104928900D01*
X64270000Y104928900D02*
X63400000Y104928900D01*
X64650000Y111558900D02*
X64650000Y105798900D01*
X64650000Y105798900D02*
X64270000Y105798900D01*
%TO.C,R2*%
X16670000Y23299711D02*
X17610000Y23299711D01*
X17610000Y21439711D01*
X16670000Y21439711D01*
X16670000Y23299711D01*
%TO.C,J5*%
X72710000Y132155000D02*
X86410000Y132155000D01*
X72710000Y128615000D02*
X72710000Y132155000D01*
X86410000Y132155000D02*
X86410000Y128615000D01*
X86410000Y128615000D02*
X72710000Y128615000D01*
%TO.C,R45*%
X95720000Y112487500D02*
X97580000Y112487500D01*
X97580000Y111547500D01*
X95720000Y111547500D01*
X95720000Y112487500D01*
%TO.C,R13*%
X82110000Y118930000D02*
X83050000Y118930000D01*
X83050000Y117070000D01*
X82110000Y117070000D01*
X82110000Y118930000D01*
%TO.C,R10*%
X40336233Y35633434D02*
X42196233Y35633434D01*
X42196233Y34693434D01*
X40336233Y34693434D01*
X40336233Y35633434D01*
%TO.C,R36*%
X83100000Y88690000D02*
X84960000Y88690000D01*
X84960000Y87750000D01*
X83100000Y87750000D01*
X83100000Y88690000D01*
%TO.C,C22*%
X65420000Y104630000D02*
X66340000Y104630000D01*
X66340000Y102810000D01*
X65420000Y102810000D01*
X65420000Y104630000D01*
%TO.C,D8*%
X80544495Y7630683D02*
X83504495Y7630683D01*
X83504495Y6170683D01*
X80544495Y6170683D01*
X80544495Y7630683D01*
%TO.C,C19*%
X60541100Y102352500D02*
X61461100Y102352500D01*
X61461100Y100532500D01*
X60541100Y100532500D01*
X60541100Y102352500D01*
%TO.C,Q4*%
X55070000Y86210000D02*
X56100000Y86210000D01*
X55070000Y85100000D02*
X55070000Y86210000D01*
X55070000Y84320000D02*
X56100000Y84320000D01*
X55070000Y83210000D02*
X55070000Y84320000D01*
X56100000Y86410000D02*
X57900000Y86410000D01*
X56100000Y86210000D02*
X56100000Y86410000D01*
X56100000Y85100000D02*
X55070000Y85100000D01*
X56100000Y84320000D02*
X56100000Y85100000D01*
X56100000Y83210000D02*
X55070000Y83210000D01*
X56100000Y83010000D02*
X56100000Y83210000D01*
X57900000Y86410000D02*
X57900000Y85260000D01*
X57900000Y85260000D02*
X58930000Y85260000D01*
X57900000Y84160000D02*
X57900000Y83010000D01*
X57900000Y83010000D02*
X56100000Y83010000D01*
X58930000Y85260000D02*
X58930000Y84160000D01*
X58930000Y84160000D02*
X57900000Y84160000D01*
%TO.C,L1*%
X13210000Y18210000D02*
X15110000Y18210000D01*
X15110000Y14850000D01*
X13210000Y14850000D01*
X13210000Y18210000D01*
%TO.C,C10*%
X47122500Y117550000D02*
X48042500Y117550000D01*
X48042500Y115730000D01*
X47122500Y115730000D01*
X47122500Y117550000D01*
%TO.C,R17*%
X63340000Y8720000D02*
X65200000Y8720000D01*
X65200000Y7780000D01*
X63340000Y7780000D01*
X63340000Y8720000D01*
%TO.C,R31*%
X10360000Y99750000D02*
X11300000Y99750000D01*
X11300000Y97890000D01*
X10360000Y97890000D01*
X10360000Y99750000D01*
%TO.C,C37*%
X34990000Y97170000D02*
X35910000Y97170000D01*
X35910000Y95350000D01*
X34990000Y95350000D01*
X34990000Y97170000D01*
%TO.C,R33*%
X80500000Y88690000D02*
X82400000Y88690000D01*
X82400000Y85330000D01*
X80500000Y85330000D01*
X80500000Y88690000D01*
%TO.C,D3*%
X44040033Y32687434D02*
X47000033Y32687434D01*
X47000033Y31227434D01*
X44040033Y31227434D01*
X44040033Y32687434D01*
%TO.C,C3*%
X16680000Y26029711D02*
X17600000Y26029711D01*
X17600000Y24209711D01*
X16680000Y24209711D01*
X16680000Y26029711D01*
%TD*%
D11*
X-5000000Y129360000D02*
X0Y134360000D01*
X-5000000Y106760000D02*
X-5000000Y129360000D01*
X-5000000Y100760000D02*
X-4720000Y101040000D01*
X-5000000Y98560000D02*
X-5000000Y100760000D01*
X-4720000Y106480000D02*
X-5000000Y106760000D01*
X-4720000Y101040000D02*
X-4720000Y106480000D01*
X-3600000Y97160000D02*
X-5000000Y98560000D01*
X-3600000Y87960000D02*
X-3600000Y97160000D01*
X0Y134360000D02*
X36000000Y134360000D01*
X0Y84360000D02*
X-3600000Y87960000D01*
X0Y84360000D02*
X0Y0D01*
X36000000Y134360000D02*
X62000000Y134360000D01*
X62000000Y134360000D02*
X98000000Y134360000D01*
X98000000Y134360000D02*
X103000000Y129360000D01*
X98000000Y84410000D02*
X98000000Y0D01*
X98000000Y0D02*
X0Y0D01*
X103000000Y129360000D02*
X103000000Y89410000D01*
X103000000Y89410000D02*
X98000000Y84410000D01*
M02*
