M48
; DRILL file KiCad 10.0.1 date 2026-05-15T15:57:58
; FORMAT={-:-/ absolute / inch / decimal}
; #@! TF.CreationDate,2026-05-15T15:57:58+01:00
; #@! TF.GenerationSoftware,Kicad,Pcbnew,10.0.1
; #@! TF.FileFunction,Plated,1,4,PTH
FMAT,2
INCH
; #@! TA.AperFunction,Plated,PTH,ViaDrill
T1C0.0079
; #@! TA.AperFunction,Plated,PTH,ComponentDrill
T2C0.0236
; #@! TA.AperFunction,Plated,PTH,ComponentDrill
T3C0.0394
; #@! TA.AperFunction,Plated,PTH,ComponentDrill
T4C0.0689
%
G90
G05
T1
X-0.0933Y4.9311
X-0.0921Y4.2083
X-0.0913Y4.5945
X-0.0902Y3.8843
X-0.0843Y4.0224
X-0.0717Y4.4693
X-0.0535Y3.5094
X0.1047Y2.1091
X0.1063Y2.8709
X0.1063Y2.4469
X0.1126Y3.2291
X0.1157Y1.7776
X0.1189Y1.2685
X0.122Y0.835
X0.1252Y0.4142
X0.1362Y5.2291
X0.2866Y4.4181
X0.3219Y4.3354
X0.3264Y0.6555
X0.3319Y2.9437
X0.3319Y2.7587
X0.3344Y3.0854
X0.3524Y3.8339
X0.3577Y3.276
X0.3587Y0.0606
X0.3854Y4.1516
X0.3988Y2.8512
X0.4106Y4.8067
X0.4264Y3.9366
X0.4732Y1.5811
X0.4898Y2.474
X0.4945Y1.0744
X0.5091Y2.8512
X0.535Y3.4972
X0.5567Y0.5283
X0.5598Y0.3431
X0.5685Y4.2177
X0.5748Y2.9953
X0.5933Y0.7398
X0.5961Y2.6392
X0.5976Y5.2213
X0.6004Y4.6217
X0.6039Y2.5654
X0.6252Y1.9646
X0.6291Y1.3768
X0.6406Y4.0449
X0.6409Y0.3709
X0.6428Y4.524
X0.6701Y0.4898
X0.7043Y0.861
X0.7067Y1.011
X0.7197Y2.9496
X0.7251Y4.4642
X0.7252Y0.2338
X0.7358Y2.8685
X0.7453Y0.6346
X0.7488Y0.2024
X0.7908Y0.2338
X0.7917Y4.572
X0.8083Y2.739
X0.8354Y0.2004
X0.8535Y3.2299
X0.8539Y0.7055
X0.8555Y0.9866
X0.8697Y0.6343
X0.8732Y2.9161
X0.8776Y0.859
X0.8902Y3.6362
X0.8917Y4.2272
X0.8933Y3.8969
X0.8941Y3.2929
X0.8984Y0.4878
X0.9047Y3.2343
X0.9063Y0.348
X0.9091Y3.135
X0.9142Y1.689
X0.9157Y2.6646
X0.9193Y4.5703
X0.9217Y3.0862
X0.922Y1.2272
X0.9268Y2.1933
X0.9386Y4.8094
X0.9452Y0.676
X0.9496Y3.1898
X0.9543Y1.1169
X0.9764Y3.7681
X0.9949Y3.2327
X0.9953Y1.1642
X1.0043Y1.5028
X1.0067Y0.9579
X1.0111Y2.8272
X1.0138Y4.9118
X1.0154Y4.4004
X1.0197Y3.6106
X1.0224Y2.4102
X1.0256Y3.6417
X1.0291Y3.178
X1.0327Y1.2409
X1.0344Y2.7683
X1.0394Y3.5752
X1.0449Y0.6838
X1.063Y4.1618
X1.0744Y3.1394
X1.0751Y3.0985
X1.0768Y3.2252
X1.0783Y5.2256
X1.0787Y4.5693
X1.0866Y0.0567
X1.0879Y3.8141
X1.1004Y3.2858
X1.1004Y2.8823
X1.1067Y4.5343
X1.1079Y1.9488
X1.1236Y2.672
X1.1291Y3.2094
X1.1378Y4.4701
X1.1382Y3.4787
X1.1425Y4.4272
X1.1484Y4.3874
X1.2016Y1.1232
X1.2031Y4.3762
X1.2031Y1.0783
X1.2161Y4.4469
X1.2244Y1.05
X1.2387Y4.4222
X1.2594Y2.6717
X1.2598Y3.7366
X1.3016Y3.0197
X1.3126Y2.2331
X1.3268Y1.3047
X1.3457Y0.4988
X1.3622Y3.8075
X1.389Y1.7214
X1.437Y4.5224
X1.437Y3.7701
X1.4382Y0.8504
X1.4675Y2.8308
X1.5547Y0.0535
X1.5606Y1.134
X1.5684Y1.384
X1.5705Y1.2582
X1.5881Y2.2326
X1.6055Y3.3827
X1.6331Y3.2134
X1.6358Y2.9516
X1.6398Y3.5382
X1.6606Y2.613
X1.7236Y0.628
X1.7276Y2.0323
X1.7354Y2.7748
X1.7413Y4.5445
X1.8283Y3.1606
X1.8339Y4.613
X1.8402Y1.4339
X1.8402Y1.0795
X1.8496Y2.1846
X1.8614Y4.7331
X1.8783Y0.4398
X1.8917Y2.6654
X1.9146Y4.6346
X1.9224Y4.1898
X2.011Y2.4299
X2.0138Y0.0551
X2.0146Y5.228
X2.0189Y3.5146
X2.074Y4.2075
X2.1127Y4.0731
X2.1322Y4.3108
X2.1417Y4.1618
X2.1464Y4.3344
X2.1477Y4.2848
X2.1646Y3.6169
X2.1685Y4.1189
X2.1803Y4.2626
X2.1909Y2.7636
X2.2Y1.7204
X2.2055Y4.5445
X2.2132Y3.2382
X2.2146Y3.515
X2.2287Y1.4736
X2.2346Y2.215
X2.2346Y1.8693
X2.2368Y4.0402
X2.2469Y1.3492
X2.248Y4.5167
X2.2571Y1.2244
X2.2589Y4.0631
X2.2602Y4.126
X2.2866Y4.0756
X2.2906Y4.5154
X2.3071Y4.3587
X2.3235Y4.5406
X2.3236Y3.9933
X2.3386Y4.2209
X2.3467Y4.4846
X2.352Y2.6941
X2.352Y1.3571
X2.3567Y0.9472
X2.3571Y1.8673
X2.3587Y3.6291
X2.3591Y2.2126
X2.3594Y3.0264
X2.3598Y4.0528
X2.3602Y4.0159
X2.3602Y2.5717
X2.3606Y3.5571
X2.3606Y3.1213
X2.3646Y2.7819
X2.365Y3.9748
X2.3673Y4.6071
X2.3732Y4.5461
X2.3755Y4.2787
X2.3949Y4.6425
X2.3965Y4.0535
X2.4002Y4.085
X2.4469Y0.2902
X2.4488Y4.4768
X2.4508Y4.211
X2.4567Y4.3547
X2.4598Y1.8374
X2.4638Y4.0047
X2.4713Y3.1929
X2.4744Y4.8429
X2.4768Y2.7713
X2.4776Y2.9913
X2.4811Y2.6744
X2.4811Y1.5638
X2.4839Y0.4197
X2.4874Y3.2272
X2.4886Y0.8339
X2.4925Y2.0413
X2.4933Y2.3669
X2.5044Y4.7642
X2.5044Y4.4917
X2.5093Y2.5498
X2.5094Y3.939
X2.511Y0.3669
X2.511Y0.2272
X2.5256Y4.4689
X2.5268Y3.9831
X2.5339Y4.1213
X2.5386Y1.7921
X2.5504Y4.063
X2.5551Y4.711
X2.5551Y4.4921
X2.5622Y1.8276
X2.5632Y3.9767
X2.5709Y4.4039
X2.5787Y4.3685
X2.5874Y1.2346
X2.5906Y3.7516
X2.5917Y4.1346
X2.5917Y3.3937
X2.5921Y3.6217
X2.5921Y2.5622
X2.5925Y3.5657
X2.5948Y2.7536
X2.5957Y4.2783
X2.5965Y4.3114
X2.6004Y3.3127
X2.6008Y2.7874
X2.6016Y1.0945
X2.6047Y2.2193
X2.607Y2.4442
X2.6134Y0.9759
X2.6173Y1.7088
X2.6181Y4.6421
X2.6213Y4.198
X2.6232Y2.613
X2.6272Y3.3354
X2.6343Y4.3047
X2.6496Y4.5693
X2.6579Y0.0504
X2.6598Y4.3772
X2.6724Y3.9024
X2.6799Y1.1591
X2.6843Y4.3039
X2.6843Y4.1071
X2.6921Y4.1685
X2.6988Y3.0657
X2.7008Y3.5713
X2.7079Y4.5461
X2.7094Y2.6484
X2.7138Y4.2724
X2.7276Y2.7409
X2.7283Y3.3665
X2.737Y3.6409
X2.7394Y4.611
X2.7551Y4.3394
X2.7614Y1.4063
X2.7661Y0.6264
X2.8098Y3.4551
X2.813Y3.9106
X2.8157Y2.1839
X2.8191Y0.9759
X2.8602Y4.5181
X2.8618Y5.1327
X2.8673Y0.3094
X2.8884Y3.7484
X2.8917Y3.8783
X2.9925Y2.9713
X3.0768Y5.2291
X3.1587Y3.4642
X3.1732Y4.0831
X3.1742Y4.417
X3.1874Y0.7547
X3.2077Y4.6244
X3.2118Y0.9779
X3.2165Y3.0264
X3.2228Y1.8866
X3.2236Y4.3413
X3.2248Y2.2177
X3.2276Y2.985
X3.2276Y1.5339
X3.2283Y3.9713
X3.2299Y3.7819
X3.231Y3.503
X3.2311Y2.6457
X3.261Y4.5165
X3.263Y1.096
X3.2902Y4.0201
X3.2906Y4.2941
X3.2996Y2.6409
X3.3098Y3.2508
X3.3122Y3.3217
X3.3142Y3.6953
X3.3154Y2.8059
X3.3157Y1.1898
X3.3211Y0.2715
X3.3291Y3.5756
X3.3299Y3.8874
X3.3346Y1.9043
X3.3429Y2.3602
X3.3602Y4.1854
X3.3602Y2.6346
X3.3969Y4.1465
X3.4043Y4.8815
X3.4165Y1.8269
X3.4189Y2.5882
X3.4189Y2.4442
X3.4205Y1.7088
X3.4247Y0.9779
X3.4303Y4.3492
X3.4358Y1.922
X3.4409Y2.5626
X3.4566Y3.5201
X3.478Y0.0724
X3.4921Y3.2878
X3.4976Y3.7772
X3.5071Y1.5165
X3.7413Y4.3177
X3.7583Y5.2291
X3.772Y0.8717
X3.7772Y2.772
X3.7776Y1.2843
X3.7843Y3.2965
X3.7843Y1.7256
X3.7882Y2.424
X3.7882Y2.1406
X3.7886Y0.3602
X3.8252Y4.5039
X3.9791Y3.5425
X3.9831Y4.9791
X3.9846Y4.5768
X3.9846Y4.2055
T3
X1.4548Y3.4631
X1.5217Y5.1638
X1.5548Y3.4631
X1.5745Y4.8033
X1.5745Y4.7033
X1.6745Y4.8033
X1.6745Y4.7033
X1.7283Y0.2638
X1.7283Y0.1638
X1.7745Y4.8033
X1.7745Y4.7033
X1.8283Y0.2638
X1.8283Y0.1638
X1.8933Y5.1343
X1.9283Y0.2638
X1.9283Y0.1638
X1.9933Y5.1343
X2.0933Y5.1343
X2.1933Y5.1343
X2.2933Y5.1343
X2.9323Y5.1333
X3.0323Y5.1333
X3.1323Y5.1333
X3.2323Y5.1333
X3.3323Y5.1333
T4
X-0.1289Y4.5202
X-0.1181Y3.9553
X0.2107Y4.0438
X0.6772Y4.3125
X1.3091Y3.9996
X1.3593Y3.6757
X1.5069Y4.2683
X1.7259Y3.4958
X1.7259Y3.3958
X1.8259Y3.4958
X1.8259Y3.3958
X1.9259Y3.4958
X1.9259Y3.3958
X2.6654Y4.9464
X2.9528Y4.3923
X2.9607Y3.3992
X3.8465Y3.8371
T2
G00X0.6087Y0.2884
M15
G01X0.6087Y0.2451
M16
G05
G00X0.6087Y0.1179
M15
G01X0.6087Y0.0864
M16
G05
G00X0.9488Y0.2884
M15
G01X0.9488Y0.2451
M16
G05
G00X0.9488Y0.1179
M15
G01X0.9488Y0.0864
M16
G05
M30
